<svg width="311" height="140" viewBox="0 0 311 140" fill="none" xmlns="http://www.w3.org/2000/svg">
<path d="M48.3219 62.5214C34.1095 64.5579 24.3639 77.5917 26.1912 91.8474C28.0185 106.103 41.2157 115.878 55.4281 114.046L81.2135 110.38L77.5589 84.7196C75.5285 70.2602 62.3313 60.4849 48.3219 62.5214ZM64.5647 97.7534L53.3978 99.3826C47.3068 100.197 41.6218 95.9205 40.8097 89.8109C39.9975 83.7013 44.2613 77.999 50.3523 77.1844C56.4433 76.3698 62.1283 80.6465 62.9404 86.7561L64.5647 97.7534Z" fill="#020216"/>
<path d="M153.494 47.6539C139.281 49.6905 129.536 62.7243 131.363 76.98C133.393 91.2357 146.388 101.011 160.6 99.1781L186.182 95.5124L182.731 69.6485C180.7 55.5964 167.706 45.6174 153.494 47.6539ZM169.737 82.8859L158.57 84.5151C152.479 85.3297 146.794 81.053 145.982 74.9434C145.169 68.8339 149.433 63.1316 155.524 62.317C161.615 61.5023 167.3 65.7791 168.112 71.8886L169.737 82.8859Z" fill="#020216"/>
<path d="M111.262 90.0138C105.78 90.8284 100.705 86.959 99.8925 81.4603C99.0803 75.9617 102.938 70.8704 108.42 70.2594L123.647 68.0193L121.617 53.1526L105.577 55.3928C91.7711 57.4293 82.0255 70.2594 84.0558 84.1078C86.0861 97.9562 98.8773 107.732 112.684 105.695L128.723 103.455L126.49 87.5699L111.262 90.0138Z" fill="#020216"/>
<path d="M218.262 74.9438C212.171 75.7585 206.486 71.4817 205.673 65.3722L204.455 56.6151L217.246 54.7822L215.216 39.9155L202.425 41.7484L200.192 26.0671L184.152 28.3073L189.837 69.2416C191.867 83.09 204.658 92.8653 218.465 91.0324L229.428 89.4032L227.195 73.5183L218.262 74.9438Z" fill="#020216"/>
<path d="M247.296 35.4349C233.895 41.3408 228.007 57.0221 233.895 70.4632C239.783 83.9043 255.417 89.8102 268.817 83.9043C282.217 77.9983 288.105 62.3171 282.217 48.876C276.329 35.4349 260.696 29.5289 247.296 35.4349ZM262.726 70.2595C256.838 72.907 250.138 70.2595 247.499 64.3536C244.859 58.4476 247.499 51.7271 253.387 49.0796C259.275 46.4321 265.975 49.0796 268.614 54.9855C271.254 60.8915 268.614 67.612 262.726 70.2595Z" fill="#020216"/>
</svg>
