<?xml version="1.0" encoding="UTF-8"?>
<svg id="Laag_1" data-name="Laag 1" xmlns="http://www.w3.org/2000/svg" viewBox="0 0 240.94 46.91">
  <defs>
    <style>
      .cls-1 {
        fill: #4376fc;
        stroke-width: 0px;
      }
    </style>
  </defs>
  <g>
    <path class="cls-1" d="M20.59,4.69L4,14.27v19.16l16.59,9.58,16.59-9.58V14.27L20.59,4.69ZM32.96,30.99l-12.37,7.14-12.37-7.14v-14.28l12.37-7.14,12.37,7.14v14.28Z"/>
    <polygon class="cls-1" points="20.55 19.03 24.44 21.27 28.96 18.66 20.55 13.8 11.85 18.83 11.85 28.87 20.55 33.9 28.96 29.04 24.44 26.43 20.55 28.68 16.38 26.26 16.38 21.44 20.55 19.03"/>
  </g>
  <g>
    <path class="cls-1" d="M42.6,16.64c0-.39.07-.75.22-1.1s.35-.65.61-.9.56-.46.91-.61.71-.23,1.1-.23h10.75c.39,0,.75.08,1.1.23s.65.35.91.61.46.55.61.9.22.71.22,1.1v2.56h-2.83v-2.56h-10.75v14.15h10.75v-2.54h2.83v2.54c0,.39-.07.75-.22,1.1s-.35.65-.61.91-.56.46-.91.61-.71.22-1.1.22h-10.75c-.39,0-.75-.07-1.1-.22s-.65-.35-.91-.61-.46-.56-.61-.91-.22-.71-.22-1.1v-14.15Z"/>
    <path class="cls-1" d="M80.54,30.79c0,.39-.07.75-.22,1.1s-.35.65-.61.91-.56.46-.91.61-.71.22-1.1.22h-11.32c-.39,0-.75-.07-1.1-.22s-.65-.35-.91-.61-.46-.56-.61-.91-.22-.71-.22-1.1v-14.15c0-.39.07-.75.22-1.1s.35-.65.61-.9.56-.46.91-.61.71-.23,1.1-.23h11.32c.39,0,.75.08,1.1.23s.65.35.91.61.46.55.61.9.22.71.22,1.1v14.15ZM66.39,16.64v14.15h11.32v-14.15h-11.32Z"/>
    <path class="cls-1" d="M88.46,33.62h-2.83V13.8h2.83l11.91,15.37v-15.37h2.83v19.82h-2.83l-11.91-15.37v15.37Z"/>
    <path class="cls-1" d="M108.3,33.62V13.8h10.08c1.06,0,2.02.16,2.87.49s1.58.79,2.18,1.4,1.07,1.33,1.4,2.19.49,1.81.49,2.86v5.94c0,1.05-.16,2-.49,2.86s-.79,1.59-1.4,2.19-1.33,1.07-2.18,1.4-1.81.49-2.87.49h-10.08ZM118.37,30.79c1.32,0,2.33-.35,3.04-1.06s1.06-1.72,1.06-3.04v-5.94c0-.65-.09-1.22-.28-1.73s-.45-.94-.81-1.29-.79-.62-1.29-.81-1.08-.28-1.73-.28h-7.24v14.15h7.24Z"/>
    <path class="cls-1" d="M129.84,13.8h2.83v16.99h11.32V13.8h2.83v16.99c0,.39-.07.75-.22,1.1s-.35.65-.61.91-.56.46-.91.61-.71.22-1.1.22h-11.32c-.39,0-.75-.07-1.1-.22s-.65-.35-.91-.61-.46-.56-.61-.91-.22-.71-.22-1.1V13.8Z"/>
    <path class="cls-1" d="M151.92,16.64c0-.39.07-.75.22-1.1s.35-.65.61-.9.56-.46.91-.61.71-.23,1.1-.23h10.75c.39,0,.75.08,1.1.23s.65.35.91.61.46.55.61.9.22.71.22,1.1v2.56h-2.83v-2.56h-10.75v14.15h10.75v-2.54h2.83v2.54c0,.39-.07.75-.22,1.1s-.35.65-.61.91-.56.46-.91.61-.71.22-1.1.22h-10.75c-.39,0-.75-.07-1.1-.22s-.65-.35-.91-.61-.46-.56-.61-.91-.22-.71-.22-1.1v-14.15Z"/>
    <path class="cls-1" d="M171.17,13.8h15.85v2.83h-6.51v16.99h-2.83v-16.99h-6.51v-2.83Z"/>
    <path class="cls-1" d="M193.26,13.8v19.82h-2.83V13.8h2.83Z"/>
    <path class="cls-1" d="M215.33,30.79c0,.39-.07.75-.22,1.1s-.35.65-.61.91-.56.46-.91.61-.71.22-1.1.22h-11.32c-.39,0-.75-.07-1.1-.22s-.65-.35-.91-.61-.46-.56-.61-.91-.22-.71-.22-1.1v-14.15c0-.39.07-.75.22-1.1s.35-.65.61-.9.56-.46.91-.61.71-.23,1.1-.23h11.32c.39,0,.75.08,1.1.23s.65.35.91.61.46.55.61.9.22.71.22,1.1v14.15ZM201.18,16.64v14.15h11.32v-14.15h-11.32Z"/>
    <path class="cls-1" d="M223.25,33.62h-2.83V13.8h2.83l11.91,15.37v-15.37h2.83v19.82h-2.83l-11.91-15.37v15.37Z"/>
  </g>
</svg>