<svg width="189" height="62" viewBox="0 0 189 62" fill="none" xmlns="http://www.w3.org/2000/svg">
<path d="M52.0805 16.0212V2.32617H56.2281C57.4671 2.32617 58.6019 2.63268 59.6322 3.24569C60.6626 3.84567 61.4777 4.66737 62.0777 5.7108C62.6777 6.75423 62.9776 7.90852 62.9776 9.17368C62.9776 10.4388 62.6711 11.5997 62.0581 12.6561C61.4582 13.6996 60.643 14.5213 59.6127 15.1212C58.5823 15.7212 57.4541 16.0212 56.2281 16.0212H52.0805ZM56.2281 13.8496C57.0237 13.8496 57.7606 13.6474 58.4388 13.2431C59.1301 12.8257 59.6779 12.2648 60.0822 11.5605C60.4996 10.8432 60.7082 10.0476 60.7082 9.17368C60.7082 8.29981 60.4996 7.51071 60.0822 6.8064C59.6779 6.08904 59.1301 5.5282 58.4388 5.12387C57.7606 4.7065 57.0237 4.49781 56.2281 4.49781H54.35V13.8496H56.2281Z" fill="#3C115F"/>
<path d="M64.3647 16.0212V6.12165H65.9689L66.3602 7.21725H66.458C66.6667 6.91726 66.9863 6.6238 67.4167 6.33686C67.8471 6.03687 68.3427 5.88688 68.9035 5.88688C69.2296 5.88688 69.5035 5.91296 69.7252 5.96513V8.11721C69.4774 8.06504 69.1839 8.03895 68.8448 8.03895C68.1536 8.03895 67.5927 8.26068 67.1623 8.70414C66.7319 9.1476 66.5167 9.76061 66.5167 10.5432V16.0212H64.3647Z" fill="#3C115F"/>
<path d="M74.4721 16.256C73.7026 16.256 73.0178 16.0799 72.4179 15.7277C71.8179 15.3625 71.3484 14.8539 71.0093 14.2017C70.6701 13.5496 70.5006 12.7931 70.5006 11.9322V6.12165H72.6526V11.7757C72.6526 12.5061 72.8613 13.1061 73.2787 13.5757C73.7091 14.0322 74.2503 14.2604 74.9025 14.2604C75.5807 14.2604 76.135 14.0322 76.5654 13.5757C76.9958 13.1061 77.211 12.5061 77.211 11.7757V6.12165H79.3435V16.0212H77.7392L77.348 14.906H77.2501C77.0284 15.2191 76.6697 15.5256 76.1741 15.8255C75.6785 16.1125 75.1112 16.256 74.4721 16.256Z" fill="#3C115F"/>
<path d="M81.2646 19.5428V6.12165H82.8688L83.2601 7.21725H83.3579C83.5796 6.93031 83.9513 6.63684 84.4731 6.33686C85.0078 6.03687 85.6208 5.88688 86.3121 5.88688C87.1207 5.88688 87.8707 6.11513 88.5619 6.57163C89.2662 7.01509 89.827 7.63462 90.2444 8.43024C90.6618 9.21281 90.8705 10.0932 90.8705 11.0714C90.8705 12.0496 90.6618 12.9366 90.2444 13.7322C89.827 14.5147 89.2662 15.1343 88.5619 15.5908C87.8707 16.0342 87.1207 16.256 86.3121 16.256C85.8556 16.256 85.4252 16.1777 85.0208 16.0212C84.6296 15.8777 84.3035 15.7082 84.0426 15.5125C83.7818 15.3038 83.6057 15.1278 83.5144 14.9843H83.4166V19.5428H81.2646ZM86.0773 14.2604C86.5599 14.2604 87.0033 14.13 87.4076 13.8691C87.812 13.5952 88.1315 13.217 88.3663 12.7344C88.6141 12.2388 88.738 11.6844 88.738 11.0714C88.738 10.4584 88.6141 9.9106 88.3663 9.42802C88.1315 8.93239 87.812 8.55414 87.4076 8.29329C87.0033 8.01939 86.5599 7.88244 86.0773 7.88244C85.5947 7.88244 85.1513 8.01939 84.7469 8.29329C84.3426 8.55414 84.0166 8.93239 83.7687 9.42802C83.534 9.9106 83.4166 10.4584 83.4166 11.0714C83.4166 11.6844 83.534 12.2388 83.7687 12.7344C84.0166 13.217 84.3426 13.5952 84.7469 13.8691C85.1513 14.13 85.5947 14.2604 86.0773 14.2604Z" fill="#3C115F"/>
<path d="M95.9345 5.88688C97.1344 5.88688 98.093 6.2586 98.8104 7.00204C99.5277 7.73244 99.8864 8.70414 99.8864 9.91712V16.0212H98.2821L97.8909 14.906H97.793C97.5191 15.2582 97.1409 15.5712 96.6583 15.8451C96.1888 16.119 95.6019 16.256 94.8976 16.256C94.2715 16.256 93.7042 16.1255 93.1955 15.8647C92.6868 15.5908 92.289 15.2321 92.0021 14.7886C91.7152 14.3321 91.5717 13.8365 91.5717 13.3018C91.5717 12.6496 91.7608 12.0822 92.1391 11.5997C92.5303 11.104 93.0716 10.7258 93.7629 10.4649C94.4672 10.2041 95.2693 10.0736 96.1692 10.0736H97.7539V9.74105C97.7539 9.15412 97.5843 8.69109 97.2452 8.35198C96.9192 7.99982 96.4757 7.82374 95.9149 7.82374C95.4193 7.82374 95.0215 7.95417 94.7215 8.21503C94.4215 8.46284 94.2389 8.76935 94.1737 9.13455H92.0217C92.0869 8.56067 92.276 8.02591 92.589 7.53028C92.9151 7.03465 93.3651 6.63684 93.9389 6.33686C94.5128 6.03687 95.178 5.88688 95.9345 5.88688ZM95.3475 14.4365C96.0649 14.4365 96.6453 14.2213 97.0887 13.7909C97.5322 13.3604 97.7539 12.8453 97.7539 12.2453V11.6192H96.1888C95.3671 11.6192 94.7476 11.7562 94.3302 12.0301C93.9259 12.2909 93.7237 12.6561 93.7237 13.1257C93.7237 13.517 93.8607 13.8365 94.1346 14.0843C94.4215 14.3191 94.8258 14.4365 95.3475 14.4365Z" fill="#3C115F"/>
<path d="M103.949 16.0212H101.797V2.32617H103.949V16.0212Z" fill="#3C115F"/>
<path d="M55.5434 32.9834L58.1845 25.686H60.3756L56.5411 35.5855H54.4673L50.6328 25.686H52.9022L55.5434 32.9834Z" fill="#3C115F"/>
<path d="M65.2307 35.8203C64.3438 35.8203 63.5221 35.592 62.7657 35.1355C62.0222 34.666 61.4288 34.0334 60.9853 33.2378C60.5419 32.4422 60.3202 31.5748 60.3202 30.6357C60.3202 29.6836 60.5419 28.8162 60.9853 28.0337C61.4288 27.2381 62.0222 26.612 62.7657 26.1555C63.5221 25.686 64.3438 25.4512 65.2307 25.4512C66.1176 25.4512 66.9328 25.686 67.6762 26.1555C68.4327 26.612 69.0326 27.2381 69.4761 28.0337C69.9195 28.8162 70.1413 29.6836 70.1413 30.6357C70.1413 31.5748 69.9195 32.4422 69.4761 33.2378C69.0326 34.0334 68.4327 34.666 67.6762 35.1355C66.9328 35.592 66.1176 35.8203 65.2307 35.8203ZM65.2307 33.8247C65.7394 33.8247 66.2024 33.6878 66.6197 33.4139C67.0502 33.14 67.3893 32.7617 67.6371 32.2791C67.8849 31.7965 68.0088 31.2487 68.0088 30.6357C68.0088 30.0227 67.8849 29.4749 67.6371 28.9923C67.3893 28.5097 67.0502 28.1315 66.6197 27.8576C66.2024 27.5837 65.7394 27.4467 65.2307 27.4467C64.722 27.4467 64.2525 27.5837 63.8221 27.8576C63.4047 28.1315 63.0722 28.5097 62.8243 28.9923C62.5765 29.4749 62.4526 30.0227 62.4526 30.6357C62.4526 31.2487 62.5765 31.7965 62.8243 32.2791C63.0722 32.7617 63.4047 33.14 63.8221 33.4139C64.2525 33.6878 64.722 33.8247 65.2307 33.8247Z" fill="#3C115F"/>
<path d="M75.8396 35.8203C74.9527 35.8203 74.131 35.592 73.3745 35.1355C72.6311 34.666 72.0376 34.0334 71.5942 33.2378C71.1507 32.4422 70.929 31.5748 70.929 30.6357C70.929 29.6836 71.1507 28.8162 71.5942 28.0337C72.0376 27.2381 72.6311 26.612 73.3745 26.1555C74.131 25.686 74.9527 25.4512 75.8396 25.4512C76.7265 25.4512 77.5416 25.686 78.285 26.1555C79.0415 26.612 79.6415 27.2381 80.0849 28.0337C80.5284 28.8162 80.7501 29.6836 80.7501 30.6357C80.7501 31.5748 80.5284 32.4422 80.0849 33.2378C79.6415 34.0334 79.0415 34.666 78.285 35.1355C77.5416 35.592 76.7265 35.8203 75.8396 35.8203ZM75.8396 33.8247C76.3482 33.8247 76.8112 33.6878 77.2286 33.4139C77.659 33.14 77.9981 32.7617 78.2459 32.2791C78.4937 31.7965 78.6176 31.2487 78.6176 30.6357C78.6176 30.0227 78.4937 29.4749 78.2459 28.9923C77.9981 28.5097 77.659 28.1315 77.2286 27.8576C76.8112 27.5837 76.3482 27.4467 75.8396 27.4467C75.3309 27.4467 74.8614 27.5837 74.431 27.8576C74.0136 28.1315 73.681 28.5097 73.4332 28.9923C73.1854 29.4749 73.0615 30.0227 73.0615 30.6357C73.0615 31.2487 73.1854 31.7965 73.4332 32.2791C73.681 32.7617 74.0136 33.14 74.431 33.4139C74.8614 33.6878 75.3309 33.8247 75.8396 33.8247Z" fill="#3C115F"/>
<path d="M82.1052 35.5855V25.686H83.7094L84.1007 26.7816H84.1985C84.4072 26.4816 84.7268 26.1881 85.1572 25.9012C85.5876 25.6012 86.0832 25.4512 86.644 25.4512C86.9701 25.4512 87.244 25.4773 87.4657 25.5294V27.6815C87.2179 27.6293 86.9245 27.6033 86.5853 27.6033C85.8941 27.6033 85.3333 27.825 84.9028 28.2684C84.4724 28.7119 84.2572 29.3249 84.2572 30.1075V35.5855H82.1052Z" fill="#3C115F"/>
<path d="M98.3125 28.5619H104.28V35.5855H102.891L102.46 33.6291C102.017 34.2421 101.41 34.7638 100.641 35.1942C99.8711 35.6116 99.0103 35.8203 98.0582 35.8203C96.8844 35.8203 95.7888 35.5072 94.7715 34.8812C93.7672 34.2551 92.9651 33.4008 92.3651 32.3183C91.7651 31.2357 91.4652 30.0423 91.4652 28.738C91.4652 27.4337 91.7651 26.2403 92.3651 25.1577C92.9651 24.0752 93.7672 23.2209 94.7715 22.5948C95.7888 21.9687 96.8844 21.6557 98.0582 21.6557C99.0755 21.6557 100.008 21.8709 100.856 22.3013C101.717 22.7317 102.421 23.2991 102.969 24.0034C103.53 24.7077 103.895 25.4577 104.064 26.2533H101.736C101.475 25.5881 101.025 25.0208 100.386 24.5512C99.7603 24.0686 98.9842 23.8273 98.0582 23.8273C97.2887 23.8273 96.5714 24.0426 95.9062 24.473C95.254 24.8903 94.7258 25.4708 94.3215 26.2142C93.9302 26.9576 93.7346 27.7989 93.7346 28.738C93.7346 29.6771 93.9302 30.5183 94.3215 31.2618C94.7258 32.0052 95.254 32.5922 95.9062 33.0226C96.5714 33.4399 97.2887 33.6486 98.0582 33.6486C98.7886 33.6486 99.4342 33.4986 99.995 33.1987C100.556 32.8856 100.999 32.4878 101.325 32.0052C101.651 31.5226 101.854 31.027 101.932 30.5183H98.3125V28.5619Z" fill="#3C115F"/>
<path d="M115.271 30.4205C115.271 30.8379 115.232 31.19 115.153 31.477H107.817C107.947 32.2204 108.26 32.8074 108.756 33.2378C109.252 33.6682 109.852 33.8834 110.556 33.8834C111.065 33.8834 111.495 33.7856 111.847 33.5899C112.199 33.3943 112.48 33.1465 112.688 32.8465H114.919C114.723 33.3421 114.417 33.8182 113.999 34.2747C113.595 34.7312 113.093 35.1029 112.493 35.3899C111.906 35.6768 111.267 35.8203 110.575 35.8203C109.676 35.8203 108.847 35.592 108.091 35.1355C107.347 34.679 106.754 34.0595 106.311 33.2769C105.88 32.4813 105.665 31.6009 105.665 30.6357C105.665 29.6836 105.887 28.8162 106.33 28.0337C106.774 27.2381 107.367 26.612 108.11 26.1555C108.867 25.686 109.682 25.4512 110.556 25.4512C111.43 25.4512 112.225 25.6729 112.943 26.1164C113.66 26.5468 114.227 27.1402 114.645 27.8967C115.062 28.6532 115.271 29.4945 115.271 30.4205ZM110.556 27.3881C109.878 27.3881 109.284 27.6163 108.776 28.0728C108.267 28.5163 107.947 29.1097 107.817 29.8532H113.177C113.06 29.1228 112.76 28.5293 112.278 28.0728C111.795 27.6163 111.221 27.3881 110.556 27.3881Z" fill="#3C115F"/>
<path d="M126.786 25.4512C127.816 25.4512 128.651 25.8229 129.29 26.5664C129.929 27.2968 130.248 28.3076 130.248 29.5988V35.5855H128.096V29.6575C128.096 28.9662 127.927 28.425 127.588 28.0337C127.262 27.6424 126.838 27.4467 126.316 27.4467C125.794 27.4467 125.357 27.6489 125.005 28.0532C124.666 28.4576 124.497 28.9923 124.497 29.6575V35.5855H122.345V29.6575C122.345 28.9793 122.175 28.4445 121.836 28.0532C121.51 27.6489 121.086 27.4467 120.564 27.4467C120.043 27.4467 119.606 27.6489 119.253 28.0532C118.914 28.4576 118.745 28.9923 118.745 29.6575V35.5855H116.593V25.686H118.197L118.588 26.7816H118.686C118.882 26.4816 119.188 26.1881 119.606 25.9012C120.023 25.6012 120.519 25.4512 121.092 25.4512C121.784 25.4512 122.358 25.6142 122.814 25.9403C123.284 26.2533 123.636 26.6185 123.871 27.0359C124.157 26.6185 124.549 26.2533 125.044 25.9403C125.54 25.6142 126.12 25.4512 126.786 25.4512Z" fill="#3C115F"/>
<path d="M141.093 30.4205C141.093 30.8379 141.054 31.19 140.976 31.477H133.639C133.769 32.2204 134.082 32.8074 134.578 33.2378C135.074 33.6682 135.674 33.8834 136.378 33.8834C136.887 33.8834 137.317 33.7856 137.669 33.5899C138.021 33.3943 138.302 33.1465 138.51 32.8465H140.741C140.545 33.3421 140.239 33.8182 139.821 34.2747C139.417 34.7312 138.915 35.1029 138.315 35.3899C137.728 35.6768 137.089 35.8203 136.398 35.8203C135.498 35.8203 134.669 35.592 133.913 35.1355C133.169 34.679 132.576 34.0595 132.133 33.2769C131.702 32.4813 131.487 31.6009 131.487 30.6357C131.487 29.6836 131.709 28.8162 132.152 28.0337C132.596 27.2381 133.189 26.612 133.932 26.1555C134.689 25.686 135.504 25.4512 136.378 25.4512C137.252 25.4512 138.047 25.6729 138.765 26.1164C139.482 26.5468 140.049 27.1402 140.467 27.8967C140.884 28.6532 141.093 29.4945 141.093 30.4205ZM136.378 27.3881C135.7 27.3881 135.106 27.6163 134.598 28.0728C134.089 28.5163 133.769 29.1097 133.639 29.8532H139C138.882 29.1228 138.582 28.5293 138.1 28.0728C137.617 27.6163 137.043 27.3881 136.378 27.3881Z" fill="#3C115F"/>
<path d="M151.453 30.4205C151.453 30.8379 151.414 31.19 151.336 31.477H144C144.13 32.2204 144.443 32.8074 144.939 33.2378C145.434 33.6682 146.034 33.8834 146.738 33.8834C147.247 33.8834 147.678 33.7856 148.03 33.5899C148.382 33.3943 148.662 33.1465 148.871 32.8465H151.101C150.906 33.3421 150.599 33.8182 150.182 34.2747C149.777 34.7312 149.275 35.1029 148.675 35.3899C148.088 35.6768 147.449 35.8203 146.758 35.8203C145.858 35.8203 145.03 35.592 144.273 35.1355C143.53 34.679 142.937 34.0595 142.493 33.2769C142.063 32.4813 141.847 31.6009 141.847 30.6357C141.847 29.6836 142.069 28.8162 142.513 28.0337C142.956 27.2381 143.55 26.612 144.293 26.1555C145.049 25.686 145.865 25.4512 146.738 25.4512C147.612 25.4512 148.408 25.6729 149.125 26.1164C149.843 26.5468 150.41 27.1402 150.827 27.8967C151.245 28.6532 151.453 29.4945 151.453 30.4205ZM146.738 27.3881C146.06 27.3881 145.467 27.6163 144.958 28.0728C144.449 28.5163 144.13 29.1097 144 29.8532H149.36C149.243 29.1228 148.943 28.5293 148.46 28.0728C147.977 27.6163 147.404 27.3881 146.738 27.3881Z" fill="#3C115F"/>
<path d="M152.775 35.5855V25.686H154.38L154.771 26.7816H154.869C155.09 26.4816 155.443 26.1881 155.925 25.9012C156.421 25.6012 156.995 25.4512 157.647 25.4512C158.416 25.4512 159.101 25.6338 159.701 25.999C160.301 26.3511 160.77 26.8533 161.11 27.5054C161.449 28.1576 161.618 28.9141 161.618 29.7749V35.5855H159.486V29.9314C159.486 29.201 159.271 28.6076 158.84 28.1511C158.423 27.6815 157.881 27.4467 157.216 27.4467C156.538 27.4467 155.984 27.6815 155.553 28.1511C155.136 28.6076 154.927 29.201 154.927 29.9314V35.5855H152.775Z" fill="#3C115F"/>
<path d="M167.026 35.8203C166.1 35.8203 165.35 35.5138 164.776 34.9007C164.203 34.2877 163.916 33.4465 163.916 32.377V27.6228H162.292V25.8033H162.996C163.387 25.8033 163.681 25.7055 163.876 25.5099C164.085 25.3012 164.189 25.0077 164.189 24.6295V23.1426H166.048V25.686H168.2V27.6228H166.048V32.2009C166.048 32.7356 166.178 33.14 166.439 33.4139C166.7 33.6747 167.059 33.8051 167.515 33.8051C167.789 33.8051 168.017 33.7595 168.2 33.6682V35.6246C167.861 35.7551 167.47 35.8203 167.026 35.8203Z" fill="#3C115F"/>
<path d="M178.389 30.4205C178.389 30.8379 178.35 31.19 178.272 31.477H170.935C171.065 32.2204 171.379 32.8074 171.874 33.2378C172.37 33.6682 172.97 33.8834 173.674 33.8834C174.183 33.8834 174.613 33.7856 174.965 33.5899C175.317 33.3943 175.598 33.1465 175.806 32.8465H178.037C177.841 33.3421 177.535 33.8182 177.117 34.2747C176.713 34.7312 176.211 35.1029 175.611 35.3899C175.024 35.6768 174.385 35.8203 173.694 35.8203C172.794 35.8203 171.965 35.592 171.209 35.1355C170.466 34.679 169.872 34.0595 169.429 33.2769C168.998 32.4813 168.783 31.6009 168.783 30.6357C168.783 29.6836 169.005 28.8162 169.448 28.0337C169.892 27.2381 170.485 26.612 171.229 26.1555C171.985 25.686 172.8 25.4512 173.674 25.4512C174.548 25.4512 175.343 25.6729 176.061 26.1164C176.778 26.5468 177.345 27.1402 177.763 27.8967C178.18 28.6532 178.389 29.4945 178.389 30.4205ZM173.674 27.3881C172.996 27.3881 172.402 27.6163 171.894 28.0728C171.385 28.5163 171.065 29.1097 170.935 29.8532H176.296C176.178 29.1228 175.878 28.5293 175.396 28.0728C174.913 27.6163 174.339 27.3881 173.674 27.3881Z" fill="#3C115F"/>
<path d="M179.711 35.5855V25.686H181.315L181.706 26.7816H181.804C182.026 26.4816 182.378 26.1881 182.861 25.9012C183.356 25.6012 183.93 25.4512 184.582 25.4512C185.352 25.4512 186.037 25.6338 186.636 25.999C187.236 26.3511 187.706 26.8533 188.045 27.5054C188.384 28.1576 188.554 28.9141 188.554 29.7749V35.5855H186.421V29.9314C186.421 29.201 186.206 28.6076 185.776 28.1511C185.358 27.6815 184.817 27.4467 184.152 27.4467C183.474 27.4467 182.919 27.6815 182.489 28.1511C182.072 28.6076 181.863 29.201 181.863 29.9314V35.5855H179.711Z" fill="#3C115F"/>
<g opacity="0.8">
<path d="M51.7188 58.2992V48.5171H52.7748V49.6472H52.9044C52.9847 49.5237 53.0959 49.3662 53.2379 49.1748C53.383 48.9802 53.5899 48.8073 53.8586 48.656C54.1303 48.5016 54.4977 48.4244 54.9609 48.4244C55.5599 48.4244 56.0879 48.5742 56.5449 48.8737C57.0019 49.1732 57.3585 49.5978 57.6148 50.1474C57.8711 50.697 57.9992 51.3455 57.9992 52.0927C57.9992 52.8462 57.8711 53.4992 57.6148 54.0519C57.3585 54.6016 57.0034 55.0277 56.5495 55.3303C56.0956 55.6298 55.5723 55.7796 54.9794 55.7796C54.5224 55.7796 54.1565 55.7039 53.8817 55.5526C53.6069 55.3982 53.3954 55.2238 53.2472 55.0292C53.099 54.8316 52.9847 54.668 52.9044 54.5383H52.8118V58.2992H51.7188ZM52.7933 52.0742C52.7933 52.6115 52.872 53.0855 53.0295 53.4961C53.187 53.9037 53.417 54.2233 53.7196 54.4549C54.0222 54.6834 54.3927 54.7977 54.8312 54.7977C55.2882 54.7977 55.6695 54.6772 55.9752 54.4364C56.284 54.1924 56.5156 53.8651 56.6699 53.4545C56.8274 53.0407 56.9062 52.5806 56.9062 52.0742C56.9062 51.574 56.829 51.1232 56.6746 50.7218C56.5233 50.3172 56.2932 49.9977 55.9845 49.763C55.6788 49.5252 55.2944 49.4063 54.8312 49.4063C54.3866 49.4063 54.0129 49.5191 53.7103 49.7445C53.4077 49.9668 53.1793 50.2787 53.0249 50.6801C52.8705 51.0784 52.7933 51.5431 52.7933 52.0742Z" fill="#3C115F"/>
<path d="M62.4263 55.7796C61.784 55.7796 61.2205 55.6267 60.7358 55.321C60.2541 55.0153 59.8774 54.5877 59.6056 54.0381C59.337 53.4884 59.2027 52.8462 59.2027 52.1113C59.2027 51.3702 59.337 50.7233 59.6056 50.1706C59.8774 49.6179 60.2541 49.1887 60.7358 48.883C61.2205 48.5773 61.784 48.4244 62.4263 48.4244C63.0685 48.4244 63.6305 48.5773 64.1122 48.883C64.597 49.1887 64.9737 49.6179 65.2423 50.1706C65.514 50.7233 65.6499 51.3702 65.6499 52.1113C65.6499 52.8462 65.514 53.4884 65.2423 54.0381C64.9737 54.5877 64.597 55.0153 64.1122 55.321C63.6305 55.6267 63.0685 55.7796 62.4263 55.7796ZM62.4263 54.7977C62.9142 54.7977 63.3156 54.6726 63.6305 54.4225C63.9455 54.1724 64.1786 53.8435 64.3299 53.4359C64.4812 53.0283 64.5568 52.5868 64.5568 52.1113C64.5568 51.6357 64.4812 51.1926 64.3299 50.782C64.1786 50.3713 63.9455 50.0393 63.6305 49.7861C63.3156 49.5329 62.9142 49.4063 62.4263 49.4063C61.9384 49.4063 61.537 49.5329 61.2221 49.7861C60.9071 50.0393 60.674 50.3713 60.5227 50.782C60.3714 51.1926 60.2958 51.6357 60.2958 52.1113C60.2958 52.5868 60.3714 53.0283 60.5227 53.4359C60.674 53.8435 60.9071 54.1724 61.2221 54.4225C61.537 54.6726 61.9384 54.7977 62.4263 54.7977Z" fill="#3C115F"/>
<path d="M68.5578 55.6314L66.3902 48.5171H67.5388L69.0765 53.9639H69.1507L70.6698 48.5171H71.837L73.3376 53.9454H73.4117L74.9494 48.5171H76.0981L73.9305 55.6314H72.8559L71.2997 50.1659H71.1886L69.6323 55.6314H68.5578Z" fill="#3C115F"/>
<path d="M80.1535 55.7796C79.468 55.7796 78.8767 55.6283 78.3796 55.3257C77.8855 55.02 77.5042 54.5939 77.2355 54.0473C76.97 53.4977 76.8372 52.8585 76.8372 52.1298C76.8372 51.4011 76.97 50.7588 77.2355 50.203C77.5042 49.6441 77.8778 49.2087 78.3564 48.8969C78.8381 48.5819 79.4 48.4244 80.0423 48.4244C80.4128 48.4244 80.7787 48.4862 81.14 48.6097C81.5013 48.7332 81.8301 48.9339 82.1265 49.2118C82.4229 49.4866 82.6592 49.851 82.8352 50.3049C83.0112 50.7588 83.0992 51.3177 83.0992 51.9816V52.4447H77.6153V51.4999H81.9876C81.9876 51.0985 81.9073 50.7403 81.7467 50.4253C81.5893 50.1104 81.3639 49.8618 81.0705 49.6796C80.7803 49.4974 80.4375 49.4063 80.0423 49.4063C79.6069 49.4063 79.2302 49.5144 78.9122 49.7306C78.5972 49.9436 78.3548 50.2215 78.185 50.5643C78.0152 50.907 77.9303 51.2745 77.9303 51.6666V52.2965C77.9303 52.8338 78.0229 53.2893 78.2082 53.6629C78.3965 54.0334 78.6574 54.316 78.9909 54.5105C79.3244 54.7019 79.7119 54.7977 80.1535 54.7977C80.4406 54.7977 80.7 54.7575 80.9316 54.6772C81.1662 54.5939 81.3685 54.4703 81.5383 54.3067C81.7081 54.1399 81.8394 53.9331 81.932 53.686L82.988 53.9825C82.8768 54.3407 82.69 54.6556 82.4276 54.9273C82.1651 55.196 81.8409 55.4059 81.4549 55.5572C81.069 55.7055 80.6351 55.7796 80.1535 55.7796Z" fill="#3C115F"/>
<path d="M84.6315 55.6314V48.5171H85.6875V49.5916H85.7616C85.8913 49.2396 86.126 48.954 86.4656 48.7348C86.8053 48.5155 87.1881 48.4059 87.6142 48.4059C87.6945 48.4059 87.7949 48.4074 87.9153 48.4105C88.0357 48.4136 88.1268 48.4183 88.1886 48.4244V49.536C88.1515 49.5268 88.0666 49.5129 87.9338 49.4944C87.8041 49.4727 87.6667 49.4619 87.5216 49.4619C87.1758 49.4619 86.867 49.5345 86.5953 49.6796C86.3267 49.8217 86.1136 50.0193 85.9561 50.2725C85.8017 50.5226 85.7245 50.8082 85.7245 51.1293V55.6314H84.6315Z" fill="#3C115F"/>
<path d="M92.1201 55.7796C91.4346 55.7796 90.8433 55.6283 90.3461 55.3257C89.8521 55.02 89.4708 54.5939 89.2021 54.0473C88.9366 53.4977 88.8038 52.8585 88.8038 52.1298C88.8038 51.4011 88.9366 50.7588 89.2021 50.203C89.4708 49.6441 89.8444 49.2087 90.323 48.8969C90.8047 48.5819 91.3666 48.4244 92.0089 48.4244C92.3794 48.4244 92.7453 48.4862 93.1066 48.6097C93.4679 48.7332 93.7967 48.9339 94.0931 49.2118C94.3895 49.4866 94.6258 49.851 94.8018 50.3049C94.9778 50.7588 95.0658 51.3177 95.0658 51.9816V52.4447H89.5819V51.4999H93.9542C93.9542 51.0985 93.8739 50.7403 93.7133 50.4253C93.5559 50.1104 93.3305 49.8618 93.0371 49.6796C92.7469 49.4974 92.4041 49.4063 92.0089 49.4063C91.5735 49.4063 91.1968 49.5144 90.8788 49.7306C90.5638 49.9436 90.3215 50.2215 90.1516 50.5643C89.9818 50.907 89.8969 51.2745 89.8969 51.6666V52.2965C89.8969 52.8338 89.9895 53.2893 90.1748 53.6629C90.3631 54.0334 90.624 54.316 90.9575 54.5105C91.291 54.7019 91.6785 54.7977 92.1201 54.7977C92.4072 54.7977 92.6666 54.7575 92.8982 54.6772C93.1328 54.5939 93.3351 54.4703 93.5049 54.3067C93.6747 54.1399 93.806 53.9331 93.8986 53.686L94.9546 53.9825C94.8434 54.3407 94.6566 54.6556 94.3942 54.9273C94.1317 55.196 93.8075 55.4059 93.4215 55.5572C93.0356 55.7055 92.6017 55.7796 92.1201 55.7796Z" fill="#3C115F"/>
<path d="M99.2844 55.7796C98.6916 55.7796 98.1682 55.6298 97.7143 55.3303C97.2604 55.0277 96.9053 54.6016 96.649 54.0519C96.3927 53.4992 96.2646 52.8462 96.2646 52.0927C96.2646 51.3455 96.3927 50.697 96.649 50.1474C96.9053 49.5978 97.2619 49.1732 97.7189 48.8737C98.1759 48.5742 98.7039 48.4244 99.3029 48.4244C99.7661 48.4244 100.132 48.5016 100.401 48.656C100.672 48.8073 100.879 48.9802 101.021 49.1748C101.166 49.3662 101.279 49.5237 101.359 49.6472H101.452V46.1456H102.545V55.6314H101.489V54.5383H101.359C101.279 54.668 101.165 54.8316 101.017 55.0292C100.868 55.2238 100.657 55.3982 100.382 55.5526C100.107 55.7039 99.7414 55.7796 99.2844 55.7796ZM99.4326 54.7977C99.8711 54.7977 100.242 54.6834 100.544 54.4549C100.847 54.2233 101.077 53.9037 101.234 53.4961C101.392 53.0855 101.471 52.6115 101.471 52.0742C101.471 51.5431 101.393 51.0784 101.239 50.6801C101.085 50.2787 100.856 49.9668 100.553 49.7445C100.251 49.5191 99.8773 49.4063 99.4326 49.4063C98.9695 49.4063 98.5835 49.5252 98.2747 49.763C97.969 49.9977 97.739 50.3172 97.5846 50.7218C97.4333 51.1232 97.3577 51.574 97.3577 52.0742C97.3577 52.5806 97.4349 53.0407 97.5892 53.4545C97.7467 53.8651 97.9783 54.1924 98.284 54.4364C98.5928 54.6772 98.9756 54.7977 99.4326 54.7977Z" fill="#3C115F"/>
<path d="M108.254 55.6314V46.1456H109.347V49.6472H109.44C109.52 49.5237 109.631 49.3662 109.774 49.1748C109.919 48.9802 110.126 48.8073 110.394 48.656C110.666 48.5016 111.033 48.4244 111.496 48.4244C112.096 48.4244 112.624 48.5742 113.081 48.8737C113.537 49.1732 113.894 49.5978 114.15 50.1474C114.407 50.697 114.535 51.3455 114.535 52.0927C114.535 52.8462 114.407 53.4992 114.15 54.0519C113.894 54.6016 113.539 55.0277 113.085 55.3303C112.631 55.6298 112.108 55.7796 111.515 55.7796C111.058 55.7796 110.692 55.7039 110.417 55.5526C110.143 55.3982 109.931 55.2238 109.783 55.0292C109.635 54.8316 109.52 54.668 109.44 54.5383H109.31V55.6314H108.254ZM109.329 52.0742C109.329 52.6115 109.408 53.0855 109.565 53.4961C109.723 53.9037 109.953 54.2233 110.255 54.4549C110.558 54.6834 110.928 54.7977 111.367 54.7977C111.824 54.7977 112.205 54.6772 112.511 54.4364C112.82 54.1924 113.051 53.8651 113.206 53.4545C113.363 53.0407 113.442 52.5806 113.442 52.0742C113.442 51.574 113.365 51.1232 113.21 50.7218C113.059 50.3172 112.829 49.9977 112.52 49.763C112.214 49.5252 111.83 49.4063 111.367 49.4063C110.922 49.4063 110.549 49.5191 110.246 49.7445C109.943 49.9668 109.715 50.2787 109.56 50.6801C109.406 51.0784 109.329 51.5431 109.329 52.0742Z" fill="#3C115F"/>
<path d="M116.526 58.2992C116.34 58.2992 116.175 58.2838 116.03 58.2529C115.885 58.2251 115.785 58.1973 115.729 58.1695L116.007 57.2061C116.272 57.2741 116.507 57.2988 116.711 57.2802C116.915 57.2617 117.095 57.1706 117.253 57.007C117.413 56.8464 117.56 56.5855 117.693 56.2242L117.897 55.6684L115.266 48.5171H116.452L118.415 54.1863H118.489L120.453 48.5171H121.639L118.619 56.6689C118.483 57.0363 118.315 57.3405 118.114 57.5813C117.914 57.8252 117.68 58.0059 117.415 58.1232C117.152 58.2405 116.856 58.2992 116.526 58.2992Z" fill="#3C115F"/>
</g>
<path d="M136.79 48.5492C138.205 48.5492 139.361 49.7146 139.361 51.1403C139.361 52.5659 138.205 53.7313 136.79 53.7313C135.376 53.7313 134.22 52.5659 134.22 51.1403C134.22 49.7146 135.376 48.5492 136.79 48.5492ZM136.79 45.9695C133.95 45.9695 131.66 48.289 131.66 51.1403C131.66 54.0029 133.961 56.3111 136.79 56.3111C139.63 56.3111 141.92 53.9916 141.92 51.1403C141.92 48.2777 139.619 45.9695 136.79 45.9695Z" fill="#3C115F"/>
<path d="M128.855 49.4996L126.441 54.9646L129.169 56.1866L130.37 53.4598C131.044 51.9436 130.359 50.1672 128.855 49.4996Z" fill="#3C115F"/>
<path d="M127.349 45.5283C126.676 47.0445 127.36 48.8209 128.865 49.4998L130.077 46.7503L127.349 45.5283Z" fill="#3C115F"/>
<g clip-path="url(#clip0_3578_1325)">
<path d="M28.0199 23.5882C29.0298 23.4242 29.7155 22.4726 29.5516 21.4627C29.3877 20.4528 28.4361 19.767 27.4262 19.931C26.4163 20.0949 25.7305 21.0465 25.8945 22.0564C26.0584 23.0663 27.01 23.7521 28.0199 23.5882Z" fill="#3C115F"/>
<path d="M36.2475 16.9937C32.9257 13.6283 27.6165 11.921 20.4678 11.921L18.6531 13.7358V21.2301C12.3261 22.29 8.24218 24.173 4.58654 26.4306V6.39677C7.16494 4.72136 13.1565 3.62958 20.009 3.62958H20.0468C26.7745 3.63393 32.7428 4.73297 35.1151 6.35176V9.44561L38.7446 13.0752V5.61278L36.0733 2.71783C31.2271 0.227937 22.8357 0.00145183 20.0482 0H20.0163C17.1519 0 8.53254 0.230841 3.52963 2.82526L0.957031 5.61278V29.7858L3.79386 31.2855C8.25525 28.2468 12.3203 25.8223 20.2413 24.6564L22.2826 22.6152V15.5912C27.4916 15.8351 31.3142 17.1621 33.6647 19.5431C36.4609 22.3756 36.8456 26.3957 36.8717 29.5738C32.1258 28.6533 26.8862 28.604 21.8717 29.4533C16.1051 30.4304 10.8859 32.5428 7.17801 35.4015C3.1086 38.5389 0.957031 42.4312 0.957031 46.659C0.957031 50.8867 2.42045 54.8168 5.18759 57.4824C8.0128 60.2045 12.0677 61.6418 16.9109 61.6418C21.3825 61.6418 26.6496 60.296 30.6566 58.1313C35.796 55.354 38.627 51.4253 38.627 47.0698C38.627 43.9339 37.2957 41.3685 34.7768 39.6539C32.6455 38.202 29.7405 37.4355 26.3767 37.4355C23.2437 37.4355 19.4516 38.2877 16.4812 39.6611C12.4989 41.5006 10.3052 44.1328 10.3052 47.0698C10.3052 49.5016 11.5973 51.4311 13.8505 52.3646C17.4002 53.8354 22.8575 52.6695 26.262 49.8327V45.2086L23.3888 43.7727V47.4633C20.9905 49.1401 17.3682 49.8936 15.2384 49.0124C14.3354 48.6378 13.9333 48.0396 13.9333 47.0713C13.9333 45.0547 16.7788 43.5215 18.0012 42.9568C20.4867 41.8084 23.7736 41.0665 26.3752 41.0665C28.9768 41.0665 31.2271 41.6313 32.7327 42.6548C34.2556 43.6929 34.996 45.136 34.996 47.0713C34.996 53.7511 24.2846 58.0137 16.9094 58.0137C9.53429 58.0137 4.58509 53.7686 4.58509 46.659C4.58509 42.7942 7.19979 39.9675 9.39201 38.2761C12.6382 35.7731 17.284 33.9119 22.4757 33.0321C27.8023 32.129 33.3903 32.3308 38.2074 33.5983L40.4838 31.859C40.4853 31.6673 40.4882 31.4699 40.4911 31.2652C40.539 27.5848 40.6189 21.4232 36.246 16.9922L36.2475 16.9937Z" fill="#3C115F"/>
</g>
<defs>
<clipPath id="clip0_3578_1325">
<rect width="39.5471" height="61.6433" fill="white" transform="translate(0.957031)"/>
</clipPath>
</defs>
</svg>
