<?xml version="1.0" encoding="UTF-8"?>
<svg id="Layer_1" data-name="Layer 1" xmlns="http://www.w3.org/2000/svg" viewBox="0 0 926 254.48">
  <defs>
    <style>
      .cls-1 {
        fill: #e50040;
      }

      .cls-1, .cls-2 {
        stroke-width: 0px;
      }

      .cls-2 {
        fill: #1d1d1b;
      }
    </style>
  </defs>
  <polygon class="cls-2" points="-.28 -.26 45.44 -.26 87.7 77.37 88.1 77.37 88.1 -.26 130.37 -.26 130.37 144.83 86.89 144.83 42.39 65.58 41.99 65.58 41.99 144.83 -.28 144.83 -.28 -.26"/>
  <path class="cls-1" d="M307.61,144.83c0,30.6-24.8,55.41-55.41,55.41s-55.41-24.81-55.41-55.41,24.81-55.42,55.41-55.42,55.41,24.81,55.41,55.42"/>
  <path class="cls-2" d="M252.2,34.74c-60.8,0-110.07,49.29-110.07,110.1h42.28c0-37.45,30.36-67.81,67.79-67.81s67.8,30.36,67.8,67.81-30.36,67.79-67.8,67.79v42.28c60.81,0,110.09-49.28,110.09-110.08s-49.28-110.1-110.09-110.1"/>
  <path class="cls-2" d="M408.32,61.26h21.55v-26.51h-21.55V-.35h-40.24l.02,35.1h-21.56v26.51h21.56v54.25c0,4.64,1.1,9.02,3.04,12.93,4.78,9.74,14.77,16.45,26.35,16.45h32.38v-30.48h-10.66c-6.01,0-10.89-4.88-10.89-10.89v-42.26Z"/>
  <polygon class="cls-2" points="901.45 4.07 895.56 4.07 895.56 19.37 890.43 19.37 890.43 4.07 884.55 4.07 884.55 -.35 901.45 -.35 901.45 4.07"/>
  <polygon class="cls-2" points="903.75 -.35 911.32 -.35 914.71 12.8 914.77 12.8 918.18 -.35 925.74 -.35 925.74 19.37 920.9 19.37 920.9 4.4 920.84 4.4 916.71 19.37 912.78 19.37 908.65 4.4 908.58 4.4 908.58 19.37 903.75 19.37 903.75 -.35"/>
  <path class="cls-2" d="M556.13,144.8h-40.5v-14h-.43c-7.84,11.03-19.09,16.75-35.84,16.75-19.72,0-37.75-12.07-37.75-37.31V34.74h42v57.69c0,12.73,1.48,21.62,13.78,21.62,7.2,0,16.74-3.6,16.74-21.2v-58.11h42v110.07Z"/>
  <path class="cls-1" d="M567.87-.35h80.58c38.74,0,46.97,18.7,46.97,33.74s-7.2,22.87-18.12,28.85c13.17,4.55,25.54,15.04,25.54,36.69,0,29.46-25.54,44.71-51.51,44.71h-83.47V-.35ZM613.21,53.79h23.91c9.49,0,15.44-2.68,15.44-12.16,0-7.42-6.17-10.09-15.44-10.09h-23.91v22.25ZM613.21,108.6h26.58c9.48,0,17.73-2.68,17.73-14.01,0-8.66-5.16-13.39-15.88-13.39h-28.43v27.4Z"/>
  <rect class="cls-1" x="714.54" y="34.74" width="40.8" height="108.89"/>
  <rect class="cls-1" x="714.54" y="-.35" width="40.8" height="23.35"/>
  <polygon class="cls-1" points="767.08 34.74 873.84 34.74 873.84 61.26 813.93 113.15 873.84 113.15 873.84 143.63 767.08 143.63 767.08 113.15 829.33 61.26 767.08 61.26 767.08 34.74"/>
</svg>