<?xml version="1.0" encoding="UTF-8"?>
<svg xmlns="http://www.w3.org/2000/svg" xmlns:xlink="http://www.w3.org/1999/xlink" width="224" height="36">
  <defs>
    <path id="path-1" d="M0 0h15.077v18.292H0z"></path>
    <path id="path-3" d="M0 0h12.469v19.294H0z"></path>
    <path id="path-5" d="M0 0h30.017v35.947H0z"></path>
  </defs>
  <g id="Nav/Logo-Copy" stroke="none" stroke-width="1" fill="none" fill-rule="evenodd">
    <g id="Group-29" transform="translate(37.557 7.255)">
      <g id="Fill-1-Clipped">
        <mask id="mask-2" fill="#fff">
          <use xlink:href="#path-1"></use>
        </mask>
        <path d="M11.972 9.146c0-3.884-1.689-6.264-4.421-6.264-2.757 0-4.446 2.38-4.446 6.264 0 3.884 1.664 6.264 4.446 6.264 2.757 0 4.421-2.38 4.421-6.264M0 9.146C0 3.633 2.98 0 7.55 0c4.546 0 7.527 3.633 7.527 9.146 0 5.513-2.98 9.146-7.526 9.146C2.98 18.292 0 14.659 0 9.146" id="Fill-1" fill="#3C3C3B" fill-rule="nonzero" mask="url(#mask-2)"></path>
      </g>
      <g id="Fill-4-Clipped" transform="translate(17.313 4.26)">
        <mask id="mask-4" fill="#fff">
          <use xlink:href="#path-3"></use>
        </mask>
        <path d="M9.488 7.016c0-2.656-1.267-4.26-3.353-4.26-1.813 0-3.155 1.378-3.155 3.182v2.13c0 1.83 1.342 3.207 3.105 3.207 2.111 0 3.403-1.628 3.403-4.26ZM0 .376h2.906v1.052h.05C3.8.551 5.066 0 6.557 0c3.453 0 5.912 2.906 5.912 7.016 0 4.11-2.459 7.016-5.887 7.016-1.465 0-2.807-.576-3.552-1.429h-.05v6.69H0V.377Z" id="Fill-4" fill="#3C3C3B" fill-rule="nonzero" mask="url(#mask-4)"></path>
      </g>
      <path d="M40.786 9.948c-.1-1.854-1.242-3.082-3.105-3.082-1.74 0-3.03 1.328-3.13 3.082h6.235Zm-9.265 1.328c0-4.16 2.509-7.016 6.135-7.016 3.651 0 6.085 2.781 6.085 6.865v1.028h-9.215c.1 2.104 1.292 3.533 3.18 3.533 1.465 0 2.459-.627 3.452-2.18l2.186 1.604c-1.193 2.104-3.13 3.182-5.638 3.182-3.676 0-6.185-2.832-6.185-7.016Z" id="Fill-7" fill="#3C3C3B" fill-rule="nonzero"></path>
      <path d="M45.977 4.636h2.857v1.177h.05c.77-.952 2.21-1.553 3.626-1.553 2.956 0 4.918 2.004 4.918 5.137v8.519h-2.98V9.873c0-1.78-.994-2.807-2.708-2.807-1.714 0-2.782 1.103-2.782 2.807v8.043h-2.98V4.636Z" id="Fill-9" fill="#3C3C3B" fill-rule="nonzero"></path>
      <path d="M59.54 9.146C59.54 3.608 62.494 0 67.09 0c3.577 0 6.284 2.406 6.756 5.938l-3.055.502c-.422-2.255-1.738-3.558-3.7-3.558-2.783 0-4.447 2.38-4.447 6.264 0 3.884 1.664 6.264 4.446 6.264 2.36 0 3.751-1.478 3.751-3.909h-3.527V8.845h6.483v2.18c0 4.41-2.633 7.267-6.707 7.267-4.595 0-7.55-3.584-7.55-9.146" id="Fill-11" fill="#3C3C3B" fill-rule="nonzero"></path>
      <path d="M84.85 9.948c-.099-1.854-1.241-3.082-3.104-3.082-1.74 0-3.03 1.328-3.13 3.082h6.235Zm-9.264 1.328c0-4.16 2.508-7.016 6.135-7.016 3.651 0 6.085 2.781 6.085 6.865v1.028h-9.215c.1 2.104 1.292 3.533 3.18 3.533 1.465 0 2.459-.627 3.452-2.18l2.186 1.604c-1.193 2.104-3.13 3.182-5.639 3.182-3.676 0-6.184-2.832-6.184-7.016Z" id="Fill-13" fill="#3C3C3B" fill-rule="nonzero"></path>
      <path d="M90.042 4.636h2.807v1.127h.05c.72-.952 2.012-1.503 3.353-1.503 1.341 0 2.683.626 3.403 1.654h.05c.869-1.053 2.061-1.654 3.551-1.654 2.857 0 4.794 2.054 4.794 4.71v8.946h-2.906v-8.42c0-1.553-.919-2.48-2.335-2.48-1.44 0-2.36 1.027-2.36 2.606v8.294h-2.806v-8.42c0-1.553-.944-2.48-2.335-2.48-1.44 0-2.36 1.027-2.36 2.606v8.294h-2.906V4.636Z" id="Fill-15" fill="#3C3C3B" fill-rule="nonzero"></path>
      <path d="M119.427 9.948c-.1-1.854-1.242-3.082-3.105-3.082-1.739 0-3.03 1.328-3.13 3.082h6.235Zm-9.265 1.328c0-4.16 2.509-7.016 6.135-7.016 3.651 0 6.085 2.781 6.085 6.865v1.028h-9.215c.1 2.104 1.292 3.533 3.18 3.533 1.465 0 2.459-.627 3.452-2.18l2.186 1.604c-1.192 2.104-3.13 3.182-5.638 3.182-3.676 0-6.185-2.832-6.185-7.016Z" id="Fill-17" fill="#3C3C3B" fill-rule="nonzero"></path>
      <path d="M133.387 9.948c-.1-1.854-1.242-3.082-3.105-3.082-1.74 0-3.03 1.328-3.13 3.082h6.235Zm-9.265 1.328c0-4.16 2.509-7.016 6.135-7.016 3.651 0 6.085 2.781 6.085 6.865v1.028h-9.215c.1 2.104 1.292 3.533 3.18 3.533 1.465 0 2.459-.627 3.452-2.18l2.186 1.604c-1.192 2.104-3.13 3.182-5.638 3.182-3.676 0-6.185-2.832-6.185-7.016Z" id="Fill-19" fill="#3C3C3B" fill-rule="nonzero"></path>
      <path d="M138.578 4.636h2.857v1.177h.05c.77-.952 2.21-1.553 3.626-1.553 2.956 0 4.918 2.004 4.918 5.137v8.519h-2.98V9.873c0-1.78-.994-2.807-2.708-2.807-1.714 0-2.782 1.103-2.782 2.807v8.043h-2.98V4.636Z" id="Fill-21" fill="#3C3C3B" fill-rule="nonzero"></path>
      <path d="M156.413 7.317v6.59c0 .852.323 1.127 1.391 1.127h1.316v2.882h-1.59c-2.955 0-4.098-1.053-4.098-3.859v-6.74h-2.16V4.636h2.16V1.403h2.981v3.233h3.254v2.68h-3.254Z" id="Fill-23" fill="#3C3C3B" fill-rule="nonzero"></path>
      <path d="M169.801 9.948c-.1-1.854-1.242-3.082-3.105-3.082-1.739 0-3.03 1.328-3.13 3.082h6.235Zm-9.265 1.328c0-4.16 2.509-7.016 6.135-7.016 3.652 0 6.086 2.781 6.086 6.865v1.028h-9.215c.1 2.104 1.291 3.533 3.179 3.533 1.466 0 2.46-.627 3.453-2.18l2.186 1.604c-1.193 2.104-3.13 3.182-5.639 3.182-3.676 0-6.185-2.832-6.185-7.016Z" id="Fill-25" fill="#3C3C3B" fill-rule="nonzero"></path>
      <path d="M174.993 4.636h2.856v1.177h.05c.77-.952 2.21-1.553 3.626-1.553 2.956 0 4.918 2.004 4.918 5.137v8.519h-2.98V9.873c0-1.78-.994-2.807-2.708-2.807-1.714 0-2.782 1.103-2.782 2.807v8.043h-2.98V4.636Z" id="Fill-27" fill="#3C3C3B" fill-rule="nonzero"></path>
    </g>
    <g id="Group-2">
      <mask id="mask-6" fill="#fff">
        <use xlink:href="#path-5"></use>
      </mask>
      <path d="M15.028 21.411 4.675 31.788a15.089 15.089 0 0 0 2.392 1.867l7.95-7.99.01-4.254Zm0-16.988L.017 19.434l-.011 1.808s.108 1.491.23 2.212l14.78-14.79.012-4.24ZM0 6.625l6.6-6.6H.018L0 6.625ZM10.872 0 .017 10.854l-.011 4.254L15.089.025 10.872 0Zm7.145.026v3H24.9L1.202 26.761c.41.971.918 1.891 1.514 2.745l24.3-24.354v6.873h3v-12h-12Zm9 18h3v3h-.002c-.028 8.245-6.731 14.922-14.998 14.922-1.791 0-3.502-.33-5.093-.905l2.423-2.424c.86.198 1.75.32 2.67.32 6.609 0 11.985-5.367 11.985-11.964l.015-.003v-2.946Z" id="Fill-1" fill="#0F4ABC" mask="url(#mask-6)"></path>
    </g>
  </g>
</svg>
