<svg xmlns="http://www.w3.org/2000/svg" xmlns:xlink="http://www.w3.org/1999/xlink" width="173.596" height="41.384" viewBox="0 0 173.596 41.384">
  <defs>
    <clipPath id="clip-path">
      <rect id="Rectangle_7883" data-name="Rectangle 7883" width="173.596" height="41.384" fill="none"/>
    </clipPath>
  </defs>
  <g id="Group_111274" data-name="Group 111274" transform="translate(0 0)">
    <g id="Group_111258" data-name="Group 111258" transform="translate(0 0)" clip-path="url(#clip-path)">
      <path id="Path_70" data-name="Path 70" d="M77.426,40.1h7.111V0H77.426Zm16.413,0h7.111V0H93.839ZM63.739,9,52.759,20.314,41.78,9l-4.734,4.878,10.98,11.314L37.047,36.506l4.734,4.879L52.759,30.07l10.98,11.314,4.733-4.879L57.493,25.191,68.471,13.877ZM26.692,9,15.713,20.314,4.734,9,0,13.877,10.98,25.191,0,36.506l4.734,4.879L15.713,30.07,26.692,41.384l4.734-4.879L20.446,25.191l10.98-11.314Zm96.985,1.234c-8.193,0-14.167,5.119-14.167,14.052V40.1h7.112V24.456c0-4.723,3.014-7.283,7.055-7.283s7.055,2.56,7.055,7.283V40.1h7.111V24.284c0-8.933-6.031-14.052-14.166-14.052m35.312,23.938a8.462,8.462,0,0,1-8.179-8.719,8.461,8.461,0,0,1,8.179-8.716,8.175,8.175,0,0,1,7.482,5.217H173.6c-1.252-6.941-7.058-11.72-14.51-11.72-8.7,0-15.077,6.427-15.077,15.247,0,8.763,6.373,15.193,15.077,15.193,7.453,0,13.2-4.727,14.51-11.668h-7.155a8.167,8.167,0,0,1-7.454,5.166" transform="translate(0 0)"/>
    </g>
  </g>
</svg>
