<svg xmlns="http://www.w3.org/2000/svg" xmlns:xlink="http://www.w3.org/1999/xlink" contentStyleType="text/css" height="330px" preserveAspectRatio="none" style="width:1578px;height:330px;background:#FFFFFF;" version="1.1" viewBox="0 0 1578 330" width="1578px" zoomAndPan="magnify"><title>Integratie op bronnen</title><defs/><g><text fill="#888888" font-family="sans-serif" font-size="10" lengthAdjust="spacing" textLength="70.835" x="1494.0854" y="9.2822">OpenWoo.app</text><text fill="#000000" font-family="sans-serif" font-size="14" font-weight="bold" lengthAdjust="spacing" textLength="174.0498" x="695.4353" y="35.6357">Integratie op bronnen</text><!--cluster Services (Laag 4)--><g id="cluster_Services (Laag 4)"><rect fill="none" height="87.29" rx="2.5" ry="2.5" style="stroke:#181818;stroke-width:1.0;" width="196" x="666" y="56.9375"/><path d="M812.6572,56.9375 L812.6572,66.2344 L802.6572,76.2344 L666,76.2344 " fill="none" style="stroke:#181818;stroke-width:1.0;"/><text fill="#000000" font-family="sans-serif" font-size="14" font-weight="bold" lengthAdjust="spacing" textLength="136.6572" x="669" y="70.9326">Services (Laag 4)</text></g><!--cluster API (Laag 3)--><g id="cluster_API (Laag 3)"><rect fill="none" height="96.3" rx="2.5" ry="2.5" style="stroke:#181818;stroke-width:1.0;" width="132" x="7" y="208.7275"/><path d="M113.4277,208.7275 L113.4277,218.0244 L103.4277,228.0244 L7,228.0244 " fill="none" style="stroke:#181818;stroke-width:1.0;"/><text fill="#000000" font-family="sans-serif" font-size="14" font-weight="bold" lengthAdjust="spacing" textLength="96.4277" x="10" y="222.7226">API (Laag 3)</text></g><!--cluster Bronnen--><g id="cluster_Bronnen"><rect fill="none" height="97.3" rx="2.5" ry="2.5" style="stroke:#181818;stroke-width:1.0;" width="865" x="561" y="208.2275"/><path d="M637.5889,208.2275 L637.5889,217.5244 L627.5889,227.5244 L561,227.5244 " fill="none" style="stroke:#181818;stroke-width:1.0;"/><text fill="#000000" font-family="sans-serif" font-size="14" font-weight="bold" lengthAdjust="spacing" textLength="66.5889" x="564" y="222.2226">Bronnen</text></g><!--entity OWS--><g id="elem_OWS"><polygon fill="#1ABC9C" points="681.72,91.9375,836.2776,91.9375,846.2776,110.0859,836.2776,128.2344,681.72,128.2344,691.72,110.0859" style="stroke:#181818;stroke-width:0.5;"/><text fill="#000000" font-family="sans-serif" font-size="14" lengthAdjust="spacing" textLength="124.5576" x="701.72" y="114.9326">OpenWoo Service</text></g><!--entity OI--><g id="elem_OI"><path d="M22.69,253.7275 C22.69,243.7275 73.0049,243.7275 73.0049,243.7275 C73.0049,243.7275 123.3199,243.7275 123.3199,253.7275 L123.3199,279.0244 C123.3199,289.0244 73.0049,289.0244 73.0049,289.0244 C73.0049,289.0244 22.69,289.0244 22.69,279.0244 L22.69,253.7275 " fill="#1ABC9C" style="stroke:#181818;stroke-width:0.5;"/><path d="M22.69,253.7275 C22.69,263.7275 73.0049,263.7275 73.0049,263.7275 C73.0049,263.7275 123.3199,263.7275 123.3199,253.7275 " fill="none" style="stroke:#181818;stroke-width:0.5;"/><text fill="#000000" font-family="sans-serif" font-size="14" lengthAdjust="spacing" textLength="80.6299" x="32.69" y="280.7226">Open Index</text></g><!--entity Zaaksysteem--><g id="elem_Zaaksysteem"><rect fill="#CCE5FF" height="46.2969" rx="2.5" ry="2.5" style="stroke:#181818;stroke-width:0.5;" width="134.083" x="576.96" y="243.2275"/><rect fill="#CCE5FF" height="10" style="stroke:#181818;stroke-width:0.5;" width="15" x="691.043" y="248.2275"/><rect fill="#CCE5FF" height="2" style="stroke:#181818;stroke-width:0.5;" width="4" x="689.043" y="250.2275"/><rect fill="#CCE5FF" height="2" style="stroke:#181818;stroke-width:0.5;" width="4" x="689.043" y="254.2275"/><text fill="#000000" font-family="sans-serif" font-size="14" lengthAdjust="spacing" textLength="94.083" x="591.96" y="276.2226">Zaaksysteem</text></g><!--entity CMS--><g id="elem_CMS"><rect fill="#CCE5FF" height="46.2969" rx="2.5" ry="2.5" style="stroke:#181818;stroke-width:0.5;" width="70.7412" x="745.63" y="243.2275"/><rect fill="#CCE5FF" height="10" style="stroke:#181818;stroke-width:0.5;" width="15" x="796.3712" y="248.2275"/><rect fill="#CCE5FF" height="2" style="stroke:#181818;stroke-width:0.5;" width="4" x="794.3712" y="250.2275"/><rect fill="#CCE5FF" height="2" style="stroke:#181818;stroke-width:0.5;" width="4" x="794.3712" y="254.2275"/><text fill="#000000" font-family="sans-serif" font-size="14" lengthAdjust="spacing" textLength="30.7412" x="760.63" y="276.2226">CMS</text></g><!--entity Raadsinfo--><g id="elem_Raadsinfo"><rect fill="#CCE5FF" height="46.2969" rx="2.5" ry="2.5" style="stroke:#181818;stroke-width:0.5;" width="223.415" x="851.29" y="243.2275"/><rect fill="#CCE5FF" height="10" style="stroke:#181818;stroke-width:0.5;" width="15" x="1054.705" y="248.2275"/><rect fill="#CCE5FF" height="2" style="stroke:#181818;stroke-width:0.5;" width="4" x="1052.705" y="250.2275"/><rect fill="#CCE5FF" height="2" style="stroke:#181818;stroke-width:0.5;" width="4" x="1052.705" y="254.2275"/><text fill="#000000" font-family="sans-serif" font-size="14" lengthAdjust="spacing" textLength="183.415" x="866.29" y="276.2226">Raads informatie systeem</text></g><!--entity eDepot--><g id="elem_eDepot"><rect fill="#CCE5FF" height="46.2969" rx="2.5" ry="2.5" style="stroke:#181818;stroke-width:0.5;" width="90.9482" x="1109.53" y="243.2275"/><rect fill="#CCE5FF" height="10" style="stroke:#181818;stroke-width:0.5;" width="15" x="1180.4782" y="248.2275"/><rect fill="#CCE5FF" height="2" style="stroke:#181818;stroke-width:0.5;" width="4" x="1178.4782" y="250.2275"/><rect fill="#CCE5FF" height="2" style="stroke:#181818;stroke-width:0.5;" width="4" x="1178.4782" y="254.2275"/><text fill="#000000" font-family="sans-serif" font-size="14" lengthAdjust="spacing" textLength="50.9482" x="1124.53" y="276.2226">eDepot</text></g><!--entity DMS--><g id="elem_DMS"><rect fill="#CCE5FF" height="46.2969" rx="2.5" ry="2.5" style="stroke:#181818;stroke-width:0.5;" width="71.7461" x="1235.13" y="243.2275"/><rect fill="#CCE5FF" height="10" style="stroke:#181818;stroke-width:0.5;" width="15" x="1286.8761" y="248.2275"/><rect fill="#CCE5FF" height="2" style="stroke:#181818;stroke-width:0.5;" width="4" x="1284.8761" y="250.2275"/><rect fill="#CCE5FF" height="2" style="stroke:#181818;stroke-width:0.5;" width="4" x="1284.8761" y="254.2275"/><text fill="#000000" font-family="sans-serif" font-size="14" lengthAdjust="spacing" textLength="31.7461" x="1250.13" y="276.2226">DMS</text></g><!--entity VTH--><g id="elem_VTH"><rect fill="#CCE5FF" height="46.2969" rx="2.5" ry="2.5" style="stroke:#181818;stroke-width:0.5;" width="68.6563" x="1341.67" y="243.2275"/><rect fill="#CCE5FF" height="10" style="stroke:#181818;stroke-width:0.5;" width="15" x="1390.3263" y="248.2275"/><rect fill="#CCE5FF" height="2" style="stroke:#181818;stroke-width:0.5;" width="4" x="1388.3263" y="250.2275"/><rect fill="#CCE5FF" height="2" style="stroke:#181818;stroke-width:0.5;" width="4" x="1388.3263" y="254.2275"/><text fill="#000000" font-family="sans-serif" font-size="14" lengthAdjust="spacing" textLength="28.6563" x="1356.67" y="276.2226">VTH</text></g><!--link OWS to OI--><g id="link_OWS_OI"><path d="M681.3,111.6875 C512.01,113.6875 138.22,122.4075 95,160.2275 C71.56,180.7475 69.0218,213.2459 70.3118,237.5359 " fill="none" id="OWS-to-OI" style="stroke:#181818;stroke-width:1.0;stroke-dasharray:7.0,7.0;"/><polygon fill="#181818" points="70.63,243.5275,74.1471,234.328,70.3648,238.5345,66.1583,234.7523,70.63,243.5275" style="stroke:#181818;stroke-width:1.0;"/><text fill="#000000" font-family="sans-serif" font-size="13" lengthAdjust="spacing" textLength="69.2148" x="96" y="180.7944">Slaat op in</text></g><!--link OWS to CMS--><g id="link_OWS_CMS"><path d="M681.4,122.4575 C620.74,134.0575 554.45,155.6475 589,192.2275 C599.7,203.5575 715.16,193.0775 729,200.2275 C746.87,209.4675 757.5883,222.7234 766.4683,237.6234 " fill="none" id="OWS-to-CMS" style="stroke:#181818;stroke-width:1.0;"/><polygon fill="#181818" points="769.54,242.7775,768.3685,232.9986,766.9802,238.4824,761.4964,237.0942,769.54,242.7775" style="stroke:#181818;stroke-width:1.0;"/><text fill="#000000" font-family="sans-serif" font-size="13" lengthAdjust="spacing" textLength="130.9204" x="590" y="173.2944">Scrapes periodically</text><text fill="#000000" font-family="sans-serif" font-size="13" lengthAdjust="spacing" textLength="97.519" x="606.7007" y="188.4272">Uses as source</text></g><!--reverse link OWS to CMS--><g id="link_OWS_CMS"><path d="M762.277,134.3433 C761.627,143.7633 761.32,149.6375 761,160.2275 C760.57,174.4475 759.11,178.1375 761,192.2275 C763.33,209.5875 768.64,228.6475 773.2,242.9675 " fill="none" id="OWS-backto-CMS" style="stroke:#181818;stroke-width:1.0;"/><polygon fill="#181818" points="762.69,128.3575,758.0799,137.0608,762.3458,133.3456,766.061,137.6115,762.69,128.3575" style="stroke:#181818;stroke-width:1.0;"/><text fill="#000000" font-family="sans-serif" font-size="13" lengthAdjust="spacing" textLength="194.0479" x="762" y="180.7944">Notifies of changes or deletes</text></g><!--link OWS to Zaaksysteem--><g id="link_OWS_Zaaksysteem"><path d="M681.48,111.9875 C528.69,114.5375 214.17,124.1475 181,160.2275 C171.38,170.6975 171.76,181.4175 181,192.2275 C231.09,250.8575 454.7211,262.6516 570.6411,264.8916 " fill="none" id="OWS-to-Zaaksysteem" style="stroke:#181818;stroke-width:1.0;"/><polygon fill="#181818" points="576.64,265.0075,567.719,260.8344,571.6409,264.9109,567.5644,268.8329,576.64,265.0075" style="stroke:#181818;stroke-width:1.0;"/><text fill="#000000" font-family="sans-serif" font-size="13" lengthAdjust="spacing" textLength="130.9204" x="182" y="173.2944">Scrapes periodically</text><text fill="#000000" font-family="sans-serif" font-size="13" lengthAdjust="spacing" textLength="97.519" x="198.7007" y="188.4272">Uses as source</text></g><!--reverse link OWS to Zaaksysteem--><g id="link_OWS_Zaaksysteem"><path d="M675.6427,116.1876 C567.7527,123.2176 395.87,137.6875 376,160.2275 C315.44,228.9475 478.9,253.1575 576.7,261.3775 " fill="none" id="OWS-backto-Zaaksysteem" style="stroke:#181818;stroke-width:1.0;"/><polygon fill="#181818" points="681.63,115.7975,672.389,112.3912,676.6406,116.1226,672.9091,120.3742,681.63,115.7975" style="stroke:#181818;stroke-width:1.0;"/><text fill="#000000" font-family="sans-serif" font-size="13" lengthAdjust="spacing" textLength="194.0479" x="377" y="180.7944">Notifies of changes or deletes</text></g><!--link OWS to Raadsinfo--><g id="link_OWS_Raadsinfo"><path d="M846.62,121.5175 C893.79,129.3475 946.39,141.8975 961,160.2275 C979.54,183.5075 976.669,213.9305 971.129,237.2105 " fill="none" id="OWS-to-Raadsinfo" style="stroke:#181818;stroke-width:1.0;"/><polygon fill="#181818" points="969.74,243.0475,975.7149,235.218,970.8975,238.1833,967.9322,233.366,969.74,243.0475" style="stroke:#181818;stroke-width:1.0;"/><text fill="#000000" font-family="sans-serif" font-size="13" lengthAdjust="spacing" textLength="130.9204" x="975" y="173.2944">Scrapes periodically</text><text fill="#000000" font-family="sans-serif" font-size="13" lengthAdjust="spacing" textLength="97.519" x="991.7007" y="188.4272">Uses as source</text></g><!--link OWS to eDepot--><g id="link_OWS_eDepot"><path d="M846.52,113.2275 C936.71,117.1775 1073.76,128.3975 1114,160.2275 C1139.51,180.4075 1148.294,212.6933 1151.934,237.0733 " fill="none" id="OWS-to-eDepot" style="stroke:#181818;stroke-width:1.0;"/><polygon fill="#181818" points="1152.82,243.0075,1155.4472,233.5155,1152.0817,238.0623,1147.5349,234.6968,1152.82,243.0075" style="stroke:#181818;stroke-width:1.0;"/><text fill="#000000" font-family="sans-serif" font-size="13" lengthAdjust="spacing" textLength="130.9204" x="1139" y="173.2944">Scrapes periodically</text><text fill="#000000" font-family="sans-serif" font-size="13" lengthAdjust="spacing" textLength="97.519" x="1155.7007" y="188.4272">Uses as source</text></g><!--link OWS to DMS--><g id="link_OWS_DMS"><path d="M846.71,113.0175 C984.69,117.1175 1249.6,128.9875 1278,160.2275 C1298.18,182.4375 1291.7112,213.71 1282.9612,237.37 " fill="none" id="OWS-to-DMS" style="stroke:#181818;stroke-width:1.0;"/><polygon fill="#181818" points="1280.88,242.9975,1287.7534,235.9437,1282.6143,238.3079,1280.2501,233.1688,1280.88,242.9975" style="stroke:#181818;stroke-width:1.0;"/><text fill="#000000" font-family="sans-serif" font-size="13" lengthAdjust="spacing" textLength="130.9204" x="1292" y="173.2944">Scrapes periodically</text><text fill="#000000" font-family="sans-serif" font-size="13" lengthAdjust="spacing" textLength="97.519" x="1308.7007" y="188.4272">Uses as source</text></g><!--link OWS to VTH--><g id="link_OWS_VTH"><path d="M846.46,111.0275 C1016.18,111.7775 1391.98,118.2275 1431,160.2275 C1453.72,184.6775 1429.9768,216.1303 1406.3068,238.9803 " fill="none" id="OWS-to-VTH" style="stroke:#181818;stroke-width:1.0;"/><polygon fill="#181818" points="1401.99,243.1475,1411.2433,239.7745,1405.5873,239.6748,1405.687,234.0189,1401.99,243.1475" style="stroke:#181818;stroke-width:1.0;"/><text fill="#000000" font-family="sans-serif" font-size="13" lengthAdjust="spacing" textLength="130.9204" x="1440" y="173.2944">Scrapes periodically</text><text fill="#000000" font-family="sans-serif" font-size="13" lengthAdjust="spacing" textLength="97.519" x="1456.7007" y="188.4272">Uses as source</text></g><text fill="#888888" font-family="sans-serif" font-size="10" lengthAdjust="spacing" textLength="70.835" x="747.0427" y="319.8097">OpenWoo.app</text><!--SRC=[dLBBJWCn3BpdAwpb01nQYTU17f207gW45BKy9CJ5pNhRY6qS9IaF8VuTRxejIr4HQYv9F9wnFKaqiIJesKXZZz4Gi8EHPsl9ge8vakz0tv5zO6wZSsf2cA_6P6t3aFoBqHHWvn9n38Uxgl0u9SX-0HbyA93bF4iuG5PhBIGo00pGVnZ2rXwEzB5MdrM1HezpfODbYTERtZAsKCynuWW3pUM5dTDRbeHxFtNFvjFM0ljBqJg-qDCyTIpt2DaZudDu3v5ecXGRTu0jhUceA5OvvrV3b2lxsfm1OXx0s8BzDCtPB9B02bjBfouvZYbvVboRsQsRwVxHpFtjHSgH_Jid6JQWKhfZ6oR61LMzKxjz8hPsO5WYnke76QiIqChvrRPEqjG2QuzEFe8ZRpWt6ilo_SdU1Gb9eS0ph-a7hMdi1lHlopOWrnPkmEnkDcnbz3zfyWZN74qXS7e8LVdRcZbHgHGxDIeSBa1Fq8wheuUSIeeKLDFN_zE-0000]--></g></svg>