<?xml version="1.0" encoding="us-ascii" standalone="no"?><svg xmlns="http://www.w3.org/2000/svg" xmlns:xlink="http://www.w3.org/1999/xlink" contentStyleType="text/css" height="351px" preserveAspectRatio="none" style="width:1722px;height:351px;background:#FFFFFF;" version="1.1" viewBox="0 0 1722 351" width="1722px" zoomAndPan="magnify"><defs/><g><text fill="#888888" font-family="sans-serif" font-size="10" lengthAdjust="spacing" textLength="78" x="1630.1787" y="9.2822">OpenWoo.app</text><text fill="#000000" font-family="sans-serif" font-size="14" font-weight="bold" lengthAdjust="spacing" textLength="177" x="765.5893" y="35.6357">Integratie op bronnen</text><!--cluster Publicatie platformen --><g id="cluster_Publicatie platformen "><rect fill="none" height="109" rx="2.5" ry="2.5" style="stroke:#181818;stroke-width:1.0;" width="198" x="1518.1787" y="56.9375"/><path d="M1710.1787,56.9375 L1710.1787,66.2344 L1700.1787,76.2344 L1518.1787,76.2344 " fill="none" style="stroke:#181818;stroke-width:1.0;"/><text fill="#000000" font-family="sans-serif" font-size="14" font-weight="bold" lengthAdjust="spacing" textLength="177" x="1521.1787" y="70.9326">Publicatie platformen</text></g><!--cluster Services--><g id="cluster_Services"><rect fill="none" height="87" rx="2.5" ry="2.5" style="stroke:#181818;stroke-width:1.0;" width="200" x="602.1787" y="67.9375"/><path d="M679.1787,67.9375 L679.1787,77.2344 L669.1787,87.2344 L602.1787,87.2344 " fill="none" style="stroke:#181818;stroke-width:1.0;"/><text fill="#000000" font-family="sans-serif" font-size="14" font-weight="bold" lengthAdjust="spacing" textLength="67" x="605.1787" y="81.9326">Services</text></g><!--cluster Integratie--><g id="cluster_Integratie"><rect fill="none" height="96" rx="2.5" ry="2.5" style="stroke:#181818;stroke-width:1.0;" width="134" x="1544.1787" y="230.4375"/><path d="M1635.1787,230.4375 L1635.1787,239.7344 L1625.1787,249.7344 L1544.1787,249.7344 " fill="none" style="stroke:#181818;stroke-width:1.0;"/><text fill="#000000" font-family="sans-serif" font-size="14" font-weight="bold" lengthAdjust="spacing" textLength="81" x="1547.1787" y="244.4326">Integratie</text></g><!--cluster Bronnen--><g id="cluster_Bronnen"><rect fill="none" height="97" rx="2.5" ry="2.5" style="stroke:#181818;stroke-width:1.0;" width="879" x="490.1787" y="229.9375"/><path d="M567.1787,229.9375 L567.1787,239.2344 L557.1787,249.2344 L490.1787,249.2344 " fill="none" style="stroke:#181818;stroke-width:1.0;"/><text fill="#000000" font-family="sans-serif" font-size="14" font-weight="bold" lengthAdjust="spacing" textLength="67" x="493.1787" y="243.9326">Bronnen</text></g><!--entity Searchsite--><g id="elem_Searchsite"><ellipse cx="1611.1787" cy="120.9375" fill="#1ABC9C" rx="8" ry="8" style="stroke:#181818;stroke-width:0.5;"/><text fill="#000000" font-family="sans-serif" font-size="14" lengthAdjust="spacing" textLength="63" x="1579.6787" y="150.9326">Afnemer</text></g><!--entity OWS--><g id="elem_OWS"><polygon fill="#1ABC9C" points="618.1787,102.9375,776.1787,102.9375,786.1787,121.0859,776.1787,139.2344,618.1787,139.2344,628.1787,121.0859" style="stroke:#181818;stroke-width:0.5;"/><text fill="#000000" font-family="sans-serif" font-size="14" lengthAdjust="spacing" textLength="128" x="638.1787" y="125.9326">OpenWoo Service</text></g><!--entity IO--><g id="elem_IO"><path d="M1560.1787,275.4375 C1560.1787,265.4375 1611.1787,265.4375 1611.1787,265.4375 C1611.1787,265.4375 1662.1787,265.4375 1662.1787,275.4375 L1662.1787,300.7344 C1662.1787,310.7344 1611.1787,310.7344 1611.1787,310.7344 C1611.1787,310.7344 1560.1787,310.7344 1560.1787,300.7344 L1560.1787,275.4375 " fill="#1ABC9C" style="stroke:#181818;stroke-width:0.5;"/><path d="M1560.1787,275.4375 C1560.1787,285.4375 1611.1787,285.4375 1611.1787,285.4375 C1611.1787,285.4375 1662.1787,285.4375 1662.1787,275.4375 " fill="none" style="stroke:#181818;stroke-width:0.5;"/><text fill="#000000" font-family="sans-serif" font-size="14" lengthAdjust="spacing" textLength="82" x="1570.1787" y="302.4326">Open Index</text></g><!--entity Zaaksysteem--><g id="elem_Zaaksysteem"><rect fill="#CCE5FF" height="46.2969" rx="2.5" ry="2.5" style="stroke:#181818;stroke-width:0.5;" width="136" x="506.1787" y="264.9375"/><rect fill="#CCE5FF" height="10" style="stroke:#181818;stroke-width:0.5;" width="15" x="622.1787" y="269.9375"/><rect fill="#CCE5FF" height="2" style="stroke:#181818;stroke-width:0.5;" width="4" x="620.1787" y="271.9375"/><rect fill="#CCE5FF" height="2" style="stroke:#181818;stroke-width:0.5;" width="4" x="620.1787" y="275.9375"/><text fill="#000000" font-family="sans-serif" font-size="14" lengthAdjust="spacing" textLength="96" x="521.1787" y="297.9326">Zaaksysteem</text></g><!--entity CMS--><g id="elem_CMS"><rect fill="#CCE5FF" height="46.2969" rx="2.5" ry="2.5" style="stroke:#181818;stroke-width:0.5;" width="71" x="677.6787" y="264.9375"/><rect fill="#CCE5FF" height="10" style="stroke:#181818;stroke-width:0.5;" width="15" x="728.6787" y="269.9375"/><rect fill="#CCE5FF" height="2" style="stroke:#181818;stroke-width:0.5;" width="4" x="726.6787" y="271.9375"/><rect fill="#CCE5FF" height="2" style="stroke:#181818;stroke-width:0.5;" width="4" x="726.6787" y="275.9375"/><text fill="#000000" font-family="sans-serif" font-size="14" lengthAdjust="spacing" textLength="31" x="692.6787" y="297.9326">CMS</text></g><!--entity Raadsinfo--><g id="elem_Raadsinfo"><rect fill="#CCE5FF" height="46.2969" rx="2.5" ry="2.5" style="stroke:#181818;stroke-width:0.5;" width="227" x="783.6787" y="264.9375"/><rect fill="#CCE5FF" height="10" style="stroke:#181818;stroke-width:0.5;" width="15" x="990.6787" y="269.9375"/><rect fill="#CCE5FF" height="2" style="stroke:#181818;stroke-width:0.5;" width="4" x="988.6787" y="271.9375"/><rect fill="#CCE5FF" height="2" style="stroke:#181818;stroke-width:0.5;" width="4" x="988.6787" y="275.9375"/><text fill="#000000" font-family="sans-serif" font-size="14" lengthAdjust="spacing" textLength="187" x="798.6787" y="297.9326">Raads informatie systeem</text></g><!--entity eDepot--><g id="elem_eDepot"><rect fill="#CCE5FF" height="46.2969" rx="2.5" ry="2.5" style="stroke:#181818;stroke-width:0.5;" width="95" x="1045.6787" y="264.9375"/><rect fill="#CCE5FF" height="10" style="stroke:#181818;stroke-width:0.5;" width="15" x="1120.6787" y="269.9375"/><rect fill="#CCE5FF" height="2" style="stroke:#181818;stroke-width:0.5;" width="4" x="1118.6787" y="271.9375"/><rect fill="#CCE5FF" height="2" style="stroke:#181818;stroke-width:0.5;" width="4" x="1118.6787" y="275.9375"/><text fill="#000000" font-family="sans-serif" font-size="14" lengthAdjust="spacing" textLength="55" x="1060.6787" y="297.9326">eDepot</text></g><!--entity DMS--><g id="elem_DMS"><rect fill="#CCE5FF" height="46.2969" rx="2.5" ry="2.5" style="stroke:#181818;stroke-width:0.5;" width="72" x="1176.1787" y="264.9375"/><rect fill="#CCE5FF" height="10" style="stroke:#181818;stroke-width:0.5;" width="15" x="1228.1787" y="269.9375"/><rect fill="#CCE5FF" height="2" style="stroke:#181818;stroke-width:0.5;" width="4" x="1226.1787" y="271.9375"/><rect fill="#CCE5FF" height="2" style="stroke:#181818;stroke-width:0.5;" width="4" x="1226.1787" y="275.9375"/><text fill="#000000" font-family="sans-serif" font-size="14" lengthAdjust="spacing" textLength="32" x="1191.1787" y="297.9326">DMS</text></g><!--entity VTH--><g id="elem_VTH"><rect fill="#CCE5FF" height="46.2969" rx="2.5" ry="2.5" style="stroke:#181818;stroke-width:0.5;" width="69" x="1283.6787" y="264.9375"/><rect fill="#CCE5FF" height="10" style="stroke:#181818;stroke-width:0.5;" width="15" x="1332.6787" y="269.9375"/><rect fill="#CCE5FF" height="2" style="stroke:#181818;stroke-width:0.5;" width="4" x="1330.6787" y="271.9375"/><rect fill="#CCE5FF" height="2" style="stroke:#181818;stroke-width:0.5;" width="4" x="1330.6787" y="275.9375"/><text fill="#000000" font-family="sans-serif" font-size="14" lengthAdjust="spacing" textLength="29" x="1298.6787" y="297.9326">VTH</text></g><!--entity OI--><g id="elem_OI"><ellipse cx="22.1787" cy="287.9375" fill="#F1F1F1" rx="8" ry="8" style="stroke:#181818;stroke-width:0.5;"/><text fill="#000000" font-family="sans-serif" font-size="14" lengthAdjust="spacing" textLength="15" x="14.6787" y="317.9326">OI</text></g><!--link Searchsite to IO--><g id="link_Searchsite_IO"><path d="M1611.1787,130.3465 C1611.1787,155.1045 1611.1787,222.3035 1611.1787,259.1824 " fill="none" id="Searchsite-to-IO" style="stroke:#181818;stroke-width:1.0;"/><polygon fill="#181818" points="1611.1787,265.1824,1615.1787,256.1824,1611.1787,260.1824,1607.1787,256.1824,1611.1787,265.1824" style="stroke:#181818;stroke-width:1.0;"/><text fill="#000000" font-family="sans-serif" font-size="13" lengthAdjust="spacing" textLength="95" x="1612.1787" y="202.5044">Bevraagd (API)</text></g><!--link OWS to OI--><g id="link_OWS_OI"><path d="M617.9247,124.1095 C450.0257,129.2235 86.1801,144.5315 44.1787,181.9375 C15.805,207.2075 17.9829,252.9201 20.3222,272.8693 " fill="none" id="OWS-to-OI" style="stroke:#181818;stroke-width:1.0;stroke-dasharray:7.0,7.0;"/><polygon fill="#181818" points="21.021,278.8285,23.9456,269.4239,20.4386,273.8625,16,270.3556,21.021,278.8285" style="stroke:#181818;stroke-width:1.0;"/><text fill="#000000" font-family="sans-serif" font-size="13" lengthAdjust="spacing" textLength="67" x="45.1787" y="202.5044">Slaat op in</text></g><!--link OWS to CMS--><g id="link_OWS_CMS"><path d="M618.1427,137.6705 C558.9167,152.2905 495.7957,177.3555 530.1787,213.9375 C540.0137,224.4015 646.3737,215.4365 659.1787,221.9375 C677.4927,231.2345 688.7467,244.7144 698.0667,259.6328 " fill="none" id="OWS-to-CMS" style="stroke:#181818;stroke-width:1.0;"/><polygon fill="#181818" points="701.2457,264.7214,699.8695,254.9692,698.5965,260.4809,693.0847,259.2078,701.2457,264.7214" style="stroke:#181818;stroke-width:1.0;"/><text fill="#000000" font-family="sans-serif" font-size="13" lengthAdjust="spacing" textLength="127" x="531.1787" y="195.0044">Scrapes periodically</text><text fill="#000000" font-family="sans-serif" font-size="13" lengthAdjust="spacing" textLength="97" x="546.1787" y="210.1372">Uses as source</text></g><!--reverse link OWS to CMS--><g id="link_OWS_CMS"><path d="M700.7469,144.9882 C700.0419,156.9912 699.5407,167.4445 699.1787,181.9375 C698.8237,196.1555 697.8337,199.7795 699.1787,213.9375 C700.8147,231.1525 704.5737,250.3462 707.7847,264.7309 " fill="none" id="OWS-backto-CMS" style="stroke:#181818;stroke-width:1.0;"/><polygon fill="#181818" points="701.0987,138.9985,696.5778,147.7485,700.8055,143.9899,704.5641,148.2176,701.0987,138.9985" style="stroke:#181818;stroke-width:1.0;"/><text fill="#000000" font-family="sans-serif" font-size="13" lengthAdjust="spacing" textLength="191" x="700.1787" y="202.5044">Notifies of changes or deletes</text></g><!--link OWS to Zaaksysteem--><g id="link_OWS_Zaaksysteem"><path d="M617.9347,124.6355 C466.3507,130.3635 160.3277,146.2525 128.1787,181.9375 C118.6587,192.5035 118.9697,203.0995 128.1787,213.9375 C175.8697,270.0685 387.5008,282.9731 500.1518,285.9487 " fill="none" id="OWS-to-Zaaksysteem" style="stroke:#181818;stroke-width:1.0;"/><polygon fill="#181818" points="506.1497,286.1071,497.2584,281.8708,501.1514,285.9751,497.0472,289.8681,506.1497,286.1071" style="stroke:#181818;stroke-width:1.0;"/><text fill="#000000" font-family="sans-serif" font-size="13" lengthAdjust="spacing" textLength="127" x="129.1787" y="195.0044">Scrapes periodically</text><text fill="#000000" font-family="sans-serif" font-size="13" lengthAdjust="spacing" textLength="97" x="144.1787" y="210.1372">Uses as source</text></g><!--reverse link OWS to Zaaksysteem--><g id="link_OWS_Zaaksysteem"><path d="M611.9066,123.0933 C511.2476,126.2463 357.7017,138.0605 320.1787,181.9375 C264.2787,247.3034 413.0197,272.6755 505.9387,281.9675 " fill="none" id="OWS-backto-Zaaksysteem" style="stroke:#181818;stroke-width:1.0;"/><polygon fill="#181818" points="617.9037,122.9055,608.7828,119.1892,612.9061,123.062,609.0333,127.1853,617.9037,122.9055" style="stroke:#181818;stroke-width:1.0;"/><text fill="#000000" font-family="sans-serif" font-size="13" lengthAdjust="spacing" textLength="191" x="321.1787" y="202.5044">Notifies of changes or deletes</text></g><!--link OWS to Raadsinfo--><g id="link_OWS_Raadsinfo"><path d="M786.3667,125.9365 C826.3327,132.5775 870.8027,147.8675 896.1787,181.9375 C913.9287,205.7685 910.891,235.9886 905.317,259.0373 " fill="none" id="OWS-to-Raadsinfo" style="stroke:#181818;stroke-width:1.0;"/><polygon fill="#181818" points="903.9067,264.8692,909.9101,257.0616,905.082,260.0093,902.1343,255.1811,903.9067,264.8692" style="stroke:#181818;stroke-width:1.0;"/><text fill="#000000" font-family="sans-serif" font-size="13" lengthAdjust="spacing" textLength="127" x="909.1787" y="195.0044">Scrapes periodically</text><text fill="#000000" font-family="sans-serif" font-size="13" lengthAdjust="spacing" textLength="97" x="924.1787" y="210.1372">Uses as source</text></g><!--link OWS to eDepot--><g id="link_OWS_eDepot"><path d="M786.4257,127.7365 C874.6267,135.3405 1005.7087,151.4535 1045.1787,181.9375 C1071.5087,202.2745 1082.5671,234.5316 1088.0071,258.8153 " fill="none" id="OWS-to-eDepot" style="stroke:#181818;stroke-width:1.0;"/><polygon fill="#181818" points="1089.3187,264.6702,1091.2545,255.0135,1088.2257,259.7911,1083.448,256.7623,1089.3187,264.6702" style="stroke:#181818;stroke-width:1.0;"/><text fill="#000000" font-family="sans-serif" font-size="13" lengthAdjust="spacing" textLength="127" x="1072.1787" y="195.0044">Scrapes periodically</text><text fill="#000000" font-family="sans-serif" font-size="13" lengthAdjust="spacing" textLength="97" x="1087.1787" y="210.1372">Uses as source</text></g><!--link OWS to DMS--><g id="link_OWS_DMS"><path d="M786.2537,126.0265 C922.7197,133.5165 1180.1087,151.5285 1208.1787,181.9375 C1228.4687,203.9205 1225.7773,234.9887 1220.2273,258.6776 " fill="none" id="OWS-to-DMS" style="stroke:#181818;stroke-width:1.0;"/><polygon fill="#181818" points="1218.8587,264.5194,1224.8062,256.6691,1219.9992,259.6512,1217.0171,254.8442,1218.8587,264.5194" style="stroke:#181818;stroke-width:1.0;"/><text fill="#000000" font-family="sans-serif" font-size="13" lengthAdjust="spacing" textLength="127" x="1223.1787" y="195.0044">Scrapes periodically</text><text fill="#000000" font-family="sans-serif" font-size="13" lengthAdjust="spacing" textLength="97" x="1238.1787" y="210.1372">Uses as source</text></g><!--link OWS to VTH--><g id="link_OWS_VTH"><path d="M786.3287,123.4275 C954.9227,127.2865 1321.2687,140.4075 1359.1787,181.9375 C1380.6887,205.4965 1362.0077,237.0031 1342.8277,260.1421 " fill="none" id="OWS-to-VTH" style="stroke:#181818;stroke-width:1.0;"/><polygon fill="#181818" points="1338.9987,264.7615,1347.8218,260.3851,1342.1895,260.912,1341.6626,255.2798,1338.9987,264.7615" style="stroke:#181818;stroke-width:1.0;"/><text fill="#000000" font-family="sans-serif" font-size="13" lengthAdjust="spacing" textLength="127" x="1369.1787" y="195.0044">Scrapes periodically</text><text fill="#000000" font-family="sans-serif" font-size="13" lengthAdjust="spacing" textLength="97" x="1384.1787" y="210.1372">Uses as source</text></g><text fill="#888888" font-family="sans-serif" font-size="10" lengthAdjust="spacing" textLength="78" x="815.0893" y="341.2197">OpenWoo.app</text><!--SRC=[dLF1JXin4BtxAqRBeN18f1Oua0CID8T6AWIn1IJKoyGxJgpksfRjqAAg_zwnTpVPeAP2sOljcVVUZ9zdeuurmSn4MdgCci0wM7Xh31cXh8ta9p1tP9wi7QDpOaLOlOs93t2tNjHQPW5NOrJMDsJW-2lY4ixXONOYbCU6eFWti83V0lZJt8TNA1bufGmrv0l002MXbwkW8y7HHrp82od-fAeb-HSjARHrpZP5-dWlwxpbKu2Ywxed5f3Kvq_bhkp0ZLRvTAEyJVNQ5KPSOA1MdBaL_MfrP_DTsUlMraxpqqQpY_U2qZREyZb2yOpu8xo6IDHa7mPdW2CfwLofjvpFDsN6yheNSuzO1JOxkP-lEIoIaoctbqvJSZPcSBlTYvnspKp_qypZjoyPm-iMamsx9vuGRKrOQHV4O0X6bVrfHfV9uGbSqujdGoiulhhZEKklEHvVmdmsWR96Z6cYjH4vqHEJEPoM7Xq5SEIrhNWgw_hrkta87E9-WbrxIJkqeVy7qBVE7a3kd3w0EJtiikaztadZjxgrKQlyO_DxYUJlQErO9IbEkYnph0AvGhDCMmyLrHGfYA6lxwVz1G00]--></g></svg>