<?xml version="1.0" encoding="us-ascii" standalone="no"?><svg xmlns="http://www.w3.org/2000/svg" xmlns:xlink="http://www.w3.org/1999/xlink" contentStyleType="text/css" height="347px" preserveAspectRatio="none" style="width:1452px;height:347px;background:#FFFFFF;" version="1.1" viewBox="0 0 1452 347" width="1452px" zoomAndPan="magnify"><defs/><g><text fill="#000000" font-family="sans-serif" font-size="14" font-weight="bold" lengthAdjust="spacing" textLength="177" x="630.6995" y="22.9951">Integratie op bronnen</text><!--entity Afnemer--><g id="elem_Afnemer"><ellipse cx="716.3949" cy="51.2969" fill="#F1F1F1" rx="8" ry="8" style="stroke:#181818;stroke-width:0.5;"/><text fill="#000000" font-family="sans-serif" font-size="14" lengthAdjust="spacing" textLength="193" x="619.8949" y="81.292">Een of meerdere afnemers</text></g><!--entity Integratie--><g id="elem_Integratie"><rect fill="#F1F1F1" height="46.2969" rx="2.5" ry="2.5" style="stroke:#181818;stroke-width:0.5;" width="112" x="660.3949" y="157.2969"/><rect fill="#F1F1F1" height="10" style="stroke:#181818;stroke-width:0.5;" width="15" x="752.3949" y="162.2969"/><rect fill="#F1F1F1" height="2" style="stroke:#181818;stroke-width:0.5;" width="4" x="750.3949" y="164.2969"/><rect fill="#F1F1F1" height="2" style="stroke:#181818;stroke-width:0.5;" width="4" x="750.3949" y="168.2969"/><text fill="#000000" font-family="sans-serif" font-size="14" lengthAdjust="spacing" textLength="72" x="675.3949" y="190.292">Integratie</text></g><!--entity Zaaksysteem--><g id="elem_Zaaksysteem"><rect fill="#F1F1F1" height="46.2969" rx="2.5" ry="2.5" style="stroke:#181818;stroke-width:0.5;" width="136" x="46.3947" y="295.2969"/><rect fill="#F1F1F1" height="10" style="stroke:#181818;stroke-width:0.5;" width="15" x="162.3947" y="300.2969"/><rect fill="#F1F1F1" height="2" style="stroke:#181818;stroke-width:0.5;" width="4" x="160.3947" y="302.2969"/><rect fill="#F1F1F1" height="2" style="stroke:#181818;stroke-width:0.5;" width="4" x="160.3947" y="306.2969"/><text fill="#000000" font-family="sans-serif" font-size="14" lengthAdjust="spacing" textLength="96" x="61.3947" y="328.292">Zaaksysteem</text></g><!--entity CMS--><g id="elem_CMS"><rect fill="#F1F1F1" height="46.2969" rx="2.5" ry="2.5" style="stroke:#181818;stroke-width:0.5;" width="71" x="479.8949" y="295.2969"/><rect fill="#F1F1F1" height="10" style="stroke:#181818;stroke-width:0.5;" width="15" x="530.8949" y="300.2969"/><rect fill="#F1F1F1" height="2" style="stroke:#181818;stroke-width:0.5;" width="4" x="528.8949" y="302.2969"/><rect fill="#F1F1F1" height="2" style="stroke:#181818;stroke-width:0.5;" width="4" x="528.8949" y="306.2969"/><text fill="#000000" font-family="sans-serif" font-size="14" lengthAdjust="spacing" textLength="31" x="494.8949" y="328.292">CMS</text></g><!--entity Raadsinfo--><g id="elem_Raadsinfo"><rect fill="#F1F1F1" height="46.2969" rx="2.5" ry="2.5" style="stroke:#181818;stroke-width:0.5;" width="227" x="705.8949" y="295.2969"/><rect fill="#F1F1F1" height="10" style="stroke:#181818;stroke-width:0.5;" width="15" x="912.8949" y="300.2969"/><rect fill="#F1F1F1" height="2" style="stroke:#181818;stroke-width:0.5;" width="4" x="910.8949" y="302.2969"/><rect fill="#F1F1F1" height="2" style="stroke:#181818;stroke-width:0.5;" width="4" x="910.8949" y="306.2969"/><text fill="#000000" font-family="sans-serif" font-size="14" lengthAdjust="spacing" textLength="187" x="720.8949" y="328.292">Raads informatie systeem</text></g><!--entity eDepot--><g id="elem_eDepot"><rect fill="#F1F1F1" height="46.2969" rx="2.5" ry="2.5" style="stroke:#181818;stroke-width:0.5;" width="95" x="967.8949" y="295.2969"/><rect fill="#F1F1F1" height="10" style="stroke:#181818;stroke-width:0.5;" width="15" x="1042.8949" y="300.2969"/><rect fill="#F1F1F1" height="2" style="stroke:#181818;stroke-width:0.5;" width="4" x="1040.8949" y="302.2969"/><rect fill="#F1F1F1" height="2" style="stroke:#181818;stroke-width:0.5;" width="4" x="1040.8949" y="306.2969"/><text fill="#000000" font-family="sans-serif" font-size="14" lengthAdjust="spacing" textLength="55" x="982.8949" y="328.292">eDepot</text></g><!--entity DMS--><g id="elem_DMS"><rect fill="#F1F1F1" height="46.2969" rx="2.5" ry="2.5" style="stroke:#181818;stroke-width:0.5;" width="72" x="1135.3989" y="295.2969"/><rect fill="#F1F1F1" height="10" style="stroke:#181818;stroke-width:0.5;" width="15" x="1187.3989" y="300.2969"/><rect fill="#F1F1F1" height="2" style="stroke:#181818;stroke-width:0.5;" width="4" x="1185.3989" y="302.2969"/><rect fill="#F1F1F1" height="2" style="stroke:#181818;stroke-width:0.5;" width="4" x="1185.3989" y="306.2969"/><text fill="#000000" font-family="sans-serif" font-size="14" lengthAdjust="spacing" textLength="32" x="1150.3989" y="328.292">DMS</text></g><!--entity VTH--><g id="elem_VTH"><rect fill="#F1F1F1" height="46.2969" rx="2.5" ry="2.5" style="stroke:#181818;stroke-width:0.5;" width="69" x="1305.8989" y="295.2969"/><rect fill="#F1F1F1" height="10" style="stroke:#181818;stroke-width:0.5;" width="15" x="1354.8989" y="300.2969"/><rect fill="#F1F1F1" height="2" style="stroke:#181818;stroke-width:0.5;" width="4" x="1352.8989" y="302.2969"/><rect fill="#F1F1F1" height="2" style="stroke:#181818;stroke-width:0.5;" width="4" x="1352.8989" y="306.2969"/><text fill="#000000" font-family="sans-serif" font-size="14" lengthAdjust="spacing" textLength="29" x="1320.8989" y="328.292">VTH</text></g><!--link Afnemer to Integratie--><g id="link_Afnemer_Integratie"><path d="M716.3949,60.6299 C716.3949,79.9439 716.3949,122.3049 716.3949,150.9749 " fill="none" id="Afnemer-to-Integratie" style="stroke:#181818;stroke-width:1.0;"/><polygon fill="#181818" points="716.3949,156.9749,720.3949,147.9749,716.3949,151.9749,712.3949,147.9749,716.3949,156.9749" style="stroke:#181818;stroke-width:1.0;"/><text fill="#000000" font-family="sans-serif" font-size="13" lengthAdjust="spacing" textLength="120" x="717.3949" y="123.3638">Directly connected</text></g><!--link Integratie to CMS--><g id="link_Integratie_CMS"><path d="M660.2359,183.1899 C584.9409,187.0449 457.3499,198.6459 428.3949,233.2969 C419.2749,244.2105 421.3769,252.9267 428.3949,265.2969 C439.4219,284.7344 455.4072,295.313 474.2732,303.4281 " fill="none" id="Integratie-to-CMS" style="stroke:#181818;stroke-width:1.0;"/><polygon fill="#181818" points="479.7849,305.799,473.0979,298.5682,475.1918,303.8233,469.9368,305.9172,479.7849,305.799" style="stroke:#181818;stroke-width:1.0;"/><text fill="#000000" font-family="sans-serif" font-size="13" lengthAdjust="spacing" textLength="127" x="429.3949" y="246.3638">Scrapes periodically</text><text fill="#000000" font-family="sans-serif" font-size="13" lengthAdjust="spacing" textLength="97" x="444.3949" y="261.4966">Uses as source</text></g><!--reverse link Integratie to CMS--><g id="link_Integratie_CMS"><path d="M654.6358,201.4488 C632.7018,209.9078 613.6159,219.1279 593.3949,233.2969 C586.6309,238.0359 555.8419,271.9488 535.0299,295.2079 " fill="none" id="Integratie-backto-CMS" style="stroke:#181818;stroke-width:1.0;"/><polygon fill="#181818" points="660.2339,199.2899,650.3974,198.7962,655.5688,201.089,653.276,206.2604,660.2339,199.2899" style="stroke:#181818;stroke-width:1.0;"/><text fill="#000000" font-family="sans-serif" font-size="13" lengthAdjust="spacing" textLength="191" x="594.3949" y="253.8638">Notifies of changes or deletes</text></g><!--link Integratie to Zaaksysteem--><g id="link_Integratie_Zaaksysteem"><path d="M660.3229,181.2549 C503.5209,181.7199 69.1551,187.1929 26.3947,233.2969 C6,255.2864 30.0443,275.8434 60.1896,292.3589 " fill="none" id="Integratie-to-Zaaksysteem" style="stroke:#181818;stroke-width:1.0;"/><polygon fill="#181818" points="65.4516,295.2418,59.4805,287.4094,61.0666,292.8394,55.6366,294.4255,65.4516,295.2418" style="stroke:#181818;stroke-width:1.0;"/><text fill="#000000" font-family="sans-serif" font-size="13" lengthAdjust="spacing" textLength="127" x="27.3947" y="246.3638">Scrapes periodically</text><text fill="#000000" font-family="sans-serif" font-size="13" lengthAdjust="spacing" textLength="97" x="42.3947" y="261.4966">Uses as source</text></g><!--reverse link Integratie to Zaaksysteem--><g id="link_Integratie_Zaaksysteem"><path d="M654.075,183.5502 C541.714,188.1852 299.7739,201.5259 221.3949,233.2969 C187.2509,247.1372 154.9869,275.302 134.9899,295.1939 " fill="none" id="Integratie-backto-Zaaksysteem" style="stroke:#181818;stroke-width:1.0;"/><polygon fill="#181818" points="660.0699,183.3029,650.9127,179.6772,655.0741,183.509,651.2424,187.6704,660.0699,183.3029" style="stroke:#181818;stroke-width:1.0;"/><text fill="#000000" font-family="sans-serif" font-size="13" lengthAdjust="spacing" textLength="191" x="222.3949" y="253.8638">Notifies of changes or deletes</text></g><!--link Integratie to Raadsinfo--><g id="link_Integratie_Raadsinfo"><path d="M760.8699,203.4079 C773.1979,211.3679 785.5969,221.3829 794.3949,233.2969 C807.8619,251.5349 813.1781,271.0731 816.0581,289.173 " fill="none" id="Integratie-to-Raadsinfo" style="stroke:#181818;stroke-width:1.0;"/><polygon fill="#181818" points="817.0009,295.0985,819.5369,285.5817,816.2152,290.1606,811.6363,286.8388,817.0009,295.0985" style="stroke:#181818;stroke-width:1.0;"/><text fill="#000000" font-family="sans-serif" font-size="13" lengthAdjust="spacing" textLength="127" x="811.3949" y="246.3638">Scrapes periodically</text><text fill="#000000" font-family="sans-serif" font-size="13" lengthAdjust="spacing" textLength="97" x="826.3949" y="261.4966">Uses as source</text></g><!--link Integratie to eDepot--><g id="link_Integratie_eDepot"><path d="M772.5409,183.6599 C821.8919,188.0179 893.9689,200.1099 947.3949,233.2969 C971.9399,248.5436 988.448,270.7156 1000.187,290.0504 " fill="none" id="Integratie-to-eDepot" style="stroke:#181818;stroke-width:1.0;"/><polygon fill="#181818" points="1003.3009,295.1791,1002.0492,285.4101,1000.706,290.9051,995.2109,289.5619,1003.3009,295.1791" style="stroke:#181818;stroke-width:1.0;"/><text fill="#000000" font-family="sans-serif" font-size="13" lengthAdjust="spacing" textLength="127" x="983.3949" y="246.3638">Scrapes periodically</text><text fill="#000000" font-family="sans-serif" font-size="13" lengthAdjust="spacing" textLength="97" x="998.3949" y="261.4966">Uses as source</text></g><!--link Integratie to DMS--><g id="link_Integratie_DMS"><path d="M772.4739,182.6709 C869.3809,185.9939 1063.2089,197.0919 1119.3989,233.2969 C1141.7389,247.6967 1153.864,269.8807 1161.714,289.5408 " fill="none" id="Integratie-to-DMS" style="stroke:#181818;stroke-width:1.0;"/><polygon fill="#181818" points="1163.9389,295.1131,1164.3164,285.2715,1162.0848,290.4695,1156.8867,288.238,1163.9389,295.1131" style="stroke:#181818;stroke-width:1.0;"/><text fill="#000000" font-family="sans-serif" font-size="13" lengthAdjust="spacing" textLength="127" x="1149.3989" y="246.3638">Scrapes periodically</text><text fill="#000000" font-family="sans-serif" font-size="13" lengthAdjust="spacing" textLength="97" x="1164.3989" y="261.4966">Uses as source</text></g><!--link Integratie to VTH--><g id="link_Integratie_VTH"><path d="M772.4159,183.6589 C907.2799,189.7329 1242.0889,207.2709 1285.3989,233.2969 C1308.6989,247.3035 1321.6871,269.9079 1330.0971,289.746 " fill="none" id="Integratie-to-VTH" style="stroke:#181818;stroke-width:1.0;"/><polygon fill="#181818" points="1332.4389,295.2701,1332.6089,285.4227,1330.4874,290.6667,1325.2434,288.5451,1332.4389,295.2701" style="stroke:#181818;stroke-width:1.0;"/><text fill="#000000" font-family="sans-serif" font-size="13" lengthAdjust="spacing" textLength="127" x="1317.3989" y="246.3638">Scrapes periodically</text><text fill="#000000" font-family="sans-serif" font-size="13" lengthAdjust="spacing" textLength="97" x="1332.3989" y="261.4966">Uses as source</text></g><!--SRC=[fLEnJiCm4Dtz5QSiJFq11YHea62WGmiCYCNOBwtLnBREhb3_7jjf6uCOG9byT-_Ukzmx9PhOWnvjn9PbD23dwOETjR12ND5B01UKEwb0IpTubw0epANMtCEIwsW0M8D1ihCOmA4X6UXsJBBMdLHxM3s91A7E8JNJ9nJUbDPDRrBkmp54O2XTLLwtBPys1KvlNLvBgGCPspaUogwrL04pLZFGmhjOy36imVOqfVq-vVNvePJJcxTUeq-pd0qxuuCusK4BxJxjugOs_ffQmr2nFvBA_gi8BIhyJ4bBfTwDOkaHo8EDqqR9lZ- -stIka6S7Ts25tzYLOpDKBcRDq1WDdI7GpZ8YdUUlx7J5bOkcIt2vfCWdM1pyp_kDJOcQ_WQratQRGoQD7X51rDR_c_q5]--></g></svg>