<?xml version="1.0" encoding="us-ascii" standalone="no"?><svg xmlns="http://www.w3.org/2000/svg" xmlns:xlink="http://www.w3.org/1999/xlink" contentStyleType="text/css" height="351px" preserveAspectRatio="none" style="width:1698px;height:351px;background:#FFFFFF;" version="1.1" viewBox="0 0 1698 351" width="1698px" zoomAndPan="magnify"><defs/><g><text fill="#888888" font-family="sans-serif" font-size="10" lengthAdjust="spacing" textLength="78" x="1606" y="9.2822">OpenWoo.app</text><text fill="#000000" font-family="sans-serif" font-size="14" font-weight="bold" lengthAdjust="spacing" textLength="177" x="753.5" y="35.6357">Integratie op bronnen</text><!--cluster Publicatie platformen --><g id="cluster_Publicatie platformen "><rect fill="none" height="109" rx="2.5" ry="2.5" style="stroke:#181818;stroke-width:1.0;" width="198" x="7" y="56.9375"/><path d="M199,56.9375 L199,66.2344 L189,76.2344 L7,76.2344 " fill="none" style="stroke:#181818;stroke-width:1.0;"/><text fill="#000000" font-family="sans-serif" font-size="14" font-weight="bold" lengthAdjust="spacing" textLength="177" x="10" y="70.9326">Publicatie platformen</text></g><!--cluster Services--><g id="cluster_Services"><rect fill="none" height="87" rx="2.5" ry="2.5" style="stroke:#181818;stroke-width:1.0;" width="200" x="797" y="67.9375"/><path d="M874,67.9375 L874,77.2344 L864,87.2344 L797,87.2344 " fill="none" style="stroke:#181818;stroke-width:1.0;"/><text fill="#000000" font-family="sans-serif" font-size="14" font-weight="bold" lengthAdjust="spacing" textLength="67" x="800" y="81.9326">Services</text></g><!--cluster Integratie--><g id="cluster_Integratie"><rect fill="none" height="96" rx="2.5" ry="2.5" style="stroke:#181818;stroke-width:1.0;" width="134" x="32" y="230.4375"/><path d="M123,230.4375 L123,239.7344 L113,249.7344 L32,249.7344 " fill="none" style="stroke:#181818;stroke-width:1.0;"/><text fill="#000000" font-family="sans-serif" font-size="14" font-weight="bold" lengthAdjust="spacing" textLength="81" x="35" y="244.4326">Integratie</text></g><!--cluster Bronnen--><g id="cluster_Bronnen"><rect fill="none" height="97" rx="2.5" ry="2.5" style="stroke:#181818;stroke-width:1.0;" width="879" x="685" y="229.9375"/><path d="M762,229.9375 L762,239.2344 L752,249.2344 L685,249.2344 " fill="none" style="stroke:#181818;stroke-width:1.0;"/><text fill="#000000" font-family="sans-serif" font-size="14" font-weight="bold" lengthAdjust="spacing" textLength="67" x="688" y="243.9326">Bronnen</text></g><!--entity Searchsite--><g id="elem_Searchsite"><ellipse cx="80" cy="120.9375" fill="#1ABC9C" rx="8" ry="8" style="stroke:#181818;stroke-width:0.5;"/><text fill="#000000" font-family="sans-serif" font-size="14" lengthAdjust="spacing" textLength="63" x="48.5" y="150.9326">Afnemer</text></g><!--entity OWS--><g id="elem_OWS"><polygon fill="#1ABC9C" points="813,102.9375,971,102.9375,981,121.0859,971,139.2344,813,139.2344,823,121.0859" style="stroke:#181818;stroke-width:0.5;"/><text fill="#000000" font-family="sans-serif" font-size="14" lengthAdjust="spacing" textLength="128" x="833" y="125.9326">OpenWoo Service</text></g><!--entity OI--><g id="elem_OI"><path d="M48,275.4375 C48,265.4375 99,265.4375 99,265.4375 C99,265.4375 150,265.4375 150,275.4375 L150,300.7344 C150,310.7344 99,310.7344 99,310.7344 C99,310.7344 48,310.7344 48,300.7344 L48,275.4375 " fill="#1ABC9C" style="stroke:#181818;stroke-width:0.5;"/><path d="M48,275.4375 C48,285.4375 99,285.4375 99,285.4375 C99,285.4375 150,285.4375 150,275.4375 " fill="none" style="stroke:#181818;stroke-width:0.5;"/><text fill="#000000" font-family="sans-serif" font-size="14" lengthAdjust="spacing" textLength="82" x="58" y="302.4326">Open Index</text></g><!--entity Zaaksysteem--><g id="elem_Zaaksysteem"><rect fill="#CCE5FF" height="46.2969" rx="2.5" ry="2.5" style="stroke:#181818;stroke-width:0.5;" width="136" x="701" y="264.9375"/><rect fill="#CCE5FF" height="10" style="stroke:#181818;stroke-width:0.5;" width="15" x="817" y="269.9375"/><rect fill="#CCE5FF" height="2" style="stroke:#181818;stroke-width:0.5;" width="4" x="815" y="271.9375"/><rect fill="#CCE5FF" height="2" style="stroke:#181818;stroke-width:0.5;" width="4" x="815" y="275.9375"/><text fill="#000000" font-family="sans-serif" font-size="14" lengthAdjust="spacing" textLength="96" x="716" y="297.9326">Zaaksysteem</text></g><!--entity CMS--><g id="elem_CMS"><rect fill="#CCE5FF" height="46.2969" rx="2.5" ry="2.5" style="stroke:#181818;stroke-width:0.5;" width="71" x="872.5" y="264.9375"/><rect fill="#CCE5FF" height="10" style="stroke:#181818;stroke-width:0.5;" width="15" x="923.5" y="269.9375"/><rect fill="#CCE5FF" height="2" style="stroke:#181818;stroke-width:0.5;" width="4" x="921.5" y="271.9375"/><rect fill="#CCE5FF" height="2" style="stroke:#181818;stroke-width:0.5;" width="4" x="921.5" y="275.9375"/><text fill="#000000" font-family="sans-serif" font-size="14" lengthAdjust="spacing" textLength="31" x="887.5" y="297.9326">CMS</text></g><!--entity Raadsinfo--><g id="elem_Raadsinfo"><rect fill="#CCE5FF" height="46.2969" rx="2.5" ry="2.5" style="stroke:#181818;stroke-width:0.5;" width="227" x="978.5" y="264.9375"/><rect fill="#CCE5FF" height="10" style="stroke:#181818;stroke-width:0.5;" width="15" x="1185.5" y="269.9375"/><rect fill="#CCE5FF" height="2" style="stroke:#181818;stroke-width:0.5;" width="4" x="1183.5" y="271.9375"/><rect fill="#CCE5FF" height="2" style="stroke:#181818;stroke-width:0.5;" width="4" x="1183.5" y="275.9375"/><text fill="#000000" font-family="sans-serif" font-size="14" lengthAdjust="spacing" textLength="187" x="993.5" y="297.9326">Raads informatie systeem</text></g><!--entity eDepot--><g id="elem_eDepot"><rect fill="#CCE5FF" height="46.2969" rx="2.5" ry="2.5" style="stroke:#181818;stroke-width:0.5;" width="95" x="1240.5" y="264.9375"/><rect fill="#CCE5FF" height="10" style="stroke:#181818;stroke-width:0.5;" width="15" x="1315.5" y="269.9375"/><rect fill="#CCE5FF" height="2" style="stroke:#181818;stroke-width:0.5;" width="4" x="1313.5" y="271.9375"/><rect fill="#CCE5FF" height="2" style="stroke:#181818;stroke-width:0.5;" width="4" x="1313.5" y="275.9375"/><text fill="#000000" font-family="sans-serif" font-size="14" lengthAdjust="spacing" textLength="55" x="1255.5" y="297.9326">eDepot</text></g><!--entity DMS--><g id="elem_DMS"><rect fill="#CCE5FF" height="46.2969" rx="2.5" ry="2.5" style="stroke:#181818;stroke-width:0.5;" width="72" x="1371" y="264.9375"/><rect fill="#CCE5FF" height="10" style="stroke:#181818;stroke-width:0.5;" width="15" x="1423" y="269.9375"/><rect fill="#CCE5FF" height="2" style="stroke:#181818;stroke-width:0.5;" width="4" x="1421" y="271.9375"/><rect fill="#CCE5FF" height="2" style="stroke:#181818;stroke-width:0.5;" width="4" x="1421" y="275.9375"/><text fill="#000000" font-family="sans-serif" font-size="14" lengthAdjust="spacing" textLength="32" x="1386" y="297.9326">DMS</text></g><!--entity VTH--><g id="elem_VTH"><rect fill="#CCE5FF" height="46.2969" rx="2.5" ry="2.5" style="stroke:#181818;stroke-width:0.5;" width="69" x="1478.5" y="264.9375"/><rect fill="#CCE5FF" height="10" style="stroke:#181818;stroke-width:0.5;" width="15" x="1527.5" y="269.9375"/><rect fill="#CCE5FF" height="2" style="stroke:#181818;stroke-width:0.5;" width="4" x="1525.5" y="271.9375"/><rect fill="#CCE5FF" height="2" style="stroke:#181818;stroke-width:0.5;" width="4" x="1525.5" y="275.9375"/><text fill="#000000" font-family="sans-serif" font-size="14" lengthAdjust="spacing" textLength="29" x="1493.5" y="297.9326">VTH</text></g><!--link Searchsite to OI--><g id="link_Searchsite_OI"><path d="M79.4633,130.0845 C78.7329,141.6205 77.4637,163.3785 77,181.9375 C76.6448,196.1555 74.9259,199.8675 77,213.9375 C79.606,231.6155 83.5811,245.2931 88.6476,259.6202 " fill="none" id="Searchsite-to-OI" style="stroke:#181818;stroke-width:1.0;"/><polygon fill="#181818" points="90.648,265.2769,91.4186,255.4582,88.981,260.563,83.8763,258.1254,90.648,265.2769" style="stroke:#181818;stroke-width:1.0;"/><text fill="#000000" font-family="sans-serif" font-size="13" lengthAdjust="spacing" textLength="95" x="78" y="202.5044">Bevraagd (API)</text></g><!--link OWS to OI--><g id="link_OWS_OI"><path d="M812.86,123.9175 C659.685,128.4565 341.646,142.4535 239,181.9375 C191.078,200.3715 149.703,236.0297 124.201,260.9897 " fill="none" id="OWS-to-OI" style="stroke:#181818;stroke-width:1.0;stroke-dasharray:7.0,7.0;"/><polygon fill="#181818" points="119.913,265.1865,129.1428,261.7499,123.4863,261.6891,123.5471,256.0326,119.913,265.1865" style="stroke:#181818;stroke-width:1.0;"/><text fill="#000000" font-family="sans-serif" font-size="13" lengthAdjust="spacing" textLength="67" x="240" y="202.5044">Slaat op in</text></g><!--link OWS to CMS--><g id="link_OWS_CMS"><path d="M812.964,137.6705 C753.738,152.2905 690.617,177.3555 725,213.9375 C734.835,224.4015 841.195,215.4365 854,221.9375 C872.314,231.2345 883.568,244.7144 892.888,259.6328 " fill="none" id="OWS-to-CMS" style="stroke:#181818;stroke-width:1.0;"/><polygon fill="#181818" points="896.067,264.7214,894.6909,254.9692,893.4178,260.4809,887.9061,259.2078,896.067,264.7214" style="stroke:#181818;stroke-width:1.0;"/><text fill="#000000" font-family="sans-serif" font-size="13" lengthAdjust="spacing" textLength="127" x="726" y="195.0044">Scrapes periodically</text><text fill="#000000" font-family="sans-serif" font-size="13" lengthAdjust="spacing" textLength="97" x="741" y="210.1372">Uses as source</text></g><!--reverse link OWS to CMS--><g id="link_OWS_CMS"><path d="M895.5682,144.9882 C894.8632,156.9912 894.362,167.4445 894,181.9375 C893.645,196.1555 892.655,199.7795 894,213.9375 C895.636,231.1525 899.395,250.3462 902.606,264.7309 " fill="none" id="OWS-backto-CMS" style="stroke:#181818;stroke-width:1.0;"/><polygon fill="#181818" points="895.92,138.9985,891.3992,147.7485,895.6268,143.9899,899.3854,148.2176,895.92,138.9985" style="stroke:#181818;stroke-width:1.0;"/><text fill="#000000" font-family="sans-serif" font-size="13" lengthAdjust="spacing" textLength="191" x="895" y="202.5044">Notifies of changes or deletes</text></g><!--link OWS to Zaaksysteem--><g id="link_OWS_Zaaksysteem"><path d="M812.756,124.6355 C661.172,130.3635 355.149,146.2525 323,181.9375 C313.48,192.5035 313.791,203.0995 323,213.9375 C370.691,270.0685 582.3221,282.9731 694.9731,285.9487 " fill="none" id="OWS-to-Zaaksysteem" style="stroke:#181818;stroke-width:1.0;"/><polygon fill="#181818" points="700.971,286.1071,692.0798,281.8708,695.9727,285.9751,691.8685,289.8681,700.971,286.1071" style="stroke:#181818;stroke-width:1.0;"/><text fill="#000000" font-family="sans-serif" font-size="13" lengthAdjust="spacing" textLength="127" x="324" y="195.0044">Scrapes periodically</text><text fill="#000000" font-family="sans-serif" font-size="13" lengthAdjust="spacing" textLength="97" x="339" y="210.1372">Uses as source</text></g><!--reverse link OWS to Zaaksysteem--><g id="link_OWS_Zaaksysteem"><path d="M806.7279,123.0933 C706.0689,126.2463 552.523,138.0605 515,181.9375 C459.1,247.3034 607.841,272.6755 700.76,281.9675 " fill="none" id="OWS-backto-Zaaksysteem" style="stroke:#181818;stroke-width:1.0;"/><polygon fill="#181818" points="812.725,122.9055,803.6042,119.1892,807.7275,123.062,803.8546,127.1853,812.725,122.9055" style="stroke:#181818;stroke-width:1.0;"/><text fill="#000000" font-family="sans-serif" font-size="13" lengthAdjust="spacing" textLength="191" x="516" y="202.5044">Notifies of changes or deletes</text></g><!--link OWS to Raadsinfo--><g id="link_OWS_Raadsinfo"><path d="M981.188,125.9365 C1021.15,132.5775 1065.62,147.8675 1091,181.9375 C1108.75,205.7685 1105.7094,235.9884 1100.1394,259.0371 " fill="none" id="OWS-to-Raadsinfo" style="stroke:#181818;stroke-width:1.0;"/><polygon fill="#181818" points="1098.73,264.8692,1104.7322,257.0606,1099.9045,260.0091,1096.956,255.1814,1098.73,264.8692" style="stroke:#181818;stroke-width:1.0;"/><text fill="#000000" font-family="sans-serif" font-size="13" lengthAdjust="spacing" textLength="127" x="1104" y="195.0044">Scrapes periodically</text><text fill="#000000" font-family="sans-serif" font-size="13" lengthAdjust="spacing" textLength="97" x="1119" y="210.1372">Uses as source</text></g><!--link OWS to eDepot--><g id="link_OWS_eDepot"><path d="M981.247,127.7365 C1069.45,135.3405 1200.53,151.4535 1240,181.9375 C1266.33,202.2745 1277.3884,234.5316 1282.8284,258.8153 " fill="none" id="OWS-to-eDepot" style="stroke:#181818;stroke-width:1.0;"/><polygon fill="#181818" points="1284.14,264.6702,1286.0759,255.0135,1283.047,259.7911,1278.2693,256.7623,1284.14,264.6702" style="stroke:#181818;stroke-width:1.0;"/><text fill="#000000" font-family="sans-serif" font-size="13" lengthAdjust="spacing" textLength="127" x="1267" y="195.0044">Scrapes periodically</text><text fill="#000000" font-family="sans-serif" font-size="13" lengthAdjust="spacing" textLength="97" x="1282" y="210.1372">Uses as source</text></g><!--link OWS to DMS--><g id="link_OWS_DMS"><path d="M981.075,126.0265 C1117.54,133.5165 1374.93,151.5285 1403,181.9375 C1423.29,203.9205 1420.5987,234.9887 1415.0487,258.6776 " fill="none" id="OWS-to-DMS" style="stroke:#181818;stroke-width:1.0;"/><polygon fill="#181818" points="1413.68,264.5194,1419.6275,256.6691,1414.8206,259.6512,1411.8384,254.8442,1413.68,264.5194" style="stroke:#181818;stroke-width:1.0;"/><text fill="#000000" font-family="sans-serif" font-size="13" lengthAdjust="spacing" textLength="127" x="1418" y="195.0044">Scrapes periodically</text><text fill="#000000" font-family="sans-serif" font-size="13" lengthAdjust="spacing" textLength="97" x="1433" y="210.1372">Uses as source</text></g><!--link OWS to VTH--><g id="link_OWS_VTH"><path d="M981.15,123.4275 C1149.74,127.2865 1516.09,140.4075 1554,181.9375 C1575.51,205.4965 1556.829,237.0031 1537.649,260.1421 " fill="none" id="OWS-to-VTH" style="stroke:#181818;stroke-width:1.0;"/><polygon fill="#181818" points="1533.82,264.7615,1542.6431,260.3851,1537.0108,260.912,1536.4839,255.2798,1533.82,264.7615" style="stroke:#181818;stroke-width:1.0;"/><text fill="#000000" font-family="sans-serif" font-size="13" lengthAdjust="spacing" textLength="127" x="1563" y="195.0044">Scrapes periodically</text><text fill="#000000" font-family="sans-serif" font-size="13" lengthAdjust="spacing" textLength="97" x="1578" y="210.1372">Uses as source</text></g><text fill="#888888" font-family="sans-serif" font-size="10" lengthAdjust="spacing" textLength="78" x="803" y="341.2197">OpenWoo.app</text><!--SRC=[dLDDJnin4BtxLuoMG-6GI2tbG0wLW1mQgHJ45Y9LN2RUSM9rrxPiXnPL_UyTUtUJ3I88PI_-cFVUZD_CHXrhWfc9jFGODO5riF3M6392MHl9J-36aPbREqRdn8gmUdadFi3jUb5hcGLSZL5Ptv21us-8IpY3-zc9K1uRWk9rO05_1V2dkGwlK3BmGXbgo1U00Kf2BrT1HuAZZxYGvrByIrbByazQKcZpVDuawUzxMUSjdm8KNTKziO2aVZClTsK7RhJAfnlbRQZNhZ3Y0WEruiojw4-dEzkLlMnjxJG_RJIx-rvGsiPPFaSeVYB-2iyX4ZNPXy4Pu4XAEbFg9UVgkinONlTYxX2hm6Odz_CpXqboCCNsqcbApiOCRhTxaTEkcEaRnJpy-9enl6unsR0xuWdHreILTa4CXc1KsTzcz2KvF85BUl9iQ0N75xSyPwcRut6AJQ2i4MEQQ6r43lJ4P0w7fKT70HnvRIkUohf-VZJtWQ-udc3NNj8ERUZ_0VIjimUGEwSFO4uFUspgnpjftAllDcgLVspkbqZ-ZjOkjMYUahTHvbW5SeLccROUAgefKX13NzzF-my0]--></g></svg>