<?xml version="1.0" encoding="us-ascii" standalone="no"?><svg xmlns="http://www.w3.org/2000/svg" xmlns:xlink="http://www.w3.org/1999/xlink" contentStyleType="text/css" height="351px" preserveAspectRatio="none" style="width:1724px;height:351px;background:#FFFFFF;" version="1.1" viewBox="0 0 1724 351" width="1724px" zoomAndPan="magnify"><defs/><g><text fill="#888888" font-family="sans-serif" font-size="10" lengthAdjust="spacing" textLength="78" x="1632" y="9.2822">OpenWoo.app</text><text fill="#000000" font-family="sans-serif" font-size="14" font-weight="bold" lengthAdjust="spacing" textLength="177" x="766.5" y="35.6357">Integratie op bronnen</text><!--cluster Publicatie platformen --><g id="cluster_Publicatie platformen "><rect fill="none" height="109" rx="2.5" ry="2.5" style="stroke:#181818;stroke-width:1.0;" width="198" x="7" y="56.9375"/><path d="M199,56.9375 L199,66.2344 L189,76.2344 L7,76.2344 " fill="none" style="stroke:#181818;stroke-width:1.0;"/><text fill="#000000" font-family="sans-serif" font-size="14" font-weight="bold" lengthAdjust="spacing" textLength="177" x="10" y="70.9326">Publicatie platformen</text></g><!--cluster Services--><g id="cluster_Services"><rect fill="none" height="87" rx="2.5" ry="2.5" style="stroke:#181818;stroke-width:1.0;" width="200" x="823" y="67.9375"/><path d="M900,67.9375 L900,77.2344 L890,87.2344 L823,87.2344 " fill="none" style="stroke:#181818;stroke-width:1.0;"/><text fill="#000000" font-family="sans-serif" font-size="14" font-weight="bold" lengthAdjust="spacing" textLength="67" x="826" y="81.9326">Services</text></g><!--cluster Integratie--><g id="cluster_Integratie"><rect fill="none" height="96" rx="2.5" ry="2.5" style="stroke:#181818;stroke-width:1.0;" width="134" x="176" y="230.4375"/><path d="M267,230.4375 L267,239.7344 L257,249.7344 L176,249.7344 " fill="none" style="stroke:#181818;stroke-width:1.0;"/><text fill="#000000" font-family="sans-serif" font-size="14" font-weight="bold" lengthAdjust="spacing" textLength="81" x="179" y="244.4326">Integratie</text></g><!--cluster Bronnen--><g id="cluster_Bronnen"><rect fill="none" height="97" rx="2.5" ry="2.5" style="stroke:#181818;stroke-width:1.0;" width="879" x="711" y="229.9375"/><path d="M788,229.9375 L788,239.2344 L778,249.2344 L711,249.2344 " fill="none" style="stroke:#181818;stroke-width:1.0;"/><text fill="#000000" font-family="sans-serif" font-size="14" font-weight="bold" lengthAdjust="spacing" textLength="67" x="714" y="243.9326">Bronnen</text></g><!--entity Searchsite--><g id="elem_Searchsite"><ellipse cx="106" cy="120.9375" fill="#1ABC9C" rx="8" ry="8" style="stroke:#181818;stroke-width:0.5;"/><text fill="#000000" font-family="sans-serif" font-size="14" lengthAdjust="spacing" textLength="63" x="74.5" y="150.9326">Afnemer</text></g><!--entity OWS--><g id="elem_OWS"><polygon fill="#1ABC9C" points="839,102.9375,997,102.9375,1007,121.0859,997,139.2344,839,139.2344,849,121.0859" style="stroke:#181818;stroke-width:0.5;"/><text fill="#000000" font-family="sans-serif" font-size="14" lengthAdjust="spacing" textLength="128" x="859" y="125.9326">OpenWoo Service</text></g><!--entity OI--><g id="elem_OI"><path d="M192,275.4375 C192,265.4375 243,265.4375 243,265.4375 C243,265.4375 294,265.4375 294,275.4375 L294,300.7344 C294,310.7344 243,310.7344 243,310.7344 C243,310.7344 192,310.7344 192,300.7344 L192,275.4375 " fill="#1ABC9C" style="stroke:#181818;stroke-width:0.5;"/><path d="M192,275.4375 C192,285.4375 243,285.4375 243,285.4375 C243,285.4375 294,285.4375 294,275.4375 " fill="none" style="stroke:#181818;stroke-width:0.5;"/><text fill="#000000" font-family="sans-serif" font-size="14" lengthAdjust="spacing" textLength="82" x="202" y="302.4326">Open Index</text></g><!--entity Zaaksysteem--><g id="elem_Zaaksysteem"><rect fill="#CCE5FF" height="46.2969" rx="2.5" ry="2.5" style="stroke:#181818;stroke-width:0.5;" width="136" x="727" y="264.9375"/><rect fill="#CCE5FF" height="10" style="stroke:#181818;stroke-width:0.5;" width="15" x="843" y="269.9375"/><rect fill="#CCE5FF" height="2" style="stroke:#181818;stroke-width:0.5;" width="4" x="841" y="271.9375"/><rect fill="#CCE5FF" height="2" style="stroke:#181818;stroke-width:0.5;" width="4" x="841" y="275.9375"/><text fill="#000000" font-family="sans-serif" font-size="14" lengthAdjust="spacing" textLength="96" x="742" y="297.9326">Zaaksysteem</text></g><!--entity CMS--><g id="elem_CMS"><rect fill="#CCE5FF" height="46.2969" rx="2.5" ry="2.5" style="stroke:#181818;stroke-width:0.5;" width="71" x="898.5" y="264.9375"/><rect fill="#CCE5FF" height="10" style="stroke:#181818;stroke-width:0.5;" width="15" x="949.5" y="269.9375"/><rect fill="#CCE5FF" height="2" style="stroke:#181818;stroke-width:0.5;" width="4" x="947.5" y="271.9375"/><rect fill="#CCE5FF" height="2" style="stroke:#181818;stroke-width:0.5;" width="4" x="947.5" y="275.9375"/><text fill="#000000" font-family="sans-serif" font-size="14" lengthAdjust="spacing" textLength="31" x="913.5" y="297.9326">CMS</text></g><!--entity Raadsinfo--><g id="elem_Raadsinfo"><rect fill="#CCE5FF" height="46.2969" rx="2.5" ry="2.5" style="stroke:#181818;stroke-width:0.5;" width="227" x="1004.5" y="264.9375"/><rect fill="#CCE5FF" height="10" style="stroke:#181818;stroke-width:0.5;" width="15" x="1211.5" y="269.9375"/><rect fill="#CCE5FF" height="2" style="stroke:#181818;stroke-width:0.5;" width="4" x="1209.5" y="271.9375"/><rect fill="#CCE5FF" height="2" style="stroke:#181818;stroke-width:0.5;" width="4" x="1209.5" y="275.9375"/><text fill="#000000" font-family="sans-serif" font-size="14" lengthAdjust="spacing" textLength="187" x="1019.5" y="297.9326">Raads informatie systeem</text></g><!--entity eDepot--><g id="elem_eDepot"><rect fill="#CCE5FF" height="46.2969" rx="2.5" ry="2.5" style="stroke:#181818;stroke-width:0.5;" width="95" x="1266.5" y="264.9375"/><rect fill="#CCE5FF" height="10" style="stroke:#181818;stroke-width:0.5;" width="15" x="1341.5" y="269.9375"/><rect fill="#CCE5FF" height="2" style="stroke:#181818;stroke-width:0.5;" width="4" x="1339.5" y="271.9375"/><rect fill="#CCE5FF" height="2" style="stroke:#181818;stroke-width:0.5;" width="4" x="1339.5" y="275.9375"/><text fill="#000000" font-family="sans-serif" font-size="14" lengthAdjust="spacing" textLength="55" x="1281.5" y="297.9326">eDepot</text></g><!--entity DMS--><g id="elem_DMS"><rect fill="#CCE5FF" height="46.2969" rx="2.5" ry="2.5" style="stroke:#181818;stroke-width:0.5;" width="72" x="1397" y="264.9375"/><rect fill="#CCE5FF" height="10" style="stroke:#181818;stroke-width:0.5;" width="15" x="1449" y="269.9375"/><rect fill="#CCE5FF" height="2" style="stroke:#181818;stroke-width:0.5;" width="4" x="1447" y="271.9375"/><rect fill="#CCE5FF" height="2" style="stroke:#181818;stroke-width:0.5;" width="4" x="1447" y="275.9375"/><text fill="#000000" font-family="sans-serif" font-size="14" lengthAdjust="spacing" textLength="32" x="1412" y="297.9326">DMS</text></g><!--entity VTH--><g id="elem_VTH"><rect fill="#CCE5FF" height="46.2969" rx="2.5" ry="2.5" style="stroke:#181818;stroke-width:0.5;" width="69" x="1504.5" y="264.9375"/><rect fill="#CCE5FF" height="10" style="stroke:#181818;stroke-width:0.5;" width="15" x="1553.5" y="269.9375"/><rect fill="#CCE5FF" height="2" style="stroke:#181818;stroke-width:0.5;" width="4" x="1551.5" y="271.9375"/><rect fill="#CCE5FF" height="2" style="stroke:#181818;stroke-width:0.5;" width="4" x="1551.5" y="275.9375"/><text fill="#000000" font-family="sans-serif" font-size="14" lengthAdjust="spacing" textLength="29" x="1519.5" y="297.9326">VTH</text></g><!--entity IO--><g id="elem_IO"><ellipse cx="106" cy="287.9375" fill="#F1F1F1" rx="8" ry="8" style="stroke:#181818;stroke-width:0.5;"/><text fill="#000000" font-family="sans-serif" font-size="14" lengthAdjust="spacing" textLength="15" x="98.5" y="317.9326">IO</text></g><!--link Searchsite to IO--><g id="link_Searchsite_IO"><path d="M105.463,130.0845 C104.733,141.6205 103.464,163.3785 103,181.9375 C102.098,218.0345 104.0188,255.1168 105.1018,272.7805 " fill="none" id="Searchsite-to-IO" style="stroke:#181818;stroke-width:1.0;"/><polygon fill="#181818" points="105.469,278.7693,108.9107,269.5414,105.163,273.7787,100.9257,270.031,105.469,278.7693" style="stroke:#181818;stroke-width:1.0;"/><text fill="#000000" font-family="sans-serif" font-size="13" lengthAdjust="spacing" textLength="95" x="104" y="202.5044">Bevraagd (API)</text></g><!--link OWS to OI--><g id="link_OWS_OI"><path d="M838.746,124.1095 C670.847,129.2235 307.001,144.5315 265,181.9375 C241.773,202.6235 239.185,235.0121 240.404,259.1975 " fill="none" id="OWS-to-OI" style="stroke:#181818;stroke-width:1.0;stroke-dasharray:7.0,7.0;"/><polygon fill="#181818" points="240.706,265.1899,244.2479,256,240.4543,260.1962,236.258,256.4027,240.706,265.1899" style="stroke:#181818;stroke-width:1.0;"/><text fill="#000000" font-family="sans-serif" font-size="13" lengthAdjust="spacing" textLength="67" x="266" y="202.5044">Slaat op in</text></g><!--link OWS to CMS--><g id="link_OWS_CMS"><path d="M838.964,137.6705 C779.738,152.2905 716.617,177.3555 751,213.9375 C760.835,224.4015 867.195,215.4365 880,221.9375 C898.314,231.2345 909.568,244.7144 918.888,259.6328 " fill="none" id="OWS-to-CMS" style="stroke:#181818;stroke-width:1.0;"/><polygon fill="#181818" points="922.067,264.7214,920.6909,254.9692,919.4178,260.4809,913.9061,259.2078,922.067,264.7214" style="stroke:#181818;stroke-width:1.0;"/><text fill="#000000" font-family="sans-serif" font-size="13" lengthAdjust="spacing" textLength="127" x="752" y="195.0044">Scrapes periodically</text><text fill="#000000" font-family="sans-serif" font-size="13" lengthAdjust="spacing" textLength="97" x="767" y="210.1372">Uses as source</text></g><!--reverse link OWS to CMS--><g id="link_OWS_CMS"><path d="M921.5682,144.9882 C920.8632,156.9912 920.362,167.4445 920,181.9375 C919.645,196.1555 918.655,199.7795 920,213.9375 C921.636,231.1525 925.395,250.3462 928.606,264.7309 " fill="none" id="OWS-backto-CMS" style="stroke:#181818;stroke-width:1.0;"/><polygon fill="#181818" points="921.92,138.9985,917.3992,147.7485,921.6268,143.9899,925.3854,148.2176,921.92,138.9985" style="stroke:#181818;stroke-width:1.0;"/><text fill="#000000" font-family="sans-serif" font-size="13" lengthAdjust="spacing" textLength="191" x="921" y="202.5044">Notifies of changes or deletes</text></g><!--link OWS to Zaaksysteem--><g id="link_OWS_Zaaksysteem"><path d="M838.756,124.6355 C687.172,130.3635 381.149,146.2525 349,181.9375 C339.48,192.5035 339.791,203.0995 349,213.9375 C396.691,270.0685 608.3221,282.9731 720.9731,285.9487 " fill="none" id="OWS-to-Zaaksysteem" style="stroke:#181818;stroke-width:1.0;"/><polygon fill="#181818" points="726.971,286.1071,718.0798,281.8708,721.9727,285.9751,717.8685,289.8681,726.971,286.1071" style="stroke:#181818;stroke-width:1.0;"/><text fill="#000000" font-family="sans-serif" font-size="13" lengthAdjust="spacing" textLength="127" x="350" y="195.0044">Scrapes periodically</text><text fill="#000000" font-family="sans-serif" font-size="13" lengthAdjust="spacing" textLength="97" x="365" y="210.1372">Uses as source</text></g><!--reverse link OWS to Zaaksysteem--><g id="link_OWS_Zaaksysteem"><path d="M832.7279,123.0933 C732.0689,126.2463 578.523,138.0605 541,181.9375 C485.1,247.3034 633.841,272.6755 726.76,281.9675 " fill="none" id="OWS-backto-Zaaksysteem" style="stroke:#181818;stroke-width:1.0;"/><polygon fill="#181818" points="838.725,122.9055,829.6042,119.1892,833.7275,123.062,829.8546,127.1853,838.725,122.9055" style="stroke:#181818;stroke-width:1.0;"/><text fill="#000000" font-family="sans-serif" font-size="13" lengthAdjust="spacing" textLength="191" x="542" y="202.5044">Notifies of changes or deletes</text></g><!--link OWS to Raadsinfo--><g id="link_OWS_Raadsinfo"><path d="M1007.19,125.9365 C1047.15,132.5775 1091.62,147.8675 1117,181.9375 C1134.75,205.7685 1131.7094,235.9884 1126.1394,259.0371 " fill="none" id="OWS-to-Raadsinfo" style="stroke:#181818;stroke-width:1.0;"/><polygon fill="#181818" points="1124.73,264.8692,1130.7322,257.0606,1125.9045,260.0091,1122.956,255.1814,1124.73,264.8692" style="stroke:#181818;stroke-width:1.0;"/><text fill="#000000" font-family="sans-serif" font-size="13" lengthAdjust="spacing" textLength="127" x="1130" y="195.0044">Scrapes periodically</text><text fill="#000000" font-family="sans-serif" font-size="13" lengthAdjust="spacing" textLength="97" x="1145" y="210.1372">Uses as source</text></g><!--link OWS to eDepot--><g id="link_OWS_eDepot"><path d="M1007.25,127.7365 C1095.45,135.3405 1226.53,151.4535 1266,181.9375 C1292.33,202.2745 1303.3884,234.5316 1308.8284,258.8153 " fill="none" id="OWS-to-eDepot" style="stroke:#181818;stroke-width:1.0;"/><polygon fill="#181818" points="1310.14,264.6702,1312.0759,255.0135,1309.047,259.7911,1304.2693,256.7623,1310.14,264.6702" style="stroke:#181818;stroke-width:1.0;"/><text fill="#000000" font-family="sans-serif" font-size="13" lengthAdjust="spacing" textLength="127" x="1293" y="195.0044">Scrapes periodically</text><text fill="#000000" font-family="sans-serif" font-size="13" lengthAdjust="spacing" textLength="97" x="1308" y="210.1372">Uses as source</text></g><!--link OWS to DMS--><g id="link_OWS_DMS"><path d="M1007.08,126.0265 C1143.54,133.5165 1400.93,151.5285 1429,181.9375 C1449.29,203.9205 1446.5987,234.9887 1441.0487,258.6776 " fill="none" id="OWS-to-DMS" style="stroke:#181818;stroke-width:1.0;"/><polygon fill="#181818" points="1439.68,264.5194,1445.6275,256.6691,1440.8206,259.6512,1437.8384,254.8442,1439.68,264.5194" style="stroke:#181818;stroke-width:1.0;"/><text fill="#000000" font-family="sans-serif" font-size="13" lengthAdjust="spacing" textLength="127" x="1444" y="195.0044">Scrapes periodically</text><text fill="#000000" font-family="sans-serif" font-size="13" lengthAdjust="spacing" textLength="97" x="1459" y="210.1372">Uses as source</text></g><!--link OWS to VTH--><g id="link_OWS_VTH"><path d="M1007.15,123.4275 C1175.74,127.2865 1542.09,140.4075 1580,181.9375 C1601.51,205.4965 1582.829,237.0031 1563.649,260.1421 " fill="none" id="OWS-to-VTH" style="stroke:#181818;stroke-width:1.0;"/><polygon fill="#181818" points="1559.82,264.7615,1568.6431,260.3851,1563.0108,260.912,1562.4839,255.2798,1559.82,264.7615" style="stroke:#181818;stroke-width:1.0;"/><text fill="#000000" font-family="sans-serif" font-size="13" lengthAdjust="spacing" textLength="127" x="1589" y="195.0044">Scrapes periodically</text><text fill="#000000" font-family="sans-serif" font-size="13" lengthAdjust="spacing" textLength="97" x="1604" y="210.1372">Uses as source</text></g><text fill="#888888" font-family="sans-serif" font-size="10" lengthAdjust="spacing" textLength="78" x="816" y="341.2197">OpenWoo.app</text><!--SRC=[dLF1JXin4BtxAqRBeVIGIBJbq1oGW1o8r3Q8XI9LlKoyuyJghctP3Yr2_3jZxswoGGr2sOljcVVUZ9zdeuurmSn4MdgCci0wM7Xh31cXh8ta9p1tPEwj7QDpOaLOlOw93t2zNjHQPW5NOrJMDsJW-1lY4axXRlPHA8yDGV5_O05F0lZJt8TNA1buhWmrv0l002MXbwkW8y7H2IxaLocUKzMI_8EM5DewNpP5-dWlwxpbKu2Ywxed5f3Kv_Vbhkp0ZLRvyqPvc-grAuoum42jE7Ch-jVfpdPbBrfREyrF6yqktWjAspZBvmZ5ByG_uJ54eYRxC3W374b9fqgzvbn-BpEMrxsO6yGgiDd9_NpDOP6SJBczT9gIip63s-rUvBHhPlf6CpzlhpA6roqc6tP3F27Qch3IBeZ148mg-zUCpc0sXmbSq8DdGoiuFh_cEKklEHwViViJA6l4c2PQ6v4JFJ6PmsdfqL40HrxRYgUohXz_cxl08UudsBMNj4CR-dy0VUli0UJEwGEOqyCkczxZdJH-gnysQfL_R7ulaVmThHsh9CL9bsMELI1NQ9Pfww6YcY85CVJr_RGN]--></g></svg>