<?xml version="1.0" encoding="us-ascii" standalone="no"?><svg xmlns="http://www.w3.org/2000/svg" xmlns:xlink="http://www.w3.org/1999/xlink" contentStyleType="text/css" height="362px" preserveAspectRatio="none" style="width:1130px;height:362px;background:#FFFFFF;" version="1.1" viewBox="0 0 1130 362" width="1130px" zoomAndPan="magnify"><defs/><g><text fill="#000000" font-family="sans-serif" font-size="14" font-weight="bold" lengthAdjust="spacing" textLength="246" x="435" y="22.9951">Commongateway Architecture</text><!--entity Website--><g id="elem_Website"><ellipse cx="492.5" cy="51.2969" fill="#F1F1F1" rx="8" ry="8" style="stroke:#181818;stroke-width:0.5;"/><text fill="#000000" font-family="sans-serif" font-size="14" lengthAdjust="spacing" textLength="143" x="421" y="81.292">Open WOO Website</text></g><!--entity Harvester--><g id="elem_Harvester"><ellipse cx="62.5" cy="324.2969" fill="#F1F1F1" rx="8" ry="8" style="stroke:#181818;stroke-width:0.5;"/><text fill="#000000" font-family="sans-serif" font-size="14" lengthAdjust="spacing" textLength="113" x="6" y="354.292">Open WOO XML</text></g><!--entity CMS--><g id="elem_CMS"><rect fill="#F1F1F1" height="46.2969" rx="2.5" ry="2.5" style="stroke:#181818;stroke-width:0.5;" width="211" x="217" y="301.2969"/><rect fill="#F1F1F1" height="10" style="stroke:#181818;stroke-width:0.5;" width="15" x="408" y="306.2969"/><rect fill="#F1F1F1" height="2" style="stroke:#181818;stroke-width:0.5;" width="4" x="406" y="308.2969"/><rect fill="#F1F1F1" height="2" style="stroke:#181818;stroke-width:0.5;" width="4" x="406" y="312.2969"/><text fill="#000000" font-family="sans-serif" font-size="14" lengthAdjust="spacing" textLength="171" x="232" y="334.292">Open Webconcept CMS</text></g><!--entity Gateway--><g id="elem_Gateway"><rect fill="#F1F1F1" height="46.2969" rx="2.5" ry="2.5" style="stroke:#181818;stroke-width:0.5;" width="171" x="407" y="157.2969"/><rect fill="#F1F1F1" height="10" style="stroke:#181818;stroke-width:0.5;" width="15" x="558" y="162.2969"/><rect fill="#F1F1F1" height="2" style="stroke:#181818;stroke-width:0.5;" width="4" x="556" y="164.2969"/><rect fill="#F1F1F1" height="2" style="stroke:#181818;stroke-width:0.5;" width="4" x="556" y="168.2969"/><text fill="#000000" font-family="sans-serif" font-size="14" lengthAdjust="spacing" textLength="131" x="422" y="190.292">Common Gateway</text></g><!--entity Zaaksysteem--><g id="elem_Zaaksysteem"><rect fill="#F1F1F1" height="46.2969" rx="2.5" ry="2.5" style="stroke:#181818;stroke-width:0.5;" width="136" x="625.5" y="301.2969"/><rect fill="#F1F1F1" height="10" style="stroke:#181818;stroke-width:0.5;" width="15" x="741.5" y="306.2969"/><rect fill="#F1F1F1" height="2" style="stroke:#181818;stroke-width:0.5;" width="4" x="739.5" y="308.2969"/><rect fill="#F1F1F1" height="2" style="stroke:#181818;stroke-width:0.5;" width="4" x="739.5" y="312.2969"/><text fill="#000000" font-family="sans-serif" font-size="14" lengthAdjust="spacing" textLength="96" x="640.5" y="334.292">Zaaksysteem</text></g><!--entity Raadsinfo--><g id="elem_Raadsinfo"><rect fill="#F1F1F1" height="46.2969" rx="2.5" ry="2.5" style="stroke:#181818;stroke-width:0.5;" width="225" x="899" y="301.2969"/><rect fill="#F1F1F1" height="10" style="stroke:#181818;stroke-width:0.5;" width="15" x="1104" y="306.2969"/><rect fill="#F1F1F1" height="2" style="stroke:#181818;stroke-width:0.5;" width="4" x="1102" y="308.2969"/><rect fill="#F1F1F1" height="2" style="stroke:#181818;stroke-width:0.5;" width="4" x="1102" y="312.2969"/><text fill="#000000" font-family="sans-serif" font-size="14" lengthAdjust="spacing" textLength="185" x="914" y="334.292">Raadsinformatie Systeem</text></g><!--link Website to Gateway--><g id="link_Website_Gateway"><path d="M492.5,60.6299 C492.5,79.9439 492.5,122.3049 492.5,150.9749 " fill="none" id="Website-to-Gateway" style="stroke:#181818;stroke-width:1.0;"/><polygon fill="#181818" points="492.5,156.9749,496.5,147.9749,492.5,151.9749,488.5,147.9749,492.5,156.9749" style="stroke:#181818;stroke-width:1.0;"/><text fill="#000000" font-family="sans-serif" font-size="13" lengthAdjust="spacing" textLength="120" x="493.5" y="123.3638">Directly connected</text></g><!--reverse link Gateway to Harvester--><g id="link_Gateway_Harvester"><path d="M400.6328,181.2652 C295.1928,182.9412 130.638,192.0979 84.5,233.2969 C60.6243,254.6169 60.5741,297.1747 61.7353,315.0692 " fill="none" id="Gateway-backto-Harvester" style="stroke:#181818;stroke-width:1.0;"/><polygon fill="#181818" points="406.632,181.1699,397.5696,177.3134,401.6326,181.2493,397.6967,185.3124,406.632,181.1699" style="stroke:#181818;stroke-width:1.0;"/><text fill="#000000" font-family="sans-serif" font-size="13" lengthAdjust="spacing" textLength="103" x="85.5" y="253.8638">Generated from</text></g><!--link Gateway to CMS--><g id="link_Gateway_CMS"><path d="M406.991,184.9559 C331.623,190.1879 229.953,202.8369 204.5,233.2969 C181.619,260.6795 212.517,282.4176 250.766,298.7689 " fill="none" id="Gateway-to-CMS" style="stroke:#181818;stroke-width:1.0;"/><polygon fill="#181818" points="256.283,301.1274,249.5798,293.9116,251.6855,299.162,246.4351,301.2676,256.283,301.1274" style="stroke:#181818;stroke-width:1.0;"/><text fill="#000000" font-family="sans-serif" font-size="13" lengthAdjust="spacing" textLength="127" x="205.5" y="246.3638">Scrapes periodically</text><text fill="#000000" font-family="sans-serif" font-size="13" lengthAdjust="spacing" textLength="97" x="220.5" y="261.4966">Uses as source</text></g><!--reverse link Gateway to CMS--><g id="link_Gateway_CMS"><path d="M416.1671,205.8562 C399.1051,213.4562 387.316,220.8429 373.5,233.2969 C352.824,251.9349 338.489,280.997 330.396,301.0275 " fill="none" id="Gateway-backto-CMS" style="stroke:#181818;stroke-width:1.0;"/><polygon fill="#181818" points="421.648,203.4149,411.7991,203.423,417.0806,205.4493,415.0543,210.7308,421.648,203.4149" style="stroke:#181818;stroke-width:1.0;"/><text fill="#000000" font-family="sans-serif" font-size="13" lengthAdjust="spacing" textLength="191" x="374.5" y="253.8638">Notifies of changes or deletes</text></g><!--link Gateway to Zaaksysteem--><g id="link_Gateway_Zaaksysteem"><path d="M527.779,203.3309 C541.419,212.2319 556.972,222.8559 570.5,233.2969 C587.447,246.3769 589.553,252.2169 606.5,265.2969 C622.882,277.9411 636.8877,287.5675 652.9747,297.9709 " fill="none" id="Gateway-to-Zaaksysteem" style="stroke:#181818;stroke-width:1.0;"/><polygon fill="#181818" points="658.013,301.2291,652.6278,292.9829,653.8145,298.5139,648.2835,299.7006,658.013,301.2291" style="stroke:#181818;stroke-width:1.0;"/><text fill="#000000" font-family="sans-serif" font-size="13" lengthAdjust="spacing" textLength="127" x="607.5" y="246.3638">Scrapes periodically</text><text fill="#000000" font-family="sans-serif" font-size="13" lengthAdjust="spacing" textLength="97" x="622.5" y="261.4966">Uses as source</text></g><!--reverse link Gateway to Zaaksysteem--><g id="link_Gateway_Zaaksysteem"><path d="M584.2751,188.6736 C647.2731,195.5996 719.275,208.3709 739.5,233.2969 C756.306,254.0089 736.938,281.8539 718.428,301.0597 " fill="none" id="Gateway-backto-Zaaksysteem" style="stroke:#181818;stroke-width:1.0;"/><polygon fill="#181818" points="578.311,188.0179,586.82,192.9775,583.2811,188.5643,587.6942,185.0254,578.311,188.0179" style="stroke:#181818;stroke-width:1.0;"/><text fill="#000000" font-family="sans-serif" font-size="13" lengthAdjust="spacing" textLength="191" x="747.5" y="253.8638">Notifies of changes or deletes</text></g><!--link Gateway to Raadsinfo--><g id="link_Gateway_Raadsinfo"><path d="M578.435,182.8779 C692.592,186.3639 886.904,197.5299 947.5,233.2969 C973.753,248.7929 989.5009,274.3419 999.6279,295.5831 " fill="none" id="Gateway-to-Raadsinfo" style="stroke:#181818;stroke-width:1.0;"/><polygon fill="#181818" points="1002.21,300.9991,1001.9475,291.1537,1000.0582,296.4858,994.7262,294.5966,1002.21,300.9991" style="stroke:#181818;stroke-width:1.0;"/><text fill="#000000" font-family="sans-serif" font-size="13" lengthAdjust="spacing" textLength="127" x="981.5" y="246.3638">Scrapes periodically</text><text fill="#000000" font-family="sans-serif" font-size="13" lengthAdjust="spacing" textLength="97" x="996.5" y="261.4966">Uses as source</text></g><!--SRC=[dP7FJiCm3CRlUGfh5qvz0Gv8CAI1n9Yq2GqXBbxYhj5Q9qfIfhuzRhUMyES0dEB4ly_svoIRQeAvQnh7Uqnqn0wkWwvi8ftQG4fTm5Ea0FUSA9Ie1zWx9axAJc-pbIU6xMe5Mzf54Sy0unZ_o3ql7mRc3iCRHSdtdMvG7uZDHukez1YEMjffnvfyWlboCvIGCyTEPc1nSZCGvpYdNX0FiPF6r0n8Ti-nDQA9baiN6aoMO9D9fbm_-ffg0Hp7olgepiwXCEx8nTKu05p2hGsosRe3SS4IaL7J2g1e_ITuGKn1RWRAu1er9iQgOboWZGxeAOAdO9sn6kkwUsNvjDWF6LqRD7sJPdR_MsAo_zi2igL7bsmfwM5Jgf__g-KJ8JfNWgwGztqOm51DYQBAv_wRz1q0]--></g></svg>