<svg xmlns="http://www.w3.org/2000/svg" xmlns:xlink="http://www.w3.org/1999/xlink" contentStyleType="text/css" height="347px" preserveAspectRatio="none" style="width:948px;height:347px;background:#FFFFFF;" version="1.1" viewBox="0 0 948 347" width="948px" zoomAndPan="magnify"><defs/><g><text fill="#000000" font-family="sans-serif" font-size="14" font-weight="bold" lengthAdjust="spacing" textLength="246" x="344.0856" y="22.9951">Commongateway Architecture</text><!--entity Website--><g id="elem_Website"><ellipse cx="341.6713" cy="51.2969" fill="#F1F1F1" rx="8" ry="8" style="stroke:#181818;stroke-width:0.5;"/><text fill="#000000" font-family="sans-serif" font-size="14" lengthAdjust="spacing" textLength="143" x="270.1713" y="81.292">Open WOO Website</text></g><!--entity Harvester--><g id="elem_Harvester"><ellipse cx="519.6713" cy="51.2969" fill="#F1F1F1" rx="8" ry="8" style="stroke:#181818;stroke-width:0.5;"/><text fill="#000000" font-family="sans-serif" font-size="14" lengthAdjust="spacing" textLength="113" x="463.1713" y="81.292">Open WOO XML</text></g><!--entity CMS--><g id="elem_CMS"><rect fill="#F1F1F1" height="46.2969" rx="2.5" ry="2.5" style="stroke:#181818;stroke-width:0.5;" width="211" x="8.1713" y="295.2969"/><rect fill="#F1F1F1" height="10" style="stroke:#181818;stroke-width:0.5;" width="15" x="199.1713" y="300.2969"/><rect fill="#F1F1F1" height="2" style="stroke:#181818;stroke-width:0.5;" width="4" x="197.1713" y="302.2969"/><rect fill="#F1F1F1" height="2" style="stroke:#181818;stroke-width:0.5;" width="4" x="197.1713" y="306.2969"/><text fill="#000000" font-family="sans-serif" font-size="14" lengthAdjust="spacing" textLength="171" x="23.1713" y="328.292">Open Webconcept CMS</text></g><!--entity Gateway--><g id="elem_Gateway"><rect fill="#F1F1F1" height="46.2969" rx="2.5" ry="2.5" style="stroke:#181818;stroke-width:0.5;" width="171" x="345.1713" y="157.2969"/><rect fill="#F1F1F1" height="10" style="stroke:#181818;stroke-width:0.5;" width="15" x="496.1713" y="162.2969"/><rect fill="#F1F1F1" height="2" style="stroke:#181818;stroke-width:0.5;" width="4" x="494.1713" y="164.2969"/><rect fill="#F1F1F1" height="2" style="stroke:#181818;stroke-width:0.5;" width="4" x="494.1713" y="168.2969"/><text fill="#000000" font-family="sans-serif" font-size="14" lengthAdjust="spacing" textLength="131" x="360.1713" y="190.292">Common Gateway</text></g><!--entity Zaaksysteem--><g id="elem_Zaaksysteem"><rect fill="#F1F1F1" height="46.2969" rx="2.5" ry="2.5" style="stroke:#181818;stroke-width:0.5;" width="136" x="446.6713" y="295.2969"/><rect fill="#F1F1F1" height="10" style="stroke:#181818;stroke-width:0.5;" width="15" x="562.6713" y="300.2969"/><rect fill="#F1F1F1" height="2" style="stroke:#181818;stroke-width:0.5;" width="4" x="560.6713" y="302.2969"/><rect fill="#F1F1F1" height="2" style="stroke:#181818;stroke-width:0.5;" width="4" x="560.6713" y="306.2969"/><text fill="#000000" font-family="sans-serif" font-size="14" lengthAdjust="spacing" textLength="96" x="461.6713" y="328.292">Zaaksysteem</text></g><!--entity Raadsinfo--><g id="elem_Raadsinfo"><rect fill="#F1F1F1" height="46.2969" rx="2.5" ry="2.5" style="stroke:#181818;stroke-width:0.5;" width="219" x="723.1713" y="295.2969"/><rect fill="#F1F1F1" height="10" style="stroke:#181818;stroke-width:0.5;" width="15" x="922.1713" y="300.2969"/><rect fill="#F1F1F1" height="2" style="stroke:#181818;stroke-width:0.5;" width="4" x="920.1713" y="302.2969"/><rect fill="#F1F1F1" height="2" style="stroke:#181818;stroke-width:0.5;" width="4" x="920.1713" y="306.2969"/><text fill="#000000" font-family="sans-serif" font-size="14" lengthAdjust="spacing" textLength="179" x="738.1713" y="328.292">Raadsinformatiesysteem</text></g><!--link Website to Gateway--><g id="link_Website_Gateway"><path d="M341.1113,60.4699 C340.5113,75.0919 341.0973,106.1739 354.6713,127.2969 C362.3633,139.2669 368.9047,145.8651 380.6737,153.7301 " fill="none" id="Website-to-Gateway" style="stroke:#181818;stroke-width:1.0;"/><polygon fill="#181818" points="385.6623,157.0639,380.4019,148.7375,381.5051,154.2857,375.9569,155.3889,385.6623,157.0639" style="stroke:#181818;stroke-width:1.0;"/><text fill="#000000" font-family="sans-serif" font-size="13" lengthAdjust="spacing" textLength="120" x="355.6713" y="123.3638">Directly connected</text></g><!--link Harvester to Gateway--><g id="link_Harvester_Gateway"><path d="M516.2843,60.6169 C510.2523,74.9419 496.7623,104.8839 480.6713,127.2969 C473.0753,137.8779 467.6412,144.2005 458.8282,153.0165 " fill="none" id="Harvester-to-Gateway" style="stroke:#181818;stroke-width:1.0;"/><polygon fill="#181818" points="454.5863,157.2599,463.7781,153.7228,458.1212,153.7237,458.1202,148.0669,454.5863,157.2599" style="stroke:#181818;stroke-width:1.0;"/><text fill="#000000" font-family="sans-serif" font-size="13" lengthAdjust="spacing" textLength="103" x="492.6713" y="123.3638">Generated from</text></g><!--link Gateway to CMS--><g id="link_Gateway_CMS"><path d="M345.1673,186.3359 C232.5923,193.8589 46.4211,209.7129 25.6713,233.2969 C6,255.6554 29.4348,275.9779 59.1837,292.3201 " fill="none" id="Gateway-to-CMS" style="stroke:#181818;stroke-width:1.0;"/><polygon fill="#181818" points="64.4425,295.209,58.4802,287.3699,60.0602,292.8016,54.6284,294.3816,64.4425,295.209" style="stroke:#181818;stroke-width:1.0;"/><text fill="#000000" font-family="sans-serif" font-size="13" lengthAdjust="spacing" textLength="127" x="26.6713" y="246.3638">Scrapes periodically</text><text fill="#000000" font-family="sans-serif" font-size="13" lengthAdjust="spacing" textLength="97" x="41.6713" y="261.4966">Uses as source</text></g><!--reverse link Gateway to CMS--><g id="link_Gateway_CMS"><path d="M339.2374,194.9325 C299.6844,202.8285 258.7973,214.1129 219.6713,233.2969 C187.4153,249.113 155.8523,276.0281 135.6763,295.1261 " fill="none" id="Gateway-backto-CMS" style="stroke:#181818;stroke-width:1.0;"/><polygon fill="#181818" points="345.1213,193.7579,335.5124,191.5972,340.218,194.7367,337.0785,199.4424,345.1213,193.7579" style="stroke:#181818;stroke-width:1.0;"/><text fill="#000000" font-family="sans-serif" font-size="13" lengthAdjust="spacing" textLength="191" x="220.6713" y="253.8638">Notifies of changes or deletes</text></g><!--link Gateway to Zaaksysteem--><g id="link_Gateway_Zaaksysteem"><path d="M423.8303,203.5029 C419.6823,221.3719 417.0143,246.5121 427.6713,265.2969 C434.7913,277.8471 441.1668,284.5472 453.4898,292.133 " fill="none" id="Gateway-to-Zaaksysteem" style="stroke:#181818;stroke-width:1.0;"/><polygon fill="#181818" points="458.5993,295.2783,453.0319,287.154,454.3414,292.6572,448.8382,293.9666,458.5993,295.2783" style="stroke:#181818;stroke-width:1.0;"/><text fill="#000000" font-family="sans-serif" font-size="13" lengthAdjust="spacing" textLength="127" x="428.6713" y="246.3638">Scrapes periodically</text><text fill="#000000" font-family="sans-serif" font-size="13" lengthAdjust="spacing" textLength="97" x="443.6713" y="261.4966">Uses as source</text></g><!--reverse link Gateway to Zaaksysteem--><g id="link_Gateway_Zaaksysteem"><path d="M521.8967,201.3979 C539.3147,209.0489 550.0413,217.5969 560.6713,233.2969 C574.2803,253.3984 557.4053,277.8931 540.3903,295.232 " fill="none" id="Gateway-backto-Zaaksysteem" style="stroke:#181818;stroke-width:1.0;"/><polygon fill="#181818" points="516.4033,198.9849,523.0347,206.2667,520.9811,200.9957,526.252,198.9421,516.4033,198.9849" style="stroke:#181818;stroke-width:1.0;"/><text fill="#000000" font-family="sans-serif" font-size="13" lengthAdjust="spacing" textLength="191" x="566.6713" y="253.8638">Notifies of changes or deletes</text></g><!--link Gateway to Raadsinfo--><g id="link_Gateway_Raadsinfo"><path d="M516.2203,187.3839 C601.4283,194.7029 725.3353,209.1229 766.6713,233.2969 C791.4863,247.8092 807.4937,270.3191 818.5917,289.9429 " fill="none" id="Gateway-to-Raadsinfo" style="stroke:#181818;stroke-width:1.0;"/><polygon fill="#181818" points="821.5453,295.1656,820.5966,285.3625,819.0839,290.8134,813.6331,289.3007,821.5453,295.1656" style="stroke:#181818;stroke-width:1.0;"/><text fill="#000000" font-family="sans-serif" font-size="13" lengthAdjust="spacing" textLength="127" x="801.6713" y="246.3638">Scrapes periodically</text><text fill="#000000" font-family="sans-serif" font-size="13" lengthAdjust="spacing" textLength="97" x="816.6713" y="261.4966">Uses as source</text></g><!--SRC=[dP71JiCm38RlUGfh5qvz0Gv8CAI1n9Yq2GqXBbxYhj5Q9qeofhuzRhkM87O0Jd7YxxVzEycccc3kciRn7XETi8NRe2kRIATZ8AMku2LIW4TE54hKFUmT4oTbfxVPoXF3ThM2BUsYY6U0SOmlSg_BfvvvmF11KV9TfplK1sBprI8gFOQZbdRQiIQVOBxSz2NapB7132m6DprnZdFg3V4GMsbCJOzaznnR8vfekNIXmMGfLqofRl8rrP9t72lhepeRXyAu4nStOt-uXdiRPB5r2sA29IAZfWrSm1V45EHce0okKMDY1CMvG1iTq5C4Jy4wOpNMTVlEyckn6pEwOz3qGvhv_M-9QG6_BI1xUdR9bfBkTwMw-OkZ_sPv84JdIj0LyhuB0nYgAL5K-Tn_atu2]--></g></svg>