<?xml version="1.0" encoding="us-ascii" standalone="no"?><svg xmlns="http://www.w3.org/2000/svg" xmlns:xlink="http://www.w3.org/1999/xlink" contentStyleType="text/css" height="497px" preserveAspectRatio="none" style="width:1203px;height:497px;background:#FFFFFF;" version="1.1" viewBox="0 0 1203 497" width="1203px" zoomAndPan="magnify"><defs/><g><text fill="#888888" font-family="sans-serif" font-size="10" lengthAdjust="spacing" textLength="78" x="1111.7976" y="9.2822">OpenWoo.app</text><text fill="#000000" font-family="sans-serif" font-size="14" font-weight="bold" lengthAdjust="spacing" textLength="392" x="398.8988" y="35.6357">Algemene Architectuur en keuze mogenlijkheden</text><!--cluster Publicatie platformen --><g id="cluster_Publicatie platformen "><rect fill="none" height="127" rx="2.5" ry="2.5" style="stroke:#181818;stroke-width:1.0;" width="554.0002" x="88.7954" y="56.9375"/><path d="M280.7954,56.9375 L280.7954,66.2344 L270.7954,76.2344 L88.7954,76.2344 " fill="none" style="stroke:#181818;stroke-width:1.0;"/><text fill="#000000" font-family="sans-serif" font-size="14" font-weight="bold" lengthAdjust="spacing" textLength="177" x="91.7954" y="70.9326">Publicatie platformen</text></g><!--cluster Services--><g id="cluster_Services"><rect fill="none" height="87" rx="2.5" ry="2.5" style="stroke:#181818;stroke-width:1.0;" width="200" x="695.7956" y="237.9375"/><path d="M772.7956,237.9375 L772.7956,247.2344 L762.7956,257.2344 L695.7956,257.2344 " fill="none" style="stroke:#181818;stroke-width:1.0;"/><text fill="#000000" font-family="sans-serif" font-size="14" font-weight="bold" lengthAdjust="spacing" textLength="67" x="698.7956" y="251.9326">Services</text></g><!--cluster Integratie--><g id="cluster_Integratie"><rect fill="none" height="240" rx="2.5" ry="2.5" style="stroke:#181818;stroke-width:1.0;" width="236" x="200.7956" y="232.9375"/><path d="M291.7956,232.9375 L291.7956,242.2344 L281.7956,252.2344 L200.7956,252.2344 " fill="none" style="stroke:#181818;stroke-width:1.0;"/><text fill="#000000" font-family="sans-serif" font-size="14" font-weight="bold" lengthAdjust="spacing" textLength="81" x="203.7956" y="246.9326">Integratie</text></g><!--cluster Bronnen--><g id="cluster_Bronnen"><rect fill="none" height="96" rx="2.5" ry="2.5" style="stroke:#181818;stroke-width:1.0;" width="737.002" x="460.7956" y="376.9375"/><path d="M537.7956,376.9375 L537.7956,386.2344 L527.7956,396.2344 L460.7956,396.2344 " fill="none" style="stroke:#181818;stroke-width:1.0;"/><text fill="#000000" font-family="sans-serif" font-size="14" font-weight="bold" lengthAdjust="spacing" textLength="67" x="463.7956" y="390.9326">Bronnen</text></g><!--cluster Legenda--><g id="cluster_Legenda"><rect fill="none" height="97" rx="2.5" ry="2.5" style="stroke:#181818;stroke-width:1.0;" width="369.002" x="747.7956" y="71.9375"/><path d="M824.7956,71.9375 L824.7956,81.2344 L814.7956,91.2344 L747.7956,91.2344 " fill="none" style="stroke:#181818;stroke-width:1.0;"/><text fill="#000000" font-family="sans-serif" font-size="14" font-weight="bold" lengthAdjust="spacing" textLength="67" x="750.7956" y="85.9326">Legenda</text></g><!--entity KOOP--><g id="elem_KOOP"><ellipse cx="125.7954" cy="100.4375" fill="#1ABC9C" rx="8" ry="8" style="stroke:#181818;stroke-width:0.5;"/><path d="M125.7954,108.4375 L125.7954,135.4375 M112.7954,116.4375 L138.7954,116.4375 M125.7954,135.4375 L112.7954,150.4375 M125.7954,135.4375 L138.7954,150.4375 " fill="none" style="stroke:#181818;stroke-width:0.5;"/><text fill="#000000" font-family="sans-serif" font-size="14" lengthAdjust="spacing" textLength="41" x="105.2954" y="164.9326">KOOP</text></g><!--entity WOOGLE--><g id="elem_WOOGLE"><ellipse cx="213.7956" cy="100.4375" fill="#1ABC9C" rx="8" ry="8" style="stroke:#181818;stroke-width:0.5;"/><path d="M213.7956,108.4375 L213.7956,135.4375 M200.7956,116.4375 L226.7956,116.4375 M213.7956,135.4375 L200.7956,150.4375 M213.7956,135.4375 L226.7956,150.4375 " fill="none" style="stroke:#181818;stroke-width:0.5;"/><text fill="#000000" font-family="sans-serif" font-size="14" lengthAdjust="spacing" textLength="64" x="181.7956" y="164.9326">WOOGLE</text></g><!--entity Website--><g id="elem_Website"><ellipse cx="318.7956" cy="129.9375" fill="#CCE5FF" rx="8" ry="8" style="stroke:#181818;stroke-width:0.5;"/><text fill="#000000" font-family="sans-serif" font-size="14" lengthAdjust="spacing" textLength="60" x="288.7956" y="159.9326">Website</text></g><!--entity Themasite--><g id="elem_Themasite"><ellipse cx="439.7956" cy="129.9375" fill="#CCE5FF" rx="8" ry="8" style="stroke:#181818;stroke-width:0.5;"/><text fill="#000000" font-family="sans-serif" font-size="14" lengthAdjust="spacing" textLength="80" x="399.7956" y="159.9326">Thema site</text></g><!--entity Searchsite--><g id="elem_Searchsite"><ellipse cx="574.7956" cy="129.9375" fill="#1ABC9C" rx="8" ry="8" style="stroke:#181818;stroke-width:0.5;"/><text fill="#000000" font-family="sans-serif" font-size="14" lengthAdjust="spacing" textLength="89" x="530.2956" y="159.9326">Zoek pagina</text></g><!--entity OWS--><g id="elem_OWS"><polygon fill="#1ABC9C" points="711.7956,272.9375,869.7956,272.9375,879.7956,291.0859,869.7956,309.2344,711.7956,309.2344,721.7956,291.0859" style="stroke:#181818;stroke-width:0.5;"/><text fill="#000000" font-family="sans-serif" font-size="14" lengthAdjust="spacing" textLength="128" x="731.7956" y="295.9326">OpenWoo Service</text></g><!--entity OI--><g id="elem_OI"><path d="M305.7956,421.9375 C305.7956,411.9375 356.7956,411.9375 356.7956,411.9375 C356.7956,411.9375 407.7956,411.9375 407.7956,421.9375 L407.7956,447.2344 C407.7956,457.2344 356.7956,457.2344 356.7956,457.2344 C356.7956,457.2344 305.7956,457.2344 305.7956,447.2344 L305.7956,421.9375 " fill="#1ABC9C" style="stroke:#181818;stroke-width:0.5;"/><path d="M305.7956,421.9375 C305.7956,431.9375 356.7956,431.9375 356.7956,431.9375 C356.7956,431.9375 407.7956,431.9375 407.7956,421.9375 " fill="none" style="stroke:#181818;stroke-width:0.5;"/><text fill="#000000" font-family="sans-serif" font-size="14" lengthAdjust="spacing" textLength="82" x="315.7956" y="448.9326">Open Index</text></g><!--entity FCS--><g id="elem_FCS"><rect fill="#1ABC9C" height="46.2969" rx="2.5" ry="2.5" style="stroke:#181818;stroke-width:0.5;" width="204" x="216.7956" y="267.9375"/><rect fill="#1ABC9C" height="10" style="stroke:#181818;stroke-width:0.5;" width="15" x="400.7956" y="272.9375"/><rect fill="#1ABC9C" height="2" style="stroke:#181818;stroke-width:0.5;" width="4" x="398.7956" y="274.9375"/><rect fill="#1ABC9C" height="2" style="stroke:#181818;stroke-width:0.5;" width="4" x="398.7956" y="278.9375"/><text fill="#000000" font-family="sans-serif" font-size="14" lengthAdjust="spacing" textLength="164" x="231.7956" y="300.9326">Federatieve Connectie</text></g><!--entity ZRC--><g id="elem_ZRC"><path d="M477.2956,421.9375 C477.2956,411.9375 559.7956,411.9375 559.7956,411.9375 C559.7956,411.9375 642.2956,411.9375 642.2956,421.9375 L642.2956,447.2344 C642.2956,457.2344 559.7956,457.2344 559.7956,457.2344 C559.7956,457.2344 477.2956,457.2344 477.2956,447.2344 L477.2956,421.9375 " fill="#CCE5FF" style="stroke:#181818;stroke-width:0.5;"/><path d="M477.2956,421.9375 C477.2956,431.9375 559.7956,431.9375 559.7956,431.9375 C559.7956,431.9375 642.2956,431.9375 642.2956,421.9375 " fill="none" style="stroke:#181818;stroke-width:0.5;"/><text fill="#000000" font-family="sans-serif" font-size="14" lengthAdjust="spacing" textLength="145" x="487.2956" y="448.9326">Zaaksysteem (ZGW)</text></g><!--entity RIS--><g id="elem_RIS"><path d="M677.7956,421.9375 C677.7956,411.9375 795.7956,411.9375 795.7956,411.9375 C795.7956,411.9375 913.7956,411.9375 913.7956,421.9375 L913.7956,447.2344 C913.7956,457.2344 795.7956,457.2344 795.7956,457.2344 C795.7956,457.2344 677.7956,457.2344 677.7956,447.2344 L677.7956,421.9375 " fill="#CCE5FF" style="stroke:#181818;stroke-width:0.5;"/><path d="M677.7956,421.9375 C677.7956,431.9375 795.7956,431.9375 795.7956,431.9375 C795.7956,431.9375 913.7956,431.9375 913.7956,421.9375 " fill="none" style="stroke:#181818;stroke-width:0.5;"/><text fill="#000000" font-family="sans-serif" font-size="14" lengthAdjust="spacing" textLength="216" x="687.7956" y="448.9326">Raadsinformatiesysteem (RIS)</text></g><!--entity CMS--><g id="elem_CMS"><path d="M949.2956,421.9375 C949.2956,411.9375 1011.7956,411.9375 1011.7956,411.9375 C1011.7956,411.9375 1074.2956,411.9375 1074.2956,421.9375 L1074.2956,447.2344 C1074.2956,457.2344 1011.7956,457.2344 1011.7956,457.2344 C1011.7956,457.2344 949.2956,457.2344 949.2956,447.2344 L949.2956,421.9375 " fill="#CCE5FF" style="stroke:#181818;stroke-width:0.5;"/><path d="M949.2956,421.9375 C949.2956,431.9375 1011.7956,431.9375 1011.7956,431.9375 C1011.7956,431.9375 1074.2956,431.9375 1074.2956,421.9375 " fill="none" style="stroke:#181818;stroke-width:0.5;"/><text fill="#000000" font-family="sans-serif" font-size="14" lengthAdjust="spacing" textLength="105" x="959.2956" y="448.9326">Website (CMS)</text></g><!--entity DEPOT--><g id="elem_DEPOT"><path d="M1109.7976,421.9375 C1109.7976,411.9375 1145.7976,411.9375 1145.7976,411.9375 C1145.7976,411.9375 1181.7976,411.9375 1181.7976,421.9375 L1181.7976,447.2344 C1181.7976,457.2344 1145.7976,457.2344 1145.7976,457.2344 C1145.7976,457.2344 1109.7976,457.2344 1109.7976,447.2344 L1109.7976,421.9375 " fill="#CCE5FF" style="stroke:#181818;stroke-width:0.5;"/><path d="M1109.7976,421.9375 C1109.7976,431.9375 1145.7976,431.9375 1145.7976,431.9375 C1145.7976,431.9375 1181.7976,431.9375 1181.7976,421.9375 " fill="none" style="stroke:#181818;stroke-width:0.5;"/><text fill="#000000" font-family="sans-serif" font-size="14" lengthAdjust="spacing" textLength="52" x="1119.7976" y="448.9326">Archief</text></g><!--entity Standaard onderdeel--><g id="elem_Standaard onderdeel"><rect fill="#1ABC9C" height="46.2969" rx="2.5" ry="2.5" style="stroke:#181818;stroke-width:0.5;" width="190" x="910.7956" y="106.9375"/><rect fill="#1ABC9C" height="10" style="stroke:#181818;stroke-width:0.5;" width="15" x="1080.7956" y="111.9375"/><rect fill="#1ABC9C" height="2" style="stroke:#181818;stroke-width:0.5;" width="4" x="1078.7956" y="113.9375"/><rect fill="#1ABC9C" height="2" style="stroke:#181818;stroke-width:0.5;" width="4" x="1078.7956" y="117.9375"/><text fill="#000000" font-family="sans-serif" font-size="14" lengthAdjust="spacing" textLength="150" x="925.7956" y="139.9326">Standaard onderdeel</text></g><!--entity Optioneel--><g id="elem_Optioneel"><rect fill="#CCE5FF" height="46.2969" rx="2.5" ry="2.5" style="stroke:#181818;stroke-width:0.5;" width="112" x="763.7956" y="106.9375"/><rect fill="#CCE5FF" height="10" style="stroke:#181818;stroke-width:0.5;" width="15" x="855.7956" y="111.9375"/><rect fill="#CCE5FF" height="2" style="stroke:#181818;stroke-width:0.5;" width="4" x="853.7956" y="113.9375"/><rect fill="#CCE5FF" height="2" style="stroke:#181818;stroke-width:0.5;" width="4" x="853.7956" y="117.9375"/><text fill="#000000" font-family="sans-serif" font-size="14" lengthAdjust="spacing" textLength="72" x="778.7956" y="139.9326">Optioneel</text></g><!--link OWS to ZRC--><g id="link_OWS_ZRC"><path d="M764.4416,309.0175 C736.6846,324.2965 695.1996,347.5215 659.7956,368.9375 C636.9926,382.7315 616.7932,395.7068 597.3882,408.4552 " fill="none" id="OWS-to-ZRC" style="stroke:#181818;stroke-width:1.0;"/><polygon fill="#181818" points="592.3736,411.7496,602.0919,410.151,596.5525,409.0042,597.6993,403.4648,592.3736,411.7496" style="stroke:#181818;stroke-width:1.0;"/><text fill="#000000" font-family="sans-serif" font-size="13" lengthAdjust="spacing" textLength="64" x="701.7956" y="357.0044">Indexeerd</text></g><!--link OWS to RIS--><g id="link_OWS_RIS"><path d="M795.7956,309.0055 C795.7956,334.7325 795.7956,377.4325 795.7956,405.6757 " fill="none" id="OWS-to-RIS" style="stroke:#181818;stroke-width:1.0;"/><polygon fill="#181818" points="795.7956,411.6757,799.7956,402.6757,795.7956,406.6757,791.7956,402.6757,795.7956,411.6757" style="stroke:#181818;stroke-width:1.0;"/><text fill="#000000" font-family="sans-serif" font-size="13" lengthAdjust="spacing" textLength="64" x="796.7956" y="357.0044">Indexeerd</text></g><!--link OWS to CMS--><g id="link_OWS_CMS"><path d="M829.4046,308.9915 C857.4996,323.7085 898.2446,346.1385 931.7956,368.9375 C951.1256,382.0735 967.045,394.7751 982.451,407.8365 " fill="none" id="OWS-to-CMS" style="stroke:#181818;stroke-width:1.0;"/><polygon fill="#181818" points="987.0276,411.7166,982.7495,402.8454,983.2138,408.4832,977.576,408.9475,987.0276,411.7166" style="stroke:#181818;stroke-width:1.0;"/><text fill="#000000" font-family="sans-serif" font-size="13" lengthAdjust="spacing" textLength="64" x="917.7956" y="357.0044">Indexeerd</text></g><!--link OWS to DEPOT--><g id="link_OWS_DEPOT"><path d="M880.0656,299.9225 C942.4916,309.0025 1027.5176,328.2665 1091.7976,368.9375 C1108.8276,379.7135 1119.8245,392.6457 1129.4445,406.8588 " fill="none" id="OWS-to-DEPOT" style="stroke:#181818;stroke-width:1.0;"/><polygon fill="#181818" points="1132.8076,411.8276,1131.0755,402.1323,1130.005,407.6869,1124.4504,406.6164,1132.8076,411.8276" style="stroke:#181818;stroke-width:1.0;"/><text fill="#000000" font-family="sans-serif" font-size="13" lengthAdjust="spacing" textLength="64" x="1077.7976" y="357.0044">Indexeerd</text></g><!--link OWS to OI--><g id="link_OWS_OI"><path d="M711.5406,303.4215 C642.3426,314.6955 542.7426,335.2015 460.7956,368.9375 C433.8796,380.0175 410.9059,394.2746 390.7909,408.3295 " fill="none" id="OWS-to-OI" style="stroke:#181818;stroke-width:1.0;stroke-dasharray:7.0,7.0;"/><polygon fill="#181818" points="385.8726,411.7661,395.5411,409.8901,389.9712,408.9023,390.959,403.3324,385.8726,411.7661" style="stroke:#181818;stroke-width:1.0;"/><text fill="#000000" font-family="sans-serif" font-size="13" lengthAdjust="spacing" textLength="67" x="532.7956" y="357.0044">Slaat op in</text></g><!--link FCS to OI--><g id="link_FCS_OI"><path d="M324.7326,314.0465 C331.8716,340.6295 342.2235,379.1748 349.3435,405.6887 " fill="none" id="FCS-to-OI" style="stroke:#181818;stroke-width:1.0;stroke-dasharray:7.0,7.0;"/><polygon fill="#181818" points="350.8996,411.4834,352.4286,401.7539,349.6029,406.6545,344.7023,403.8287,350.8996,411.4834" style="stroke:#181818;stroke-width:1.0;"/><text fill="#000000" font-family="sans-serif" font-size="13" lengthAdjust="spacing" textLength="61" x="337.7956" y="357.0044">Bevraagd</text></g><!--link KOOP to FCS--><g id="link_KOOP_FCS"><path d="M105.1295,138.5225 C70.2738,152.4575 6,183.7595 31.7954,216.9375 C54.6743,246.3645 137.7815,264.9496 210.6915,276.3376 " fill="none" id="KOOP-to-FCS" style="stroke:#181818;stroke-width:1.0;"/><polygon fill="#181818" points="216.6196,277.2635,208.3447,271.9225,211.6795,276.4919,207.1101,279.8267,216.6196,277.2635" style="stroke:#181818;stroke-width:1.0;"/><text fill="#000000" font-family="sans-serif" font-size="13" lengthAdjust="spacing" textLength="161" x="32.7954" y="213.0044">Indexeerd (XML Sitemap)</text></g><!--link WOOGLE to FCS--><g id="link_WOOGLE_FCS"><path d="M202.6836,167.9525 C199.9936,183.8775 199.8396,202.1825 207.7956,216.9375 C219.9466,239.4725 237.1553,253.3272 258.7253,265.0352 " fill="none" id="WOOGLE-to-FCS" style="stroke:#181818;stroke-width:1.0;"/><polygon fill="#181818" points="263.9986,267.8975,257.9969,260.0886,259.6042,265.5123,254.1805,267.1196,263.9986,267.8975" style="stroke:#181818;stroke-width:1.0;"/><text fill="#000000" font-family="sans-serif" font-size="13" lengthAdjust="spacing" textLength="98" x="208.7956" y="213.0044">Indexeerd (API)</text></g><!--link Website to FCS--><g id="link_Website_FCS"><path d="M318.3306,139.0075 C317.6146,151.8845 316.2746,177.8805 315.7956,199.9375 C315.2926,223.0695 316.044,243.5456 317.046,261.7586 " fill="none" id="Website-to-FCS" style="stroke:#181818;stroke-width:1.0;"/><polygon fill="#181818" points="317.3756,267.7495,320.8752,258.5434,317.1009,262.757,312.8872,258.9828,317.3756,267.7495" style="stroke:#181818;stroke-width:1.0;"/><text fill="#000000" font-family="sans-serif" font-size="13" lengthAdjust="spacing" textLength="95" x="316.7956" y="213.0044">Bevraagd (API)</text></g><!--link Themasite to FCS--><g id="link_Themasite_FCS"><path d="M439.3626,139.2605 C438.1556,155.5295 433.6246,192.1225 416.7956,216.9375 C402.5056,238.0075 385.1534,252.1618 365.3584,264.6568 " fill="none" id="Themasite-to-FCS" style="stroke:#181818;stroke-width:1.0;"/><polygon fill="#181818" points="360.2846,267.8595,370.0303,266.438,364.5127,265.1906,365.7601,259.673,360.2846,267.8595" style="stroke:#181818;stroke-width:1.0;"/><text fill="#000000" font-family="sans-serif" font-size="13" lengthAdjust="spacing" textLength="95" x="427.7956" y="213.0044">Bevraagd (API)</text></g><!--link Searchsite to FCS--><g id="link_Searchsite_FCS"><path d="M572.9406,139.0855 C568.6686,156.0305 556.5476,195.2865 531.7956,216.9375 C500.7546,244.0895 464.8963,259.6282 426.6763,270.4332 " fill="none" id="Searchsite-to-FCS" style="stroke:#181818;stroke-width:1.0;"/><polygon fill="#181818" points="420.9026,272.0655,430.6513,273.4663,425.714,270.7053,428.475,265.768,420.9026,272.0655" style="stroke:#181818;stroke-width:1.0;"/><text fill="#000000" font-family="sans-serif" font-size="13" lengthAdjust="spacing" textLength="95" x="546.7956" y="213.0044">Bevraagd (API)</text></g><text fill="#888888" font-family="sans-serif" font-size="10" lengthAdjust="spacing" textLength="78" x="555.8988" y="487.2197">OpenWoo.app</text><!--SRC=[VLHDZzf03BtdLrZPG-6mIFtOGpcinDBT5Igh8B8L5JSpSM1ACXDD1lgb_lTwaaaWj24dp_ZvsNuUnqgR4KooBUMas31Y9oq9UpWO80LxElmYoFMML2Q_xNUKa0fIhIsPCKG5gPNM8ooAO4UONDu5mHjO73QP56WbGP6XJRNXF32O8sxX3hxCXa5gC2S8_myCuNS0_A6msa3uEOeM8PzAS1RSlCMD-2ZE403XAegUvu-X0zLc1oOLbvwYu8mhsfJSQmYJ6BmDDqBGNPfUGbztb2FKQEQjZjVmQqrxA70h5LO1CI4BMqVuOluuTM8oHocehFNuq8hHt3Vj5qRpgOJGozi4rbf4gxXBE-DAjgRIicP-tpAVN0rtWXOtM59Dph49_V2yiuvqGkU5LgGiX4_y3YgI8y5KAyKFHlfYdgONnJmO1sXc_gwjnD__MyOQSL_-B2rH3eFrysfOIRXUJZjgd_1BnAIKohqOLr8Rkfp5TIWRFQ7Ds0VJ5uzbemTRhGQb5UhJuo9wRN7SfkzfJhme2JOzdIaMMsG7cWGq2smIeYpiKpSgh6IpGlWKBeSRyssYlwlRUwV6k1uLCLd7nTtskRYvFbVLqQLpDBhdHp26E4Eqe0j-ua7W1bmxO0mFT3GyrYG8geLis1pcZ0m6Nr_c4BFIEHR3mAzbBtYouDz2CvekgiddGQT5l0exMxzhkBy0]--></g></svg>