<?xml version="1.0" encoding="us-ascii" standalone="no"?><svg xmlns="http://www.w3.org/2000/svg" xmlns:xlink="http://www.w3.org/1999/xlink" contentStyleType="text/css" height="466px" preserveAspectRatio="none" style="width:1203px;height:466px;background:#FFFFFF;" version="1.1" viewBox="0 0 1203 466" width="1203px" zoomAndPan="magnify"><defs/><g><text fill="#000000" font-family="sans-serif" font-size="14" font-weight="bold" lengthAdjust="spacing" textLength="392" x="398.8988" y="22.9951">Algemene Architectuur en keuze mogenlijkheden</text><!--cluster Publicatie platformen --><g id="cluster_Publicatie platformen "><rect fill="none" height="127" rx="2.5" ry="2.5" style="stroke:#181818;stroke-width:1.0;" width="554.0002" x="88.7954" y="44.2969"/><path d="M280.7954,44.2969 L280.7954,53.5938 L270.7954,63.5938 L88.7954,63.5938 " fill="none" style="stroke:#181818;stroke-width:1.0;"/><text fill="#000000" font-family="sans-serif" font-size="14" font-weight="bold" lengthAdjust="spacing" textLength="177" x="91.7954" y="58.292">Publicatie platformen</text></g><!--cluster Services--><g id="cluster_Services"><rect fill="none" height="87" rx="2.5" ry="2.5" style="stroke:#181818;stroke-width:1.0;" width="200" x="695.7956" y="225.2969"/><path d="M772.7956,225.2969 L772.7956,234.5938 L762.7956,244.5938 L695.7956,244.5938 " fill="none" style="stroke:#181818;stroke-width:1.0;"/><text fill="#000000" font-family="sans-serif" font-size="14" font-weight="bold" lengthAdjust="spacing" textLength="67" x="698.7956" y="239.292">Services</text></g><!--cluster Integratie--><g id="cluster_Integratie"><rect fill="none" height="240" rx="2.5" ry="2.5" style="stroke:#181818;stroke-width:1.0;" width="236" x="200.7956" y="220.2969"/><path d="M291.7956,220.2969 L291.7956,229.5938 L281.7956,239.5938 L200.7956,239.5938 " fill="none" style="stroke:#181818;stroke-width:1.0;"/><text fill="#000000" font-family="sans-serif" font-size="14" font-weight="bold" lengthAdjust="spacing" textLength="81" x="203.7956" y="234.292">Integratie</text></g><!--cluster Bronnen--><g id="cluster_Bronnen"><rect fill="none" height="96" rx="2.5" ry="2.5" style="stroke:#181818;stroke-width:1.0;" width="737.002" x="460.7956" y="364.2969"/><path d="M537.7956,364.2969 L537.7956,373.5938 L527.7956,383.5938 L460.7956,383.5938 " fill="none" style="stroke:#181818;stroke-width:1.0;"/><text fill="#000000" font-family="sans-serif" font-size="14" font-weight="bold" lengthAdjust="spacing" textLength="67" x="463.7956" y="378.292">Bronnen</text></g><!--cluster Legenda--><g id="cluster_Legenda"><rect fill="none" height="97" rx="2.5" ry="2.5" style="stroke:#181818;stroke-width:1.0;" width="369.002" x="747.7956" y="59.2969"/><path d="M824.7956,59.2969 L824.7956,68.5938 L814.7956,78.5938 L747.7956,78.5938 " fill="none" style="stroke:#181818;stroke-width:1.0;"/><text fill="#000000" font-family="sans-serif" font-size="14" font-weight="bold" lengthAdjust="spacing" textLength="67" x="750.7956" y="73.292">Legenda</text></g><!--entity KOOP--><g id="elem_KOOP"><ellipse cx="125.7954" cy="87.7969" fill="#1ABC9C" rx="8" ry="8" style="stroke:#181818;stroke-width:0.5;"/><path d="M125.7954,95.7969 L125.7954,122.7969 M112.7954,103.7969 L138.7954,103.7969 M125.7954,122.7969 L112.7954,137.7969 M125.7954,122.7969 L138.7954,137.7969 " fill="none" style="stroke:#181818;stroke-width:0.5;"/><text fill="#000000" font-family="sans-serif" font-size="14" lengthAdjust="spacing" textLength="41" x="105.2954" y="152.292">KOOP</text></g><!--entity WOOGLE--><g id="elem_WOOGLE"><ellipse cx="213.7956" cy="87.7969" fill="#1ABC9C" rx="8" ry="8" style="stroke:#181818;stroke-width:0.5;"/><path d="M213.7956,95.7969 L213.7956,122.7969 M200.7956,103.7969 L226.7956,103.7969 M213.7956,122.7969 L200.7956,137.7969 M213.7956,122.7969 L226.7956,137.7969 " fill="none" style="stroke:#181818;stroke-width:0.5;"/><text fill="#000000" font-family="sans-serif" font-size="14" lengthAdjust="spacing" textLength="64" x="181.7956" y="152.292">WOOGLE</text></g><!--entity Website--><g id="elem_Website"><ellipse cx="318.7956" cy="117.2969" fill="#FFBC2C" rx="8" ry="8" style="stroke:#181818;stroke-width:0.5;"/><text fill="#000000" font-family="sans-serif" font-size="14" lengthAdjust="spacing" textLength="60" x="288.7956" y="147.292">Website</text></g><!--entity Themasite--><g id="elem_Themasite"><ellipse cx="439.7956" cy="117.2969" fill="#FFBC2C" rx="8" ry="8" style="stroke:#181818;stroke-width:0.5;"/><text fill="#000000" font-family="sans-serif" font-size="14" lengthAdjust="spacing" textLength="80" x="399.7956" y="147.292">Thema site</text></g><!--entity Searchsite--><g id="elem_Searchsite"><ellipse cx="574.7956" cy="117.2969" fill="#1ABC9C" rx="8" ry="8" style="stroke:#181818;stroke-width:0.5;"/><text fill="#000000" font-family="sans-serif" font-size="14" lengthAdjust="spacing" textLength="89" x="530.2956" y="147.292">Zoek pagina</text></g><!--entity OWS--><g id="elem_OWS"><polygon fill="#1ABC9C" points="711.7956,260.2969,869.7956,260.2969,879.7956,278.4453,869.7956,296.5938,711.7956,296.5938,721.7956,278.4453" style="stroke:#181818;stroke-width:0.5;"/><text fill="#000000" font-family="sans-serif" font-size="14" lengthAdjust="spacing" textLength="128" x="731.7956" y="283.292">OpenWoo Service</text></g><!--entity OI--><g id="elem_OI"><path d="M305.7956,409.2969 C305.7956,399.2969 356.7956,399.2969 356.7956,399.2969 C356.7956,399.2969 407.7956,399.2969 407.7956,409.2969 L407.7956,434.5938 C407.7956,444.5938 356.7956,444.5938 356.7956,444.5938 C356.7956,444.5938 305.7956,444.5938 305.7956,434.5938 L305.7956,409.2969 " fill="#1ABC9C" style="stroke:#181818;stroke-width:0.5;"/><path d="M305.7956,409.2969 C305.7956,419.2969 356.7956,419.2969 356.7956,419.2969 C356.7956,419.2969 407.7956,419.2969 407.7956,409.2969 " fill="none" style="stroke:#181818;stroke-width:0.5;"/><text fill="#000000" font-family="sans-serif" font-size="14" lengthAdjust="spacing" textLength="82" x="315.7956" y="436.292">Open Index</text></g><!--entity FCS--><g id="elem_FCS"><rect fill="#1ABC9C" height="46.2969" rx="2.5" ry="2.5" style="stroke:#181818;stroke-width:0.5;" width="204" x="216.7956" y="255.2969"/><rect fill="#1ABC9C" height="10" style="stroke:#181818;stroke-width:0.5;" width="15" x="400.7956" y="260.2969"/><rect fill="#1ABC9C" height="2" style="stroke:#181818;stroke-width:0.5;" width="4" x="398.7956" y="262.2969"/><rect fill="#1ABC9C" height="2" style="stroke:#181818;stroke-width:0.5;" width="4" x="398.7956" y="266.2969"/><text fill="#000000" font-family="sans-serif" font-size="14" lengthAdjust="spacing" textLength="164" x="231.7956" y="288.292">Federatieve Connectie</text></g><!--entity ZRC--><g id="elem_ZRC"><path d="M477.2956,409.2969 C477.2956,399.2969 559.7956,399.2969 559.7956,399.2969 C559.7956,399.2969 642.2956,399.2969 642.2956,409.2969 L642.2956,434.5938 C642.2956,444.5938 559.7956,444.5938 559.7956,444.5938 C559.7956,444.5938 477.2956,444.5938 477.2956,434.5938 L477.2956,409.2969 " fill="#FFBC2C" style="stroke:#181818;stroke-width:0.5;"/><path d="M477.2956,409.2969 C477.2956,419.2969 559.7956,419.2969 559.7956,419.2969 C559.7956,419.2969 642.2956,419.2969 642.2956,409.2969 " fill="none" style="stroke:#181818;stroke-width:0.5;"/><text fill="#000000" font-family="sans-serif" font-size="14" lengthAdjust="spacing" textLength="145" x="487.2956" y="436.292">Zaaksysteem (ZGW)</text></g><!--entity RIS--><g id="elem_RIS"><path d="M677.7956,409.2969 C677.7956,399.2969 795.7956,399.2969 795.7956,399.2969 C795.7956,399.2969 913.7956,399.2969 913.7956,409.2969 L913.7956,434.5938 C913.7956,444.5938 795.7956,444.5938 795.7956,444.5938 C795.7956,444.5938 677.7956,444.5938 677.7956,434.5938 L677.7956,409.2969 " fill="#FFBC2C" style="stroke:#181818;stroke-width:0.5;"/><path d="M677.7956,409.2969 C677.7956,419.2969 795.7956,419.2969 795.7956,419.2969 C795.7956,419.2969 913.7956,419.2969 913.7956,409.2969 " fill="none" style="stroke:#181818;stroke-width:0.5;"/><text fill="#000000" font-family="sans-serif" font-size="14" lengthAdjust="spacing" textLength="216" x="687.7956" y="436.292">Raadsinformatiesysteem (RIS)</text></g><!--entity CMS--><g id="elem_CMS"><path d="M949.2956,409.2969 C949.2956,399.2969 1011.7956,399.2969 1011.7956,399.2969 C1011.7956,399.2969 1074.2956,399.2969 1074.2956,409.2969 L1074.2956,434.5938 C1074.2956,444.5938 1011.7956,444.5938 1011.7956,444.5938 C1011.7956,444.5938 949.2956,444.5938 949.2956,434.5938 L949.2956,409.2969 " fill="#FFBC2C" style="stroke:#181818;stroke-width:0.5;"/><path d="M949.2956,409.2969 C949.2956,419.2969 1011.7956,419.2969 1011.7956,419.2969 C1011.7956,419.2969 1074.2956,419.2969 1074.2956,409.2969 " fill="none" style="stroke:#181818;stroke-width:0.5;"/><text fill="#000000" font-family="sans-serif" font-size="14" lengthAdjust="spacing" textLength="105" x="959.2956" y="436.292">Website (CMS)</text></g><!--entity DEPOT--><g id="elem_DEPOT"><path d="M1109.7976,409.2969 C1109.7976,399.2969 1145.7976,399.2969 1145.7976,399.2969 C1145.7976,399.2969 1181.7976,399.2969 1181.7976,409.2969 L1181.7976,434.5938 C1181.7976,444.5938 1145.7976,444.5938 1145.7976,444.5938 C1145.7976,444.5938 1109.7976,444.5938 1109.7976,434.5938 L1109.7976,409.2969 " fill="#FFBC2C" style="stroke:#181818;stroke-width:0.5;"/><path d="M1109.7976,409.2969 C1109.7976,419.2969 1145.7976,419.2969 1145.7976,419.2969 C1145.7976,419.2969 1181.7976,419.2969 1181.7976,409.2969 " fill="none" style="stroke:#181818;stroke-width:0.5;"/><text fill="#000000" font-family="sans-serif" font-size="14" lengthAdjust="spacing" textLength="52" x="1119.7976" y="436.292">Archief</text></g><!--entity Standaard onderdeel--><g id="elem_Standaard onderdeel"><rect fill="#1ABC9C" height="46.2969" rx="2.5" ry="2.5" style="stroke:#181818;stroke-width:0.5;" width="190" x="910.7956" y="94.2969"/><rect fill="#1ABC9C" height="10" style="stroke:#181818;stroke-width:0.5;" width="15" x="1080.7956" y="99.2969"/><rect fill="#1ABC9C" height="2" style="stroke:#181818;stroke-width:0.5;" width="4" x="1078.7956" y="101.2969"/><rect fill="#1ABC9C" height="2" style="stroke:#181818;stroke-width:0.5;" width="4" x="1078.7956" y="105.2969"/><text fill="#000000" font-family="sans-serif" font-size="14" lengthAdjust="spacing" textLength="150" x="925.7956" y="127.292">Standaard onderdeel</text></g><!--entity Optioneel--><g id="elem_Optioneel"><rect fill="#FFBC2C" height="46.2969" rx="2.5" ry="2.5" style="stroke:#181818;stroke-width:0.5;" width="112" x="763.7956" y="94.2969"/><rect fill="#FFBC2C" height="10" style="stroke:#181818;stroke-width:0.5;" width="15" x="855.7956" y="99.2969"/><rect fill="#FFBC2C" height="2" style="stroke:#181818;stroke-width:0.5;" width="4" x="853.7956" y="101.2969"/><rect fill="#FFBC2C" height="2" style="stroke:#181818;stroke-width:0.5;" width="4" x="853.7956" y="105.2969"/><text fill="#000000" font-family="sans-serif" font-size="14" lengthAdjust="spacing" textLength="72" x="778.7956" y="127.292">Optioneel</text></g><!--link OWS to ZRC--><g id="link_OWS_ZRC"><path d="M764.4416,296.3769 C736.6846,311.6559 695.1996,334.8809 659.7956,356.2969 C636.9926,370.0909 616.7932,383.0661 597.3882,395.8145 " fill="none" id="OWS-to-ZRC" style="stroke:#181818;stroke-width:1.0;"/><polygon fill="#181818" points="592.3736,399.109,602.0919,397.5104,596.5525,396.3636,597.6993,390.8242,592.3736,399.109" style="stroke:#181818;stroke-width:1.0;"/><text fill="#000000" font-family="sans-serif" font-size="13" lengthAdjust="spacing" textLength="64" x="701.7956" y="344.3638">Indexeerd</text></g><!--link OWS to RIS--><g id="link_OWS_RIS"><path d="M795.7956,296.3649 C795.7956,322.0919 795.7956,364.7919 795.7956,393.0351 " fill="none" id="OWS-to-RIS" style="stroke:#181818;stroke-width:1.0;"/><polygon fill="#181818" points="795.7956,399.0351,799.7956,390.0351,795.7956,394.0351,791.7956,390.0351,795.7956,399.0351" style="stroke:#181818;stroke-width:1.0;"/><text fill="#000000" font-family="sans-serif" font-size="13" lengthAdjust="spacing" textLength="64" x="796.7956" y="344.3638">Indexeerd</text></g><!--link OWS to CMS--><g id="link_OWS_CMS"><path d="M829.4046,296.3509 C857.4996,311.0679 898.2446,333.4979 931.7956,356.2969 C951.1256,369.4329 967.045,382.1345 982.451,395.1959 " fill="none" id="OWS-to-CMS" style="stroke:#181818;stroke-width:1.0;"/><polygon fill="#181818" points="987.0276,399.076,982.7495,390.2048,983.2138,395.8426,977.576,396.3069,987.0276,399.076" style="stroke:#181818;stroke-width:1.0;"/><text fill="#000000" font-family="sans-serif" font-size="13" lengthAdjust="spacing" textLength="64" x="917.7956" y="344.3638">Indexeerd</text></g><!--link OWS to DEPOT--><g id="link_OWS_DEPOT"><path d="M880.0656,287.2819 C942.4916,296.3619 1027.5176,315.6259 1091.7976,356.2969 C1108.8276,367.0729 1119.8245,380.005 1129.4445,394.2181 " fill="none" id="OWS-to-DEPOT" style="stroke:#181818;stroke-width:1.0;"/><polygon fill="#181818" points="1132.8076,399.187,1131.0755,389.4916,1130.005,395.0463,1124.4504,393.9758,1132.8076,399.187" style="stroke:#181818;stroke-width:1.0;"/><text fill="#000000" font-family="sans-serif" font-size="13" lengthAdjust="spacing" textLength="64" x="1077.7976" y="344.3638">Indexeerd</text></g><!--link OWS to OI--><g id="link_OWS_OI"><path d="M711.5406,290.7809 C642.3426,302.0549 542.7426,322.5609 460.7956,356.2969 C433.8796,367.3769 410.9059,381.634 390.7909,395.6889 " fill="none" id="OWS-to-OI" style="stroke:#181818;stroke-width:1.0;stroke-dasharray:7.0,7.0;"/><polygon fill="#181818" points="385.8726,399.1255,395.5411,397.2495,389.9712,396.2617,390.959,390.6917,385.8726,399.1255" style="stroke:#181818;stroke-width:1.0;"/><text fill="#000000" font-family="sans-serif" font-size="13" lengthAdjust="spacing" textLength="67" x="532.7956" y="344.3638">Slaat op in</text></g><!--link FCS to OI--><g id="link_FCS_OI"><path d="M324.7326,301.4059 C331.8716,327.9889 342.2235,366.5342 349.3435,393.0481 " fill="none" id="FCS-to-OI" style="stroke:#181818;stroke-width:1.0;stroke-dasharray:7.0,7.0;"/><polygon fill="#181818" points="350.8996,398.8428,352.4286,389.1133,349.6029,394.0139,344.7023,391.1881,350.8996,398.8428" style="stroke:#181818;stroke-width:1.0;"/><text fill="#000000" font-family="sans-serif" font-size="13" lengthAdjust="spacing" textLength="61" x="337.7956" y="344.3638">Bevraagd</text></g><!--link KOOP to FCS--><g id="link_KOOP_FCS"><path d="M105.1295,125.8819 C70.2738,139.8169 6,171.1189 31.7954,204.2969 C54.6743,233.7239 137.7815,252.3089 210.6915,263.6969 " fill="none" id="KOOP-to-FCS" style="stroke:#181818;stroke-width:1.0;"/><polygon fill="#181818" points="216.6196,264.6229,208.3447,259.2819,211.6795,263.8513,207.1101,267.1861,216.6196,264.6229" style="stroke:#181818;stroke-width:1.0;"/><text fill="#000000" font-family="sans-serif" font-size="13" lengthAdjust="spacing" textLength="161" x="32.7954" y="200.3638">Indexeerd (XML Sitemap)</text></g><!--link WOOGLE to FCS--><g id="link_WOOGLE_FCS"><path d="M202.6836,155.3119 C199.9936,171.2369 199.8396,189.5419 207.7956,204.2969 C219.9466,226.8319 237.1553,240.6866 258.7253,252.3946 " fill="none" id="WOOGLE-to-FCS" style="stroke:#181818;stroke-width:1.0;"/><polygon fill="#181818" points="263.9986,255.2569,257.9969,247.4479,259.6042,252.8716,254.1805,254.479,263.9986,255.2569" style="stroke:#181818;stroke-width:1.0;"/><text fill="#000000" font-family="sans-serif" font-size="13" lengthAdjust="spacing" textLength="98" x="208.7956" y="200.3638">Indexeerd (API)</text></g><!--link Website to FCS--><g id="link_Website_FCS"><path d="M318.3306,126.3669 C317.6146,139.2439 316.2746,165.2399 315.7956,187.2969 C315.2926,210.4289 316.044,230.9049 317.046,249.1179 " fill="none" id="Website-to-FCS" style="stroke:#181818;stroke-width:1.0;"/><polygon fill="#181818" points="317.3756,255.1089,320.8752,245.9027,317.1009,250.1164,312.8872,246.3422,317.3756,255.1089" style="stroke:#181818;stroke-width:1.0;"/><text fill="#000000" font-family="sans-serif" font-size="13" lengthAdjust="spacing" textLength="95" x="316.7956" y="200.3638">Bevraagd (API)</text></g><!--link Themasite to FCS--><g id="link_Themasite_FCS"><path d="M439.3626,126.6199 C438.1556,142.8889 433.6246,179.4819 416.7956,204.2969 C402.5056,225.3669 385.1534,239.5212 365.3584,252.0162 " fill="none" id="Themasite-to-FCS" style="stroke:#181818;stroke-width:1.0;"/><polygon fill="#181818" points="360.2846,255.2189,370.0303,253.7974,364.5127,252.55,365.7601,247.0324,360.2846,255.2189" style="stroke:#181818;stroke-width:1.0;"/><text fill="#000000" font-family="sans-serif" font-size="13" lengthAdjust="spacing" textLength="95" x="427.7956" y="200.3638">Bevraagd (API)</text></g><!--link Searchsite to FCS--><g id="link_Searchsite_FCS"><path d="M572.9406,126.4449 C568.6686,143.3899 556.5476,182.6459 531.7956,204.2969 C500.7546,231.4489 464.8963,246.9876 426.6763,257.7926 " fill="none" id="Searchsite-to-FCS" style="stroke:#181818;stroke-width:1.0;"/><polygon fill="#181818" points="420.9026,259.4249,430.6513,260.8256,425.714,258.0647,428.475,253.1273,420.9026,259.4249" style="stroke:#181818;stroke-width:1.0;"/><text fill="#000000" font-family="sans-serif" font-size="13" lengthAdjust="spacing" textLength="95" x="546.7956" y="200.3638">Bevraagd (API)</text></g><!--SRC=[VPHDRzim38Rl_XM4UrXoQ85sss4v54ZJ3mHBuI3ku24tngOTBRPao4hsXVxtKRRinEsSd2Zp8KM-f6A4oGccUKO5IJPql1M6OhFVQo09Ezh_8IXKHZ8NFtPRIaXwtWTOxZUvYD48WZ97aohDuJ1Q86Rm6RxDnrwgiI3m_m_wyDS3_c5ib0R_Qn0iVJvLO2sukCPD_2K-8G3yA0YU5W- -XHgpXmbfIASOyuqHRIfkmOTf2Cw6YpJTn3Vlq9Sj5GWDpNdhupb-hMW79MP2OXqG4h9UJOGhvjMg4v8-Y9YgHezFdHZjzxRzKYi-LU079Sb8gJQmqIA8mdxQELUIwLhB9lF7BlFHrUPEqE06AsgISsn2lrpUUK-wM1MbaYGD-8yytZh9WM2cfEGz4AwOnzcROkwq1TgPttILkE_lorWZxghVbI4gOBH-YiQrXElLhAVsaLyX9fMGTcDiILteQXuseMmCXBPZ7ysU7Sl605jlFAKrTV-m35uwZjjqFIs8zp_1jgSJnKA3x42TW6A1TKAK-qFg1gKHRDQ4kyBUOSTycQYVylBMgZ5fHaMShEVYReTStDoGg-xehVFgwfQNO09XZcX0bRpYdcS7t3XW0dTqq3pMnFFg1zbciyn9CXXzVrv0o4eNM8uzzom7uUcI_nRQqVIfzZu77H_YMUpa-PtZ_W40]--></g></svg>