<?xml version="1.0" encoding="us-ascii" standalone="no"?><svg xmlns="http://www.w3.org/2000/svg" xmlns:xlink="http://www.w3.org/1999/xlink" contentStyleType="text/css" height="455px" preserveAspectRatio="none" style="width:830px;height:455px;background:#FFFFFF;" version="1.1" viewBox="0 0 830 455" width="830px" zoomAndPan="magnify"><defs/><g><text fill="#000000" font-family="sans-serif" font-size="14" font-weight="bold" lengthAdjust="spacing" textLength="76" x="370.25" y="22.9951">Federatie</text><!--entity Api--><g id="elem_Api"><ellipse cx="415.5" cy="51.2969" fill="#F1F1F1" rx="8" ry="8" style="stroke:#181818;stroke-width:0.5;"/><text fill="#000000" font-family="sans-serif" font-size="14" lengthAdjust="spacing" textLength="100" x="365.5" y="81.292">Landelijke API</text></g><!--entity NLX--><g id="elem_NLX"><rect fill="#F1F1F1" height="46.2969" rx="2.5" ry="2.5" style="stroke:#181818;stroke-width:0.5;" width="133" x="349" y="157.2969"/><rect fill="#F1F1F1" height="10" style="stroke:#181818;stroke-width:0.5;" width="15" x="462" y="162.2969"/><rect fill="#F1F1F1" height="2" style="stroke:#181818;stroke-width:0.5;" width="4" x="460" y="164.2969"/><rect fill="#F1F1F1" height="2" style="stroke:#181818;stroke-width:0.5;" width="4" x="460" y="168.2969"/><text fill="#000000" font-family="sans-serif" font-size="14" lengthAdjust="spacing" textLength="93" x="364" y="190.292">NLX/FSC/FDS</text></g><!--entity Org1--><g id="elem_Org1"><rect fill="#F1F1F1" height="46.2969" rx="2.5" ry="2.5" style="stroke:#181818;stroke-width:0.5;" width="249" x="7" y="280.2969"/><rect fill="#F1F1F1" height="10" style="stroke:#181818;stroke-width:0.5;" width="15" x="236" y="285.2969"/><rect fill="#F1F1F1" height="2" style="stroke:#181818;stroke-width:0.5;" width="4" x="234" y="287.2969"/><rect fill="#F1F1F1" height="2" style="stroke:#181818;stroke-width:0.5;" width="4" x="234" y="291.2969"/><text fill="#000000" font-family="sans-serif" font-size="14" lengthAdjust="spacing" textLength="209" x="22" y="313.292">Intergratie voorziening Org 1</text></g><!--entity Org2--><g id="elem_Org2"><rect fill="#F1F1F1" height="46.2969" rx="2.5" ry="2.5" style="stroke:#181818;stroke-width:0.5;" width="248" x="291.5" y="280.2969"/><rect fill="#F1F1F1" height="10" style="stroke:#181818;stroke-width:0.5;" width="15" x="519.5" y="285.2969"/><rect fill="#F1F1F1" height="2" style="stroke:#181818;stroke-width:0.5;" width="4" x="517.5" y="287.2969"/><rect fill="#F1F1F1" height="2" style="stroke:#181818;stroke-width:0.5;" width="4" x="517.5" y="291.2969"/><text fill="#000000" font-family="sans-serif" font-size="14" lengthAdjust="spacing" textLength="208" x="306.5" y="313.292">Intergratie voorziening Org 2</text></g><!--entity Org3--><g id="elem_Org3"><rect fill="#F1F1F1" height="46.2969" rx="2.5" ry="2.5" style="stroke:#181818;stroke-width:0.5;" width="249" x="575" y="280.2969"/><rect fill="#F1F1F1" height="10" style="stroke:#181818;stroke-width:0.5;" width="15" x="804" y="285.2969"/><rect fill="#F1F1F1" height="2" style="stroke:#181818;stroke-width:0.5;" width="4" x="802" y="287.2969"/><rect fill="#F1F1F1" height="2" style="stroke:#181818;stroke-width:0.5;" width="4" x="802" y="291.2969"/><text fill="#000000" font-family="sans-serif" font-size="14" lengthAdjust="spacing" textLength="209" x="590" y="313.292">Intergratie voorziening Org 3</text></g><!--entity BronnenOrg1--><g id="elem_BronnenOrg1"><rect fill="#F1F1F1" height="46.2969" rx="2.5" ry="2.5" style="stroke:#181818;stroke-width:0.5;" width="101" x="81" y="403.2969"/><rect fill="#F1F1F1" height="10" style="stroke:#181818;stroke-width:0.5;" width="15" x="162" y="408.2969"/><rect fill="#F1F1F1" height="2" style="stroke:#181818;stroke-width:0.5;" width="4" x="160" y="410.2969"/><rect fill="#F1F1F1" height="2" style="stroke:#181818;stroke-width:0.5;" width="4" x="160" y="414.2969"/><text fill="#000000" font-family="sans-serif" font-size="14" lengthAdjust="spacing" textLength="61" x="96" y="436.292">Bronnen</text></g><!--entity BronnenOrg2--><g id="elem_BronnenOrg2"><rect fill="#F1F1F1" height="46.2969" rx="2.5" ry="2.5" style="stroke:#181818;stroke-width:0.5;" width="101" x="365" y="403.2969"/><rect fill="#F1F1F1" height="10" style="stroke:#181818;stroke-width:0.5;" width="15" x="446" y="408.2969"/><rect fill="#F1F1F1" height="2" style="stroke:#181818;stroke-width:0.5;" width="4" x="444" y="410.2969"/><rect fill="#F1F1F1" height="2" style="stroke:#181818;stroke-width:0.5;" width="4" x="444" y="414.2969"/><text fill="#000000" font-family="sans-serif" font-size="14" lengthAdjust="spacing" textLength="61" x="380" y="436.292">Bronnen</text></g><!--entity BronnenOrg3--><g id="elem_BronnenOrg3"><rect fill="#F1F1F1" height="46.2969" rx="2.5" ry="2.5" style="stroke:#181818;stroke-width:0.5;" width="101" x="649" y="403.2969"/><rect fill="#F1F1F1" height="10" style="stroke:#181818;stroke-width:0.5;" width="15" x="730" y="408.2969"/><rect fill="#F1F1F1" height="2" style="stroke:#181818;stroke-width:0.5;" width="4" x="728" y="410.2969"/><rect fill="#F1F1F1" height="2" style="stroke:#181818;stroke-width:0.5;" width="4" x="728" y="414.2969"/><text fill="#000000" font-family="sans-serif" font-size="14" lengthAdjust="spacing" textLength="61" x="664" y="436.292">Bronnen</text></g><!--link Api to NLX--><g id="link_Api_NLX"><path d="M415.5,60.6299 C415.5,79.9439 415.5,122.3049 415.5,150.9749 " fill="none" id="Api-to-NLX" style="stroke:#181818;stroke-width:1.0;"/><polygon fill="#181818" points="415.5,156.9749,419.5,147.9749,415.5,151.9749,411.5,147.9749,415.5,156.9749" style="stroke:#181818;stroke-width:1.0;"/><text fill="#000000" font-family="sans-serif" font-size="13" lengthAdjust="spacing" textLength="167" x="416.5" y="123.3638">Connected trough outway</text></g><!--link NLX to Org1--><g id="link_NLX_Org1"><path d="M348.78,198.2469 C317.687,207.1069 280.562,219.0809 248.5,233.2969 C218.751,246.4879 192.1207,262.2597 169.2407,276.9917 " fill="none" id="NLX-to-Org1" style="stroke:#181818;stroke-width:1.0;"/><polygon fill="#181818" points="164.196,280.2399,173.9285,278.7307,168.3999,277.533,169.5976,272.0044,164.196,280.2399" style="stroke:#181818;stroke-width:1.0;"/><text fill="#000000" font-family="sans-serif" font-size="13" lengthAdjust="spacing" textLength="157" x="249.5" y="246.3638">Connected trough inway</text></g><!--link NLX to Org2--><g id="link_NLX_Org2"><path d="M415.5,203.4899 C415.5,225.3229 415.5,252.4609 415.5,274.2439 " fill="none" id="NLX-to-Org2" style="stroke:#181818;stroke-width:1.0;"/><polygon fill="#181818" points="415.5,280.2439,419.5,271.2439,415.5,275.2439,411.5,271.2439,415.5,280.2439" style="stroke:#181818;stroke-width:1.0;"/><text fill="#000000" font-family="sans-serif" font-size="13" lengthAdjust="spacing" textLength="157" x="416.5" y="246.3638">Connected trough inway</text></g><!--link NLX to Org3--><g id="link_NLX_Org3"><path d="M482.22,198.2469 C513.313,207.1069 550.438,219.0809 582.5,233.2969 C612.249,246.4879 638.8793,262.2597 661.7593,276.9917 " fill="none" id="NLX-to-Org3" style="stroke:#181818;stroke-width:1.0;"/><polygon fill="#181818" points="666.804,280.2399,661.4024,272.0044,662.6001,277.533,657.0715,278.7307,666.804,280.2399" style="stroke:#181818;stroke-width:1.0;"/><text fill="#000000" font-family="sans-serif" font-size="13" lengthAdjust="spacing" textLength="157" x="617.5" y="246.3638">Connected trough inway</text></g><!--link Org1 to BronnenOrg1--><g id="link_Org1_BronnenOrg1"><path d="M131.5,326.4899 C131.5,348.3229 131.5,375.4608 131.5,397.2443 " fill="none" id="Org1-to-BronnenOrg1" style="stroke:#181818;stroke-width:1.0;"/><polygon fill="#181818" points="131.5,403.2443,135.5,394.2443,131.5,398.2443,127.5,394.2443,131.5,403.2443" style="stroke:#181818;stroke-width:1.0;"/><text fill="#000000" font-family="sans-serif" font-size="13" lengthAdjust="spacing" textLength="122" x="132.5" y="369.3638">Internal connection</text></g><!--link Org2 to BronnenOrg2--><g id="link_Org2_BronnenOrg2"><path d="M415.5,326.4899 C415.5,348.3229 415.5,375.4608 415.5,397.2443 " fill="none" id="Org2-to-BronnenOrg2" style="stroke:#181818;stroke-width:1.0;"/><polygon fill="#181818" points="415.5,403.2443,419.5,394.2443,415.5,398.2443,411.5,394.2443,415.5,403.2443" style="stroke:#181818;stroke-width:1.0;"/><text fill="#000000" font-family="sans-serif" font-size="13" lengthAdjust="spacing" textLength="122" x="416.5" y="369.3638">Internal connection</text></g><!--link Org3 to BronnenOrg3--><g id="link_Org3_BronnenOrg3"><path d="M699.5,326.4899 C699.5,348.3229 699.5,375.4608 699.5,397.2443 " fill="none" id="Org3-to-BronnenOrg3" style="stroke:#181818;stroke-width:1.0;"/><polygon fill="#181818" points="699.5,403.2443,703.5,394.2443,699.5,398.2443,695.5,394.2443,699.5,403.2443" style="stroke:#181818;stroke-width:1.0;"/><text fill="#000000" font-family="sans-serif" font-size="13" lengthAdjust="spacing" textLength="122" x="700.5" y="369.3638">Internal connection</text></g><!--SRC=[ZP31IWCn48RlUOfXBvvAQNBp8BILXK9HiGXUGp9kOzV9agGMVNgJQ7JH5FSsk_Dzp9y_cD0ZjAZHoM2GiGjuyEXWGm7TarG8Q_ioM48Ap7p_QxQIDFRc-O2mlDiq83qi1vFibLG79FsZUQRA2CtDzd7UxjRpzdgNfVWzNkUhNKu2hzQwTuDag8DRry4Y2t5QJ3LuCVXKGnH3Z8sLinIdlFkQVyUe8_n_HAJExh6FSIpvlHayYqN2JDiJpQvIFt0Pkuoq2gWXE7lizc2FuIJVMDeMCYMgeOOg99zCYlDalbZGKI_Ho1sJx45zgl5jB9_zY_FpkAZWeev_0000]--></g></svg>