<?xml version="1.0" encoding="us-ascii" standalone="no"?><svg xmlns="http://www.w3.org/2000/svg" xmlns:xlink="http://www.w3.org/1999/xlink" contentStyleType="text/css" height="455px" preserveAspectRatio="none" style="width:714px;height:455px;background:#FFFFFF;" version="1.1" viewBox="0 0 714 455" width="714px" zoomAndPan="magnify"><defs/><g><text fill="#000000" font-family="sans-serif" font-size="14" font-weight="bold" lengthAdjust="spacing" textLength="76" x="312.25" y="22.9951">Federatie</text><!--entity Api--><g id="elem_Api"><ellipse cx="300.5" cy="51.2969" fill="#1ABC9C" rx="8" ry="8" style="stroke:#181818;stroke-width:0.5;"/><text fill="#000000" font-family="sans-serif" font-size="14" lengthAdjust="spacing" textLength="100" x="250.5" y="81.292">Landelijke API</text></g><!--entity NLX--><g id="elem_NLX"><rect fill="#CCE5FF" height="46.2969" rx="2.5" ry="2.5" style="stroke:#181818;stroke-width:0.5;" width="133" x="234" y="157.2969"/><rect fill="#CCE5FF" height="10" style="stroke:#181818;stroke-width:0.5;" width="15" x="347" y="162.2969"/><rect fill="#CCE5FF" height="2" style="stroke:#181818;stroke-width:0.5;" width="4" x="345" y="164.2969"/><rect fill="#CCE5FF" height="2" style="stroke:#181818;stroke-width:0.5;" width="4" x="345" y="168.2969"/><text fill="#000000" font-family="sans-serif" font-size="14" lengthAdjust="spacing" textLength="93" x="249" y="190.292">NLX/FSC/FDS</text></g><!--entity Org1--><g id="elem_Org1"><rect fill="#1ABC9C" height="46.2969" rx="2.5" ry="2.5" style="stroke:#181818;stroke-width:0.5;" width="115" x="7" y="280.2969"/><rect fill="#1ABC9C" height="10" style="stroke:#181818;stroke-width:0.5;" width="15" x="102" y="285.2969"/><rect fill="#1ABC9C" height="2" style="stroke:#181818;stroke-width:0.5;" width="4" x="100" y="287.2969"/><rect fill="#1ABC9C" height="2" style="stroke:#181818;stroke-width:0.5;" width="4" x="100" y="291.2969"/><text fill="#000000" font-family="sans-serif" font-size="14" lengthAdjust="spacing" textLength="75" x="22" y="313.292">Motorblok</text></g><!--entity Org2--><g id="elem_Org2"><rect fill="#1ABC9C" height="46.2969" rx="2.5" ry="2.5" style="stroke:#181818;stroke-width:0.5;" width="115" x="243" y="280.2969"/><rect fill="#1ABC9C" height="10" style="stroke:#181818;stroke-width:0.5;" width="15" x="338" y="285.2969"/><rect fill="#1ABC9C" height="2" style="stroke:#181818;stroke-width:0.5;" width="4" x="336" y="287.2969"/><rect fill="#1ABC9C" height="2" style="stroke:#181818;stroke-width:0.5;" width="4" x="336" y="291.2969"/><text fill="#000000" font-family="sans-serif" font-size="14" lengthAdjust="spacing" textLength="75" x="258" y="313.292">Motorblok</text></g><!--entity Org3--><g id="elem_Org3"><rect fill="#1ABC9C" height="46.2969" rx="2.5" ry="2.5" style="stroke:#181818;stroke-width:0.5;" width="115" x="479" y="280.2969"/><rect fill="#1ABC9C" height="10" style="stroke:#181818;stroke-width:0.5;" width="15" x="574" y="285.2969"/><rect fill="#1ABC9C" height="2" style="stroke:#181818;stroke-width:0.5;" width="4" x="572" y="287.2969"/><rect fill="#1ABC9C" height="2" style="stroke:#181818;stroke-width:0.5;" width="4" x="572" y="291.2969"/><text fill="#000000" font-family="sans-serif" font-size="14" lengthAdjust="spacing" textLength="75" x="494" y="313.292">Motorblok</text></g><!--entity BronnenOrg1--><g id="elem_BronnenOrg1"><rect fill="#CCE5FF" height="46.2969" rx="2.5" ry="2.5" style="stroke:#181818;stroke-width:0.5;" width="101" x="14" y="403.2969"/><rect fill="#CCE5FF" height="10" style="stroke:#181818;stroke-width:0.5;" width="15" x="95" y="408.2969"/><rect fill="#CCE5FF" height="2" style="stroke:#181818;stroke-width:0.5;" width="4" x="93" y="410.2969"/><rect fill="#CCE5FF" height="2" style="stroke:#181818;stroke-width:0.5;" width="4" x="93" y="414.2969"/><text fill="#000000" font-family="sans-serif" font-size="14" lengthAdjust="spacing" textLength="61" x="29" y="436.292">Bronnen</text></g><!--entity BronnenOrg2--><g id="elem_BronnenOrg2"><rect fill="#CCE5FF" height="46.2969" rx="2.5" ry="2.5" style="stroke:#181818;stroke-width:0.5;" width="101" x="250" y="403.2969"/><rect fill="#CCE5FF" height="10" style="stroke:#181818;stroke-width:0.5;" width="15" x="331" y="408.2969"/><rect fill="#CCE5FF" height="2" style="stroke:#181818;stroke-width:0.5;" width="4" x="329" y="410.2969"/><rect fill="#CCE5FF" height="2" style="stroke:#181818;stroke-width:0.5;" width="4" x="329" y="414.2969"/><text fill="#000000" font-family="sans-serif" font-size="14" lengthAdjust="spacing" textLength="61" x="265" y="436.292">Bronnen</text></g><!--entity BronnenOrg3--><g id="elem_BronnenOrg3"><rect fill="#CCE5FF" height="46.2969" rx="2.5" ry="2.5" style="stroke:#181818;stroke-width:0.5;" width="101" x="486" y="403.2969"/><rect fill="#CCE5FF" height="10" style="stroke:#181818;stroke-width:0.5;" width="15" x="567" y="408.2969"/><rect fill="#CCE5FF" height="2" style="stroke:#181818;stroke-width:0.5;" width="4" x="565" y="410.2969"/><rect fill="#CCE5FF" height="2" style="stroke:#181818;stroke-width:0.5;" width="4" x="565" y="414.2969"/><text fill="#000000" font-family="sans-serif" font-size="14" lengthAdjust="spacing" textLength="61" x="501" y="436.292">Bronnen</text></g><!--link Api to NLX--><g id="link_Api_NLX"><path d="M300.5,60.6299 C300.5,79.9439 300.5,122.3049 300.5,150.9749 " fill="none" id="Api-to-NLX" style="stroke:#181818;stroke-width:1.0;"/><polygon fill="#181818" points="300.5,156.9749,304.5,147.9749,300.5,151.9749,296.5,147.9749,300.5,156.9749" style="stroke:#181818;stroke-width:1.0;"/><text fill="#000000" font-family="sans-serif" font-size="13" lengthAdjust="spacing" textLength="167" x="301.5" y="123.3638">Connected trough outway</text></g><!--link NLX to Org1--><g id="link_NLX_Org1"><path d="M233.867,182.7399 C189.111,187.0449 131.423,199.4919 92.5,233.2969 C78.7376,245.2499 73.0146,259.1272 69.4163,274.4302 " fill="none" id="NLX-to-Org1" style="stroke:#181818;stroke-width:1.0;"/><polygon fill="#181818" points="68.0429,280.2709,73.9968,272.4254,69.1874,275.4036,66.2091,270.5942,68.0429,280.2709" style="stroke:#181818;stroke-width:1.0;"/><text fill="#000000" font-family="sans-serif" font-size="13" lengthAdjust="spacing" textLength="194" x="93.5" y="246.3638">org 1 Connected trough inway</text></g><!--link NLX to Org2--><g id="link_NLX_Org2"><path d="M298.949,203.2979 C298.37,212.5549 297.784,223.4439 297.5,233.2969 C297.047,248.9979 297.4527,260.7106 298.3377,274.2526 " fill="none" id="NLX-to-Org2" style="stroke:#181818;stroke-width:1.0;"/><polygon fill="#181818" points="298.729,280.2399,302.1336,270.9982,298.4029,275.2505,294.1506,271.5199,298.729,280.2399" style="stroke:#181818;stroke-width:1.0;"/><text fill="#000000" font-family="sans-serif" font-size="13" lengthAdjust="spacing" textLength="194" x="298.5" y="246.3638">org 2 Connected trough inway</text></g><!--link NLX to Org3--><g id="link_NLX_Org3"><path d="M367.437,185.8699 C408.536,191.6429 460.254,204.5559 497.5,233.2969 C512.861,245.1499 520.9052,259.3064 527.0332,274.6384 " fill="none" id="NLX-to-Org3" style="stroke:#181818;stroke-width:1.0;"/><polygon fill="#181818" points="529.26,280.2099,529.634,270.3681,527.4043,275.567,522.2054,273.3372,529.26,280.2099" style="stroke:#181818;stroke-width:1.0;"/><text fill="#000000" font-family="sans-serif" font-size="13" lengthAdjust="spacing" textLength="194" x="512.5" y="246.3638">org 3 Connected trough inway</text></g><!--link Org1 to BronnenOrg1--><g id="link_Org1_BronnenOrg1"><path d="M64.5,326.4899 C64.5,348.3229 64.5,375.4608 64.5,397.2443 " fill="none" id="Org1-to-BronnenOrg1" style="stroke:#181818;stroke-width:1.0;"/><polygon fill="#181818" points="64.5,403.2443,68.5,394.2443,64.5,398.2443,60.5,394.2443,64.5,403.2443" style="stroke:#181818;stroke-width:1.0;"/><text fill="#000000" font-family="sans-serif" font-size="13" lengthAdjust="spacing" textLength="122" x="65.5" y="369.3638">Internal connection</text></g><!--link Org2 to BronnenOrg2--><g id="link_Org2_BronnenOrg2"><path d="M300.5,326.4899 C300.5,348.3229 300.5,375.4608 300.5,397.2443 " fill="none" id="Org2-to-BronnenOrg2" style="stroke:#181818;stroke-width:1.0;"/><polygon fill="#181818" points="300.5,403.2443,304.5,394.2443,300.5,398.2443,296.5,394.2443,300.5,403.2443" style="stroke:#181818;stroke-width:1.0;"/><text fill="#000000" font-family="sans-serif" font-size="13" lengthAdjust="spacing" textLength="122" x="301.5" y="369.3638">Internal connection</text></g><!--link Org3 to BronnenOrg3--><g id="link_Org3_BronnenOrg3"><path d="M536.5,326.4899 C536.5,348.3229 536.5,375.4608 536.5,397.2443 " fill="none" id="Org3-to-BronnenOrg3" style="stroke:#181818;stroke-width:1.0;"/><polygon fill="#181818" points="536.5,403.2443,540.5,394.2443,536.5,398.2443,532.5,394.2443,536.5,403.2443" style="stroke:#181818;stroke-width:1.0;"/><text fill="#000000" font-family="sans-serif" font-size="13" lengthAdjust="spacing" textLength="122" x="537.5" y="369.3638">Internal connection</text></g><!--SRC=[ZTBFQuCm50VmU_wAXptiL8g67UPXq7O8XUu7AuDTq_YqcIvFOahPVxyOVwoW7TvUpEThNfvQPKk415CqmYfax0u-QZImqnPD9YJ2bhuhqgWjKyEpO2zqYgNwAX3MRxi0H0thIi4Y54Vv89ktR8GiKAT_yPh9leJWPV-vIWxRLV9qy66tXeMKU9zbr-oPB9bZIOL7hoOFXoF-Kz4inQVKnf1sbJTTtHuxRcwQHlCf7wYRrpkMxWEGha-ggbapp6LA5xryzBE9tHnTIbfCmHewvoUWixs87zRizj9t6WEP7C9nGEa97tK-ckbvv_ajxtle0zSJZDj_IeiIP1jrjsM-XJ6FRdC-mVaq_mK0]--></g></svg>