<?xml version="1.0" encoding="UTF-8"?>
<svg id="_Layer_" data-name="&amp;lt;Layer&amp;gt;" xmlns="http://www.w3.org/2000/svg" viewBox="0 0 2760 1840">
  <defs>
    <style>
      .cls-1 {
        fill: #060633;
      }

      .cls-1, .cls-2, .cls-3, .cls-4, .cls-5, .cls-6, .cls-7, .cls-8, .cls-9, .cls-10, .cls-11, .cls-12, .cls-13, .cls-14, .cls-15, .cls-16, .cls-17, .cls-18, .cls-19, .cls-20, .cls-21, .cls-22, .cls-23, .cls-24, .cls-25, .cls-26, .cls-27, .cls-28, .cls-29, .cls-30 {
        stroke-width: 0px;
      }

      .cls-2 {
        fill: #ea6868;
      }

      .cls-31 {
        opacity: .7;
      }

      .cls-3 {
        fill: #fa7267;
      }

      .cls-4 {
        fill: #c7dbf9;
      }

      .cls-5 {
        fill: #0b0755;
      }

      .cls-6 {
        fill: #6184db;
      }

      .cls-7 {
        fill: #6c81ea;
      }

      .cls-8 {
        fill: #dde7fe;
      }

      .cls-9 {
        fill: #272035;
      }

      .cls-10 {
        fill: #ff8b85;
      }

      .cls-11 {
        fill: #bdd1f9;
      }

      .cls-12 {
        fill: #abbbff;
      }

      .cls-13 {
        fill: #e58876;
      }

      .cls-14 {
        fill: #e7eefd;
      }

      .cls-15 {
        fill: #fff;
      }

      .cls-32 {
        opacity: .3;
      }

      .cls-16 {
        fill: #fafcff;
      }

      .cls-17 {
        fill: #91b5f8;
      }

      .cls-18 {
        fill: #131375;
      }

      .cls-19 {
        fill: #8f9fff;
      }

      .cls-20 {
        fill: #f9a58f;
      }

      .cls-21 {
        fill: #050521;
      }

      .cls-22 {
        fill: #4851ec;
      }

      .cls-23 {
        fill: #3862c1;
      }

      .cls-24 {
        fill: #171775;
      }

      .cls-25 {
        fill: #7c9af2;
      }

      .cls-26 {
        fill: #240d39;
      }

      .cls-27 {
        fill: #d36857;
      }

      .cls-28 {
        fill: #e27d7d;
      }

      .cls-29 {
        fill: #2f3dbc;
      }

      .cls-30 {
        fill: #6c7aff;
      }
    </style>
  </defs>
  <path class="cls-8" d="m2260.94,1558.93c-74.54,19.97-248.64,3.36-321.71-.93l-1509.85.69c-205.83-131.7-441.46-542.96,41.83-880.17,185.28-129.27-63.37-380.83,360.75-488.41,393.92-99.91,308.5,157.41,868.81-21.76,420.64-134.51,588.65,175.96,618.43,276.67,15.16,51.24,19.07,105.91,32.3,157.83,36.51,143.32,158.26,173,225.47,332.39,70.28,166.67,62.29,522.34-316.04,623.69Z"/>
  <path class="cls-4" d="m2526.75,1527.2c0-84.7-502.12-153.36-1121.52-153.36s-1121.52,68.66-1121.52,153.36,502.12,153.36,1121.52,153.36,1121.52-68.66,1121.52-153.36Z"/>
  <g>
    <path class="cls-11" d="m1157.87,670.85c.09,0,.17-.02.26-.04.69-.19,1.1-.9.92-1.6-48.97-181.29-94.55-309.59-128.36-361.26-.75-1.15-1.29-1.98-1.5-2.39-.32-.65-1.1-.91-1.74-.6-.64.32-.91,1.09-.6,1.74.28.56.8,1.36,1.66,2.68,33.66,51.46,79.13,179.49,128.03,360.52.16.61.73,1,1.34.96Z"/>
    <path class="cls-11" d="m1006.36,298.01c4.01,5.81,24.73,16.84,26.39,15.7,1.66-1.15-1.35-24.42-5.36-30.23-4.01-5.81-11.97-7.26-17.78-3.25-5.81,4.01-7.26,11.97-3.25,17.78Z"/>
    <path class="cls-11" d="m1046.44,316.45c-2.27,6.85,1.47,30.57,3.43,31.22,1.96.65,19.12-16.14,21.4-23,2.27-6.85-1.44-14.25-8.3-16.52-6.85-2.27-14.25,1.44-16.52,8.3Z"/>
    <path class="cls-11" d="m1020.23,357c7.19.67,29.46-8.32,29.65-10.37.19-2.05-20.03-15-27.22-15.67-7.19-.67-13.56,4.62-14.23,11.81-.67,7.19,4.62,13.56,11.81,14.23Z"/>
    <path class="cls-11" d="m1104.8,437.33c-5.03,11.03-3.08,51.29.07,52.72,3.15,1.44,34.83-23.48,39.86-34.5,5.03-11.03.17-24.05-10.86-29.08-11.03-5.03-24.04-.17-29.08,10.86Z"/>
    <path class="cls-11" d="m1053.72,500.27c11.88,2.42,50.66-8.55,51.35-11.94.69-3.39-30.72-28.65-42.59-31.07-11.88-2.42-23.47,5.25-25.88,17.13-2.42,11.88,5.25,23.47,17.13,25.88Z"/>
    <path class="cls-11" d="m1135.03,483.18c-8.98,11.81-17.49,60.39-14.12,62.95,3.37,2.56,47.91-18.64,56.88-30.45s6.68-28.66-5.13-37.63c-11.81-8.98-28.66-6.68-37.63,5.13Z"/>
    <path class="cls-11" d="m1062.19,565.38c14.76,1.45,60.59-16.78,61-21,.41-4.21-41-31.01-55.76-32.46-14.76-1.45-27.9,9.34-29.35,24.11-1.45,14.76,9.34,27.9,24.11,29.35Z"/>
    <path class="cls-11" d="m1152.87,542.35c-8.98,11.81-17.49,60.39-14.12,62.95,3.37,2.56,47.9-18.64,56.88-30.45,8.98-11.81,6.68-28.66-5.13-37.63-11.81-8.98-28.66-6.68-37.63,5.13Z"/>
    <path class="cls-11" d="m1080.03,624.54c14.76,1.45,60.59-16.79,61-21,.41-4.21-41-31.01-55.76-32.46-14.76-1.45-27.9,9.34-29.35,24.11-1.45,14.76,9.34,27.9,24.1,29.35Z"/>
    <path class="cls-11" d="m1193.53,617.21c-12.8,7.5-39.17,49.18-37.03,52.83,2.14,3.65,51.39,1.01,64.19-6.49,12.8-7.5,17.09-23.95,9.59-36.75-7.5-12.8-23.95-17.09-36.75-9.59Z"/>
    <path class="cls-11" d="m1095.64,683.01c14.46,3.28,62.21-9.08,63.15-13.21.94-4.13-36.8-35.89-51.26-39.17-14.46-3.28-28.85,5.78-32.13,20.25-3.28,14.46,5.78,28.85,20.25,32.13Z"/>
    <path class="cls-11" d="m1064.43,354.08c-2.31,6.96,1.49,31.06,3.48,31.72s19.43-16.4,21.74-23.36c2.31-6.96-1.47-14.48-8.43-16.79s-14.48,1.47-16.79,8.43Z"/>
    <path class="cls-11" d="m1038.73,395.76c7.3.68,29.93-8.45,30.12-10.54.19-2.08-20.35-15.24-27.66-15.92-7.3-.68-13.78,4.69-14.46,11.99-.68,7.31,4.69,13.78,11.99,14.46Z"/>
    <path class="cls-11" d="m1085.19,389.15c-4.08,9.59-1.5,44.16,1.23,45.32,2.74,1.16,29.42-20.96,33.5-30.55,4.08-9.59-.39-20.67-9.98-24.75-9.59-4.08-20.67.39-24.75,9.98Z"/>
    <path class="cls-11" d="m1043.96,448.27c10.38.97,42.52-12,42.8-14.97.28-2.96-28.92-21.65-39.29-22.62-10.38-.97-19.58,6.66-20.54,17.04-.97,10.38,6.66,19.58,17.04,20.54Z"/>
  </g>
  <g>
    <path class="cls-25" d="m1102.18,732.46s97.58-224-311.18-325.95c0,0,59.14,429.86,311.18,325.95Z"/>
    <path class="cls-17" d="m790.42,405.89l319,296.63c10.55-64.1-.96-217.3-319-296.63Z"/>
    <path class="cls-1" d="m1096.03,690.7c.16-.02.32-.09.44-.22.27-.29.25-.74-.04-1l-305.53-284.1c-.29-.27-.74-.25-1,.04-.27.29-.25.74.04,1l305.53,284.1c.16.15.37.21.57.18Z"/>
    <path class="cls-1" d="m950,554.91c.35-.04.62-.33.62-.69,0-.39-.31-.71-.7-.72l-115.88-1.63c-.38-.03-.71.31-.72.7,0,.39.31.72.7.72l115.88,1.64s.06,0,.1,0Z"/>
    <path class="cls-1" d="m1015.45,615.76s.09-.01.14-.03c.37-.12.57-.53.45-.9l-35.78-108c-.12-.37-.53-.58-.9-.45-.37.12-.57.53-.45.9l35.78,108c.11.33.43.52.76.48Z"/>
  </g>
  <g>
    <path class="cls-17" d="m1012.87,728.27s-3.8-197.78-339.02-134.83c0,0,188.62,296.37,339.02,134.83Z"/>
    <path class="cls-25" d="m673.85,593.45l339.02,134.83s-119.58,175.9-339.02-134.83Z"/>
    <path class="cls-17" d="m757.71,664.33c.05,0,.1,0,.15,0l83.95-6.31c.64-.05,1.11-.6,1.07-1.24-.05-.64-.61-1.11-1.24-1.07l-83.95,6.31c-.64.05-1.11.6-1.06,1.24.04.59.52,1.04,1.09,1.07Z"/>
    <path class="cls-17" d="m866.84,734.46c.09,0,.17,0,.26-.02l109.7-19.45c.63-.11,1.05-.71.93-1.33-.11-.63-.7-1.05-1.34-.94l-109.7,19.45c-.63.11-1.05.71-.94,1.34.1.54.55.92,1.08.95Z"/>
  </g>
  <g>
    <path class="cls-25" d="m1925.43,1467.87s-65.3-149.9,208.25-218.13c0,0-39.57,287.67-208.25,218.13Z"/>
    <path class="cls-17" d="m2134.06,1249.33l-213.48,198.5c-7.06-42.89.64-145.42,213.48-198.5Z"/>
    <path class="cls-1" d="m1929.55,1439.92c-.11-.01-.21-.06-.29-.15-.18-.19-.17-.49.03-.67l204.46-190.12c.19-.18.49-.16.67.02.18.19.17.49-.02.67l-204.46,190.12c-.11.1-.25.14-.38.12Z"/>
    <path class="cls-1" d="m2027.27,1349.05c-.23-.03-.41-.22-.42-.46,0-.26.21-.48.47-.48l77.55-1.09c.26-.02.48.2.48.47,0,.26-.21.48-.47.48l-77.55,1.09s-.04,0-.06,0Z"/>
    <path class="cls-1" d="m1983.47,1389.78s-.06-.01-.09-.02c-.25-.08-.38-.35-.3-.6l23.94-72.27c.08-.25.36-.39.6-.3.25.08.38.35.3.6l-23.94,72.27c-.07.22-.29.35-.51.32Z"/>
  </g>
  <g>
    <path class="cls-17" d="m1971.81,1468.1s2.11-109.6,187.88-74.72c0,0-104.53,164.24-187.88,74.72Z"/>
    <path class="cls-25" d="m2159.69,1393.38l-187.88,74.72s66.27,97.48,187.88-74.72Z"/>
    <path class="cls-17" d="m2113.22,1432.67s-.06,0-.08,0l-46.52-3.5c-.35-.03-.62-.33-.59-.69.03-.35.34-.61.69-.59l46.52,3.5c.35.03.62.33.59.69-.02.33-.29.58-.6.59Z"/>
    <path class="cls-17" d="m2052.74,1471.52s-.1,0-.15,0l-60.79-10.78c-.35-.06-.58-.39-.52-.74.06-.35.39-.58.74-.52l60.79,10.78c.35.06.58.39.52.74-.05.3-.31.51-.6.53Z"/>
  </g>
  <g>
    <rect class="cls-19" x="426.56" y="837.54" width="99.95" height="322.45"/>
    <rect class="cls-30" x="526.52" y="837.54" width="241.04" height="322.45"/>
    <path class="cls-8" d="m459.86,877.81c0-9.21,7.47-16.68,16.68-16.68s16.68,7.47,16.68,16.68-7.47,16.68-16.68,16.68-16.68-7.47-16.68-16.68Z"/>
    <path class="cls-30" d="m464.74,877.81c0-6.51,5.28-11.8,11.8-11.8s11.8,5.28,11.8,11.8-5.28,11.8-11.8,11.8-11.8-5.28-11.8-11.8Z"/>
    <rect class="cls-8" x="453.4" y="918.01" width="47.01" height="84.93"/>
  </g>
  <g>
    <rect class="cls-12" x="556.66" y="837.54" width="99.95" height="322.45"/>
    <rect class="cls-25" x="656.24" y="837.54" width="241.04" height="322.45"/>
    <path class="cls-8" d="m589.58,877.81c0-9.21,7.47-16.68,16.68-16.68s16.68,7.47,16.68,16.68-7.47,16.68-16.68,16.68-16.68-7.47-16.68-16.68Z"/>
    <path class="cls-30" d="m594.47,877.81c0-6.51,5.28-11.8,11.8-11.8s11.8,5.28,11.8,11.8-5.28,11.8-11.8,11.8-11.8-5.28-11.8-11.8Z"/>
    <rect class="cls-8" x="583.12" y="918.01" width="47.02" height="84.93"/>
  </g>
  <g>
    <rect class="cls-12" x="693.51" y="837.54" width="99.95" height="322.45"/>
    <rect class="cls-25" x="793.09" y="837.54" width="241.04" height="322.45"/>
    <path class="cls-8" d="m726.44,877.81c0-9.21,7.47-16.68,16.68-16.68s16.68,7.47,16.68,16.68-7.47,16.68-16.68,16.68-16.68-7.47-16.68-16.68Z"/>
    <path class="cls-30" d="m731.32,877.81c0-6.51,5.28-11.8,11.8-11.8s11.8,5.28,11.8,11.8-5.28,11.8-11.8,11.8-11.8-5.28-11.8-11.8Z"/>
    <rect class="cls-8" x="719.98" y="918.01" width="47.01" height="84.93"/>
  </g>
  <g>
    <rect class="cls-3" x="576.22" y="1047.53" width="564.73" height="417.25"/>
    <rect class="cls-10" x="390.56" y="1047.53" width="447.76" height="417.25"/>
    <rect class="cls-19" x="505.17" y="1087.84" width="142.1" height="27.8" rx="13.06" ry="13.06"/>
  </g>
  <g>
    <g>
      <g>
        <rect class="cls-25" x="2104.08" y="344.74" width="120.34" height="413.17" transform="translate(4328.51 1102.65) rotate(180)"/>
        <path class="cls-6" d="m2192.46,668.8c0-15.58-12.63-28.21-28.21-28.21s-28.21,12.63-28.21,28.21,12.63,28.21,28.21,28.21,28.21-12.63,28.21-28.21Z"/>
        <path class="cls-15" d="m2164.25,700.15c-17.2,0-31.19-13.99-31.19-31.19s13.99-31.19,31.19-31.19,31.19,13.99,31.19,31.19-13.99,31.19-31.19,31.19Zm0-56.41c-13.91,0-25.22,11.31-25.22,25.22s11.31,25.22,25.22,25.22,25.22-11.31,25.22-25.22-11.31-25.22-25.22-25.22Z"/>
        <g class="cls-31">
          <rect class="cls-8" x="2129" y="363.65" width="70.47" height="232.24" transform="translate(4328.48 959.54) rotate(180)"/>
        </g>
        <rect class="cls-3" x="2137.26" y="372.05" width="52.53" height="9.31" transform="translate(4327.05 753.42) rotate(180)"/>
        <g>
          <rect class="cls-25" x="2149.31" y="542.08" width="52.52" height="4.66" transform="translate(1631.16 2719.98) rotate(-90)"/>
          <rect class="cls-25" x="2149.31" y="476.22" width="52.53" height="4.66" transform="translate(1697.02 2654.12) rotate(-90)"/>
          <rect class="cls-25" x="2122.6" y="542.08" width="52.52" height="4.66" transform="translate(1604.46 2693.27) rotate(-90)"/>
          <rect class="cls-25" x="2122.6" y="476.22" width="52.53" height="4.66" transform="translate(1670.31 2627.42) rotate(-90)"/>
          <rect class="cls-25" x="2129.74" y="535.33" width="66.04" height="4.66" transform="translate(1625.11 2700.42) rotate(-90)"/>
          <rect class="cls-25" x="2129.74" y="452.53" width="66.04" height="4.66" transform="translate(1707.9 2617.62) rotate(-90)"/>
        </g>
      </g>
      <g>
        <rect class="cls-25" x="1966.75" y="344.74" width="120.34" height="413.17" transform="translate(4053.84 1102.65) rotate(180)"/>
        <circle class="cls-6" cx="2026.92" cy="668.8" r="28.21"/>
        <path class="cls-15" d="m2026.92,700.15c-17.2,0-31.19-13.99-31.19-31.19s13.99-31.19,31.19-31.19,31.19,13.99,31.19,31.19-13.99,31.19-31.19,31.19Zm0-56.41c-13.91,0-25.22,11.31-25.22,25.22s11.31,25.22,25.22,25.22,25.22-11.31,25.22-25.22-11.31-25.22-25.22-25.22Z"/>
        <g class="cls-31">
          <rect class="cls-8" x="1991.67" y="363.65" width="70.47" height="232.24" transform="translate(4053.8 959.54) rotate(180)"/>
        </g>
        <rect class="cls-3" x="1999.92" y="372.05" width="52.53" height="9.31" transform="translate(4052.37 753.42) rotate(180)"/>
        <g>
          <rect class="cls-25" x="2011.97" y="542.08" width="52.52" height="4.66" transform="translate(1493.83 2582.64) rotate(-90)"/>
          <rect class="cls-25" x="2011.97" y="476.22" width="52.53" height="4.66" transform="translate(1559.68 2516.79) rotate(-90)"/>
          <rect class="cls-25" x="1985.27" y="542.08" width="52.52" height="4.66" transform="translate(1467.12 2555.94) rotate(-90)"/>
          <rect class="cls-25" x="1985.27" y="476.22" width="52.53" height="4.66" transform="translate(1532.98 2490.08) rotate(-90)"/>
          <rect class="cls-25" x="1992.41" y="535.33" width="66.04" height="4.66" transform="translate(1487.77 2563.08) rotate(-90)"/>
          <rect class="cls-25" x="1992.41" y="452.53" width="66.04" height="4.66" transform="translate(1570.57 2480.28) rotate(-90)"/>
        </g>
      </g>
      <g>
        <rect class="cls-25" x="1829.41" y="344.74" width="120.34" height="413.17" transform="translate(3779.17 1102.65) rotate(180)"/>
        <circle class="cls-6" cx="1889.58" cy="668.8" r="28.21"/>
        <path class="cls-15" d="m1889.58,700.15c-17.2,0-31.19-13.99-31.19-31.19s13.99-31.19,31.19-31.19,31.19,13.99,31.19,31.19-13.99,31.19-31.19,31.19Zm0-56.41c-13.91,0-25.22,11.31-25.22,25.22s11.31,25.22,25.22,25.22,25.22-11.31,25.22-25.22-11.31-25.22-25.22-25.22Z"/>
        <g class="cls-31">
          <rect class="cls-8" x="1854.33" y="363.65" width="70.47" height="232.24" transform="translate(3779.13 959.54) rotate(180)"/>
        </g>
        <rect class="cls-3" x="1862.59" y="372.05" width="52.52" height="9.31" transform="translate(3777.7 753.42) rotate(180)"/>
        <g>
          <rect class="cls-25" x="1874.64" y="542.08" width="52.52" height="4.66" transform="translate(1356.49 2445.31) rotate(-90)"/>
          <rect class="cls-25" x="1874.64" y="476.22" width="52.53" height="4.66" transform="translate(1422.35 2379.45) rotate(-90)"/>
          <rect class="cls-25" x="1847.93" y="542.08" width="52.52" height="4.66" transform="translate(1329.79 2418.6) rotate(-90)"/>
          <rect class="cls-25" x="1847.93" y="476.22" width="52.53" height="4.66" transform="translate(1395.64 2352.75) rotate(-90)"/>
          <rect class="cls-25" x="1855.07" y="535.32" width="66.04" height="4.66" transform="translate(1350.44 2425.74) rotate(-90)"/>
          <rect class="cls-25" x="1855.07" y="452.53" width="66.04" height="4.66" transform="translate(1433.23 2342.95) rotate(-90)"/>
        </g>
      </g>
      <g>
        <rect class="cls-25" x="1692.08" y="344.74" width="120.34" height="413.17" transform="translate(3504.49 1102.65) rotate(180)"/>
        <path class="cls-6" d="m1780.45,668.8c0-15.58-12.63-28.21-28.2-28.21s-28.21,12.63-28.21,28.21,12.63,28.21,28.21,28.21,28.2-12.63,28.2-28.21Z"/>
        <path class="cls-15" d="m1752.25,700.15c-17.2,0-31.19-13.99-31.19-31.19s13.99-31.19,31.19-31.19,31.19,13.99,31.19,31.19-13.99,31.19-31.19,31.19Zm0-56.41c-13.91,0-25.22,11.31-25.22,25.22s11.31,25.22,25.22,25.22,25.22-11.31,25.22-25.22-11.31-25.22-25.22-25.22Z"/>
        <g class="cls-31">
          <rect class="cls-8" x="1716.99" y="363.65" width="70.48" height="232.24" transform="translate(3504.46 959.54) rotate(180)"/>
        </g>
        <rect class="cls-3" x="1725.25" y="372.05" width="52.53" height="9.31" transform="translate(3503.03 753.42) rotate(180)"/>
        <g>
          <rect class="cls-25" x="1737.3" y="542.08" width="52.52" height="4.66" transform="translate(1219.15 2307.97) rotate(-90)"/>
          <rect class="cls-25" x="1737.3" y="476.22" width="52.53" height="4.66" transform="translate(1285.01 2242.11) rotate(-90)"/>
          <rect class="cls-25" x="1710.6" y="542.08" width="52.52" height="4.66" transform="translate(1192.45 2281.27) rotate(-90)"/>
          <rect class="cls-25" x="1710.6" y="476.22" width="52.53" height="4.66" transform="translate(1258.31 2215.41) rotate(-90)"/>
          <rect class="cls-25" x="1717.74" y="535.33" width="66.04" height="4.66" transform="translate(1213.1 2288.41) rotate(-90)"/>
          <rect class="cls-25" x="1717.74" y="452.53" width="66.04" height="4.66" transform="translate(1295.9 2205.61) rotate(-90)"/>
        </g>
      </g>
      <g>
        <rect class="cls-25" x="1554.74" y="344.74" width="120.34" height="413.17" transform="translate(3229.82 1102.65) rotate(180)"/>
        <circle class="cls-6" cx="1614.91" cy="668.8" r="28.21"/>
        <path class="cls-15" d="m1614.91,700.15c-17.2,0-31.19-13.99-31.19-31.19s13.99-31.19,31.19-31.19,31.19,13.99,31.19,31.19-13.99,31.19-31.19,31.19Zm0-56.41c-13.91,0-25.22,11.31-25.22,25.22s11.31,25.22,25.22,25.22,25.22-11.31,25.22-25.22-11.31-25.22-25.22-25.22Z"/>
        <g class="cls-31">
          <rect class="cls-8" x="1579.66" y="363.65" width="70.47" height="232.24" transform="translate(3229.79 959.54) rotate(180)"/>
        </g>
        <rect class="cls-3" x="1587.92" y="372.05" width="52.53" height="9.31" transform="translate(3228.36 753.42) rotate(180)"/>
        <g>
          <rect class="cls-25" x="1599.96" y="542.08" width="52.52" height="4.66" transform="translate(1081.82 2170.64) rotate(-90)"/>
          <rect class="cls-25" x="1599.96" y="476.22" width="52.53" height="4.66" transform="translate(1147.68 2104.78) rotate(-90)"/>
          <rect class="cls-25" x="1573.26" y="542.08" width="52.52" height="4.66" transform="translate(1055.11 2143.93) rotate(-90)"/>
          <rect class="cls-25" x="1573.26" y="476.22" width="52.53" height="4.66" transform="translate(1120.97 2078.07) rotate(-90)"/>
          <rect class="cls-25" x="1580.4" y="535.33" width="66.04" height="4.66" transform="translate(1075.76 2151.07) rotate(-90)"/>
          <rect class="cls-25" x="1580.4" y="452.53" width="66.04" height="4.66" transform="translate(1158.56 2068.27) rotate(-90)"/>
        </g>
      </g>
      <g>
        <rect class="cls-25" x="1417.4" y="344.74" width="120.34" height="413.17" transform="translate(2955.15 1102.65) rotate(180)"/>
        <path class="cls-6" d="m1505.78,668.8c0-15.58-12.63-28.21-28.21-28.21s-28.21,12.63-28.21,28.21,12.63,28.21,28.21,28.21,28.21-12.63,28.21-28.21Z"/>
        <path class="cls-15" d="m1477.58,700.15c-17.2,0-31.19-13.99-31.19-31.19s13.99-31.19,31.19-31.19,31.19,13.99,31.19,31.19-13.99,31.19-31.19,31.19Zm0-56.41c-13.91,0-25.22,11.31-25.22,25.22s11.31,25.22,25.22,25.22,25.22-11.31,25.22-25.22-11.31-25.22-25.22-25.22Z"/>
        <g class="cls-31">
          <rect class="cls-8" x="1442.32" y="363.65" width="70.47" height="232.24" transform="translate(2955.12 959.54) rotate(180)"/>
        </g>
        <rect class="cls-3" x="1450.58" y="372.05" width="52.53" height="9.31" transform="translate(2953.69 753.42) rotate(180)"/>
        <g>
          <rect class="cls-25" x="1462.63" y="542.08" width="52.52" height="4.66" transform="translate(944.48 2033.3) rotate(-90)"/>
          <rect class="cls-25" x="1462.63" y="476.22" width="52.53" height="4.66" transform="translate(1010.34 1967.44) rotate(-90)"/>
          <rect class="cls-25" x="1435.92" y="542.08" width="52.52" height="4.66" transform="translate(917.78 2006.59) rotate(-90)"/>
          <rect class="cls-25" x="1435.92" y="476.22" width="52.53" height="4.66" transform="translate(983.63 1940.74) rotate(-90)"/>
          <rect class="cls-25" x="1443.06" y="535.33" width="66.04" height="4.66" transform="translate(938.43 2013.74) rotate(-90)"/>
          <rect class="cls-25" x="1443.06" y="452.53" width="66.04" height="4.66" transform="translate(1021.23 1930.94) rotate(-90)"/>
        </g>
      </g>
    </g>
    <g>
      <g>
        <rect class="cls-25" x="1966.75" y="811.78" width="120.34" height="413.17" transform="translate(4053.84 2036.73) rotate(180)"/>
        <path class="cls-6" d="m2055.12,1135.83c0-15.58-12.63-28.21-28.21-28.21s-28.21,12.63-28.21,28.21,12.63,28.21,28.21,28.21,28.21-12.63,28.21-28.21Z"/>
        <path class="cls-15" d="m2026.92,1167.19c-17.2,0-31.19-13.99-31.19-31.19s13.99-31.19,31.19-31.19,31.19,13.99,31.19,31.19-13.99,31.19-31.19,31.19Zm0-56.41c-13.91,0-25.22,11.31-25.22,25.22s11.31,25.22,25.22,25.22,25.22-11.31,25.22-25.22-11.31-25.22-25.22-25.22Z"/>
        <g class="cls-31">
          <rect class="cls-8" x="1991.67" y="830.69" width="70.47" height="232.24" transform="translate(4053.8 1893.61) rotate(180)"/>
        </g>
        <rect class="cls-3" x="1999.92" y="839.09" width="52.53" height="9.31" transform="translate(4052.37 1687.49) rotate(180)"/>
        <g>
          <rect class="cls-25" x="2011.97" y="1009.12" width="52.53" height="4.66" transform="translate(1026.79 3049.68) rotate(-90)"/>
          <rect class="cls-25" x="2011.97" y="943.26" width="52.53" height="4.66" transform="translate(1092.65 2983.82) rotate(-90)"/>
          <rect class="cls-25" x="1985.27" y="1009.12" width="52.53" height="4.66" transform="translate(1000.08 3022.98) rotate(-90)"/>
          <rect class="cls-25" x="1985.27" y="943.26" width="52.53" height="4.66" transform="translate(1065.94 2957.12) rotate(-90)"/>
          <rect class="cls-25" x="1992.41" y="1002.36" width="66.04" height="4.66" transform="translate(1020.73 3030.12) rotate(-90)"/>
          <rect class="cls-25" x="1992.41" y="919.57" width="66.04" height="4.66" transform="translate(1103.53 2947.32) rotate(-90)"/>
        </g>
      </g>
      <g>
        <rect class="cls-25" x="1829.41" y="811.78" width="120.34" height="413.17" transform="translate(3779.17 2036.73) rotate(180)"/>
        <path class="cls-6" d="m1917.79,1135.83c0-15.58-12.63-28.21-28.21-28.21s-28.21,12.63-28.21,28.21,12.63,28.21,28.21,28.21,28.21-12.63,28.21-28.21Z"/>
        <path class="cls-15" d="m1889.58,1167.19c-17.2,0-31.19-13.99-31.19-31.19s13.99-31.19,31.19-31.19,31.19,13.99,31.19,31.19-13.99,31.19-31.19,31.19Zm0-56.41c-13.91,0-25.22,11.31-25.22,25.22s11.31,25.22,25.22,25.22,25.22-11.31,25.22-25.22-11.31-25.22-25.22-25.22Z"/>
        <g class="cls-31">
          <rect class="cls-8" x="1854.33" y="830.69" width="70.47" height="232.24" transform="translate(3779.13 1893.61) rotate(180)"/>
        </g>
        <rect class="cls-3" x="1862.59" y="839.09" width="52.52" height="9.31" transform="translate(3777.7 1687.49) rotate(180)"/>
        <g>
          <rect class="cls-25" x="1874.64" y="1009.12" width="52.53" height="4.66" transform="translate(889.45 2912.35) rotate(-90)"/>
          <rect class="cls-25" x="1874.64" y="943.26" width="52.53" height="4.66" transform="translate(955.31 2846.49) rotate(-90)"/>
          <rect class="cls-25" x="1847.93" y="1009.12" width="52.53" height="4.66" transform="translate(862.75 2885.64) rotate(-90)"/>
          <rect class="cls-25" x="1847.93" y="943.26" width="52.53" height="4.66" transform="translate(928.6 2819.78) rotate(-90)"/>
          <rect class="cls-25" x="1855.07" y="1002.36" width="66.04" height="4.66" transform="translate(883.4 2892.78) rotate(-90)"/>
          <rect class="cls-25" x="1855.07" y="919.56" width="66.04" height="4.66" transform="translate(966.2 2809.98) rotate(-90)"/>
        </g>
      </g>
      <g>
        <rect class="cls-25" x="1692.08" y="811.78" width="120.34" height="413.17" transform="translate(3504.49 2036.73) rotate(180)"/>
        <path class="cls-6" d="m1780.45,1135.83c0-15.58-12.63-28.21-28.2-28.21s-28.21,12.63-28.21,28.21,12.63,28.21,28.21,28.21,28.2-12.63,28.2-28.21Z"/>
        <path class="cls-15" d="m1752.25,1167.19c-17.2,0-31.19-13.99-31.19-31.19s13.99-31.19,31.19-31.19,31.19,13.99,31.19,31.19-13.99,31.19-31.19,31.19Zm0-56.41c-13.91,0-25.22,11.31-25.22,25.22s11.31,25.22,25.22,25.22,25.22-11.31,25.22-25.22-11.31-25.22-25.22-25.22Z"/>
        <g class="cls-31">
          <rect class="cls-8" x="1716.99" y="830.69" width="70.48" height="232.24" transform="translate(3504.46 1893.61) rotate(180)"/>
        </g>
        <rect class="cls-3" x="1725.25" y="839.09" width="52.53" height="9.31" transform="translate(3503.03 1687.49) rotate(180)"/>
        <g>
          <rect class="cls-25" x="1737.3" y="1009.12" width="52.53" height="4.66" transform="translate(752.12 2775.01) rotate(-90)"/>
          <rect class="cls-25" x="1737.3" y="943.26" width="52.53" height="4.66" transform="translate(817.97 2709.15) rotate(-90)"/>
          <rect class="cls-25" x="1710.6" y="1009.12" width="52.53" height="4.66" transform="translate(725.41 2748.31) rotate(-90)"/>
          <rect class="cls-25" x="1710.6" y="943.26" width="52.53" height="4.66" transform="translate(791.27 2682.45) rotate(-90)"/>
          <rect class="cls-25" x="1717.74" y="1002.36" width="66.04" height="4.66" transform="translate(746.06 2755.45) rotate(-90)"/>
          <rect class="cls-25" x="1717.74" y="919.57" width="66.04" height="4.66" transform="translate(828.86 2672.65) rotate(-90)"/>
        </g>
      </g>
      <g>
        <rect class="cls-25" x="1554.74" y="811.78" width="120.34" height="413.17" transform="translate(3229.82 2036.73) rotate(180)"/>
        <path class="cls-6" d="m1643.12,1135.83c0-15.58-12.63-28.21-28.21-28.21s-28.21,12.63-28.21,28.21,12.63,28.21,28.21,28.21,28.21-12.63,28.21-28.21Z"/>
        <path class="cls-15" d="m1614.91,1167.19c-17.2,0-31.19-13.99-31.19-31.19s13.99-31.19,31.19-31.19,31.19,13.99,31.19,31.19-13.99,31.19-31.19,31.19Zm0-56.41c-13.91,0-25.22,11.31-25.22,25.22s11.31,25.22,25.22,25.22,25.22-11.31,25.22-25.22-11.31-25.22-25.22-25.22Z"/>
        <g class="cls-31">
          <rect class="cls-8" x="1579.66" y="830.69" width="70.47" height="232.24" transform="translate(3229.79 1893.61) rotate(180)"/>
        </g>
        <rect class="cls-3" x="1587.92" y="839.09" width="52.53" height="9.31" transform="translate(3228.36 1687.49) rotate(180)"/>
        <g>
          <rect class="cls-25" x="1599.96" y="1009.12" width="52.53" height="4.66" transform="translate(614.78 2637.67) rotate(-90)"/>
          <rect class="cls-25" x="1599.96" y="943.26" width="52.53" height="4.66" transform="translate(680.64 2571.82) rotate(-90)"/>
          <rect class="cls-25" x="1573.26" y="1009.12" width="52.53" height="4.66" transform="translate(588.07 2610.97) rotate(-90)"/>
          <rect class="cls-25" x="1573.26" y="943.26" width="52.53" height="4.66" transform="translate(653.93 2545.11) rotate(-90)"/>
          <rect class="cls-25" x="1580.4" y="1002.36" width="66.04" height="4.66" transform="translate(608.73 2618.11) rotate(-90)"/>
          <rect class="cls-25" x="1580.4" y="919.57" width="66.04" height="4.66" transform="translate(691.52 2535.31) rotate(-90)"/>
        </g>
      </g>
      <g>
        <rect class="cls-25" x="1417.4" y="811.78" width="120.34" height="413.17" transform="translate(2955.15 2036.73) rotate(180)"/>
        <path class="cls-6" d="m1505.78,1135.83c0-15.58-12.63-28.21-28.21-28.21s-28.21,12.63-28.21,28.21,12.63,28.21,28.21,28.21,28.21-12.63,28.21-28.21Z"/>
        <path class="cls-15" d="m1477.58,1167.19c-17.2,0-31.19-13.99-31.19-31.19s13.99-31.19,31.19-31.19,31.19,13.99,31.19,31.19-13.99,31.19-31.19,31.19Zm0-56.41c-13.91,0-25.22,11.31-25.22,25.22s11.31,25.22,25.22,25.22,25.22-11.31,25.22-25.22-11.31-25.22-25.22-25.22Z"/>
        <g class="cls-31">
          <rect class="cls-8" x="1442.32" y="830.69" width="70.47" height="232.24" transform="translate(2955.12 1893.61) rotate(180)"/>
        </g>
        <rect class="cls-3" x="1450.58" y="839.09" width="52.53" height="9.31" transform="translate(2953.69 1687.49) rotate(180)"/>
        <g>
          <rect class="cls-25" x="1462.63" y="1009.12" width="52.53" height="4.66" transform="translate(477.44 2500.34) rotate(-90)"/>
          <rect class="cls-25" x="1462.63" y="943.26" width="52.53" height="4.66" transform="translate(543.3 2434.48) rotate(-90)"/>
          <rect class="cls-25" x="1435.92" y="1009.12" width="52.53" height="4.66" transform="translate(450.74 2473.63) rotate(-90)"/>
          <rect class="cls-25" x="1435.92" y="943.26" width="52.53" height="4.66" transform="translate(516.6 2407.77) rotate(-90)"/>
          <rect class="cls-25" x="1443.06" y="1002.36" width="66.04" height="4.66" transform="translate(471.39 2480.77) rotate(-90)"/>
          <rect class="cls-25" x="1443.06" y="919.57" width="66.04" height="4.66" transform="translate(554.19 2397.98) rotate(-90)"/>
        </g>
      </g>
    </g>
    <rect class="cls-11" x="1388.47" y="281.6" width="28.93" height="1195.8" transform="translate(2805.88 1759) rotate(180)"/>
    <rect class="cls-11" x="2224.45" y="281.6" width="28.93" height="1155.34" transform="translate(4477.84 1718.53) rotate(180)"/>
    <rect class="cls-11" x="1388.47" y="752.04" width="835.95" height="11.62" transform="translate(3612.9 1515.71) rotate(180)"/>
    <rect class="cls-11" x="1388.47" y="1219.14" width="887.86" height="11.62" transform="translate(3664.8 2449.89) rotate(180)"/>
  </g>
  <g>
    <path class="cls-21" d="m847.19,634.48h1100.23c16.56,0,30,13.44,30,30v802.78c0,16.56-13.44,30-30,30H847.19c-16.56,0-30-13.44-30-30v-802.78c0-16.56,13.44-30,30-30Z"/>
    <rect class="cls-15" x="843.36" y="664.63" width="1107.89" height="823.86"/>
    <rect class="cls-21" x="702.61" y="1463.73" width="1389.39" height="55.23"/>
    <rect class="cls-17" x="843.36" y="664.63" width="1107.89" height="799.11"/>
  </g>
  <polygon class="cls-25" points="1687.6 805.34 1650.89 751.17 1649.15 748.61 1646.92 748.04 1463.52 701.1 1377.67 1036.55 1615.42 1097.39 1688.86 810.44 1689.46 808.09 1687.6 805.34"/>
  <g>
    <polygon class="cls-16" points="1562.74 785.92 1562.43 788.33 1524.12 1082.04 1280.77 1050.3 1325.55 706.95 1513.27 731.44 1515.56 731.74 1517.59 734.07 1560.57 783.42 1562.74 785.92"/>
    <path class="cls-8" d="m1562.74,785.92l-.32,2.4-53.34-6.95c-1.27-.17-2.16-1.32-1.99-2.59l6.17-47.34,2.29.3,2.03,2.33-5.61,43.02,48.59,6.33,2.18,2.5Z"/>
    <path class="cls-25" d="m1488.73,775.87l-101.51-13.24c-1.27-.17-2.16-1.32-1.99-2.59.17-1.27,1.32-2.16,2.59-1.99l101.51,13.24c1.27.16,2.16,1.32,1.99,2.59-.17,1.27-1.32,2.16-2.59,1.99Z"/>
    <path class="cls-25" d="m1537.86,827.33l-205.06-26.74c-1.27-.16-2.16-1.32-1.99-2.59.17-1.27,1.32-2.16,2.59-1.99l205.06,26.74c1.27.16,2.16,1.32,1.99,2.59-.16,1.27-1.32,2.16-2.59,1.99Z"/>
    <path class="cls-25" d="m1535.84,842.77l-205.06-26.74c-1.27-.16-2.16-1.32-1.99-2.59.16-1.27,1.32-2.16,2.59-1.99l205.06,26.74c1.27.16,2.16,1.32,1.99,2.59s-1.32,2.16-2.59,1.99Z"/>
    <path class="cls-25" d="m1532.97,864.81l-205.06-26.74c-1.27-.17-2.16-1.32-1.99-2.59.17-1.27,1.32-2.16,2.59-1.99l205.06,26.74c1.27.17,2.16,1.32,1.99,2.59-.17,1.27-1.32,2.16-2.59,1.99Z"/>
    <path class="cls-25" d="m1530.96,880.25l-205.06-26.74c-1.27-.17-2.16-1.32-1.99-2.59.16-1.27,1.32-2.16,2.59-1.99l205.06,26.74c1.27.16,2.16,1.32,1.99,2.59-.17,1.27-1.32,2.16-2.59,1.99Z"/>
    <path class="cls-25" d="m1528.94,895.69l-205.06-26.74c-1.27-.17-2.16-1.32-1.99-2.59.16-1.27,1.32-2.16,2.59-1.99l205.06,26.74c1.27.16,2.16,1.32,1.99,2.59-.16,1.27-1.32,2.16-2.59,1.99Z"/>
    <path class="cls-25" d="m1526.93,911.13l-205.06-26.74c-1.27-.16-2.16-1.32-1.99-2.59.17-1.27,1.32-2.16,2.59-1.99l205.06,26.74c1.27.17,2.16,1.32,1.99,2.59-.17,1.27-1.32,2.16-2.59,1.99Z"/>
    <path class="cls-25" d="m1519.29,969.69l-205.06-26.74c-1.27-.17-2.16-1.32-1.99-2.59.16-1.27,1.32-2.16,2.59-1.99l205.06,26.74c1.27.16,2.16,1.32,1.99,2.59-.17,1.27-1.32,2.16-2.59,1.99Z"/>
    <path class="cls-25" d="m1517.28,985.12l-205.06-26.74c-1.27-.17-2.16-1.32-1.99-2.59.16-1.27,1.32-2.16,2.59-1.99l205.06,26.74c1.27.17,2.16,1.32,1.99,2.59-.17,1.27-1.32,2.16-2.59,1.99Z"/>
    <path class="cls-25" d="m1515.27,1000.56l-205.06-26.74c-1.27-.16-2.16-1.32-1.99-2.59.17-1.27,1.32-2.16,2.59-1.99l205.06,26.74c1.27.17,2.16,1.32,1.99,2.59-.16,1.27-1.32,2.16-2.59,1.99Z"/>
    <path class="cls-25" d="m1513.25,1016l-205.06-26.74c-1.27-.17-2.16-1.32-1.99-2.59.17-1.27,1.32-2.16,2.59-1.99l205.06,26.74c1.27.17,2.16,1.32,1.99,2.59-.16,1.27-1.32,2.16-2.59,1.99Z"/>
  </g>
  <g>
    <path class="cls-23" d="m1416.21,773.21l-409.33,32.92c-.83.07-1.44.79-1.38,1.62l43.11,536.01c.07.83.79,1.44,1.62,1.38l408.75-32.88c.83-.07,1.44-.79,1.38-1.62l-43.16-536.6c-.04-.5-.48-.88-.99-.84Z"/>
    <rect class="cls-15" x="1039.84" y="801.56" width="385.79" height="510.64" transform="translate(-87.41 111.45) rotate(-5)"/>
    <g>
      <path class="cls-11" d="m1280.68,867.76l-218.07,19.08c-.11.01-.21-.07-.22-.18l-.48-5.45c0-.11.07-.21.18-.22l218.07-19.08c.11,0,.21.07.22.18l.48,5.45c0,.11-.07.21-.18.22Z"/>
      <path class="cls-11" d="m1284.77,914.58l-218.07,19.08c-.11,0-.21-.07-.22-.18l-.48-5.45c0-.11.07-.21.18-.22l218.07-19.08c.11,0,.21.07.22.18l.48,5.45c0,.11-.07.21-.18.22Z"/>
      <path class="cls-11" d="m1366.04,883.89l-301.39,26.36c-.11,0-.21-.07-.22-.18l-.48-5.45c0-.11.07-.21.18-.22l301.39-26.37c.11,0,.21.07.22.18l.48,5.45c0,.11-.07.21-.18.22Z"/>
      <path class="cls-11" d="m1235.66,1064.96l-148.37,12.98c-.09,0-.17-.06-.18-.15l-.48-5.52c0-.09.06-.17.15-.18l148.37-12.98c.09,0,.17.06.18.15l.48,5.52c0,.09-.06.17-.15.18Z"/>
      <path class="cls-11" d="m1290.32,1036.58l-205.08,17.94c-.09,0-.17-.06-.18-.15l-.48-5.52c0-.09.06-.17.15-.18l205.08-17.94c.09,0,.17.06.18.15l.48,5.52c0,.09-.06.17-.15.18Z"/>
      <path class="cls-11" d="m1306.66,1085l-218.07,19.08c-.11,0-.21-.07-.22-.18l-.48-5.45c0-.11.07-.21.18-.22l218.07-19.08c.11,0,.21.07.22.18l.48,5.45c.01.11-.07.21-.18.22Z"/>
      <path class="cls-11" d="m1333.09,1106.28l-242.48,21.21c-.1,0-.19-.06-.2-.16l-.48-5.49c0-.1.07-.19.17-.2l242.48-21.21c.1,0,.19.07.2.17l.48,5.49c0,.1-.07.19-.17.2Z"/>
      <path class="cls-11" d="m1251.59,1154.83l-156.06,13.65c-.09,0-.18-.06-.19-.16l-.48-5.51c0-.09.06-.18.16-.19l156.06-13.65c.09,0,.18.06.19.16l.48,5.51c0,.09-.06.18-.16.19Z"/>
      <path class="cls-11" d="m1255.69,1201.65l-156.06,13.65c-.09,0-.18-.06-.19-.16l-.48-5.51c0-.09.06-.18.15-.19l156.06-13.65c.09,0,.18.06.18.16l.48,5.51c0,.09-.06.18-.16.19Z"/>
      <path class="cls-11" d="m1313.29,1173.02l-215.71,18.87c-.09,0-.18-.06-.19-.16l-.48-5.51c0-.09.06-.18.16-.19l215.71-18.87c.09,0,.18.06.19.16l.48,5.51c0,.09-.06.18-.16.19Z"/>
    </g>
    <path class="cls-10" d="m1297.16,767.03l-61.31,4.93c0-.83,0-1.66-.07-2.51-1.22-15.16-14.5-26.46-29.66-25.24-15.16,1.22-26.46,14.5-25.24,29.66.07.84.19,1.67.33,2.49l-61.31,4.93c-11.69.94-20.4,11.18-19.46,22.86l2.32,28.85c.22,2.7,2.58,4.71,5.28,4.5l209.81-16.88c2.7-.22,4.71-2.58,4.5-5.28l-2.32-28.85c-.94-11.69-11.18-20.4-22.86-19.46Zm-87.43,22.1c-9.65.78-18.1-6.42-18.87-16.06-.78-9.65,6.42-18.1,16.06-18.87,9.65-.78,18.1,6.42,18.87,16.06.78,9.65-6.42,18.1-16.06,18.87Z"/>
  </g>
  <path class="cls-3" d="m1444.66,1071.16l5.49-13.6c5.89-14.59,20.04-24.13,35.77-24.13h101.33v338.8h-419.17v-274.5h237.2c17.31,0,32.89-10.51,39.37-26.56Z"/>
  <g>
    <path class="cls-20" d="m1747.45,1181.09s-27.55,33.01-50.02,29.39c-22.46-3.61-59-7.16-59-7.16l18.51-12.21s32.22-8.49,44.04-10.85c11.82-2.37,26.51-19.14,26.51-19.14l19.96,19.96Z"/>
    <path class="cls-20" d="m1768.17,1529.37s3.37,33.24-3.42,37c-12.29,6.83-34.95,13.34-33.06,19.2,1.9,5.86,56.22,6.09,57.73.75,1.51-5.35-4.58-21.71,1.87-53.55l-23.13-3.4Z"/>
    <path class="cls-29" d="m1788.88,1574.39c.58,5.95,1.08,10.03.54,11.94-1.51,5.35-55.83,5.12-57.73-.75-1.41-4.35,10.59-9.25,21.97-14.13,2.69,4.52,8.43,11.57,35.22,2.94Z"/>
    <path class="cls-20" d="m1870.06,1528.42s8.98,32.18,2.93,37.05c-10.95,8.82-32.17,19.1-29.3,24.55,2.87,5.46,56.44-3.57,57.02-9.1.58-5.53-8.21-20.61-7.27-53.09l-23.37.59Z"/>
    <path class="cls-29" d="m1898.14,1569.25c1.58,5.76,2.77,9.7,2.57,11.67-.58,5.53-54.15,14.55-57.02,9.1-2.13-4.04,8.86-10.92,19.25-17.67,3.42,4,10.28,9.96,35.2-3.1Z"/>
    <path class="cls-24" d="m1774.5,1234.75s-14.76,17.88-21.41,38.8c-6.66,20.92,11,268.8,11,268.8h29.48s15.64-220.75,15.64-222.71c0-7.71,58.06,222.71,58.06,222.71h29.44s-15.93-269.8-52.9-307.6l-34.59,2.14-34.71-2.14Z"/>
    <path class="cls-22" d="m1739.39,1143.48c.19,1.3.12,2.61-.35,3.95-.58,1.65-1.72,3.08-2.19,4.77-1.02,3.72,1.76,7.72,5.37,9.07,3.03,1.14,6.41.79,9.52-.24.59-.2,1.17-.42,1.74-.65,3.56-1.48,6.8-3.66,10.31-5.25.91-.42,1.84-.79,2.78-1.13.2-.07.4-.14.59-.21h0c6.98-2.42,14.54-3.02,21.84-4.45,8.61-1.7,17.17-4.61,25.92-4,10.1.71,19.2,5.99,28.65,9.6,9.63,3.68,19.91,5.68,30.22,5.87,4.2.08,8.51-.17,12.47-1.46.3-.09.59-.2.89-.31.81-.3,1.6-.65,2.37-1.05,9.53-4.96,13.21-17.33,9.38-27.08-2.18-5.56-6.51-10.11-11.69-13-4.62-2.58-10.52-3.45-14.02-7.77-1.37-1.7-2.12-3.63-2.53-5.7-1.06-5.31.1-11.51-1.29-16.94-1.62-6.34-6.96-11.55-12.85-14.07-2.53-1.08-5.34-1.74-8.04-2.6-1.32-.42-2.62-.89-3.84-1.49-1.72-.83-3.3-1.91-4.61-3.45-4.49-5.27-3-12.56-3.81-18.89-.47-3.68-1.74-7.19-3.6-10.37-1.96-3.35-4.58-6.36-7.61-8.84-1.17-.97-2.41-1.85-3.69-2.65-1.43-.89-2.94-1.7-4.5-2.41h0c-.96-.44-1.94-.84-2.93-1.2-4.61-1.69-9.59-2.63-14.54-2.71h0c-4.67-.08-9.3.59-13.56,2.1-4.18,1.47-7.99,3.74-11.11,6.87-3.04,3.04-5.43,6.89-6.88,11.62-1.86,6.09-1.73,12.89-5.06,18.32-3.61,5.9-10.89,9.38-12.9,16-2.52,8.32,4.61,17.25,2.26,25.62-1.54,5.47-6.64,9-11.16,12.45-4.52,3.44-9.15,8.01-8.99,13.69.18,6.47,6.61,12.07,7.47,17.98Z"/>
    <path class="cls-3" d="m1816.81,1110c16.96.63,47.3,8.22,56.88,27.31,5.3,10.57,12.77,44.92,12.77,44.92l-25.73,4.51s.43,12.44-1.25,19.54c-2.98,12.6-14.95,41.2-20.98,43.61-9.42,3.77-18.47-.49-24.12-1.12-5.66-.63-18.28-7.73-33.36-12.13-15.08-4.4-15.71-15.71-17.59-28.9-1.88-13.19-4.4-25.13-4.4-25.13l-5.65,4.4-28.28-28.28s33.31-35.8,52.16-41.46c18.85-5.65,39.55-7.28,39.55-7.28Z"/>
    <path class="cls-13" d="m1771.47,1067.5s-2.82-3.12-4.42-1.43c-4.08,4.3,1.65,8.31,4.89,8.87l-.47-7.44Z"/>
    <path class="cls-20" d="m1794.2,1021.03c14.29-1.23,27.46,8.62,30.36,22.67.95,4.62.73,9.18-.43,13.39-2.4,10.43-4.42,18.84-7.55,25.22-3.17,6.46-3.95,13.84-1.87,20.73l2.1,6.96c-15.19,10.71-23.62,3.59-23.62,3.59l-2.5-16.43h0c-18.1.58-20.71-32.58-22.18-42.28h.03c-.07-.36-.14-.72-.19-1.09-2.46-16.23,9.24-31.33,25.86-32.76Z"/>
    <path class="cls-22" d="m1800.59,1049.46c3.99,3,7.6,6.47,11.19,9.93,3.8,3.66,7.76,7.57,9.25,12.63,4.05-4.18,6.2-9.82,7.88-15.39.78-2.58,1.49-5.23,1.47-7.93-.03-3.82-1.53-7.46-3-10.99-1.9-4.56-3.92-9.29-7.7-12.46-2.5-2.1-5.61-3.36-8.74-4.27-7.32-2.13-15.25-2.54-22.56-.37-7.31,2.18-13.92,7.07-17.45,13.83-4.55,8.7-3.62,19.13-2.57,28.89.36-4.17,2.51-7.95,4.61-11.58,1.37-2.36,2.77-4.76,4.83-6.54,3.52-3.03,4.69-2.67,10.81-8.33,2.69,5.71,6.98,8.83,11.97,12.58Z"/>
    <path class="cls-20" d="m1816.71,1066.31c.32-.98,1.01-1.8,1.9-2.33,1.83-1.08,5.14-2.46,7.86-.46,4,2.94-1.59,13.2-9.18,9.67,0,0-2.27-1.67-.58-6.89Z"/>
    <path class="cls-1" d="m1776.19,1067.06c-.34-1.34.47-2.69,1.81-3.03,1.33-.34,2.69.47,3.03,1.81.34,1.34-.47,2.69-1.81,3.03-1.34.34-2.69-.47-3.03-1.81Z"/>
    <path class="cls-1" d="m1799.85,1066.13c-.34-1.33.47-2.69,1.81-3.03,1.34-.34,2.69.47,3.03,1.81.34,1.34-.47,2.69-1.81,3.03-1.33.34-2.69-.47-3.03-1.81Z"/>
    <path class="cls-2" d="m1784.27,1084.06s1.96-1.75,3.26-1.52c1.3.23,2.15,1.69,2.15,1.69,0,0,.61-1.6,2.15-1.77,1.54-.17,5.98.6,5.98.6,0,0-3.37,6.95-8.09,6.24-4.72-.71-5.36-5.03-5.36-5.03l-.09-.22Z"/>
    <path class="cls-26" d="m1788.85,1086.33c5.4.61,10.16-3.78,10.22-3.84.14-.13.15-.35.02-.5-.13-.14-.36-.15-.5-.02-.31.29-7.75,7.13-14.33,1.55-.15-.12-.37-.11-.49.04-.13.15-.11.37.04.5,1.66,1.41,3.38,2.07,5.04,2.26Z"/>
    <path class="cls-1" d="m1807.43,1061.37c.29-.06.55-.24.71-.53.27-.51.08-1.13-.42-1.4-.15-.08-3.78-1.96-8.28-.82-.56.14-.89.7-.75,1.26.14.55.75.89,1.26.75,3.75-.94,6.76.62,6.79.63.22.12.47.15.7.1Z"/>
    <path class="cls-1" d="m1781.7,1060.91c.28-.11.5-.34.6-.64.18-.55-.12-1.13-.67-1.3-.16-.05-4.03-1.26-8.29.68-.52.24-.75.85-.51,1.37.24.52.87.75,1.37.51,3.52-1.61,6.76-.6,6.8-.59.24.08.49.06.71-.03Z"/>
    <path class="cls-13" d="m1790.19,1077.21c-2.98,0-4.28-2.04-4.56-3.29-.05-.22-.01-.45.1-.64,2.13-3.59,1.15-8.21,1.14-8.26-.1-.47.19-.93.67-1.04.46-.1.94.19,1.04.66.04.21,1.09,5.06-1.15,9.18.27.66,1.2,2.07,3.95,1.51.48-.09.93.21,1.03.68.09.47-.21.93-.68,1.03-.56.11-1.07.16-1.54.16Z"/>
    <path class="cls-9" d="m1828.31,1191.12c-10.64,0-19.64-6.14-19.77-6.23-.1-.07-.12-.2-.05-.3.07-.1.21-.12.3-.05.17.12,17.23,11.75,32.01,2.72.1-.06.24-.03.3.07.06.1.03.24-.07.3-4.2,2.57-8.59,3.5-12.72,3.5Z"/>
    <path class="cls-20" d="m1882.98,1182.85c.28,1.54,9.21,50.98,2.29,62.62-3.04,5.11-28.61,14.12-65.84,13.89l2.35-12.97s36.24-12.51,37.35-17.1c2.4-9.88-4.42-41.47-4.42-41.47l28.28-4.96Z"/>
    <rect class="cls-11" x="1612.8" y="1167.4" width="132.54" height="20.79"/>
    <path class="cls-30" d="m1737.24,1170.04l2.47-6.12c2.65-6.56,9.02-10.86,16.1-10.86h45.59v152.43h-188.6v-123.5h106.72c7.79,0,14.8-4.73,17.71-11.95Z"/>
    <path class="cls-20" d="m1797.17,1229.72c-2.09,2.02,4.05,9.32,4.19,9.49-.16,0-10.34.12-13.5-.33-3.18-.45-9.07.2-9.57,2.5-.5,2.26,14.4,3.34,14.9,3.38-.45.01-13.07.4-13.98,2.39-.91,1.99,15.28,3.94,15.77,4-.33,0-9.96-.2-13.69.29-.71.1-1.21.21-1.38.36-1.11.93.04,2.4,4.95,3.7,1.4.37,2.84.64,4.17.84,3.14.46,5.74.52,6.07.53-.26.01-2.09.12-4.18.26-2.82.2-6.13.48-6.77.74-1.16.47-2.4,1.97,5.08,3.13,6.01.93,17.9,1.03,26.63-.75,2.14-.44,4.09-.99,5.72-1.66l.11-8.12.06-4.08s-1.18-.96-2.93-2.31c-3.49-2.72-9.25-7.06-12.28-8.57-4.55-2.26-7.27-7.82-9.39-5.78Z"/>
    <path class="cls-20" d="m1662.97,1164.63s-4.1,14.26-6.31,14.02c-2.2-.24-1.71-11.91-1.79-11.73-.08.18-2.75,12.29-5.8,12.92-3.06.64-1.84-12.78-1.84-12.78,0,0-1.61,11.52-3.73,11.84-2.12.33-1.86-10.83-2.68-10.85s-.27,9.57-2.88,10.08c-2.61.51-3.95-12.96-1.56-14.71,2.39-1.74,4.72.07,4.72.07,0,0,4.34-2.52,6.66-1.14,0,0,6.81-1.28,7.93,1.38,0,0,5.01-3.28,7.28.88Z"/>
    <polygon class="cls-30" points="1801.39 1239.21 1790.56 1238.72 1790.56 1213.27 1801.39 1213.27 1801.39 1239.21"/>
  </g>
  <g>
    <polygon class="cls-20" points="910.8 1219.9 885.16 1213.28 901.86 1200.81 916.01 1197.86 922.88 1206.05 910.8 1219.9"/>
    <path class="cls-20" d="m801.03,1539.5s6.35,37.14,6.59,37.6c.25.46-2.32,4.43-2.32,4.43l-10.02,1.8-9.15-4.21s-5.28-29.94-6.24-34.6c-.96-4.66,21.13-5.02,21.13-5.02Z"/>
    <path class="cls-18" d="m786.13,1579.12s11.55,4.04,21.43-2.65c0,0,38.47,14.42,37.3,25.38,0,0,1.64,3.27-15.03,2.56-16.67-.71-42.58-1.45-43.27-1.83-.7-.38-3.96,1.38-.43-23.47Z"/>
    <path class="cls-20" d="m686.79,1539.5s-9.8,37.14-9.56,37.6c.25.46-2.32,4.43-2.32,4.43l-10.02,1.8-9.15-4.21s4.99-30.55,4.03-35.21c-.96-4.66,27.02-4.41,27.02-4.41Z"/>
    <path class="cls-18" d="m655.74,1579.12s11.55,4.04,21.43-2.65c0,0,38.47,14.42,37.3,25.38,0,0,1.64,3.27-15.03,2.56-16.67-.71-42.57-1.45-43.27-1.83-.69-.38-3.96,1.38-.43-23.47Z"/>
    <path class="cls-7" d="m790.7,1307.33l20.1,254.2h-34.54s-36.52-200.87-41.7-201.75c-5.18-.88-42.18,201.75-42.18,201.75h-39.64l20.26-260.78,117.71,6.58Z"/>
    <path class="cls-23" d="m712.74,1109.26s42.75,1.49,60.07,14.63c10.77,8.18,13.22,111.35,13.22,111.35l6.47,76.95s-69.3,23.48-125.69,0l-6.14-51.46s-22.28-129.34-4.94-136.98c32.92-14.5,57-14.5,57-14.5Z"/>
    <g>
      <g>
        <path class="cls-27" d="m741.18,1059.14s2.08-3.85,4.11-2.55c5.19,3.33.78,8.61-2.35,9.98l-1.76-7.44Z"/>
        <path class="cls-20" d="m741.04,1045.65h-.03c-.02-.37-.04-.76-.08-1.14-1.55-17.01-17.14-29.36-34.29-26.65-14.29,2.25-25,14.76-25.03,29.23,0,5.37,1.38,10.34,3.79,14.64,3.37,6.67,6.33,12.38,9.33,17.07,4.97,7.76,7.16,16.97,6.45,26.16l-.37,5.44c19.07,8.03,26.36.05,26.36.05l-.85-13.09c-.11-1.71,1.11-3.2,2.8-3.47.01,0,.02,0,.03,0,22.42-3.53,12.81-38.07,11.88-48.23Z"/>
        <path class="cls-21" d="m711.96,1063.96c-.14-1.52-1.48-2.64-3.01-2.5-1.52.14-2.64,1.49-2.5,3.01.14,1.52,1.49,2.64,3.01,2.51,1.52-.14,2.64-1.49,2.5-3.01Z"/>
        <path class="cls-21" d="m736,1056.83c-.14-1.52-1.48-2.64-3.01-2.5-1.52.14-2.64,1.48-2.5,3.01.14,1.52,1.48,2.64,3,2.5,1.52-.14,2.64-1.49,2.5-3.01Z"/>
        <path class="cls-21" d="m701.7,1060.56c-.28.02-.58-.02-.85-.16-.8-.39-1.14-1.36-.75-2.16,1.17-2.43,5.09-6.36,11.54-3.84.83.33,1.25,1.27.92,2.1-.33.84-1.27,1.25-2.1.92-5.29-2.07-7.36,2.05-7.44,2.23-.26.53-.77.86-1.31.91Z"/>
        <path class="cls-21" d="m727.14,1053.9c-.28.03-.58-.02-.85-.15-.81-.39-1.14-1.36-.76-2.17,1.17-2.43,5.09-6.36,11.54-3.84.83.33,1.25,1.27.92,2.1-.33.83-1.27,1.25-2.1.92-5.29-2.07-7.36,2.05-7.44,2.23-.26.53-.77.86-1.31.91Z"/>
        <polygon class="cls-18" points="679.28 1052.18 689.13 1071.48 694.41 1069.91 695.29 1043.78 679.28 1052.18"/>
        <path class="cls-20" d="m695.19,1069.2c-.57-.91-1.47-1.57-2.5-1.88-2.12-.64-5.8-1.21-8.06,1.5-3.3,3.97,4.89,12.94,11.68,7.49,0,0,1.88-2.25-1.13-7.11Z"/>
        <path class="cls-27" d="m727.03,1072.65c-2.53,1.54-5.01.32-5.04.31-.24-.12-.33-.41-.21-.64.12-.24.41-.33.64-.21.12.06,2.88,1.37,5.29-1.26.39-.43.59-.76.58-1-.02-.33-.45-.72-1.05-1.26-1.37-1.24-3.68-3.31-4.8-8.36-.06-.26.11-.52.37-.58.26-.06.52.11.57.37,1.05,4.75,3.13,6.61,4.5,7.85.74.67,1.33,1.19,1.36,1.93.03.52-.23,1.04-.83,1.7-.45.5-.92.87-1.39,1.16Z"/>
        <path class="cls-15" d="m716.37,1078.69s11.37.36,18.18-3.61c0,0-.98,8.8-7.45,10.09-6.47,1.28-10.74-6.48-10.74-6.48Z"/>
        <path class="cls-18" d="m735.23,1034.59s4.52,2.6,7.21,20.47c0,0-.38-20.16-2.81-22.16-2.43-2-4.4,1.69-4.4,1.69Z"/>
      </g>
      <path class="cls-18" d="m686.99,1015.03c5.91-6.62,16.78-6.05,23.8-11.48-2.23,4.55-5.3,8.68-9.03,12.11,10.42-3.02,20.84-6.04,31.26-9.06-3.21,3.26-6.74,6.21-10.53,8.78,8.12.7,16.3.65,24.41-.15.8,1.25.27,2.89-.29,4.27-3.04,7.54-6.8,15.83-14.34,18.88-2.34.95-4.88,1.3-7.4,1.43-9.97.54-20.99-1.91-29.24,3.73-3.82,2.61-8.57,11.67-14.01,10.36-4.85-1.16-12.94-18.35,5.38-38.88Z"/>
    </g>
    <path class="cls-23" d="m758.22,1116.8c26.7,6.12,54.79,60.47,68.12,69.15,13.7,8.92,73.37,12.84,73.37,12.84l-12.93,20.18s-64.09,7.08-82.75.83c-11.53-3.86-30.55-19.36-36.23-27.49-25.13-36-9.59-75.52-9.59-75.52Z"/>
    <g>
      <rect class="cls-18" x="792.95" y="1067.74" width="16.27" height="361.85" transform="translate(1631.86 19.55) rotate(66.74)"/>
      <polygon class="cls-29" points="638.5 1329.09 631.06 1311.25 760.66 1255.52 768.11 1273.36 638.5 1329.09"/>
      <g class="cls-32">
        <path class="cls-25" d="m1048.33,973.93c78.51-33.76,169.51,2.52,203.27,81.03,33.75,78.51-2.52,169.51-81.03,203.27-78.51,33.75-169.51-2.52-203.27-81.03-33.75-78.51,2.53-169.51,81.03-203.27Z"/>
      </g>
      <path class="cls-18" d="m959.79,1180.43c35.48,82.52,131.48,120.79,214.01,85.31,82.52-35.48,120.79-131.48,85.31-214.01-35.48-82.52-131.48-120.79-214.01-85.31-82.52,35.48-120.79,131.48-85.31,214.01Zm90.17-202.7c76.41-32.85,164.99,2.46,197.84,78.87,32.85,76.41-2.46,164.99-78.87,197.84-76.41,32.85-164.99-2.46-197.84-78.87-32.85-76.41,2.46-164.99,78.87-197.84Z"/>
    </g>
    <path class="cls-20" d="m910.79,1219.9s-7.85-16.41-5.69-17.81c2.16-1.39,11.14,9.92,11.07,9.7-.07-.22-7.47-13.56-5.25-16.4,2.22-2.84,11.96,10.64,11.96,10.64,0,0-7.85-12-6.23-13.87,1.62-1.86,10.4,8.8,11.15,8.22.75-.58-7.48-9.18-5.56-11.58,1.92-2.4,13.99,9.27,13.26,12.67-.73,3.4-4.28,3.41-4.28,3.41,0,0-1.84,5.56-5.03,5.97,0,0-5.06,6.21-8.2,4.53,0,0-1.83,6.77-7.22,4.52Z"/>
    <path class="cls-20" d="m686.31,1267.74s15.8,1.86,21.38,2.98c5.58,1.12,11.83-1.93,12.3,1.34.47,3.27-10.25,5.53-10.25,5.53,0,0,9.07,7.21,12.2,9s5.82,4.65,3.9,6.47c-3.72,3.52-12.68-4.93-12.68-4.93,0,0,12.84,5.87,9.55,9.23-2.74,2.8-15.53-4.8-15.53-4.8,0,0,12.04,3.66,12.21,6.59.09,1.63-.07,2.44-5.02,1.24-5.55-1.35-5.25-1.28-5.25-1.28,0,0,3.01,1.22,3.82,3.72.59,1.82-.63,3.78-7.17,1.17-7.9-3.16-22.08-14.01-27.04-22.75l7.58-13.52Z"/>
    <path class="cls-23" d="m657.31,1123.08c-33.09,15.76-58.79,92.87-50.14,115.43,10.12,26.43,69.1,47.15,69.1,47.15l14.09-25.12s-43.59-25.99-43.73-30.95c-.2-7.21,28.53-43.53,28.53-43.53l-17.84-62.98Z"/>
    <path class="cls-21" d="m676.26,1286.05c.14,0,.27-.07.34-.2l14.09-25.12c.1-.18.04-.41-.13-.52l-33.04-21.22c-.18-.12-.42-.06-.54.12-.12.18-.06.42.12.54l32.73,21.03-13.74,24.5-12.92-5.16c-.2-.08-.43.02-.51.22-.08.2.02.43.22.51l13.23,5.29s.1.03.15.03Z"/>
    <path class="cls-21" d="m785.02,1209.05s.03,0,.04,0c.21-.02.37-.21.35-.43l-2.75-28.07c-.02-.21-.22-.36-.43-.35-.21.02-.37.21-.35.43l2.75,28.07c.02.2.19.35.39.35Z"/>
  </g>
  <g>
    <rect class="cls-25" x="2136.43" y="806.08" width="120.34" height="413.17" transform="translate(4538.96 1615.92) rotate(169.69)"/>
    <path class="cls-6" d="m2245.38,1123.19c-2.79-15.33-17.47-25.49-32.8-22.7-15.33,2.79-25.49,17.47-22.7,32.8,2.79,15.33,17.47,25.49,32.8,22.7,15.33-2.79,25.49-17.47,22.7-32.8Z"/>
    <path class="cls-15" d="m2217.64,1159.6c-14.78,0-27.94-10.57-30.68-25.61-1.49-8.2.3-16.48,5.04-23.33,4.74-6.85,11.87-11.44,20.07-12.93,16.92-3.08,33.19,8.18,36.27,25.11h0c3.08,16.92-8.19,33.19-25.11,36.27-1.88.34-3.75.51-5.59.51Zm.02-56.42c-1.49,0-3,.13-4.52.41-6.63,1.2-12.39,4.92-16.22,10.46-3.83,5.54-5.28,12.24-4.08,18.87,2.49,13.68,15.64,22.78,29.33,20.3,13.68-2.49,22.79-15.64,20.3-29.33h0c-2.21-12.16-12.85-20.71-24.8-20.71Z"/>
    <g class="cls-31">
      <rect class="cls-8" x="2148.55" y="826.15" width="70.47" height="232.24" transform="translate(4500.93 1478.57) rotate(169.69)"/>
    </g>
    <rect class="cls-3" x="2138.38" y="836.34" width="52.53" height="9.31" transform="translate(4444.83 1281.06) rotate(169.69)"/>
    <g>
      <rect class="cls-25" x="2180.24" y="1001.51" width="52.53" height="4.66" transform="translate(1613.73 3354.36) rotate(-100.31)"/>
      <rect class="cls-25" x="2168.45" y="936.71" width="52.53" height="4.66" transform="translate(1663.58 3266.37) rotate(-100.31)"/>
      <rect class="cls-25" x="2153.96" y="1006.29" width="52.53" height="4.66" transform="translate(1578 3334.13) rotate(-100.31)"/>
      <rect class="cls-25" x="2142.18" y="941.49" width="52.52" height="4.66" transform="translate(1627.87 3246.15) rotate(-100.31)"/>
      <rect class="cls-25" x="2159.67" y="997.15" width="66.04" height="4.66" transform="translate(1601.73 3335.64) rotate(-100.31)"/>
      <rect class="cls-25" x="2144.86" y="915.69" width="66.04" height="4.66" transform="translate(1664.42 3225.02) rotate(-100.31)"/>
    </g>
  </g>
  <g>
    <g>
      <path class="cls-20" d="m2270.92,1460.34s4.57,32.23,4.35,32.59c-.21.36,1.72,3.65,1.72,3.65l8.01,1.79,7.51-3.08s-4.72-30.48-3.79-34.2c.93-3.72-17.81-.75-17.81-.75Z"/>
      <path class="cls-1" d="m2292.52,1495.29s-9.44,2.87-17.17-2.86c0,0-31.48,10.32-30.9,19.19,0,0-1.43,2.58,12.02,2.57,13.45,0,34.35.27,34.92-.01.57-.29,3.14,1.24,1.14-18.89Z"/>
    </g>
    <g>
      <path class="cls-20" d="m2381.94,1458.46s9.54,31.12,9.38,31.51c-.16.39,2.27,3.34,2.27,3.34l8.19.51,6.94-4.22s-9.42-29.37-9.08-33.19c.34-3.82-17.71,2.04-17.71,2.04Z"/>
      <path class="cls-1" d="m2408.72,1489.6s-8.88,4.31-17.41-.14c0,0-29.48,15.1-27.53,23.78,0,0-1.01,2.77,12.28.66,13.29-2.1,33.97-5.09,34.49-5.46.52-.37,3.3.74-1.83-18.84Z"/>
    </g>
    <path class="cls-5" d="m2368.65,1203.67l-117.24-4.01s-13.77,84.73,10.47,285.25h36.36s7.71-206.53,14.32-218.4c6.61-11.87,29.75,129.16,66.11,213.99l33.05-9.92s-29.75-148.74-34.16-187.3c-4.41-38.56-8.91-79.62-8.91-79.62Z"/>
    <path class="cls-20" d="m2137.51,1005.29s-6.24-3.65-7.12-3.9c-.89-.25-2.11.06,1.71,4.12,3.82,4.06,14.72,9.29,21.08,11.04l8.17-7.96s-4.62-6.92-6.24-10.29c-1.62-3.37-4.93-8.3-6.31-6.81-1.29,1.39,2.22,7.27,2.22,7.27,0,0-4.17-2.64-5.81-4.34-1.64-1.7-8.77-8.63-10.55-6.95-1.26,1.19,7.19,9.92,7.19,9.92,0,0-10.85-10.14-12.03-8.16-1.2,2.03,10.18,12.67,10.18,12.67,0,0-6.53-4.84-7.84-7.32-.23-.43-2.3,2.83,0,5.26l5.35,5.44Z"/>
    <path class="cls-1" d="m2319.98,972.48c.27,0,.53-.05.78-.18.71-.38.92-1.24.47-1.92-1.36-2.05-5.45-5.27-11.18-2.74-.74.33-1.02,1.17-.63,1.87.4.71,1.32,1.02,2.06.69,4.71-2.08,7.08,1.4,7.18,1.55.3.45.81.71,1.33.72Z"/>
    <path class="cls-20" d="m2311.4,964.06h.03c.06-.31.12-.64.19-.96,3.27-14.37,19.13-22.64,34.83-17.75,13.08,4.07,21.72,16.41,20.19,28.83-.57,4.61-2.4,8.67-5.11,12-3.86,5.22-7.23,9.68-10.53,13.25-5.46,5.91-8.5,13.5-8.83,21.49l-.34,7.81c-18.64,4.04-25.58-5.63-25.58-5.63l3.3-12.46c.29-1.45-.69-2.92-2.24-3.4-.01,0-.02,0-.03,0-23.49-7.33-7.17-24.34-5.9-43.17Z"/>
    <path class="cls-1" d="m2354.42,960.69l11.6,16.7c-.88,3.3-2.42,6.26-4.48,8.79-3.86,5.22-7.23,9.68-10.53,13.25-2.28,2.47-4.11,5.24-5.52,8.2,0,0-.02,0-.03,0-4.13.45-23.8-9.22-24.08-13.05-.28-3.82,6.75-15.77-.43-17.07-6.75-1.22-4.21-22.44-4.21-22.44l18.21-1.09,19.47,6.69Z"/>
    <path class="cls-28" d="m2323.28,980.49c-.06-.94-.52-1.83-1.23-2.53-1.47-1.44-4.27-3.54-7.33-2.56-4.49,1.44-1.69,11.84,6.34,10.88,0,0,2.55-.82,2.21-5.79Z"/>
    <path class="cls-1" d="m2371.55,963.71c-.37-2.99-1.11-5.95-1.84-8.9-.37-1.48-.74-2.95-1.06-4.43-.22-1.04-.17-3.12-1.22-3.85-1.33-.93-2.77,2.24-2.89,3.02-.28,1.82.42,3.73.35,5.57.18-4.96-5.37-9.44-9.41-12.08-4.45-2.9-9.46-5.17-14.36-7.27-1.13-.48-2.29-.96-3.51-1.03-4.35-.25-2.75,3.09-1.74,5.26.03.07-3.37-.66-3.74-.76-4.73-1.22-9.77-.92-14.1.85-1.52.62-2.95,2.02-1.62,3.63.79.96,2.28,1.57,3.54,1.64-2.97-.16-6.08.04-8.78,1.1-1.69.66-4.16,2-4.47,3.88-.3,1.86,1.75,3.43,3.38,4.21,4.28,2.07,9.3,2.3,13.81,3.71,5.02,1.57,9.83,3.77,14.24,6.58,3.64,2.32,7,5.03,10.63,7.36,3.06,1.96,6.31,3.64,9.61,5.19,2.2,1.03,5.88,3.76,7.83,2.03,4.24-3.75,6.03-10.25,5.36-15.71Z"/>
    <path class="cls-3" d="m2355.69,1035.89c-11.09-8.2-21.04-10.91-34.76-12.35-10.92-1.14-24.58-1.9-34.66-.21-13.85,2.32-50.59,13.23-65.44,12.91-18.1-.38-61.56-30.84-61.56-30.84l-7.21,12.93s19.23,45.98,50.81,52.5c31.58,6.52,57.52,6.76,57.52,6.76l-12.93,133.65s60.27,24.15,124.35-3.76c0,0-.58-57.07-.12-113.87.21-25.9-2.37-47.66-16-57.72Z"/>
  </g>
  <rect class="cls-14" x="1405.24" y="1300.93" width="149.28" height="44.22"/>
  <g>
    <rect class="cls-30" x="1419.8" y="1310.69" width="47.6" height="2.65"/>
    <rect class="cls-30" x="1474.9" y="1310.69" width="47.6" height="2.65"/>
    <rect class="cls-30" x="1419.8" y="1320.63" width="47.6" height="2.65"/>
    <rect class="cls-30" x="1419.8" y="1330.57" width="47.6" height="2.65"/>
    <rect class="cls-30" x="1474.9" y="1320.63" width="47.6" height="2.65"/>
  </g>
  <rect class="cls-14" x="1628.48" y="1271.78" width="67.89" height="20.11"/>
  <g>
    <rect class="cls-30" x="1635.1" y="1276.22" width="21.65" height="1.21"/>
    <rect class="cls-30" x="1660.16" y="1276.22" width="21.65" height="1.21"/>
    <rect class="cls-30" x="1635.1" y="1280.74" width="21.65" height="1.2"/>
    <rect class="cls-30" x="1635.1" y="1285.26" width="21.65" height="1.21"/>
    <rect class="cls-30" x="1660.16" y="1280.74" width="21.65" height="1.2"/>
  </g>
</svg>