<?xml version="1.0" encoding="us-ascii" standalone="no"?><svg xmlns="http://www.w3.org/2000/svg" xmlns:xlink="http://www.w3.org/1999/xlink" contentStyleType="text/css" height="351px" preserveAspectRatio="none" style="width:697px;height:351px;background:#FFFFFF;" version="1.1" viewBox="0 0 697 351" width="697px" zoomAndPan="magnify"><defs/><g><text fill="#888888" font-family="sans-serif" font-size="10" lengthAdjust="spacing" textLength="78" x="605" y="9.2822">OpenWoo.app</text><text fill="#000000" font-family="sans-serif" font-size="14" font-weight="bold" lengthAdjust="spacing" textLength="83" x="300" y="35.6357">Motorblok</text><!--cluster Publicatie platformen --><g id="cluster_Publicatie platformen "><rect fill="none" height="109" rx="2.5" ry="2.5" style="stroke:#181818;stroke-width:1.0;" width="198" x="7" y="56.9375"/><path d="M199,56.9375 L199,66.2344 L189,76.2344 L7,76.2344 " fill="none" style="stroke:#181818;stroke-width:1.0;"/><text fill="#000000" font-family="sans-serif" font-size="14" font-weight="bold" lengthAdjust="spacing" textLength="177" x="10" y="70.9326">Publicatie platformen</text></g><!--cluster Services--><g id="cluster_Services"><rect fill="none" height="87" rx="2.5" ry="2.5" style="stroke:#181818;stroke-width:1.0;" width="200" x="262" y="67.9375"/><path d="M339,67.9375 L339,77.2344 L329,87.2344 L262,87.2344 " fill="none" style="stroke:#181818;stroke-width:1.0;"/><text fill="#000000" font-family="sans-serif" font-size="14" font-weight="bold" lengthAdjust="spacing" textLength="67" x="265" y="81.9326">Services</text></g><!--cluster Integratie--><g id="cluster_Integratie"><rect fill="none" height="96" rx="2.5" ry="2.5" style="stroke:#181818;stroke-width:1.0;" width="134" x="109" y="230.4375"/><path d="M200,230.4375 L200,239.7344 L190,249.7344 L109,249.7344 " fill="none" style="stroke:#181818;stroke-width:1.0;"/><text fill="#000000" font-family="sans-serif" font-size="14" font-weight="bold" lengthAdjust="spacing" textLength="81" x="112" y="244.4326">Integratie</text></g><!--cluster API--><g id="cluster_API"><rect fill="none" height="97" rx="2.5" ry="2.5" style="stroke:#181818;stroke-width:1.0;" width="134" x="311" y="229.9375"/><path d="M347,229.9375 L347,239.2344 L337,249.2344 L311,249.2344 " fill="none" style="stroke:#181818;stroke-width:1.0;"/><text fill="#000000" font-family="sans-serif" font-size="14" font-weight="bold" lengthAdjust="spacing" textLength="26" x="314" y="243.9326">API</text></g><!--entity Searchsite--><g id="elem_Searchsite"><ellipse cx="116" cy="120.9375" fill="#1ABC9C" rx="8" ry="8" style="stroke:#181818;stroke-width:0.5;"/><text fill="#000000" font-family="sans-serif" font-size="14" lengthAdjust="spacing" textLength="63" x="84.5" y="150.9326">Afnemer</text></g><!--entity OWS--><g id="elem_OWS"><polygon fill="#1ABC9C" points="278,102.9375,436,102.9375,446,121.0859,436,139.2344,278,139.2344,288,121.0859" style="stroke:#181818;stroke-width:0.5;"/><text fill="#000000" font-family="sans-serif" font-size="14" lengthAdjust="spacing" textLength="128" x="298" y="125.9326">OpenWoo Service</text></g><!--entity OI--><g id="elem_OI"><path d="M125,275.4375 C125,265.4375 176,265.4375 176,265.4375 C176,265.4375 227,265.4375 227,275.4375 L227,300.7344 C227,310.7344 176,310.7344 176,310.7344 C176,310.7344 125,310.7344 125,300.7344 L125,275.4375 " fill="#1ABC9C" style="stroke:#181818;stroke-width:0.5;"/><path d="M125,275.4375 C125,285.4375 176,285.4375 176,285.4375 C176,285.4375 227,285.4375 227,275.4375 " fill="none" style="stroke:#181818;stroke-width:0.5;"/><text fill="#000000" font-family="sans-serif" font-size="14" lengthAdjust="spacing" textLength="82" x="135" y="302.4326">Open Index</text></g><!--entity Bronnen--><g id="elem_Bronnen"><rect fill="#CCE5FF" height="46.2969" rx="2.5" ry="2.5" style="stroke:#181818;stroke-width:0.5;" width="101" x="327.5" y="264.9375"/><rect fill="#CCE5FF" height="10" style="stroke:#181818;stroke-width:0.5;" width="15" x="408.5" y="269.9375"/><rect fill="#CCE5FF" height="2" style="stroke:#181818;stroke-width:0.5;" width="4" x="406.5" y="271.9375"/><rect fill="#CCE5FF" height="2" style="stroke:#181818;stroke-width:0.5;" width="4" x="406.5" y="275.9375"/><text fill="#000000" font-family="sans-serif" font-size="14" lengthAdjust="spacing" textLength="61" x="342.5" y="297.9326">Bronnen</text></g><!--link Searchsite to OI--><g id="link_Searchsite_OI"><path d="M113.72,130.1435 C109.565,146.6385 102.139,184.7295 113,213.9375 C120.41,233.8655 131.6374,247.8392 145.4394,261.0424 " fill="none" id="Searchsite-to-OI" style="stroke:#181818;stroke-width:1.0;"/><polygon fill="#181818" points="149.775,265.1899,146.0366,256.0781,146.162,261.7336,140.5065,261.859,149.775,265.1899" style="stroke:#181818;stroke-width:1.0;"/><text fill="#000000" font-family="sans-serif" font-size="13" lengthAdjust="spacing" textLength="95" x="114" y="202.5044">Bevraagd (API)</text></g><!--link OWS to OI--><g id="link_OWS_OI"><path d="M337.527,138.9595 C321.335,150.5405 299.874,166.5095 282,181.9375 C250.626,209.0175 221.1932,238.9112 200.4332,260.7872 " fill="none" id="OWS-to-OI" style="stroke:#181818;stroke-width:1.0;stroke-dasharray:7.0,7.0;"/><polygon fill="#181818" points="196.303,265.1394,205.3997,261.3645,199.7448,261.5126,199.5968,255.8576,196.303,265.1394" style="stroke:#181818;stroke-width:1.0;"/><text fill="#000000" font-family="sans-serif" font-size="13" lengthAdjust="spacing" textLength="67" x="283" y="202.5044">Slaat op in</text></g><!--link OWS to Bronnen--><g id="link_OWS_Bronnen"><path d="M360.92,138.9985 C360.215,151.0015 359.362,167.4445 359,181.9375 C358.645,196.1555 357.194,199.8305 359,213.9375 C361.228,231.3435 364.5839,244.7884 368.9409,259.121 " fill="none" id="OWS-to-Bronnen" style="stroke:#181818;stroke-width:1.0;"/><polygon fill="#181818" points="370.686,264.8616,371.8954,255.0873,369.2317,260.0778,364.2413,257.4141,370.686,264.8616" style="stroke:#181818;stroke-width:1.0;"/><text fill="#000000" font-family="sans-serif" font-size="13" lengthAdjust="spacing" textLength="127" x="360" y="195.0044">Scrapes periodically</text><text fill="#000000" font-family="sans-serif" font-size="13" lengthAdjust="spacing" textLength="97" x="375" y="210.1372">Uses as source</text></g><!--reverse link OWS to Bronnen--><g id="link_OWS_Bronnen"><path d="M440.3335,141.2295 C462.5315,150.2045 478.938,161.5225 492,181.9375 C514.333,216.8415 468.543,247.749 428.508,266.837 " fill="none" id="OWS-backto-Bronnen" style="stroke:#181818;stroke-width:1.0;"/><polygon fill="#181818" points="434.771,138.9805,441.6155,146.0624,439.4065,140.8547,444.6142,138.6457,434.771,138.9805" style="stroke:#181818;stroke-width:1.0;"/><text fill="#000000" font-family="sans-serif" font-size="13" lengthAdjust="spacing" textLength="191" x="498" y="202.5044">Notifies of changes or deletes</text></g><text fill="#888888" font-family="sans-serif" font-size="10" lengthAdjust="spacing" textLength="78" x="302.5" y="341.2197">OpenWoo.app</text><!--SRC=[RP5FJm8n4CNl_HIJvI0U8F4F1pcOm8r4XRWXNBpCTgTiuz9fse8QutTt5YYASK_TcJU_zpfDDhK4ZvmuL2s_AiESA8nXxicjc8VelMe8wxyrTG6BRTLQZSaI-1QJuR0X1_q7n3MCO3cxL2RWXg3uNrZ0fmBvh1D3Wrg44-DeGw40Z50I1jr4cmXwLrZfEws-EjUImivgYWUVsvD9hcUi3on_4OfZwZnOG4UVhyfpx4nIhCC-uu5ySoB_j3AxneGLHZh0PRQczoDtTewT1dRkj9Nh4tEoc6MOverdqIGeZkhz_VCazBIcaJ47tZF90Ysxs5WVrQyT3Mf-SuFxBi0OfhGBubT3NtmkLNVPuR3hZQ5i4HEmbxMhVICFPZ-Hw82U8dWAbcjvkBRzU77BA2N95NaRD7LPdZXPitzNoQFo_63hknX27XyLCiS6T8DktHq3rDHIelWD]--></g></svg>