<?xml version="1.0" encoding="us-ascii" standalone="no"?><svg xmlns="http://www.w3.org/2000/svg" xmlns:xlink="http://www.w3.org/1999/xlink" contentStyleType="text/css" height="362px" preserveAspectRatio="none" style="width:701px;height:362px;background:#FFFFFF;" version="1.1" viewBox="0 0 701 362" width="701px" zoomAndPan="magnify"><defs/><g><text fill="#000000" font-family="sans-serif" font-size="14" font-weight="bold" lengthAdjust="spacing" textLength="245" x="221" y="22.9951">Losse frontend met integratie</text><!--entity Website--><g id="elem_Website"><ellipse cx="260.5" cy="51.2969" fill="#F1F1F1" rx="8" ry="8" style="stroke:#181818;stroke-width:0.5;"/><text fill="#000000" font-family="sans-serif" font-size="14" lengthAdjust="spacing" textLength="200" x="160.5" y="81.292">Open Webconcept Website</text></g><!--entity Harvester--><g id="elem_Harvester"><ellipse cx="556.5" cy="51.2969" fill="#F1F1F1" rx="8" ry="8" style="stroke:#181818;stroke-width:0.5;"/><text fill="#000000" font-family="sans-serif" font-size="14" lengthAdjust="spacing" textLength="112" x="500.5" y="81.292">Koop Harvester</text></g><!--entity Api--><g id="elem_Api"><ellipse cx="682.5" cy="51.2969" fill="#F1F1F1" rx="8" ry="8" style="stroke:#181818;stroke-width:0.5;"/><text fill="#000000" font-family="sans-serif" font-size="14" lengthAdjust="spacing" textLength="23" x="671" y="81.292">API</text></g><!--entity CMS--><g id="elem_CMS"><rect fill="#F1F1F1" height="46.2969" rx="2.5" ry="2.5" style="stroke:#181818;stroke-width:0.5;" width="211" x="7" y="301.2969"/><rect fill="#F1F1F1" height="10" style="stroke:#181818;stroke-width:0.5;" width="15" x="198" y="306.2969"/><rect fill="#F1F1F1" height="2" style="stroke:#181818;stroke-width:0.5;" width="4" x="196" y="308.2969"/><rect fill="#F1F1F1" height="2" style="stroke:#181818;stroke-width:0.5;" width="4" x="196" y="312.2969"/><text fill="#000000" font-family="sans-serif" font-size="14" lengthAdjust="spacing" textLength="171" x="22" y="334.292">Open Webconcept CMS</text></g><!--entity Integratie--><g id="elem_Integratie"><rect fill="#F1F1F1" height="46.2969" rx="2.5" ry="2.5" style="stroke:#181818;stroke-width:0.5;" width="112" x="289.5" y="157.2969"/><rect fill="#F1F1F1" height="10" style="stroke:#181818;stroke-width:0.5;" width="15" x="381.5" y="162.2969"/><rect fill="#F1F1F1" height="2" style="stroke:#181818;stroke-width:0.5;" width="4" x="379.5" y="164.2969"/><rect fill="#F1F1F1" height="2" style="stroke:#181818;stroke-width:0.5;" width="4" x="379.5" y="168.2969"/><text fill="#000000" font-family="sans-serif" font-size="14" lengthAdjust="spacing" textLength="72" x="304.5" y="190.292">Integratie</text></g><!--entity Bronnen--><g id="elem_Bronnen"><rect fill="#F1F1F1" height="46.2969" rx="2.5" ry="2.5" style="stroke:#181818;stroke-width:0.5;" width="101" x="295" y="301.2969"/><rect fill="#F1F1F1" height="10" style="stroke:#181818;stroke-width:0.5;" width="15" x="376" y="306.2969"/><rect fill="#F1F1F1" height="2" style="stroke:#181818;stroke-width:0.5;" width="4" x="374" y="308.2969"/><rect fill="#F1F1F1" height="2" style="stroke:#181818;stroke-width:0.5;" width="4" x="374" y="312.2969"/><text fill="#000000" font-family="sans-serif" font-size="14" lengthAdjust="spacing" textLength="61" x="310" y="334.292">Bronnen</text></g><!--entity API--><g id="elem_API"><ellipse cx="430.5" cy="51.2969" fill="#F1F1F1" rx="8" ry="8" style="stroke:#181818;stroke-width:0.5;"/><text fill="#000000" font-family="sans-serif" font-size="14" lengthAdjust="spacing" textLength="23" x="419" y="81.292">API</text></g><!--entity Zaaksysteem--><g id="elem_Zaaksysteem"><ellipse cx="514.5" cy="324.2969" fill="#F1F1F1" rx="8" ry="8" style="stroke:#181818;stroke-width:0.5;"/><text fill="#000000" font-family="sans-serif" font-size="14" lengthAdjust="spacing" textLength="96" x="466.5" y="354.292">Zaaksysteem</text></g><!--link API to Integratie--><g id="link_API_Integratie"><path d="M426.856,60.5199 C420.414,74.6989 406.203,104.4259 390.5,127.2969 C383.405,137.6309 378.5568,143.7618 370.5908,152.6768 " fill="none" id="API-to-Integratie" style="stroke:#181818;stroke-width:1.0;"/><polygon fill="#181818" points="366.593,157.1509,375.5725,153.105,369.9245,153.4225,369.607,147.7745,366.593,157.1509" style="stroke:#181818;stroke-width:1.0;"/><text fill="#000000" font-family="sans-serif" font-size="13" lengthAdjust="spacing" textLength="120" x="401.5" y="123.3638">Directly connected</text></g><!--link Website to Integratie--><g id="link_Website_Integratie"><path d="M258.088,60.3789 C254.263,74.8559 248.404,105.7159 260.5,127.2969 C267.436,139.6709 273.5728,146.2557 285.6118,153.8367 " fill="none" id="Website-to-Integratie" style="stroke:#181818;stroke-width:1.0;"/><polygon fill="#181818" points="290.689,157.0339,285.2046,148.8533,286.458,154.3696,280.9417,155.623,290.689,157.0339" style="stroke:#181818;stroke-width:1.0;"/><text fill="#000000" font-family="sans-serif" font-size="13" lengthAdjust="spacing" textLength="120" x="261.5" y="123.3638">Directly connected</text></g><!--link Integratie to Bronnen--><g id="link_Integratie_Bronnen"><path d="M343.949,203.2979 C343.37,212.5549 342.784,223.4439 342.5,233.2969 C342.09,247.5129 342.133,251.0799 342.5,265.2969 C342.807,277.1908 343.1239,284.4527 343.7479,295.2839 " fill="none" id="Integratie-to-Bronnen" style="stroke:#181818;stroke-width:1.0;"/><polygon fill="#181818" points="344.093,301.274,347.5687,292.0588,343.8054,296.2823,339.582,292.5189,344.093,301.274" style="stroke:#181818;stroke-width:1.0;"/><text fill="#000000" font-family="sans-serif" font-size="13" lengthAdjust="spacing" textLength="127" x="343.5" y="246.3638">Scrapes periodically</text><text fill="#000000" font-family="sans-serif" font-size="13" lengthAdjust="spacing" textLength="97" x="358.5" y="261.4966">Uses as source</text></g><!--reverse link Integratie to CMS--><g id="link_Integratie_CMS"><path d="M283.1889,181.8192 C237.7959,184.9152 181.185,196.0039 141.5,233.2969 C122.718,250.9469 116.066,280.798 113.73,301.2468 " fill="none" id="Integratie-backto-CMS" style="stroke:#181818;stroke-width:1.0;"/><polygon fill="#181818" points="289.175,181.4109,279.9237,178.0326,284.1866,181.7511,280.468,186.014,289.175,181.4109" style="stroke:#181818;stroke-width:1.0;"/><text fill="#000000" font-family="sans-serif" font-size="13" lengthAdjust="spacing" textLength="191" x="142.5" y="253.8638">Notifies of changes or deletes</text></g><!--reverse link Integratie to Zaaksysteem--><g id="link_Integratie_Zaaksysteem"><path d="M407.5282,195.1932 C432.6682,203.0142 455.368,213.7279 475.5,233.2969 C499.678,256.7977 509.786,297.7842 513.125,315.1499 " fill="none" id="Integratie-backto-Zaaksysteem" style="stroke:#181818;stroke-width:1.0;"/><polygon fill="#181818" points="401.799,193.4109,409.2045,199.9038,406.5733,194.8962,411.581,192.2649,401.799,193.4109" style="stroke:#181818;stroke-width:1.0;"/><text fill="#000000" font-family="sans-serif" font-size="13" lengthAdjust="spacing" textLength="191" x="498.5" y="253.8638">Notifies of changes or deletes</text></g><!--SRC=[bP7FJiCm3CRlUGfh5qvz0Gv8spXGyLTC20bn2QcxHKlZACv0VNkSq9O8Bd3A5_ltjL_iP9D3k25cX3wIJ-Wx63215RcFEbbKwWoU62EqKegzDWXR6W9vz4dPfRQw3-ZX6TyCUOCXPSasuGeqpxh6hua2NEduZYorGYstcbi_jAMv3ZOdsMXpp1cN2ApCB7zdsDxkYbdE6ckNnvNkzxM6DZ8EKOMOT0xmY4v8ydomWPMaWwQZ3zzSL9-1SxYq4Kro8vZiD0axDGtXptpLdorJ3k5t9kg0306ZfSuQxTpuwcLFdFCodQ8fcxkZP7jfbyXAvW3DAVpy-HSaLkh17BJVPncXGuS9MRreVUHH5eF3_zsV]--></g></svg>