<?xml version="1.0" encoding="us-ascii" standalone="no"?><svg xmlns="http://www.w3.org/2000/svg" xmlns:xlink="http://www.w3.org/1999/xlink" contentStyleType="text/css" height="335px" preserveAspectRatio="none" style="width:587px;height:335px;background:#FFFFFF;" version="1.1" viewBox="0 0 587 335" width="587px" zoomAndPan="magnify"><defs/><g><text fill="#888888" font-family="sans-serif" font-size="10" lengthAdjust="spacing" textLength="78" x="495" y="9.2822">OpenWoo.app</text><text fill="#000000" font-family="sans-serif" font-size="14" font-weight="bold" lengthAdjust="spacing" textLength="268" x="152.5" y="35.6357">Open Webconcept met integratie</text><!--cluster Publicatie platformen --><g id="cluster_Publicatie platformen "><rect fill="none" height="109" rx="2.5" ry="2.5" style="stroke:#181818;stroke-width:1.0;" width="248" x="109" y="56.9375"/><path d="M301,56.9375 L301,66.2344 L291,76.2344 L109,76.2344 " fill="none" style="stroke:#181818;stroke-width:1.0;"/><text fill="#000000" font-family="sans-serif" font-size="14" font-weight="bold" lengthAdjust="spacing" textLength="177" x="112" y="70.9326">Publicatie platformen</text></g><!--cluster Services--><g id="cluster_Services"><rect fill="none" height="87" rx="2.5" ry="2.5" style="stroke:#181818;stroke-width:1.0;" width="200" x="381" y="67.9375"/><path d="M458,67.9375 L458,77.2344 L448,87.2344 L381,87.2344 " fill="none" style="stroke:#181818;stroke-width:1.0;"/><text fill="#000000" font-family="sans-serif" font-size="14" font-weight="bold" lengthAdjust="spacing" textLength="67" x="384" y="81.9326">Services</text></g><!--cluster Integratie--><g id="cluster_Integratie"><rect fill="none" height="96" rx="2.5" ry="2.5" style="stroke:#181818;stroke-width:1.0;" width="134" x="259" y="214.9375"/><path d="M350,214.9375 L350,224.2344 L340,234.2344 L259,234.2344 " fill="none" style="stroke:#181818;stroke-width:1.0;"/><text fill="#000000" font-family="sans-serif" font-size="14" font-weight="bold" lengthAdjust="spacing" textLength="81" x="262" y="228.9326">Integratie</text></g><!--cluster Bronnen--><g id="cluster_Bronnen"><rect fill="none" height="96" rx="2.5" ry="2.5" style="stroke:#181818;stroke-width:1.0;" width="158" x="417" y="214.9375"/><path d="M494,214.9375 L494,224.2344 L484,234.2344 L417,234.2344 " fill="none" style="stroke:#181818;stroke-width:1.0;"/><text fill="#000000" font-family="sans-serif" font-size="14" font-weight="bold" lengthAdjust="spacing" textLength="67" x="420" y="228.9326">Bronnen</text></g><!--entity Website--><g id="elem_Website"><ellipse cx="233" cy="120.9375" fill="#CCE5FF" rx="8" ry="8" style="stroke:#181818;stroke-width:0.5;"/><text fill="#000000" font-family="sans-serif" font-size="14" lengthAdjust="spacing" textLength="200" x="133" y="150.9326">Open Webconcept Website</text></g><!--entity OWS--><g id="elem_OWS"><polygon fill="#1ABC9C" points="397,102.9375,555,102.9375,565,121.0859,555,139.2344,397,139.2344,407,121.0859" style="stroke:#181818;stroke-width:0.5;"/><text fill="#000000" font-family="sans-serif" font-size="14" lengthAdjust="spacing" textLength="128" x="417" y="125.9326">OpenWoo Service</text></g><!--entity OI--><g id="elem_OI"><path d="M275,259.9375 C275,249.9375 326,249.9375 326,249.9375 C326,249.9375 377,249.9375 377,259.9375 L377,285.2344 C377,295.2344 326,295.2344 326,295.2344 C326,295.2344 275,295.2344 275,285.2344 L275,259.9375 " fill="#1ABC9C" style="stroke:#181818;stroke-width:0.5;"/><path d="M275,259.9375 C275,269.9375 326,269.9375 326,269.9375 C326,269.9375 377,269.9375 377,259.9375 " fill="none" style="stroke:#181818;stroke-width:0.5;"/><text fill="#000000" font-family="sans-serif" font-size="14" lengthAdjust="spacing" textLength="82" x="285" y="286.9326">Open Index</text></g><!--entity CMS--><g id="elem_CMS"><path d="M433.5,259.9375 C433.5,249.9375 496,249.9375 496,249.9375 C496,249.9375 558.5,249.9375 558.5,259.9375 L558.5,285.2344 C558.5,295.2344 496,295.2344 496,295.2344 C496,295.2344 433.5,295.2344 433.5,285.2344 L433.5,259.9375 " fill="#CCE5FF" style="stroke:#181818;stroke-width:0.5;"/><path d="M433.5,259.9375 C433.5,269.9375 496,269.9375 496,269.9375 C496,269.9375 558.5,269.9375 558.5,259.9375 " fill="none" style="stroke:#181818;stroke-width:0.5;"/><text fill="#000000" font-family="sans-serif" font-size="14" lengthAdjust="spacing" textLength="105" x="443.5" y="286.9326">Website (CMS)</text></g><!--entity Searchsite--><g id="elem_Searchsite"><ellipse cx="44" cy="120.9375" fill="#F1F1F1" rx="8" ry="8" style="stroke:#181818;stroke-width:0.5;"/><text fill="#000000" font-family="sans-serif" font-size="14" lengthAdjust="spacing" textLength="76" x="6" y="150.9326">Searchsite</text></g><!--entity IO--><g id="elem_IO"><ellipse cx="44" cy="272.4375" fill="#F1F1F1" rx="8" ry="8" style="stroke:#181818;stroke-width:0.5;"/><text fill="#000000" font-family="sans-serif" font-size="14" lengthAdjust="spacing" textLength="15" x="36.5" y="302.4326">IO</text></g><!--link OWS to CMS--><g id="link_OWS_CMS"><path d="M482.721,139.0875 C485.468,166.4675 490.241,214.0415 493.242,243.9508 " fill="none" id="OWS-to-CMS" style="stroke:#181818;stroke-width:1.0;"/><polygon fill="#181818" points="493.841,249.9208,496.9225,240.5664,493.3418,244.9458,488.9625,241.3651,493.841,249.9208" style="stroke:#181818;stroke-width:1.0;"/><text fill="#000000" font-family="sans-serif" font-size="13" lengthAdjust="spacing" textLength="64" x="489" y="195.0044">Indexeerd</text></g><!--link OWS to OI--><g id="link_OWS_OI"><path d="M459.317,139.1685 C444.962,150.8375 425.919,166.8275 410,181.9375 C386.662,204.0905 365.633,226.778 349.025,245.3292 " fill="none" id="OWS-to-OI" style="stroke:#181818;stroke-width:1.0;stroke-dasharray:7.0,7.0;"/><polygon fill="#181818" points="345.023,249.7995,354.0063,245.7621,348.358,246.0742,348.0459,240.426,345.023,249.7995" style="stroke:#181818;stroke-width:1.0;"/><text fill="#000000" font-family="sans-serif" font-size="13" lengthAdjust="spacing" textLength="67" x="411" y="195.0044">Slaat op in</text></g><!--link Searchsite to IO--><g id="link_Searchsite_IO"><path d="M44,129.9755 C44,155.9335 44,231.3454 44,257.36 " fill="none" id="Searchsite-to-IO" style="stroke:#181818;stroke-width:1.0;"/><polygon fill="#181818" points="44,263.36,48,254.36,44,258.36,40,254.36,44,263.36" style="stroke:#181818;stroke-width:1.0;"/><text fill="#000000" font-family="sans-serif" font-size="13" lengthAdjust="spacing" textLength="95" x="45" y="195.0044">Bevraagd (API)</text></g><text fill="#888888" font-family="sans-serif" font-size="10" lengthAdjust="spacing" textLength="78" x="247.5" y="325.2197">OpenWoo.app</text><!--SRC=[RP0zJyCm48Pt_ufJEf0EZSH71p9KeaoHGAaKeSmN-zn6IcpBCGK9yT-napX0mTFvFfxtlNEjwmXAGmfgQhXMd8o3dXoqoj7Heck9IQqTsNnigxNEq1Xs8XINENO5XzUcQtcO0jEXazhs7fq-8HvX2o_5cacBFK7oVsC27mpy2-9M8lUDbzvyEBIE4i0Xnh3YdBPIiizWeI9xRZaDa-ZTeXZpKSDOxN_3fE1NY8C917HPLx2wneRVymbRBFUOrxbToD-bo1ReiC4XsY-KeFUPM_p6xgrMQZdHpSASyt-1SUVqyRbQZrVmmSyB1ESReT_KPXTA-QHEPCLOohATDv53rI4wqCRVch6AqFBJo8sZHGavxEbilIy1wSEXM7y1]--></g></svg>