<?xml version="1.0" encoding="us-ascii" standalone="no"?><svg xmlns="http://www.w3.org/2000/svg" xmlns:xlink="http://www.w3.org/1999/xlink" contentStyleType="text/css" height="304px" preserveAspectRatio="none" style="width:587px;height:304px;background:#FFFFFF;" version="1.1" viewBox="0 0 587 304" width="587px" zoomAndPan="magnify"><defs/><g><text fill="#000000" font-family="sans-serif" font-size="14" font-weight="bold" lengthAdjust="spacing" textLength="268" x="152.5" y="22.9951">Open Webconcept met integratie</text><!--cluster Publicatie platformen --><g id="cluster_Publicatie platformen "><rect fill="none" height="109" rx="2.5" ry="2.5" style="stroke:#181818;stroke-width:1.0;" width="248" x="109" y="44.2969"/><path d="M301,44.2969 L301,53.5938 L291,63.5938 L109,63.5938 " fill="none" style="stroke:#181818;stroke-width:1.0;"/><text fill="#000000" font-family="sans-serif" font-size="14" font-weight="bold" lengthAdjust="spacing" textLength="177" x="112" y="58.292">Publicatie platformen</text></g><!--cluster Services--><g id="cluster_Services"><rect fill="none" height="87" rx="2.5" ry="2.5" style="stroke:#181818;stroke-width:1.0;" width="200" x="381" y="55.2969"/><path d="M458,55.2969 L458,64.5938 L448,74.5938 L381,74.5938 " fill="none" style="stroke:#181818;stroke-width:1.0;"/><text fill="#000000" font-family="sans-serif" font-size="14" font-weight="bold" lengthAdjust="spacing" textLength="67" x="384" y="69.292">Services</text></g><!--cluster Integratie--><g id="cluster_Integratie"><rect fill="none" height="96" rx="2.5" ry="2.5" style="stroke:#181818;stroke-width:1.0;" width="134" x="259" y="202.2969"/><path d="M350,202.2969 L350,211.5938 L340,221.5938 L259,221.5938 " fill="none" style="stroke:#181818;stroke-width:1.0;"/><text fill="#000000" font-family="sans-serif" font-size="14" font-weight="bold" lengthAdjust="spacing" textLength="81" x="262" y="216.292">Integratie</text></g><!--cluster Bronnen--><g id="cluster_Bronnen"><rect fill="none" height="96" rx="2.5" ry="2.5" style="stroke:#181818;stroke-width:1.0;" width="158" x="417" y="202.2969"/><path d="M494,202.2969 L494,211.5938 L484,221.5938 L417,221.5938 " fill="none" style="stroke:#181818;stroke-width:1.0;"/><text fill="#000000" font-family="sans-serif" font-size="14" font-weight="bold" lengthAdjust="spacing" textLength="67" x="420" y="216.292">Bronnen</text></g><!--entity Website--><g id="elem_Website"><ellipse cx="233" cy="108.2969" fill="#CCE5FF" rx="8" ry="8" style="stroke:#181818;stroke-width:0.5;"/><text fill="#000000" font-family="sans-serif" font-size="14" lengthAdjust="spacing" textLength="200" x="133" y="138.292">Open Webconcept Website</text></g><!--entity OWS--><g id="elem_OWS"><polygon fill="#1ABC9C" points="397,90.2969,555,90.2969,565,108.4453,555,126.5938,397,126.5938,407,108.4453" style="stroke:#181818;stroke-width:0.5;"/><text fill="#000000" font-family="sans-serif" font-size="14" lengthAdjust="spacing" textLength="128" x="417" y="113.292">OpenWoo Service</text></g><!--entity OI--><g id="elem_OI"><path d="M275,247.2969 C275,237.2969 326,237.2969 326,237.2969 C326,237.2969 377,237.2969 377,247.2969 L377,272.5938 C377,282.5938 326,282.5938 326,282.5938 C326,282.5938 275,282.5938 275,272.5938 L275,247.2969 " fill="#1ABC9C" style="stroke:#181818;stroke-width:0.5;"/><path d="M275,247.2969 C275,257.2969 326,257.2969 326,257.2969 C326,257.2969 377,257.2969 377,247.2969 " fill="none" style="stroke:#181818;stroke-width:0.5;"/><text fill="#000000" font-family="sans-serif" font-size="14" lengthAdjust="spacing" textLength="82" x="285" y="274.292">Open Index</text></g><!--entity CMS--><g id="elem_CMS"><path d="M433.5,247.2969 C433.5,237.2969 496,237.2969 496,237.2969 C496,237.2969 558.5,237.2969 558.5,247.2969 L558.5,272.5938 C558.5,282.5938 496,282.5938 496,282.5938 C496,282.5938 433.5,282.5938 433.5,272.5938 L433.5,247.2969 " fill="#CCE5FF" style="stroke:#181818;stroke-width:0.5;"/><path d="M433.5,247.2969 C433.5,257.2969 496,257.2969 496,257.2969 C496,257.2969 558.5,257.2969 558.5,247.2969 " fill="none" style="stroke:#181818;stroke-width:0.5;"/><text fill="#000000" font-family="sans-serif" font-size="14" lengthAdjust="spacing" textLength="105" x="443.5" y="274.292">Website (CMS)</text></g><!--entity Searchsite--><g id="elem_Searchsite"><ellipse cx="44" cy="108.2969" fill="#F1F1F1" rx="8" ry="8" style="stroke:#181818;stroke-width:0.5;"/><text fill="#000000" font-family="sans-serif" font-size="14" lengthAdjust="spacing" textLength="76" x="6" y="138.292">Searchsite</text></g><!--entity IO--><g id="elem_IO"><ellipse cx="44" cy="259.7969" fill="#F1F1F1" rx="8" ry="8" style="stroke:#181818;stroke-width:0.5;"/><text fill="#000000" font-family="sans-serif" font-size="14" lengthAdjust="spacing" textLength="15" x="36.5" y="289.792">IO</text></g><!--link OWS to CMS--><g id="link_OWS_CMS"><path d="M482.721,126.4469 C485.468,153.8269 490.241,201.4009 493.242,231.3102 " fill="none" id="OWS-to-CMS" style="stroke:#181818;stroke-width:1.0;"/><polygon fill="#181818" points="493.841,237.2802,496.9225,227.9258,493.3418,232.3052,488.9625,228.7245,493.841,237.2802" style="stroke:#181818;stroke-width:1.0;"/><text fill="#000000" font-family="sans-serif" font-size="13" lengthAdjust="spacing" textLength="64" x="489" y="182.3638">Indexeerd</text></g><!--link OWS to OI--><g id="link_OWS_OI"><path d="M459.317,126.5279 C444.962,138.1969 425.919,154.1869 410,169.2969 C386.662,191.4499 365.633,214.1374 349.025,232.6886 " fill="none" id="OWS-to-OI" style="stroke:#181818;stroke-width:1.0;stroke-dasharray:7.0,7.0;"/><polygon fill="#181818" points="345.023,237.1589,354.0063,233.1215,348.358,233.4336,348.0459,227.7854,345.023,237.1589" style="stroke:#181818;stroke-width:1.0;"/><text fill="#000000" font-family="sans-serif" font-size="13" lengthAdjust="spacing" textLength="67" x="411" y="182.3638">Slaat op in</text></g><!--link Searchsite to IO--><g id="link_Searchsite_IO"><path d="M44,117.3349 C44,143.2929 44,218.7048 44,244.7194 " fill="none" id="Searchsite-to-IO" style="stroke:#181818;stroke-width:1.0;"/><polygon fill="#181818" points="44,250.7194,48,241.7194,44,245.7194,40,241.7194,44,250.7194" style="stroke:#181818;stroke-width:1.0;"/><text fill="#000000" font-family="sans-serif" font-size="13" lengthAdjust="spacing" textLength="95" x="45" y="182.3638">Bevraagd (API)</text></g><!--SRC=[RP0zQyCm48Pt_Oh36MeF2QHjXde8D9a4BGwOulaidrA1BHbPJGkb_xsIRRcVcaxtyRpldLEk9IXwqb1HBOmMr3leo87IZiuMdIB6hk3qKhTAX1_qBJffRET7qWV4C-pWYMTCMkm8alyR4tXdu5-0Med2D_xMzE6W72M0GunX9GJjf6GVmK99zg843PFexQ8Oyr6ZjyR_XacXCYOE9X3GHLN2Qekrk1CJbYzxpklSBEIlKcGtwB368Thdkg6tcSj_OW_MQBsSw7fXplc_mBXpUdmii_4AFlX-WU1ytPXNlTw7KZwf4zbcB6qsUsyYXx95T61wVsl6Ia8hdaTk7EK5v72WY_M-6aZlJppx1000]--></g></svg>