<?xml version="1.0" encoding="us-ascii" standalone="no"?><svg xmlns="http://www.w3.org/2000/svg" xmlns:xlink="http://www.w3.org/1999/xlink" contentStyleType="text/css" height="335px" preserveAspectRatio="none" style="width:485px;height:335px;background:#FFFFFF;" version="1.1" viewBox="0 0 485 335" width="485px" zoomAndPan="magnify"><defs/><g><text fill="#888888" font-family="sans-serif" font-size="10" lengthAdjust="spacing" textLength="78" x="393" y="9.2822">OpenWoo.app</text><text fill="#000000" font-family="sans-serif" font-size="14" font-weight="bold" lengthAdjust="spacing" textLength="268" x="101.5" y="35.6357">Open Webconcept met integratie</text><!--cluster Publicatie platformen --><g id="cluster_Publicatie platformen "><rect fill="none" height="109" rx="2.5" ry="2.5" style="stroke:#181818;stroke-width:1.0;" width="248" x="7" y="56.9375"/><path d="M199,56.9375 L199,66.2344 L189,76.2344 L7,76.2344 " fill="none" style="stroke:#181818;stroke-width:1.0;"/><text fill="#000000" font-family="sans-serif" font-size="14" font-weight="bold" lengthAdjust="spacing" textLength="177" x="10" y="70.9326">Publicatie platformen</text></g><!--cluster Services--><g id="cluster_Services"><rect fill="none" height="87" rx="2.5" ry="2.5" style="stroke:#181818;stroke-width:1.0;" width="200" x="279" y="67.9375"/><path d="M356,67.9375 L356,77.2344 L346,87.2344 L279,87.2344 " fill="none" style="stroke:#181818;stroke-width:1.0;"/><text fill="#000000" font-family="sans-serif" font-size="14" font-weight="bold" lengthAdjust="spacing" textLength="67" x="282" y="81.9326">Services</text></g><!--cluster Integratie--><g id="cluster_Integratie"><rect fill="none" height="96" rx="2.5" ry="2.5" style="stroke:#181818;stroke-width:1.0;" width="134" x="103" y="214.9375"/><path d="M194,214.9375 L194,224.2344 L184,234.2344 L103,234.2344 " fill="none" style="stroke:#181818;stroke-width:1.0;"/><text fill="#000000" font-family="sans-serif" font-size="14" font-weight="bold" lengthAdjust="spacing" textLength="81" x="106" y="228.9326">Integratie</text></g><!--cluster Bronnen--><g id="cluster_Bronnen"><rect fill="none" height="96" rx="2.5" ry="2.5" style="stroke:#181818;stroke-width:1.0;" width="158" x="300" y="214.9375"/><path d="M377,214.9375 L377,224.2344 L367,234.2344 L300,234.2344 " fill="none" style="stroke:#181818;stroke-width:1.0;"/><text fill="#000000" font-family="sans-serif" font-size="14" font-weight="bold" lengthAdjust="spacing" textLength="67" x="303" y="228.9326">Bronnen</text></g><!--entity Website--><g id="elem_Website"><ellipse cx="131" cy="120.9375" fill="#CCE5FF" rx="8" ry="8" style="stroke:#181818;stroke-width:0.5;"/><text fill="#000000" font-family="sans-serif" font-size="14" lengthAdjust="spacing" textLength="200" x="31" y="150.9326">Open Webconcept Website</text></g><!--entity OWS--><g id="elem_OWS"><polygon fill="#1ABC9C" points="295,102.9375,453,102.9375,463,121.0859,453,139.2344,295,139.2344,305,121.0859" style="stroke:#181818;stroke-width:0.5;"/><text fill="#000000" font-family="sans-serif" font-size="14" lengthAdjust="spacing" textLength="128" x="315" y="125.9326">OpenWoo Service</text></g><!--entity OI--><g id="elem_OI"><path d="M119,259.9375 C119,249.9375 170,249.9375 170,249.9375 C170,249.9375 221,249.9375 221,259.9375 L221,285.2344 C221,295.2344 170,295.2344 170,295.2344 C170,295.2344 119,295.2344 119,285.2344 L119,259.9375 " fill="#1ABC9C" style="stroke:#181818;stroke-width:0.5;"/><path d="M119,259.9375 C119,269.9375 170,269.9375 170,269.9375 C170,269.9375 221,269.9375 221,259.9375 " fill="none" style="stroke:#181818;stroke-width:0.5;"/><text fill="#000000" font-family="sans-serif" font-size="14" lengthAdjust="spacing" textLength="82" x="129" y="286.9326">Open Index</text></g><!--entity CMS--><g id="elem_CMS"><path d="M316.5,259.9375 C316.5,249.9375 379,249.9375 379,249.9375 C379,249.9375 441.5,249.9375 441.5,259.9375 L441.5,285.2344 C441.5,295.2344 379,295.2344 379,295.2344 C379,295.2344 316.5,295.2344 316.5,285.2344 L316.5,259.9375 " fill="#CCE5FF" style="stroke:#181818;stroke-width:0.5;"/><path d="M316.5,259.9375 C316.5,269.9375 379,269.9375 379,269.9375 C379,269.9375 441.5,269.9375 441.5,259.9375 " fill="none" style="stroke:#181818;stroke-width:0.5;"/><text fill="#000000" font-family="sans-serif" font-size="14" lengthAdjust="spacing" textLength="105" x="326.5" y="286.9326">Website (CMS)</text></g><!--link OWS to CMS--><g id="link_OWS_CMS"><path d="M379,139.0875 C379,166.4675 379,214.0115 379,243.9208 " fill="none" id="OWS-to-CMS" style="stroke:#181818;stroke-width:1.0;"/><polygon fill="#181818" points="379,249.9208,383,240.9208,379,244.9208,375,240.9208,379,249.9208" style="stroke:#181818;stroke-width:1.0;"/><text fill="#000000" font-family="sans-serif" font-size="13" lengthAdjust="spacing" textLength="64" x="380" y="195.0044">Indexeerd</text></g><!--link OWS to OI--><g id="link_OWS_OI"><path d="M355.025,139.0875 C316.747,166.4675 246.773,216.5208 204.96,246.4301 " fill="none" id="OWS-to-OI" style="stroke:#181818;stroke-width:1.0;stroke-dasharray:7.0,7.0;"/><polygon fill="#181818" points="200.08,249.9208,209.7272,247.938,204.1467,247.0118,205.0729,241.4313,200.08,249.9208" style="stroke:#181818;stroke-width:1.0;"/><text fill="#000000" font-family="sans-serif" font-size="13" lengthAdjust="spacing" textLength="67" x="295" y="195.0044">Slaat op in</text></g><!--link Website to OI--><g id="link_Website_OI"><path d="M129.297,130.2035 C126.679,144.4945 122.602,174.6245 129,198.9375 C133.858,217.3965 141.2578,231.1167 150.5308,244.9002 " fill="none" id="Website-to-OI" style="stroke:#181818;stroke-width:1.0;"/><polygon fill="#181818" points="153.88,249.8785,152.1751,240.1783,151.089,245.73,145.5374,244.6439,153.88,249.8785" style="stroke:#181818;stroke-width:1.0;"/><text fill="#000000" font-family="sans-serif" font-size="13" lengthAdjust="spacing" textLength="95" x="130" y="195.0044">Bevraagd (API)</text></g><text fill="#888888" font-family="sans-serif" font-size="10" lengthAdjust="spacing" textLength="78" x="196.5" y="325.2197">OpenWoo.app</text><!--SRC=[RP3BJiCm44Nt_efHkY1PD1AFBiYY4cKL2THA4SfwOe-BfSIs75EG4F-Eyt205g_6ypZtpdZbMuAz9GqrDTneJjP3HnwKzdHqw1KnQOmdLunjjJ4vMijU2SLvZbt1uQrf5H-cmBRefN5TGATFY4VOm4kPCUcm8qZ-RqpWaq5uWxYJo4FZkRSGzifJ0jZ765QSqqPAzZLOgCYT5AT-4hrR56C-QbXdmg-V5C8ASJ210RslArXTOyFl-OGjbtlCwzmkv9zIP0lqs60VxPTQqCVCBVzYTyvelPpePc7E-KjWt3bzVAwoyGeX-7s1mVbQc7UztWwbOb8dSc8ivVasc2YWQX4z61jkpLY4nhdWie0TdLmm9I1zE9JPDm00]--></g></svg>