<?xml version="1.0" encoding="us-ascii" standalone="no"?><svg xmlns="http://www.w3.org/2000/svg" xmlns:xlink="http://www.w3.org/1999/xlink" contentStyleType="text/css" height="335px" preserveAspectRatio="none" style="width:515px;height:335px;background:#FFFFFF;" version="1.1" viewBox="0 0 515 335" width="515px" zoomAndPan="magnify"><defs/><g><text fill="#888888" font-family="sans-serif" font-size="10" lengthAdjust="spacing" textLength="78" x="423" y="9.2822">OpenWoo.app</text><text fill="#000000" font-family="sans-serif" font-size="14" font-weight="bold" lengthAdjust="spacing" textLength="268" x="116.5" y="35.6357">Open Webconcept met integratie</text><!--cluster Publicatie platformen --><g id="cluster_Publicatie platformen "><rect fill="none" height="109" rx="2.5" ry="2.5" style="stroke:#181818;stroke-width:1.0;" width="248" x="7" y="56.9375"/><path d="M199,56.9375 L199,66.2344 L189,76.2344 L7,76.2344 " fill="none" style="stroke:#181818;stroke-width:1.0;"/><text fill="#000000" font-family="sans-serif" font-size="14" font-weight="bold" lengthAdjust="spacing" textLength="177" x="10" y="70.9326">Publicatie platformen</text></g><!--cluster Services--><g id="cluster_Services"><rect fill="none" height="87" rx="2.5" ry="2.5" style="stroke:#181818;stroke-width:1.0;" width="200" x="286" y="67.9375"/><path d="M363,67.9375 L363,77.2344 L353,87.2344 L286,87.2344 " fill="none" style="stroke:#181818;stroke-width:1.0;"/><text fill="#000000" font-family="sans-serif" font-size="14" font-weight="bold" lengthAdjust="spacing" textLength="67" x="289" y="81.9326">Services</text></g><!--cluster Integratie--><g id="cluster_Integratie"><rect fill="none" height="96" rx="2.5" ry="2.5" style="stroke:#181818;stroke-width:1.0;" width="134" x="193" y="214.9375"/><path d="M284,214.9375 L284,224.2344 L274,234.2344 L193,234.2344 " fill="none" style="stroke:#181818;stroke-width:1.0;"/><text fill="#000000" font-family="sans-serif" font-size="14" font-weight="bold" lengthAdjust="spacing" textLength="81" x="196" y="228.9326">Integratie</text></g><!--cluster Bronnen--><g id="cluster_Bronnen"><rect fill="none" height="96" rx="2.5" ry="2.5" style="stroke:#181818;stroke-width:1.0;" width="158" x="351" y="214.9375"/><path d="M428,214.9375 L428,224.2344 L418,234.2344 L351,234.2344 " fill="none" style="stroke:#181818;stroke-width:1.0;"/><text fill="#000000" font-family="sans-serif" font-size="14" font-weight="bold" lengthAdjust="spacing" textLength="67" x="354" y="228.9326">Bronnen</text></g><!--entity Website--><g id="elem_Website"><ellipse cx="131" cy="120.9375" fill="#CCE5FF" rx="8" ry="8" style="stroke:#181818;stroke-width:0.5;"/><text fill="#000000" font-family="sans-serif" font-size="14" lengthAdjust="spacing" textLength="200" x="31" y="150.9326">Open Webconcept Website</text></g><!--entity OWS--><g id="elem_OWS"><polygon fill="#1ABC9C" points="302,102.9375,460,102.9375,470,121.0859,460,139.2344,302,139.2344,312,121.0859" style="stroke:#181818;stroke-width:0.5;"/><text fill="#000000" font-family="sans-serif" font-size="14" lengthAdjust="spacing" textLength="128" x="322" y="125.9326">OpenWoo Service</text></g><!--entity OI--><g id="elem_OI"><path d="M209,259.9375 C209,249.9375 260,249.9375 260,249.9375 C260,249.9375 311,249.9375 311,259.9375 L311,285.2344 C311,295.2344 260,295.2344 260,295.2344 C260,295.2344 209,295.2344 209,285.2344 L209,259.9375 " fill="#1ABC9C" style="stroke:#181818;stroke-width:0.5;"/><path d="M209,259.9375 C209,269.9375 260,269.9375 260,269.9375 C260,269.9375 311,269.9375 311,259.9375 " fill="none" style="stroke:#181818;stroke-width:0.5;"/><text fill="#000000" font-family="sans-serif" font-size="14" lengthAdjust="spacing" textLength="82" x="219" y="286.9326">Open Index</text></g><!--entity CMS--><g id="elem_CMS"><path d="M367.5,259.9375 C367.5,249.9375 430,249.9375 430,249.9375 C430,249.9375 492.5,249.9375 492.5,259.9375 L492.5,285.2344 C492.5,295.2344 430,295.2344 430,295.2344 C430,295.2344 367.5,295.2344 367.5,285.2344 L367.5,259.9375 " fill="#CCE5FF" style="stroke:#181818;stroke-width:0.5;"/><path d="M367.5,259.9375 C367.5,269.9375 430,269.9375 430,269.9375 C430,269.9375 492.5,269.9375 492.5,259.9375 " fill="none" style="stroke:#181818;stroke-width:0.5;"/><text fill="#000000" font-family="sans-serif" font-size="14" lengthAdjust="spacing" textLength="105" x="377.5" y="286.9326">Website (CMS)</text></g><!--entity IO--><g id="elem_IO"><ellipse cx="131" cy="272.4375" fill="#F1F1F1" rx="8" ry="8" style="stroke:#181818;stroke-width:0.5;"/><text fill="#000000" font-family="sans-serif" font-size="14" lengthAdjust="spacing" textLength="15" x="123.5" y="302.4326">IO</text></g><!--link OWS to CMS--><g id="link_OWS_CMS"><path d="M391.047,139.0875 C399.106,166.4675 413.1711,214.2556 421.9731,244.1649 " fill="none" id="OWS-to-CMS" style="stroke:#181818;stroke-width:1.0;"/><polygon fill="#181818" points="423.667,249.9208,424.9634,240.1576,422.2554,245.1242,417.2889,242.4162,423.667,249.9208" style="stroke:#181818;stroke-width:1.0;"/><text fill="#000000" font-family="sans-serif" font-size="13" lengthAdjust="spacing" textLength="64" x="409" y="195.0044">Indexeerd</text></g><!--link OWS to OI--><g id="link_OWS_OI"><path d="M368.061,138.9375 C356.023,150.6405 340.043,166.7565 327,181.9375 C307.9,204.1675 291.485,226.412 278.391,244.9387 " fill="none" id="OWS-to-OI" style="stroke:#181818;stroke-width:1.0;stroke-dasharray:7.0,7.0;"/><polygon fill="#181818" points="274.928,249.8385,283.389,244.7975,277.8138,245.7554,276.856,240.1802,274.928,249.8385" style="stroke:#181818;stroke-width:1.0;"/><text fill="#000000" font-family="sans-serif" font-size="13" lengthAdjust="spacing" textLength="67" x="328" y="195.0044">Slaat op in</text></g><!--link Website to IO--><g id="link_Website_IO"><path d="M131,129.9755 C131,155.9335 131,231.3454 131,257.36 " fill="none" id="Website-to-IO" style="stroke:#181818;stroke-width:1.0;"/><polygon fill="#181818" points="131,263.36,135,254.36,131,258.36,127,254.36,131,263.36" style="stroke:#181818;stroke-width:1.0;"/><text fill="#000000" font-family="sans-serif" font-size="13" lengthAdjust="spacing" textLength="95" x="132" y="195.0044">Bevraagd (API)</text></g><text fill="#888888" font-family="sans-serif" font-size="10" lengthAdjust="spacing" textLength="78" x="211.5" y="325.2197">OpenWoo.app</text><!--SRC=[RP0zJyCm48Pt_ufJEf0EZSH71p9KeaoHGAaKeSmN-rmY9RRbc8A4-E_OIHoWnTFvFfxtlNEjwmXAGmfgQhXMd8o3dXoqoj7Heck9IQqTsNnigxNEq1ZsIYZES-mA3czDr_8m1QP39xNjFJfzGZp25bwADPCMUuBa_yO4FXdu5yIjHEuRpxtvS6WT9O13Z675EMsbP5_1GaNsr78Q9j6xHJ7ceuQnsl-6IS6l40SJ2EYohc1rZGs_vnEsMEunhtExa7zAaItGOOD3j5yeGHypj_YBtLkjr7AYcuKvvo-1SUVqyRbQZrVmmUyB1ESReT_LPXTA-QHEPCLOohATDv53rI4wqCRVch48ZND52JdiwMIzAG7fmw5OVmC0]--></g></svg>