<?xml version="1.0" encoding="us-ascii" standalone="no"?><svg xmlns="http://www.w3.org/2000/svg" xmlns:xlink="http://www.w3.org/1999/xlink" contentStyleType="text/css" height="335px" preserveAspectRatio="none" style="width:485px;height:335px;background:#FFFFFF;" version="1.1" viewBox="0 0 485 335" width="485px" zoomAndPan="magnify"><defs/><g><text fill="#888888" font-family="sans-serif" font-size="10" lengthAdjust="spacing" textLength="78" x="393" y="9.2822">OpenWoo.app</text><text fill="#000000" font-family="sans-serif" font-size="14" font-weight="bold" lengthAdjust="spacing" textLength="268" x="101.5" y="35.6357">Open Webconcept met integratie</text><!--cluster Publicatie platformen --><g id="cluster_Publicatie platformen "><rect fill="none" height="109" rx="2.5" ry="2.5" style="stroke:#181818;stroke-width:1.0;" width="248" x="231" y="56.9375"/><path d="M423,56.9375 L423,66.2344 L413,76.2344 L231,76.2344 " fill="none" style="stroke:#181818;stroke-width:1.0;"/><text fill="#000000" font-family="sans-serif" font-size="14" font-weight="bold" lengthAdjust="spacing" textLength="177" x="234" y="70.9326">Publicatie platformen</text></g><!--cluster Services--><g id="cluster_Services"><rect fill="none" height="87" rx="2.5" ry="2.5" style="stroke:#181818;stroke-width:1.0;" width="200" x="7" y="67.9375"/><path d="M84,67.9375 L84,77.2344 L74,87.2344 L7,87.2344 " fill="none" style="stroke:#181818;stroke-width:1.0;"/><text fill="#000000" font-family="sans-serif" font-size="14" font-weight="bold" lengthAdjust="spacing" textLength="67" x="10" y="81.9326">Services</text></g><!--cluster Integratie--><g id="cluster_Integratie"><rect fill="none" height="96" rx="2.5" ry="2.5" style="stroke:#181818;stroke-width:1.0;" width="134" x="288" y="214.9375"/><path d="M379,214.9375 L379,224.2344 L369,234.2344 L288,234.2344 " fill="none" style="stroke:#181818;stroke-width:1.0;"/><text fill="#000000" font-family="sans-serif" font-size="14" font-weight="bold" lengthAdjust="spacing" textLength="81" x="291" y="228.9326">Integratie</text></g><!--cluster Bronnen--><g id="cluster_Bronnen"><rect fill="none" height="96" rx="2.5" ry="2.5" style="stroke:#181818;stroke-width:1.0;" width="158" x="71" y="214.9375"/><path d="M148,214.9375 L148,224.2344 L138,234.2344 L71,234.2344 " fill="none" style="stroke:#181818;stroke-width:1.0;"/><text fill="#000000" font-family="sans-serif" font-size="14" font-weight="bold" lengthAdjust="spacing" textLength="67" x="74" y="228.9326">Bronnen</text></g><!--entity Website--><g id="elem_Website"><ellipse cx="355" cy="120.9375" fill="#CCE5FF" rx="8" ry="8" style="stroke:#181818;stroke-width:0.5;"/><text fill="#000000" font-family="sans-serif" font-size="14" lengthAdjust="spacing" textLength="200" x="255" y="150.9326">Open Webconcept Website</text></g><!--entity OWS--><g id="elem_OWS"><polygon fill="#1ABC9C" points="23,102.9375,181,102.9375,191,121.0859,181,139.2344,23,139.2344,33,121.0859" style="stroke:#181818;stroke-width:0.5;"/><text fill="#000000" font-family="sans-serif" font-size="14" lengthAdjust="spacing" textLength="128" x="43" y="125.9326">OpenWoo Service</text></g><!--entity IO--><g id="elem_IO"><path d="M304,259.9375 C304,249.9375 355,249.9375 355,249.9375 C355,249.9375 406,249.9375 406,259.9375 L406,285.2344 C406,295.2344 355,295.2344 355,295.2344 C355,295.2344 304,295.2344 304,285.2344 L304,259.9375 " fill="#1ABC9C" style="stroke:#181818;stroke-width:0.5;"/><path d="M304,259.9375 C304,269.9375 355,269.9375 355,269.9375 C355,269.9375 406,269.9375 406,259.9375 " fill="none" style="stroke:#181818;stroke-width:0.5;"/><text fill="#000000" font-family="sans-serif" font-size="14" lengthAdjust="spacing" textLength="82" x="314" y="286.9326">Open Index</text></g><!--entity CMS--><g id="elem_CMS"><path d="M87.5,259.9375 C87.5,249.9375 150,249.9375 150,249.9375 C150,249.9375 212.5,249.9375 212.5,259.9375 L212.5,285.2344 C212.5,295.2344 150,295.2344 150,295.2344 C150,295.2344 87.5,295.2344 87.5,285.2344 L87.5,259.9375 " fill="#CCE5FF" style="stroke:#181818;stroke-width:0.5;"/><path d="M87.5,259.9375 C87.5,269.9375 150,269.9375 150,269.9375 C150,269.9375 212.5,269.9375 212.5,259.9375 " fill="none" style="stroke:#181818;stroke-width:0.5;"/><text fill="#000000" font-family="sans-serif" font-size="14" lengthAdjust="spacing" textLength="105" x="97.5" y="286.9326">Website (CMS)</text></g><!--entity OI--><g id="elem_OI"><ellipse cx="25" cy="272.4375" fill="#F1F1F1" rx="8" ry="8" style="stroke:#181818;stroke-width:0.5;"/><text fill="#000000" font-family="sans-serif" font-size="14" lengthAdjust="spacing" textLength="15" x="17.5" y="302.4326">OI</text></g><!--link OWS to CMS--><g id="link_OWS_CMS"><path d="M111.933,139.0875 C119.808,166.4675 133.5506,214.2452 142.1526,244.1545 " fill="none" id="OWS-to-CMS" style="stroke:#181818;stroke-width:1.0;"/><polygon fill="#181818" points="143.811,249.9208,145.1676,240.1658,142.429,245.1156,137.4792,242.377,143.811,249.9208" style="stroke:#181818;stroke-width:1.0;"/><text fill="#000000" font-family="sans-serif" font-size="13" lengthAdjust="spacing" textLength="64" x="130" y="195.0044">Indexeerd</text></g><!--link OWS to OI--><g id="link_OWS_OI"><path d="M85.2703,138.9655 C72.6428,149.9545 57.4139,165.2745 48,181.9375 C32.6115,209.1745 27.9209,240.8772 26.2736,257.2838 " fill="none" id="OWS-to-OI" style="stroke:#181818;stroke-width:1.0;stroke-dasharray:7.0,7.0;"/><polygon fill="#181818" points="25.6742,263.2538,30.5533,254.6984,26.1737,258.2788,22.5933,253.8992,25.6742,263.2538" style="stroke:#181818;stroke-width:1.0;"/><text fill="#000000" font-family="sans-serif" font-size="13" lengthAdjust="spacing" textLength="67" x="49" y="195.0044">Slaat op in</text></g><!--link Website to IO--><g id="link_Website_IO"><path d="M355,129.9755 C355,152.3555 355,209.9535 355,243.7339 " fill="none" id="Website-to-IO" style="stroke:#181818;stroke-width:1.0;"/><polygon fill="#181818" points="355,249.7339,359,240.7339,355,244.7339,351,240.7339,355,249.7339" style="stroke:#181818;stroke-width:1.0;"/><text fill="#000000" font-family="sans-serif" font-size="13" lengthAdjust="spacing" textLength="95" x="356" y="195.0044">Bevraagd (API)</text></g><text fill="#888888" font-family="sans-serif" font-size="10" lengthAdjust="spacing" textLength="78" x="196.5" y="325.2197">OpenWoo.app</text><!--SRC=[RP0zJyCm48Pt_ufJEf0CZSH71p9KeaoMGAaKeSmNvrmY9RRbc8A4-E_OIHsWnTFvFfxtlNETwmbAGmfgQeHMWeo3WHnqoj71ekk8IQqTsM9ggxNEqHZsIjYUvzWLxD-QlXDX2aoFJcexU7JwX7Y03RpmZ4cB0q7oVsC2dmpy2-9Mel2DvzvyE7QE4i0nnh0IWZPIigzWeI9xx0IDi-ZTeXZpKSDOxN_ZhE1NY8C917HPLx2wnaRSYndBbtkSrhbTo3-bo6xHOODZjCzLInypbvT_iJkhbLfETBCmJ_bBODmvVNokikaAFlXzWU1ytUftjTw6KZ6h4zbsAkNv5afUGDKZEj36tvgn28rptcK1EpfQRwg5z67Fisy0]--></g></svg>