<?xml version="1.0" encoding="us-ascii" standalone="no"?><svg xmlns="http://www.w3.org/2000/svg" xmlns:xlink="http://www.w3.org/1999/xlink" contentStyleType="text/css" height="362px" preserveAspectRatio="none" style="width:1106px;height:362px;background:#FFFFFF;" version="1.1" viewBox="0 0 1106 362" width="1106px" zoomAndPan="magnify"><defs/><g><text fill="#000000" font-family="sans-serif" font-size="14" font-weight="bold" lengthAdjust="spacing" textLength="268" x="412.2402" y="22.9951">Open Webconcept met integratie</text><!--entity Website--><g id="elem_Website"><ellipse cx="309.4805" cy="51.2969" fill="#F1F1F1" rx="8" ry="8" style="stroke:#181818;stroke-width:0.5;"/><text fill="#000000" font-family="sans-serif" font-size="14" lengthAdjust="spacing" textLength="200" x="209.4805" y="81.292">Open Webconcept Website</text></g><!--entity Harvester--><g id="elem_Harvester"><ellipse cx="516.4805" cy="51.2969" fill="#F1F1F1" rx="8" ry="8" style="stroke:#181818;stroke-width:0.5;"/><text fill="#000000" font-family="sans-serif" font-size="14" lengthAdjust="spacing" textLength="112" x="460.4805" y="81.292">Koop Harvester</text></g><!--entity Api--><g id="elem_Api"><ellipse cx="750.4805" cy="51.2969" fill="#F1F1F1" rx="8" ry="8" style="stroke:#181818;stroke-width:0.5;"/><text fill="#000000" font-family="sans-serif" font-size="14" lengthAdjust="spacing" textLength="23" x="738.9805" y="81.292">API</text></g><!--entity CMS--><g id="elem_CMS"><rect fill="#F1F1F1" height="46.2969" rx="2.5" ry="2.5" style="stroke:#181818;stroke-width:0.5;" width="211" x="9.9805" y="301.2969"/><rect fill="#F1F1F1" height="10" style="stroke:#181818;stroke-width:0.5;" width="15" x="200.9805" y="306.2969"/><rect fill="#F1F1F1" height="2" style="stroke:#181818;stroke-width:0.5;" width="4" x="198.9805" y="308.2969"/><rect fill="#F1F1F1" height="2" style="stroke:#181818;stroke-width:0.5;" width="4" x="198.9805" y="312.2969"/><text fill="#000000" font-family="sans-serif" font-size="14" lengthAdjust="spacing" textLength="171" x="24.9804" y="334.292">Open Webconcept CMS</text></g><!--entity Integratie--><g id="elem_Integratie"><rect fill="#F1F1F1" height="46.2969" rx="2.5" ry="2.5" style="stroke:#181818;stroke-width:0.5;" width="112" x="460.4805" y="157.2969"/><rect fill="#F1F1F1" height="10" style="stroke:#181818;stroke-width:0.5;" width="15" x="552.4805" y="162.2969"/><rect fill="#F1F1F1" height="2" style="stroke:#181818;stroke-width:0.5;" width="4" x="550.4805" y="164.2969"/><rect fill="#F1F1F1" height="2" style="stroke:#181818;stroke-width:0.5;" width="4" x="550.4805" y="168.2969"/><text fill="#000000" font-family="sans-serif" font-size="14" lengthAdjust="spacing" textLength="72" x="475.4805" y="190.292">Integratie</text></g><!--entity Zaaksysteem--><g id="elem_Zaaksysteem"><rect fill="#F1F1F1" height="46.2969" rx="2.5" ry="2.5" style="stroke:#181818;stroke-width:0.5;" width="136" x="448.4805" y="301.2969"/><rect fill="#F1F1F1" height="10" style="stroke:#181818;stroke-width:0.5;" width="15" x="564.4805" y="306.2969"/><rect fill="#F1F1F1" height="2" style="stroke:#181818;stroke-width:0.5;" width="4" x="562.4805" y="308.2969"/><rect fill="#F1F1F1" height="2" style="stroke:#181818;stroke-width:0.5;" width="4" x="562.4805" y="312.2969"/><text fill="#000000" font-family="sans-serif" font-size="14" lengthAdjust="spacing" textLength="96" x="463.4805" y="334.292">Zaaksysteem</text></g><!--entity API--><g id="elem_API"><ellipse cx="661.4805" cy="51.2969" fill="#F1F1F1" rx="8" ry="8" style="stroke:#181818;stroke-width:0.5;"/><text fill="#000000" font-family="sans-serif" font-size="14" lengthAdjust="spacing" textLength="23" x="649.9805" y="81.292">API</text></g><!--entity Raadsinfo--><g id="elem_Raadsinfo"><ellipse cx="834.4805" cy="324.2969" fill="#F1F1F1" rx="8" ry="8" style="stroke:#181818;stroke-width:0.5;"/><text fill="#000000" font-family="sans-serif" font-size="14" lengthAdjust="spacing" textLength="70" x="799.4805" y="354.292">Raadsinfo</text></g><!--entity eDepot--><g id="elem_eDepot"><ellipse cx="1003.4805" cy="324.2969" fill="#F1F1F1" rx="8" ry="8" style="stroke:#181818;stroke-width:0.5;"/><text fill="#000000" font-family="sans-serif" font-size="14" lengthAdjust="spacing" textLength="55" x="975.9805" y="354.292">eDepot</text></g><!--link API to Integratie--><g id="link_API_Integratie"><path d="M659.1665,60.3239 C654.4965,75.2649 642.6375,107.6069 622.4805,127.2969 C608.4775,140.9759 595.6184,149.1709 578.1674,157.2239 " fill="none" id="API-to-Integratie" style="stroke:#181818;stroke-width:1.0;"/><polygon fill="#181818" points="572.7195,159.7379,582.5673,159.5988,577.2594,157.6429,579.2153,152.3349,572.7195,159.7379" style="stroke:#181818;stroke-width:1.0;"/><text fill="#000000" font-family="sans-serif" font-size="13" lengthAdjust="spacing" textLength="120" x="637.4805" y="123.3638">Directly connected</text></g><!--link Website to Integratie--><g id="link_Website_Integratie"><path d="M315.5435,60.3939 C327.1905,75.4509 354.1495,107.9799 383.4805,127.2969 C406.8775,142.7059 429.8607,152.6866 454.5737,161.2146 " fill="none" id="Website-to-Integratie" style="stroke:#181818;stroke-width:1.0;"/><polygon fill="#181818" points="460.2455,163.1719,453.0426,156.4548,455.519,161.5408,450.4329,164.0172,460.2455,163.1719" style="stroke:#181818;stroke-width:1.0;"/><text fill="#000000" font-family="sans-serif" font-size="13" lengthAdjust="spacing" textLength="120" x="384.4805" y="123.3638">Directly connected</text></g><!--link Harvester to Integratie--><g id="link_Harvester_Integratie"><path d="M515.7735,60.6189 C514.6825,74.4549 512.7825,103.0689 513.4805,127.2969 C513.7645,137.1499 513.9759,142.0506 514.5549,151.3076 " fill="none" id="Harvester-to-Integratie" style="stroke:#181818;stroke-width:1.0;"/><polygon fill="#181818" points="514.9295,157.2959,518.3598,148.0637,514.6173,152.3056,510.3754,148.5631,514.9295,157.2959" style="stroke:#181818;stroke-width:1.0;"/><text fill="#000000" font-family="sans-serif" font-size="13" lengthAdjust="spacing" textLength="103" x="514.4805" y="123.3638">Generated from</text></g><!--link Integratie to CMS--><g id="link_Integratie_CMS"><path d="M460.1585,183.1339 C337.7245,187.7069 55.9887,201.5959 27.4804,233.2969 C6,257.1827 32.9968,280.3326 64.3152,298.2536 " fill="none" id="Integratie-to-CMS" style="stroke:#181818;stroke-width:1.0;"/><polygon fill="#181818" points="69.5229,301.2336,63.698,293.2919,65.1831,298.7503,59.7247,300.2355,69.5229,301.2336" style="stroke:#181818;stroke-width:1.0;"/><text fill="#000000" font-family="sans-serif" font-size="13" lengthAdjust="spacing" textLength="127" x="28.4804" y="246.3638">Scrapes periodically</text><text fill="#000000" font-family="sans-serif" font-size="13" lengthAdjust="spacing" textLength="97" x="43.4805" y="261.4966">Uses as source</text></g><!--reverse link Integratie to CMS--><g id="link_Integratie_CMS"><path d="M454.4891,183.0868 C393.5601,186.5548 300.5445,197.4679 223.4805,233.2969 C188.5115,249.5549 155.5684,280.027 135.4705,300.975 " fill="none" id="Integratie-backto-CMS" style="stroke:#181818;stroke-width:1.0;"/><polygon fill="#181818" points="460.4795,182.7459,451.2667,179.2638,455.4875,183.03,451.7213,187.2509,460.4795,182.7459" style="stroke:#181818;stroke-width:1.0;"/><text fill="#000000" font-family="sans-serif" font-size="13" lengthAdjust="spacing" textLength="191" x="224.4805" y="253.8638">Notifies of changes or deletes</text></g><!--link Integratie to Zaaksysteem--><g id="link_Integratie_Zaaksysteem"><path d="M460.4085,203.3159 C448.0855,210.9009 436.6005,220.7469 429.4805,233.2969 C422.4625,245.6669 422.7695,252.7579 429.4805,265.2969 C437.5325,280.3416 446.3084,288.9843 460.6374,297.9145 " fill="none" id="Integratie-to-Zaaksysteem" style="stroke:#181818;stroke-width:1.0;"/><polygon fill="#181818" points="465.7295,301.088,460.207,292.933,461.4861,298.4434,455.9757,299.7224,465.7295,301.088" style="stroke:#181818;stroke-width:1.0;"/><text fill="#000000" font-family="sans-serif" font-size="13" lengthAdjust="spacing" textLength="127" x="430.4805" y="246.3638">Scrapes periodically</text><text fill="#000000" font-family="sans-serif" font-size="13" lengthAdjust="spacing" textLength="97" x="445.4805" y="261.4966">Uses as source</text></g><!--reverse link Integratie to Zaaksysteem--><g id="link_Integratie_Zaaksysteem"><path d="M546.5268,207.7401 C554.5498,216.1821 558.2535,222.1379 562.4805,233.2969 C567.5185,246.5969 567.1595,251.8669 562.4805,265.2969 C557.8295,278.6469 548.6825,291.2329 539.7615,301.2466 " fill="none" id="Integratie-backto-Zaaksysteem" style="stroke:#181818;stroke-width:1.0;"/><polygon fill="#181818" points="542.3935,203.3909,545.694,212.6702,545.8379,207.0152,551.4929,207.1591,542.3935,203.3909" style="stroke:#181818;stroke-width:1.0;"/><text fill="#000000" font-family="sans-serif" font-size="13" lengthAdjust="spacing" textLength="191" x="567.4805" y="253.8638">Notifies of changes or deletes</text></g><!--link Integratie to Raadsinfo--><g id="link_Integratie_Raadsinfo"><path d="M572.6015,181.7059 C626.4765,184.5489 708.1925,195.4979 767.4805,233.2969 C800.3305,254.2405 820.2363,291.9416 828.4703,309.818 " fill="none" id="Integratie-to-Raadsinfo" style="stroke:#181818;stroke-width:1.0;"/><polygon fill="#181818" points="830.9805,315.2677,830.8483,305.4197,828.8886,310.7263,823.5821,308.7666,830.9805,315.2677" style="stroke:#181818;stroke-width:1.0;"/><text fill="#000000" font-family="sans-serif" font-size="13" lengthAdjust="spacing" textLength="127" x="802.4805" y="246.3638">Scrapes periodically</text><text fill="#000000" font-family="sans-serif" font-size="13" lengthAdjust="spacing" textLength="97" x="817.4805" y="261.4966">Uses as source</text></g><!--link Integratie to eDepot--><g id="link_Integratie_eDepot"><path d="M572.5455,182.7129 C672.7565,186.1309 877.7975,197.4179 938.4805,233.2969 C971.6625,252.9159 990.3648,291.2724 997.9678,309.5382 " fill="none" id="Integratie-to-eDepot" style="stroke:#181818;stroke-width:1.0;"/><polygon fill="#181818" points="1000.2735,315.0775,1000.5078,305.2314,998.352,310.4614,993.1221,308.3057,1000.2735,315.0775" style="stroke:#181818;stroke-width:1.0;"/><text fill="#000000" font-family="sans-serif" font-size="13" lengthAdjust="spacing" textLength="127" x="971.4805" y="246.3638">Scrapes periodically</text><text fill="#000000" font-family="sans-serif" font-size="13" lengthAdjust="spacing" textLength="97" x="986.4805" y="261.4966">Uses as source</text></g><!--SRC=[fL71IWCn4BtdAuPUFEqFU11g2rgaAYqYY9UOl6r3TpCXIPN-lREhtORQGwMdlCoyztWparrkG4y1dbxnOTWRX4mjCZcViOewEoXrHIy9aMPIYhKse0ctWJryLcweZOvT12QNCIATzhYaFp07kjVn4qbgFMlubRpnywnlZeFhajngiu6tXmX9cJtycs4oN_PYUKlQR1Ykxnw-9UbDwqtQIHoqFQluTq4MQ4J1FgrTI4fIKcNvorStXHrTqzH5cDpiI29vGR3gTnbdyuUrd5RSmKCmBDMHMrNqzdIPNdXB4tL0ee3es3gZcsRtxkMogPikyJOQd58NSr_Wij3Q9kThli03KmJEvnh8ZHuvkrhQ_PrKjuPg6uxtzqCIATTarjglEXZ9ea56KkNu_rP_0m00]--></g></svg>