<svg xmlns="http://www.w3.org/2000/svg" xmlns:xlink="http://www.w3.org/1999/xlink" contentStyleType="text/css" height="354px" preserveAspectRatio="none" style="width:882px;height:354px;background:#FFFFFF;" version="1.1" viewBox="0 0 882 354" width="882px" zoomAndPan="magnify"><defs/><g><text fill="#888888" font-family="sans-serif" font-size="10" lengthAdjust="spacing" textLength="68" x="800.97" y="9.2822">OpenWoo.app</text><text fill="#000000" font-family="sans-serif" font-size="14" font-weight="bold" lengthAdjust="spacing" textLength="167" x="350.985" y="35.6357">Publicatie platformen</text><!--cluster Publicatie platformen --><g id="cluster_Publicatie platformen "><rect fill="none" height="127.29" rx="2.5" ry="2.5" style="stroke:#181818;stroke-width:1.0;" width="800" x="71.97" y="56.9375"/><path d="M253.97,56.9375 L253.97,66.2344 L243.97,76.2344 L71.97,76.2344 " fill="none" style="stroke:#181818;stroke-width:1.0;"/><text fill="#000000" font-family="sans-serif" font-size="14" font-weight="bold" lengthAdjust="spacing" textLength="167" x="74.97" y="70.9326">Publicatie platformen</text></g><!--cluster API's (Laag 2)--><g id="cluster_API's (Laag 2)"><rect fill="none" height="96.3" rx="2.5" ry="2.5" style="stroke:#181818;stroke-width:1.0;" width="126" x="374.97" y="233.2275"/><path d="M491.97,233.2275 L491.97,242.5244 L481.97,252.5244 L374.97,252.5244 " fill="none" style="stroke:#181818;stroke-width:1.0;"/><text fill="#000000" font-family="sans-serif" font-size="14" font-weight="bold" lengthAdjust="spacing" textLength="107" x="377.97" y="247.2226">API's (Laag 2)</text></g><!--entity KOOP--><g id="elem_KOOP"><ellipse cx="107.97" cy="100.4375" fill="#CCE5FF" rx="8" ry="8" style="stroke:#181818;stroke-width:0.5;"/><path d="M107.97,108.4375 L107.97,135.4375 M94.97,116.4375 L120.97,116.4375 M107.97,135.4375 L94.97,150.4375 M107.97,135.4375 L120.97,150.4375 " fill="none" style="stroke:#181818;stroke-width:0.5;"/><text fill="#000000" font-family="sans-serif" font-size="14" lengthAdjust="spacing" textLength="40" x="87.97" y="164.9326">KOOP</text></g><!--entity WOOGLE--><g id="elem_WOOGLE"><ellipse cx="193.97" cy="100.4375" fill="#CCE5FF" rx="8" ry="8" style="stroke:#181818;stroke-width:0.5;"/><path d="M193.97,108.4375 L193.97,135.4375 M180.97,116.4375 L206.97,116.4375 M193.97,135.4375 L180.97,150.4375 M193.97,135.4375 L206.97,150.4375 " fill="none" style="stroke:#181818;stroke-width:0.5;"/><text fill="#000000" font-family="sans-serif" font-size="14" lengthAdjust="spacing" textLength="62" x="162.97" y="164.9326">WOOGLE</text></g><!--entity OpenCatalogi--><g id="elem_OpenCatalogi"><ellipse cx="307.97" cy="100.4375" fill="#1ABC9C" rx="8" ry="8" style="stroke:#181818;stroke-width:0.5;"/><path d="M307.97,108.4375 L307.97,135.4375 M294.97,116.4375 L320.97,116.4375 M307.97,135.4375 L294.97,150.4375 M307.97,135.4375 L320.97,150.4375 " fill="none" style="stroke:#181818;stroke-width:0.5;"/><text fill="#000000" font-family="sans-serif" font-size="14" lengthAdjust="spacing" textLength="97" x="259.47" y="164.9326">Open Catalogi</text></g><!--entity KoopHulpje--><g id="elem_KoopHulpje"><ellipse cx="437.97" cy="130.0775" fill="#1ABC9C" rx="8" ry="8" style="stroke:#181818;stroke-width:0.5;"/><text fill="#000000" font-family="sans-serif" font-size="14" lengthAdjust="spacing" textLength="79" x="398.47" y="160.0726">KoopHulpje</text></g><!--entity Website--><g id="elem_Website"><ellipse cx="555.97" cy="130.0775" fill="#1ABC9C" rx="8" ry="8" style="stroke:#181818;stroke-width:0.5;"/><text fill="#000000" font-family="sans-serif" font-size="14" lengthAdjust="spacing" textLength="56" x="527.97" y="160.0726">Website</text></g><!--entity Themasite--><g id="elem_Themasite"><ellipse cx="672.97" cy="130.0775" fill="#1ABC9C" rx="8" ry="8" style="stroke:#181818;stroke-width:0.5;"/><text fill="#000000" font-family="sans-serif" font-size="14" lengthAdjust="spacing" textLength="77" x="634.47" y="160.0726">Thema site</text></g><!--entity Searchsite--><g id="elem_Searchsite"><ellipse cx="804.97" cy="130.0775" fill="#1ABC9C" rx="8" ry="8" style="stroke:#181818;stroke-width:0.5;"/><text fill="#000000" font-family="sans-serif" font-size="14" lengthAdjust="spacing" textLength="86" x="761.97" y="160.0726">Zoek pagina</text></g><!--entity OI--><g id="elem_OI"><path d="M391.47,278.2275 C391.47,268.2275 437.97,268.2275 437.97,268.2275 C437.97,268.2275 484.47,268.2275 484.47,278.2275 L484.47,303.5244 C484.47,313.5244 437.97,313.5244 437.97,313.5244 C437.97,313.5244 391.47,313.5244 391.47,303.5244 L391.47,278.2275 " fill="#1ABC9C" style="stroke:#181818;stroke-width:0.5;"/><path d="M391.47,278.2275 C391.47,288.2275 437.97,288.2275 437.97,288.2275 C437.97,288.2275 484.47,288.2275 484.47,278.2275 " fill="none" style="stroke:#181818;stroke-width:0.5;"/><text fill="#000000" font-family="sans-serif" font-size="14" lengthAdjust="spacing" textLength="73" x="401.47" y="305.2226">Search API</text></g><!--link KOOP to OI--><g id="link_KOOP_OI"><path d="M87.77,140.6875 C57.41,156.3675 6,188.6175 29.97,217.2275 C75.65,271.7675 288.2136,285.1888 385.3136,288.5688 " fill="none" id="KOOP-to-OI" style="stroke:#181818;stroke-width:1.0;"/><polygon fill="#181818" points="391.31,288.7775,382.4546,284.4668,386.313,288.6036,382.1763,292.462,391.31,288.7775" style="stroke:#181818;stroke-width:1.0;"/><text fill="#000000" font-family="sans-serif" font-size="13" lengthAdjust="spacing" textLength="161" x="30.97" y="213.2944">Indexeerd (XML Sitemap)</text></g><!--link WOOGLE to OI--><g id="link_WOOGLE_OI"><path d="M193.6,168.3775 C195.31,185.1375 200.11,204.0575 211.97,217.2275 C257.88,268.2375 333.6929,283.1037 385.2729,287.6237 " fill="none" id="WOOGLE-to-OI" style="stroke:#181818;stroke-width:1.0;"/><polygon fill="#181818" points="391.25,288.1475,382.6335,283.3771,386.2691,287.711,381.9352,291.3466,391.25,288.1475" style="stroke:#181818;stroke-width:1.0;"/><text fill="#000000" font-family="sans-serif" font-size="13" lengthAdjust="spacing" textLength="97" x="212.97" y="213.2944">Indexeerd (API)</text></g><!--link OpenCatalogi to OI--><g id="link_OpenCatalogi_OI"><path d="M310.97,168.3575 C313.73,184.5275 318.99,202.9775 328.97,217.2275 C344.5,239.3975 363.8886,253.7552 385.8186,265.8752 " fill="none" id="OpenCatalogi-to-OI" style="stroke:#181818;stroke-width:1.0;"/><polygon fill="#181818" points="391.07,268.7775,385.1278,260.9232,386.6939,266.3589,381.2581,267.925,391.07,268.7775" style="stroke:#181818;stroke-width:1.0;"/><text fill="#000000" font-family="sans-serif" font-size="13" lengthAdjust="spacing" textLength="95" x="329.97" y="213.2944">Bevraagd (API)</text></g><!--link KoopHulpje to OI--><g id="link_KoopHulpje_OI"><path d="M437.53,138.7575 C436.82,151.5075 435.46,177.8875 434.97,200.2275 C434.47,223.2775 435.2197,243.6466 436.2197,261.7866 " fill="none" id="KoopHulpje-to-OI" style="stroke:#181818;stroke-width:1.0;"/><polygon fill="#181818" points="436.55,267.7775,440.0485,258.571,436.2748,262.7851,432.0607,259.0113,436.55,267.7775" style="stroke:#181818;stroke-width:1.0;"/><text fill="#000000" font-family="sans-serif" font-size="13" lengthAdjust="spacing" textLength="95" x="435.97" y="213.2944">Bevraagd (API)</text></g><!--link Website to OI--><g id="link_Website_OI"><path d="M555.91,138.9175 C555.43,154.9375 552.48,192.0675 535.97,217.2275 C522.15,238.3075 505.0865,252.3052 485.3465,264.6552 " fill="none" id="Website-to-OI" style="stroke:#181818;stroke-width:1.0;"/><polygon fill="#181818" points="480.26,267.8375,490.0114,266.4551,484.4988,265.1856,485.7683,259.673,480.26,267.8375" style="stroke:#181818;stroke-width:1.0;"/><text fill="#000000" font-family="sans-serif" font-size="13" lengthAdjust="spacing" textLength="95" x="543.97" y="213.2944">Bevraagd (API)</text></g><!--link Themasite to OI--><g id="link_Themasite_OI"><path d="M672.98,138.9075 C672.55,155.5675 669.22,194.8775 647.97,217.2275 C604.91,262.5275 538.2061,278.7849 490.6461,285.2049 " fill="none" id="Themasite-to-OI" style="stroke:#181818;stroke-width:1.0;"/><polygon fill="#181818" points="484.7,286.0075,494.1542,288.7676,489.6551,285.3386,493.084,280.8395,484.7,286.0075" style="stroke:#181818;stroke-width:1.0;"/><text fill="#000000" font-family="sans-serif" font-size="13" lengthAdjust="spacing" textLength="95" x="659.97" y="213.2944">Bevraagd (API)</text></g><!--link Searchsite to OI--><g id="link_Searchsite_OI"><path d="M803.61,138.9375 C800.23,156.0275 789.75,196.6875 763.97,217.2275 C721.18,251.3375 570.2241,273.9067 490.7341,283.7967 " fill="none" id="Searchsite-to-OI" style="stroke:#181818;stroke-width:1.0;"/><polygon fill="#181818" points="484.78,284.5375,494.205,287.3957,489.7417,283.9202,493.2173,279.4569,484.78,284.5375" style="stroke:#181818;stroke-width:1.0;"/><text fill="#000000" font-family="sans-serif" font-size="13" lengthAdjust="spacing" textLength="95" x="779.97" y="213.2944">Bevraagd (API)</text></g><text fill="#888888" font-family="sans-serif" font-size="10" lengthAdjust="spacing" textLength="68" x="400.485" y="343.8097">OpenWoo.app</text><!--SRC=[VP4nJyCm48Lt_ugJExGTYWHI1peW5OGWQb4g2YfYkpYNnf3ObkC24kA_uoGDJL2RJEVBT-Vdzvnq6S5g5sLIe9C49aENQ9kJOedMZkmCGaDge_KP6iDImlX_ZmsFBu3H4d4BKtWEnYonc1Fmuo27RmR-G-6q1Ru8mnNtfmBA2WP2q3H9MWG0tuJXtVAMbr1T7i5ugH9kq66cjvB3V5tfRXemECT8N8fgGYh_rWI5rxZGsjplClD6rSZXU6fWGr4XNKtlwrFeKqevGarxwTMnZt_Lz0u6jr9XDR0cj2BjJFoK0SnNmR3O6txnvtQtsxWS-_T7MFZ_zRPokBOx3DfR_Tf7yY59hOfKce9LQKnY_QacLoKxWq35z4LaOnYzF2nXxNNbQCPi7yafrbyuPfqeEkGrVLWlkG5R0VHXZVDzpC7lFgfbSW_s2m00]--></g></svg>