<svg xmlns="http://www.w3.org/2000/svg" xmlns:xlink="http://www.w3.org/1999/xlink" contentStyleType="text/css" height="354px" preserveAspectRatio="none" style="width:896px;height:354px;background:#FFFFFF;" version="1.1" viewBox="0 0 896 354" width="896px" zoomAndPan="magnify"><defs/><g><text fill="#888888" font-family="sans-serif" font-size="10" lengthAdjust="spacing" textLength="70.835" x="812.0284" y="9.2822">OpenWoo.app</text><text fill="#000000" font-family="sans-serif" font-size="14" font-weight="bold" lengthAdjust="spacing" textLength="171.0762" x="355.8936" y="35.6357">Publicatie platformen</text><!--cluster Publicatie platformen --><g id="cluster_Publicatie platformen "><rect fill="none" height="127.29" rx="2.5" ry="2.5" style="stroke:#181818;stroke-width:1.0;" width="805" x="75.63" y="56.9375"/><path d="M261.5802,56.9375 L261.5802,66.2344 L251.5802,76.2344 L75.63,76.2344 " fill="none" style="stroke:#181818;stroke-width:1.0;"/><text fill="#000000" font-family="sans-serif" font-size="14" font-weight="bold" lengthAdjust="spacing" textLength="171.0762" x="78.63" y="70.9326">Publicatie platformen</text></g><!--cluster API's (Laag 2)--><g id="cluster_API's (Laag 2)"><rect fill="none" height="96.3" rx="2.5" ry="2.5" style="stroke:#181818;stroke-width:1.0;" width="128" x="382.63" y="233.2275"/><path d="M501.6769,233.2275 L501.6769,242.5244 L491.6769,252.5244 L382.63,252.5244 " fill="none" style="stroke:#181818;stroke-width:1.0;"/><text fill="#000000" font-family="sans-serif" font-size="14" font-weight="bold" lengthAdjust="spacing" textLength="109.0469" x="385.63" y="247.2226">API's (Laag 2)</text></g><!--entity KOOP--><g id="elem_KOOP"><ellipse cx="111.6311" cy="100.4375" fill="#CCE5FF" rx="8" ry="8" style="stroke:#181818;stroke-width:0.5;"/><path d="M111.6311,108.4375 L111.6311,135.4375 M98.6311,116.4375 L124.6311,116.4375 M111.6311,135.4375 L98.6311,150.4375 M111.6311,135.4375 L124.6311,150.4375 " fill="none" style="stroke:#181818;stroke-width:0.5;"/><text fill="#000000" font-family="sans-serif" font-size="14" lengthAdjust="spacing" textLength="39.6621" x="91.8" y="164.9326">KOOP</text></g><!--entity WOOGLE--><g id="elem_WOOGLE"><ellipse cx="198.628" cy="100.4375" fill="#CCE5FF" rx="8" ry="8" style="stroke:#181818;stroke-width:0.5;"/><path d="M198.628,108.4375 L198.628,135.4375 M185.628,116.4375 L211.628,116.4375 M198.628,135.4375 L185.628,150.4375 M198.628,135.4375 L211.628,150.4375 " fill="none" style="stroke:#181818;stroke-width:0.5;"/><text fill="#000000" font-family="sans-serif" font-size="14" lengthAdjust="spacing" textLength="63.376" x="166.94" y="164.9326">WOOGLE</text></g><!--entity OpenCatalogi--><g id="elem_OpenCatalogi"><ellipse cx="314.6285" cy="100.4375" fill="#1ABC9C" rx="8" ry="8" style="stroke:#181818;stroke-width:0.5;"/><path d="M314.6285,108.4375 L314.6285,135.4375 M301.6285,116.4375 L327.6285,116.4375 M314.6285,135.4375 L301.6285,150.4375 M314.6285,135.4375 L327.6285,150.4375 " fill="none" style="stroke:#181818;stroke-width:0.5;"/><text fill="#000000" font-family="sans-serif" font-size="14" lengthAdjust="spacing" textLength="99.4971" x="264.88" y="164.9326">Open Catalogi</text></g><!--entity KoopHulpje--><g id="elem_KoopHulpje"><ellipse cx="446.63" cy="130.0775" fill="#1ABC9C" rx="8" ry="8" style="stroke:#181818;stroke-width:0.5;"/><text fill="#000000" font-family="sans-serif" font-size="14" lengthAdjust="spacing" textLength="79.8779" x="406.691" y="160.0726">KoopHulpje</text></g><!--entity Website--><g id="elem_Website"><ellipse cx="564.63" cy="130.0775" fill="#1ABC9C" rx="8" ry="8" style="stroke:#181818;stroke-width:0.5;"/><text fill="#000000" font-family="sans-serif" font-size="14" lengthAdjust="spacing" textLength="56.6289" x="536.3155" y="160.0726">Website</text></g><!--entity Themasite--><g id="elem_Themasite"><ellipse cx="681.63" cy="130.0775" fill="#1ABC9C" rx="8" ry="8" style="stroke:#181818;stroke-width:0.5;"/><text fill="#000000" font-family="sans-serif" font-size="14" lengthAdjust="spacing" textLength="77.9912" x="642.6344" y="160.0726">Thema site</text></g><!--entity Searchsite--><g id="elem_Searchsite"><ellipse cx="813.63" cy="130.0775" fill="#1ABC9C" rx="8" ry="8" style="stroke:#181818;stroke-width:0.5;"/><text fill="#000000" font-family="sans-serif" font-size="14" lengthAdjust="spacing" textLength="87.0215" x="770.1193" y="160.0726">Zoek pagina</text></g><!--entity OI--><g id="elem_OI"><path d="M399.13,278.2275 C399.13,268.2275 446.632,268.2275 446.632,268.2275 C446.632,268.2275 494.1339,268.2275 494.1339,278.2275 L494.1339,303.5244 C494.1339,313.5244 446.632,313.5244 446.632,313.5244 C446.632,313.5244 399.13,313.5244 399.13,303.5244 L399.13,278.2275 " fill="#1ABC9C" style="stroke:#181818;stroke-width:0.5;"/><path d="M399.13,278.2275 C399.13,288.2275 446.632,288.2275 446.632,288.2275 C446.632,288.2275 494.1339,288.2275 494.1339,278.2275 " fill="none" style="stroke:#181818;stroke-width:0.5;"/><text fill="#000000" font-family="sans-serif" font-size="14" lengthAdjust="spacing" textLength="75.0039" x="409.13" y="305.2226">Search API</text></g><!--link KOOP to OI--><g id="link_KOOP_OI"><path d="M91.52,140.1975 C60.25,155.5975 6,187.9175 30.63,217.2275 C77.21,272.6575 293.523,285.6088 392.693,288.7288 " fill="none" id="KOOP-to-OI" style="stroke:#181818;stroke-width:1.0;"/><polygon fill="#181818" points="398.69,288.9175,389.8202,284.6365,393.6925,288.7603,389.5687,292.6325,398.69,288.9175" style="stroke:#181818;stroke-width:1.0;"/><text fill="#000000" font-family="sans-serif" font-size="13" lengthAdjust="spacing" textLength="165.2231" x="31.63" y="213.2944">Indexeerd (XML Sitemap)</text></g><!--link WOOGLE to OI--><g id="link_WOOGLE_OI"><path d="M197.74,168.3775 C199.24,185.1375 203.83,204.0575 215.63,217.2275 C262.34,269.3675 340.0184,283.9474 392.8184,288.0974 " fill="none" id="WOOGLE-to-OI" style="stroke:#181818;stroke-width:1.0;"/><polygon fill="#181818" points="398.8,288.5675,390.1411,283.8746,393.8154,288.1757,389.5142,291.85,398.8,288.5675" style="stroke:#181818;stroke-width:1.0;"/><text fill="#000000" font-family="sans-serif" font-size="13" lengthAdjust="spacing" textLength="100.4517" x="216.63" y="213.2944">Indexeerd (API)</text></g><!--link OpenCatalogi to OI--><g id="link_OpenCatalogi_OI"><path d="M317.57,168.3975 C320.33,184.5775 325.59,203.0275 335.63,217.2275 C351.45,239.6175 371.2717,254.0344 393.6017,266.1044 " fill="none" id="OpenCatalogi-to-OI" style="stroke:#181818;stroke-width:1.0;"/><polygon fill="#181818" points="398.88,268.9575,392.8646,261.1591,394.4814,266.58,389.0606,268.1968,398.88,268.9575" style="stroke:#181818;stroke-width:1.0;"/><text fill="#000000" font-family="sans-serif" font-size="13" lengthAdjust="spacing" textLength="97.2334" x="336.63" y="213.2944">Bevraagd (API)</text></g><!--link KoopHulpje to OI--><g id="link_KoopHulpje_OI"><path d="M446.19,138.7575 C445.48,151.5075 444.12,177.8875 443.63,200.2275 C443.13,223.2775 443.8797,243.6466 444.8797,261.7866 " fill="none" id="KoopHulpje-to-OI" style="stroke:#181818;stroke-width:1.0;"/><polygon fill="#181818" points="445.21,267.7775,448.7085,258.571,444.9348,262.7851,440.7207,259.0113,445.21,267.7775" style="stroke:#181818;stroke-width:1.0;"/><text fill="#000000" font-family="sans-serif" font-size="13" lengthAdjust="spacing" textLength="97.2334" x="444.63" y="213.2944">Bevraagd (API)</text></g><!--link Website to OI--><g id="link_Website_OI"><path d="M564.81,138.9175 C564.81,154.9475 562.9,192.0875 546.63,217.2275 C532.88,238.4875 515.6814,252.4616 495.6114,264.7116 " fill="none" id="Website-to-OI" style="stroke:#181818;stroke-width:1.0;"/><polygon fill="#181818" points="490.49,267.8375,500.256,266.5629,494.7578,265.2326,496.0881,259.7344,490.49,267.8375" style="stroke:#181818;stroke-width:1.0;"/><text fill="#000000" font-family="sans-serif" font-size="13" lengthAdjust="spacing" textLength="97.2334" x="554.63" y="213.2944">Bevraagd (API)</text></g><!--link Themasite to OI--><g id="link_Themasite_OI"><path d="M682.06,138.8875 C682.52,155.5075 681.21,194.7475 660.63,217.2275 C617.58,264.2575 548.9173,280.1429 500.1473,285.9929 " fill="none" id="Themasite-to-OI" style="stroke:#181818;stroke-width:1.0;"/><polygon fill="#181818" points="494.19,286.7075,503.6023,289.6072,499.1544,286.112,502.6496,281.6641,494.19,286.7075" style="stroke:#181818;stroke-width:1.0;"/><text fill="#000000" font-family="sans-serif" font-size="13" lengthAdjust="spacing" textLength="97.2334" x="671.63" y="213.2944">Bevraagd (API)</text></g><!--link Searchsite to OI--><g id="link_Searchsite_OI"><path d="M812.76,138.9175 C810.41,155.9675 802.4,196.5575 777.63,217.2275 C735.01,252.8075 581.2598,274.7241 500.2898,284.1441 " fill="none" id="Searchsite-to-OI" style="stroke:#181818;stroke-width:1.0;"/><polygon fill="#181818" points="494.33,284.8375,503.7319,287.7707,499.2965,284.2597,502.8075,279.8243,494.33,284.8375" style="stroke:#181818;stroke-width:1.0;"/><text fill="#000000" font-family="sans-serif" font-size="13" lengthAdjust="spacing" textLength="97.2334" x="791.63" y="213.2944">Bevraagd (API)</text></g><text fill="#888888" font-family="sans-serif" font-size="10" lengthAdjust="spacing" textLength="70.835" x="406.0142" y="343.8097">OpenWoo.app</text><!--SRC=[VP4nJyCm48Lt_ugJExGTYWHI1peW5OGWQb4g2YfYkpYNnf3ObkC24kA_uoGDJL2RJEVBT-Vdzvnq6S5g5sLIe9C49aENQ9kJOedMZkmCGaDge_KP6iDImlX_ZmsFBu3H4d4BKtWEnYonc1Fmuo27RmR-G-6q1Ru8mnNtfmBA2WP2q3H9MWG0tuJXtVAMbr1T7i5ugH9kq66cjvB3V5tfRXemECT8N8fgGYh_rWI5rxZGsjplClD6rSZXU6fWGr4XNKtlwrFeKqevGarxwTMnZt_Lz0u6jr9XDR0cj2BjJFoK0SnNmR3O6txnvtQtsxWS-_T7MFZ_zRPokBOx3DfR_Tf7yY59hOfKce9LQKnY_QacLoKxWq35z4LaOnYzF2nXxNNbQCPi7yafrbyuPfqeEkGrVLWlkG5R0VHXZVDzpC7lFgfbSW_s2m00]--></g></svg>