<?xml version="1.0" encoding="us-ascii" standalone="no"?><svg xmlns="http://www.w3.org/2000/svg" xmlns:xlink="http://www.w3.org/1999/xlink" contentStyleType="text/css" height="369px" preserveAspectRatio="none" style="width:1192px;height:369px;background:#FFFFFF;" version="1.1" viewBox="0 0 1192 369" width="1192px" zoomAndPan="magnify"><defs/><g><text fill="#888888" font-family="sans-serif" font-size="10" lengthAdjust="spacing" textLength="78" x="1100.6106" y="9.2822">OpenWoo.app</text><text fill="#000000" font-family="sans-serif" font-size="14" font-weight="bold" lengthAdjust="spacing" textLength="177" x="500.8053" y="35.6357">Publicatie platformen</text><!--cluster Publicatie platformen --><g id="cluster_Publicatie platformen "><rect fill="none" height="127" rx="2.5" ry="2.5" style="stroke:#181818;stroke-width:1.0;" width="553.9997" x="107.6109" y="56.9375"/><path d="M299.6109,56.9375 L299.6109,66.2344 L289.6109,76.2344 L107.6109,76.2344 " fill="none" style="stroke:#181818;stroke-width:1.0;"/><text fill="#000000" font-family="sans-serif" font-size="14" font-weight="bold" lengthAdjust="spacing" textLength="177" x="110.6109" y="70.9326">Publicatie platformen</text></g><!--cluster Services--><g id="cluster_Services"><rect fill="none" height="87" rx="2.5" ry="2.5" style="stroke:#181818;stroke-width:1.0;" width="200" x="757.6106" y="76.9375"/><path d="M834.6106,76.9375 L834.6106,86.2344 L824.6106,96.2344 L757.6106,96.2344 " fill="none" style="stroke:#181818;stroke-width:1.0;"/><text fill="#000000" font-family="sans-serif" font-size="14" font-weight="bold" lengthAdjust="spacing" textLength="67" x="760.6106" y="90.9326">Services</text></g><!--cluster Integratie--><g id="cluster_Integratie"><rect fill="none" height="96" rx="2.5" ry="2.5" style="stroke:#181818;stroke-width:1.0;" width="134" x="338.6106" y="248.4375"/><path d="M429.6106,248.4375 L429.6106,257.7344 L419.6106,267.7344 L338.6106,267.7344 " fill="none" style="stroke:#181818;stroke-width:1.0;"/><text fill="#000000" font-family="sans-serif" font-size="14" font-weight="bold" lengthAdjust="spacing" textLength="81" x="341.6106" y="262.4326">Integratie</text></g><!--cluster API--><g id="cluster_API"><rect fill="none" height="97" rx="2.5" ry="2.5" style="stroke:#181818;stroke-width:1.0;" width="134" x="806.6106" y="247.9375"/><path d="M842.6106,247.9375 L842.6106,257.2344 L832.6106,267.2344 L806.6106,267.2344 " fill="none" style="stroke:#181818;stroke-width:1.0;"/><text fill="#000000" font-family="sans-serif" font-size="14" font-weight="bold" lengthAdjust="spacing" textLength="26" x="809.6106" y="261.9326">API</text></g><!--entity KOOP--><g id="elem_KOOP"><ellipse cx="144.6109" cy="100.4375" fill="#CCE5FF" rx="8" ry="8" style="stroke:#181818;stroke-width:0.5;"/><path d="M144.6109,108.4375 L144.6109,135.4375 M131.6109,116.4375 L157.6109,116.4375 M144.6109,135.4375 L131.6109,150.4375 M144.6109,135.4375 L157.6109,150.4375 " fill="none" style="stroke:#181818;stroke-width:0.5;"/><text fill="#000000" font-family="sans-serif" font-size="14" lengthAdjust="spacing" textLength="41" x="124.1109" y="164.9326">KOOP</text></g><!--entity WOOGLE--><g id="elem_WOOGLE"><ellipse cx="232.6106" cy="100.4375" fill="#CCE5FF" rx="8" ry="8" style="stroke:#181818;stroke-width:0.5;"/><path d="M232.6106,108.4375 L232.6106,135.4375 M219.6106,116.4375 L245.6106,116.4375 M232.6106,135.4375 L219.6106,150.4375 M232.6106,135.4375 L245.6106,150.4375 " fill="none" style="stroke:#181818;stroke-width:0.5;"/><text fill="#000000" font-family="sans-serif" font-size="14" lengthAdjust="spacing" textLength="64" x="200.6106" y="164.9326">WOOGLE</text></g><!--entity Website--><g id="elem_Website"><ellipse cx="337.6106" cy="129.9375" fill="#1ABC9C" rx="8" ry="8" style="stroke:#181818;stroke-width:0.5;"/><text fill="#000000" font-family="sans-serif" font-size="14" lengthAdjust="spacing" textLength="60" x="307.6106" y="159.9326">Website</text></g><!--entity Themasite--><g id="elem_Themasite"><ellipse cx="458.6106" cy="129.9375" fill="#1ABC9C" rx="8" ry="8" style="stroke:#181818;stroke-width:0.5;"/><text fill="#000000" font-family="sans-serif" font-size="14" lengthAdjust="spacing" textLength="80" x="418.6106" y="159.9326">Thema site</text></g><!--entity Searchsite--><g id="elem_Searchsite"><ellipse cx="593.6106" cy="129.9375" fill="#1ABC9C" rx="8" ry="8" style="stroke:#181818;stroke-width:0.5;"/><text fill="#000000" font-family="sans-serif" font-size="14" lengthAdjust="spacing" textLength="89" x="549.1106" y="159.9326">Zoek pagina</text></g><!--entity OWS--><g id="elem_OWS"><polygon fill="#1ABC9C" points="773.6106,111.9375,931.6106,111.9375,941.6106,130.0859,931.6106,148.2344,773.6106,148.2344,783.6106,130.0859" style="stroke:#181818;stroke-width:0.5;"/><text fill="#000000" font-family="sans-serif" font-size="14" lengthAdjust="spacing" textLength="128" x="793.6106" y="134.9326">OpenWoo Service</text></g><!--entity OI--><g id="elem_OI"><path d="M354.6106,293.4375 C354.6106,283.4375 405.6106,283.4375 405.6106,283.4375 C405.6106,283.4375 456.6106,283.4375 456.6106,293.4375 L456.6106,318.7344 C456.6106,328.7344 405.6106,328.7344 405.6106,328.7344 C405.6106,328.7344 354.6106,328.7344 354.6106,318.7344 L354.6106,293.4375 " fill="#1ABC9C" style="stroke:#181818;stroke-width:0.5;"/><path d="M354.6106,293.4375 C354.6106,303.4375 405.6106,303.4375 405.6106,303.4375 C405.6106,303.4375 456.6106,303.4375 456.6106,293.4375 " fill="none" style="stroke:#181818;stroke-width:0.5;"/><text fill="#000000" font-family="sans-serif" font-size="14" lengthAdjust="spacing" textLength="82" x="364.6106" y="320.4326">Open Index</text></g><!--entity Bronnen--><g id="elem_Bronnen"><rect fill="#CCE5FF" height="46.2969" rx="2.5" ry="2.5" style="stroke:#181818;stroke-width:0.5;" width="101" x="823.1106" y="282.9375"/><rect fill="#CCE5FF" height="10" style="stroke:#181818;stroke-width:0.5;" width="15" x="904.1106" y="287.9375"/><rect fill="#CCE5FF" height="2" style="stroke:#181818;stroke-width:0.5;" width="4" x="902.1106" y="289.9375"/><rect fill="#CCE5FF" height="2" style="stroke:#181818;stroke-width:0.5;" width="4" x="902.1106" y="293.9375"/><text fill="#000000" font-family="sans-serif" font-size="14" lengthAdjust="spacing" textLength="61" x="838.1106" y="315.9326">Bronnen</text></g><!--link KOOP to OI--><g id="link_KOOP_OI"><path d="M123.896,138.8505 C84.6294,154.9895 6,193.4395 37.6109,231.9375 C77.1362,280.0735 257.0024,296.67 348.4894,302.1681 " fill="none" id="KOOP-to-OI" style="stroke:#181818;stroke-width:1.0;"/><polygon fill="#181818" points="354.4786,302.528,345.7348,297.9953,349.4876,302.2281,345.2549,305.9809,354.4786,302.528" style="stroke:#181818;stroke-width:1.0;"/><text fill="#000000" font-family="sans-serif" font-size="13" lengthAdjust="spacing" textLength="161" x="38.6109" y="220.5044">Indexeerd (XML Sitemap)</text></g><!--link WOOGLE to OI--><g id="link_WOOGLE_OI"><path d="M214.6366,168.3495 C207.6386,188.7335 203.9596,213.4895 216.6106,231.9375 C247.3456,276.7568 303.8885,293.18 348.5985,299.8606 " fill="none" id="WOOGLE-to-OI" style="stroke:#181818;stroke-width:1.0;"/><polygon fill="#181818" points="354.5326,300.7473,346.2225,295.4612,349.5875,300.0084,345.0403,303.3734,354.5326,300.7473" style="stroke:#181818;stroke-width:1.0;"/><text fill="#000000" font-family="sans-serif" font-size="13" lengthAdjust="spacing" textLength="98" x="217.6106" y="220.5044">Indexeerd (API)</text></g><!--link Website to OI--><g id="link_Website_OI"><path d="M334.6116,139.2045 C328.6656,156.9905 317.0756,199.8755 330.6106,231.9375 C339.3736,252.6945 352.5489,266.7345 368.6479,279.5471 " fill="none" id="Website-to-OI" style="stroke:#181818;stroke-width:1.0;"/><polygon fill="#181818" points="373.3426,283.2834,368.7915,274.5491,369.4304,280.1698,363.8097,280.8087,373.3426,283.2834" style="stroke:#181818;stroke-width:1.0;"/><text fill="#000000" font-family="sans-serif" font-size="13" lengthAdjust="spacing" textLength="95" x="331.6106" y="220.5044">Bevraagd (API)</text></g><!--link Themasite to OI--><g id="link_Themasite_OI"><path d="M457.2146,139.1775 C454.1646,156.5605 446.3146,198.1655 435.6106,231.9375 C430.0226,249.5705 424.4147,263.421 418.0657,277.7605 " fill="none" id="Themasite-to-OI" style="stroke:#181818;stroke-width:1.0;"/><polygon fill="#181818" points="415.6366,283.2468,422.9378,276.6368,417.6609,278.6749,415.6228,273.398,415.6366,283.2468" style="stroke:#181818;stroke-width:1.0;"/><text fill="#000000" font-family="sans-serif" font-size="13" lengthAdjust="spacing" textLength="95" x="445.6106" y="220.5044">Bevraagd (API)</text></g><!--link Searchsite to OI--><g id="link_Searchsite_OI"><path d="M592.0436,139.0475 C588.0706,157.6575 575.9906,203.9725 549.6106,231.9375 C524.3196,258.7495 492.6141,275.1195 462.3121,286.8001 " fill="none" id="Searchsite-to-OI" style="stroke:#181818;stroke-width:1.0;"/><polygon fill="#181818" points="456.7136,288.9582,466.55,289.4534,461.379,287.1598,463.6726,281.9888,456.7136,288.9582" style="stroke:#181818;stroke-width:1.0;"/><text fill="#000000" font-family="sans-serif" font-size="13" lengthAdjust="spacing" textLength="95" x="571.6106" y="220.5044">Bevraagd (API)</text></g><!--link OWS to OI--><g id="link_OWS_OI"><path d="M831.4886,148.1125 C797.0176,170.1375 733.8776,208.3035 675.6106,231.9375 C601.9276,261.825 517.9078,282.109 462.6908,293.7379 " fill="none" id="OWS-to-OI" style="stroke:#181818;stroke-width:1.0;stroke-dasharray:7.0,7.0;"/><polygon fill="#181818" points="456.8196,294.9744,466.4507,297.0338,461.7123,293.944,464.8021,289.2055,456.8196,294.9744" style="stroke:#181818;stroke-width:1.0;"/><text fill="#000000" font-family="sans-serif" font-size="13" lengthAdjust="spacing" textLength="67" x="744.6106" y="220.5044">Slaat op in</text></g><!--link OWS to Bronnen--><g id="link_OWS_Bronnen"><path d="M855.4646,148.1735 C853.3306,168.3425 850.8686,202.7045 854.6106,231.9375 C856.8386,249.3435 860.1959,262.7883 864.5519,277.1209 " fill="none" id="OWS-to-Bronnen" style="stroke:#181818;stroke-width:1.0;"/><polygon fill="#181818" points="866.2966,282.8616,867.5066,273.0874,864.8427,278.0777,859.8523,275.4137,866.2966,282.8616" style="stroke:#181818;stroke-width:1.0;"/><text fill="#000000" font-family="sans-serif" font-size="13" lengthAdjust="spacing" textLength="127" x="855.6106" y="213.0044">Scrapes periodically</text><text fill="#000000" font-family="sans-serif" font-size="13" lengthAdjust="spacing" textLength="97" x="870.6106" y="228.1372">Uses as source</text></g><!--reverse link OWS to Bronnen--><g id="link_OWS_Bronnen"><path d="M924.9319,150.3003 C950.7329,160.8283 972.5996,174.9745 987.6106,199.9375 C1008.8276,235.2175 963.9636,265.8325 924.4276,284.7564 " fill="none" id="OWS-backto-Bronnen" style="stroke:#181818;stroke-width:1.0;"/><polygon fill="#181818" points="919.3766,148.0335,926.1984,155.1373,924.006,149.9225,929.2208,147.7302,919.3766,148.0335" style="stroke:#181818;stroke-width:1.0;"/><text fill="#000000" font-family="sans-serif" font-size="13" lengthAdjust="spacing" textLength="191" x="993.6106" y="220.5044">Notifies of changes or deletes</text></g><text fill="#888888" font-family="sans-serif" font-size="10" lengthAdjust="spacing" textLength="78" x="550.3053" y="359.2197">OpenWoo.app</text><!--SRC=[VPFBRjim44Nt_8e1isYoi84-igWN1H8W28owbL4rS51qCwP65b6994WwRL7qtpkKH2KAKcl5nvdBuRrKrB4bs1xthLOODO5hCTRMTsH4RMqaluB2aTbPkqJdH4DOFLyJhruMWFCDuW4kuMvz8MgF7O5y6PJmHm1_gABr83yMnLRoB40QmPbIT5dNJmW0kIkAsysDJD0md67QSESrAZvnH_kW8qcuAc4SmzbhtAltwZdwjQ4EOQ1Pjv-UuhzP-W4E3zfWNr0IUjNCAlucTqho3rfH6FnuDvcHr_FrdRSy2o17TtFXu4MnA-UoQ-xau7il1-Mta_BZLjQkCE8U0mtYN5lHhr5tFPUzzjQOARqta-RLTft5bEsSPIQ27Ed-_hboYgBN-q8SjBOcDDe5qIUwgEnFi_YGZbuDhH3v2ixlFssWPFiwT1TYZFL_BBV3p1Ze3Bgc1y-jP-OnnbFKa-nEOIc4vJBjhQ1i4IDOnqz2z1kvCFl0YFBeA80Zhst53xzjVtytTu6NsAzWZrvHykYpZRhk_mlsIUJwnT6bDbXvDH9SPsjG3Pf36dgegAL8uHy0]--></g></svg>