<?xml version="1.0" encoding="us-ascii" standalone="no"?><svg xmlns="http://www.w3.org/2000/svg" xmlns:xlink="http://www.w3.org/1999/xlink" contentStyleType="text/css" height="624px" preserveAspectRatio="none" style="width:1438px;height:624px;background:#FFFFFF;" version="1.1" viewBox="0 0 1438 624" width="1438px" zoomAndPan="magnify"><defs/><g><text fill="#888888" font-family="sans-serif" font-size="10" lengthAdjust="spacing" textLength="78" x="1346" y="9.2822">OpenWoo.app</text><text fill="#000000" font-family="sans-serif" font-size="14" font-weight="bold" lengthAdjust="spacing" textLength="392" x="516" y="35.6357">Algemene Architectuur en keuze mogenlijkheden</text><!--cluster Publicatie platformen --><g id="cluster_Publicatie platformen "><rect fill="none" height="127" rx="2.5" ry="2.5" style="stroke:#181818;stroke-width:1.0;" width="717" x="715" y="56.9375"/><path d="M907,56.9375 L907,66.2344 L897,76.2344 L715,76.2344 " fill="none" style="stroke:#181818;stroke-width:1.0;"/><text fill="#000000" font-family="sans-serif" font-size="14" font-weight="bold" lengthAdjust="spacing" textLength="177" x="718" y="70.9326">Publicatie platformen</text></g><!--cluster Services--><g id="cluster_Services"><rect fill="none" height="87" rx="2.5" ry="2.5" style="stroke:#181818;stroke-width:1.0;" width="228" x="1175" y="237.9375"/><path d="M1252,237.9375 L1252,247.2344 L1242,257.2344 L1175,257.2344 " fill="none" style="stroke:#181818;stroke-width:1.0;"/><text fill="#000000" font-family="sans-serif" font-size="14" font-weight="bold" lengthAdjust="spacing" textLength="67" x="1178" y="251.9326">Services</text></g><!--cluster Integratie--><g id="cluster_Integratie"><rect fill="none" height="222" rx="2.5" ry="2.5" style="stroke:#181818;stroke-width:1.0;" width="439" x="656" y="232.9375"/><path d="M747,232.9375 L747,242.2344 L737,252.2344 L656,252.2344 " fill="none" style="stroke:#181818;stroke-width:1.0;"/><text fill="#000000" font-family="sans-serif" font-size="14" font-weight="bold" lengthAdjust="spacing" textLength="81" x="659" y="246.9326">Integratie</text></g><!--cluster Bronnen--><g id="cluster_Bronnen"><rect fill="none" height="96" rx="2.5" ry="2.5" style="stroke:#181818;stroke-width:1.0;" width="1357" x="7" y="503.9375"/><path d="M84,503.9375 L84,513.2344 L74,523.2344 L7,523.2344 " fill="none" style="stroke:#181818;stroke-width:1.0;"/><text fill="#000000" font-family="sans-serif" font-size="14" font-weight="bold" lengthAdjust="spacing" textLength="67" x="10" y="517.9326">Bronnen</text></g><!--cluster Legenda--><g id="cluster_Legenda"><rect fill="none" height="258" rx="2.5" ry="2.5" style="stroke:#181818;stroke-width:1.0;" width="457" x="39" y="71.9375"/><path d="M116,71.9375 L116,81.2344 L106,91.2344 L39,91.2344 " fill="none" style="stroke:#181818;stroke-width:1.0;"/><text fill="#000000" font-family="sans-serif" font-size="14" font-weight="bold" lengthAdjust="spacing" textLength="67" x="42" y="85.9326">Legenda</text></g><!--entity OiDashboard--><g id="elem_OiDashboard"><ellipse cx="1352" cy="129.9375" fill="#E5352C" rx="8" ry="8" style="stroke:#181818;stroke-width:0.5;"/><text fill="#000000" font-family="sans-serif" font-size="14" lengthAdjust="spacing" textLength="113" x="1295.5" y="159.9326">Woo Dashboard</text></g><!--entity KOOP--><g id="elem_KOOP"><ellipse cx="752" cy="100.4375" fill="#008B6C" rx="8" ry="8" style="stroke:#181818;stroke-width:0.5;"/><path d="M752,108.4375 L752,135.4375 M739,116.4375 L765,116.4375 M752,135.4375 L739,150.4375 M752,135.4375 L765,150.4375 " fill="none" style="stroke:#181818;stroke-width:0.5;"/><text fill="#000000" font-family="sans-serif" font-size="14" lengthAdjust="spacing" textLength="41" x="731.5" y="164.9326">KOOP</text></g><!--entity WOOGLE--><g id="elem_WOOGLE"><ellipse cx="840" cy="100.4375" fill="#008B6C" rx="8" ry="8" style="stroke:#181818;stroke-width:0.5;"/><path d="M840,108.4375 L840,135.4375 M827,116.4375 L853,116.4375 M840,135.4375 L827,150.4375 M840,135.4375 L853,150.4375 " fill="none" style="stroke:#181818;stroke-width:0.5;"/><text fill="#000000" font-family="sans-serif" font-size="14" lengthAdjust="spacing" textLength="64" x="808" y="164.9326">WOOGLE</text></g><!--entity Website--><g id="elem_Website"><ellipse cx="945" cy="129.9375" fill="#F16E06" rx="8" ry="8" style="stroke:#181818;stroke-width:0.5;"/><text fill="#000000" font-family="sans-serif" font-size="14" lengthAdjust="spacing" textLength="60" x="915" y="159.9326">Website</text></g><!--entity Themasite--><g id="elem_Themasite"><ellipse cx="1066" cy="129.9375" fill="#F16E06" rx="8" ry="8" style="stroke:#181818;stroke-width:0.5;"/><text fill="#000000" font-family="sans-serif" font-size="14" lengthAdjust="spacing" textLength="80" x="1026" y="159.9326">Thema site</text></g><!--entity Searchsite--><g id="elem_Searchsite"><ellipse cx="1201" cy="129.9375" fill="#F16E06" rx="8" ry="8" style="stroke:#181818;stroke-width:0.5;"/><text fill="#000000" font-family="sans-serif" font-size="14" lengthAdjust="spacing" textLength="89" x="1156.5" y="159.9326">Zoek pagina</text></g><!--entity OiBF--><g id="elem_OiBF"><polygon fill="#E5352C" points="1191.5,272.9375,1376.5,272.9375,1386.5,291.0859,1376.5,309.2344,1191.5,309.2344,1201.5,291.0859" style="stroke:#181818;stroke-width:0.5;"/><text fill="#000000" font-family="sans-serif" font-size="14" lengthAdjust="spacing" textLength="155" x="1211.5" y="295.9326">Backend for frontend</text></g><!--entity OI--><g id="elem_OI"><path d="M940,403.4375 C940,393.4375 991,393.4375 991,393.4375 C991,393.4375 1042,393.4375 1042,403.4375 L1042,428.7344 C1042,438.7344 991,438.7344 991,438.7344 C991,438.7344 940,438.7344 940,428.7344 L940,403.4375 " fill="#008B6C" style="stroke:#181818;stroke-width:0.5;"/><path d="M940,403.4375 C940,413.4375 991,413.4375 991,413.4375 C991,413.4375 1042,413.4375 1042,403.4375 " fill="none" style="stroke:#181818;stroke-width:0.5;"/><text fill="#000000" font-family="sans-serif" font-size="14" lengthAdjust="spacing" textLength="82" x="950" y="430.4326">Open Index</text></g><!--entity FCS--><g id="elem_FCS"><rect fill="#008B6C" height="46.2969" rx="2.5" ry="2.5" style="stroke:#181818;stroke-width:0.5;" width="204" x="875" y="267.9375"/><rect fill="#008B6C" height="10" style="stroke:#181818;stroke-width:0.5;" width="15" x="1059" y="272.9375"/><rect fill="#008B6C" height="2" style="stroke:#181818;stroke-width:0.5;" width="4" x="1057" y="274.9375"/><rect fill="#008B6C" height="2" style="stroke:#181818;stroke-width:0.5;" width="4" x="1057" y="278.9375"/><text fill="#000000" font-family="sans-serif" font-size="14" lengthAdjust="spacing" textLength="164" x="890" y="300.9326">Federatieve Connectie</text></g><!--entity OWS--><g id="elem_OWS"><polygon fill="#F16E06" points="672,272.9375,830,272.9375,840,291.0859,830,309.2344,672,309.2344,682,291.0859" style="stroke:#181818;stroke-width:0.5;"/><text fill="#000000" font-family="sans-serif" font-size="14" lengthAdjust="spacing" textLength="128" x="692" y="295.9326">OpenWoo Service</text></g><!--entity IP--><g id="elem_IP"><rect fill="#008B6C" height="46.2969" rx="2.5" ry="2.5" style="stroke:#181818;stroke-width:0.5;" width="179" x="672.5" y="392.9375"/><rect fill="#008B6C" height="10" style="stroke:#181818;stroke-width:0.5;" width="15" x="831.5" y="397.9375"/><rect fill="#008B6C" height="2" style="stroke:#181818;stroke-width:0.5;" width="4" x="829.5" y="399.9375"/><rect fill="#008B6C" height="2" style="stroke:#181818;stroke-width:0.5;" width="4" x="829.5" y="403.9375"/><text fill="#000000" font-family="sans-serif" font-size="14" lengthAdjust="spacing" textLength="139" x="687.5" y="425.9326">Integratie Platform</text></g><!--entity ZRC--><g id="elem_ZRC"><path d="M23,548.9375 C23,538.9375 112,538.9375 112,538.9375 C112,538.9375 201,538.9375 201,548.9375 L201,574.2344 C201,584.2344 112,584.2344 112,584.2344 C112,584.2344 23,584.2344 23,574.2344 L23,548.9375 " fill="#008B6C" style="stroke:#181818;stroke-width:0.5;"/><path d="M23,548.9375 C23,558.9375 112,558.9375 112,558.9375 C112,558.9375 201,558.9375 201,548.9375 " fill="none" style="stroke:#181818;stroke-width:0.5;"/><text fill="#000000" font-family="sans-serif" font-size="14" lengthAdjust="spacing" textLength="158" x="33" y="575.9326">Zaaksysteem (XXllNC)</text></g><!--entity RIS--><g id="elem_RIS"><path d="M236.5,548.9375 C236.5,538.9375 371,538.9375 371,538.9375 C371,538.9375 505.5,538.9375 505.5,548.9375 L505.5,574.2344 C505.5,584.2344 371,584.2344 371,584.2344 C371,584.2344 236.5,584.2344 236.5,574.2344 L236.5,548.9375 " fill="#008B6C" style="stroke:#181818;stroke-width:0.5;"/><path d="M236.5,548.9375 C236.5,558.9375 371,558.9375 371,558.9375 C371,558.9375 505.5,558.9375 505.5,548.9375 " fill="none" style="stroke:#181818;stroke-width:0.5;"/><text fill="#000000" font-family="sans-serif" font-size="14" lengthAdjust="spacing" textLength="249" x="246.5" y="575.9326">Raadsinformatiesysteem (Notubiz)</text></g><!--entity BIS--><g id="elem_BIS"><path d="M541,548.9375 C541,538.9375 677,538.9375 677,538.9375 C677,538.9375 813,538.9375 813,548.9375 L813,574.2344 C813,584.2344 677,584.2344 677,584.2344 C677,584.2344 541,584.2344 541,574.2344 L541,548.9375 " fill="#008B6C" style="stroke:#181818;stroke-width:0.5;"/><path d="M541,548.9375 C541,558.9375 677,558.9375 677,558.9375 C677,558.9375 813,558.9375 813,548.9375 " fill="none" style="stroke:#181818;stroke-width:0.5;"/><text fill="#000000" font-family="sans-serif" font-size="14" lengthAdjust="spacing" textLength="252" x="551" y="575.9326">Bestuursinformatiesysteem (iBabs)</text></g><!--entity CMS--><g id="elem_CMS"><path d="M848.5,548.9375 C848.5,538.9375 918,538.9375 918,538.9375 C918,538.9375 987.5,538.9375 987.5,548.9375 L987.5,574.2344 C987.5,584.2344 918,584.2344 918,584.2344 C918,584.2344 848.5,584.2344 848.5,574.2344 L848.5,548.9375 " fill="#008B6C" style="stroke:#181818;stroke-width:0.5;"/><path d="M848.5,548.9375 C848.5,558.9375 918,558.9375 918,558.9375 C918,558.9375 987.5,558.9375 987.5,548.9375 " fill="none" style="stroke:#181818;stroke-width:0.5;"/><text fill="#000000" font-family="sans-serif" font-size="14" lengthAdjust="spacing" textLength="119" x="858.5" y="575.9326">Website (Typo3)</text></g><!--entity SP--><g id="elem_SP"><path d="M1023,548.9375 C1023,538.9375 1096,538.9375 1096,538.9375 C1096,538.9375 1169,538.9375 1169,548.9375 L1169,574.2344 C1169,584.2344 1096,584.2344 1096,584.2344 C1096,584.2344 1023,584.2344 1023,574.2344 L1023,548.9375 " fill="#008B6C" style="stroke:#181818;stroke-width:0.5;"/><path d="M1023,548.9375 C1023,558.9375 1096,558.9375 1096,558.9375 C1096,558.9375 1169,558.9375 1169,548.9375 " fill="none" style="stroke:#181818;stroke-width:0.5;"/><text fill="#000000" font-family="sans-serif" font-size="14" lengthAdjust="spacing" textLength="126" x="1033" y="575.9326">DMS (Sharepoint)</text></g><!--entity DEPOT--><g id="elem_DEPOT"><path d="M1204.5,548.9375 C1204.5,538.9375 1276,538.9375 1276,538.9375 C1276,538.9375 1347.5,538.9375 1347.5,548.9375 L1347.5,574.2344 C1347.5,584.2344 1276,584.2344 1276,584.2344 C1276,584.2344 1204.5,584.2344 1204.5,574.2344 L1204.5,548.9375 " fill="#008B6C" style="stroke:#181818;stroke-width:0.5;"/><path d="M1204.5,548.9375 C1204.5,558.9375 1276,558.9375 1276,558.9375 C1276,558.9375 1347.5,558.9375 1347.5,548.9375 " fill="none" style="stroke:#181818;stroke-width:0.5;"/><text fill="#000000" font-family="sans-serif" font-size="14" lengthAdjust="spacing" textLength="123" x="1214.5" y="575.9326">Archief (DeVault)</text></g><!--entity Herbruikbaar--><g id="elem_Herbruikbaar"><rect fill="#008B6C" height="46.2969" rx="2.5" ry="2.5" style="stroke:#181818;stroke-width:0.5;" width="134" x="55" y="106.9375"/><rect fill="#008B6C" height="10" style="stroke:#181818;stroke-width:0.5;" width="15" x="169" y="111.9375"/><rect fill="#008B6C" height="2" style="stroke:#181818;stroke-width:0.5;" width="4" x="167" y="113.9375"/><rect fill="#008B6C" height="2" style="stroke:#181818;stroke-width:0.5;" width="4" x="167" y="117.9375"/><text fill="#000000" font-family="sans-serif" font-size="14" lengthAdjust="spacing" textLength="94" x="70" y="139.9326">Herbruikbaar</text></g><!--entity Uitbreiden (doorontwikkeling)--><g id="elem_Uitbreiden (doorontwikkeling)"><rect fill="#F16E06" height="46.2969" rx="2.5" ry="2.5" style="stroke:#181818;stroke-width:0.5;" width="256" x="224" y="106.9375"/><rect fill="#F16E06" height="10" style="stroke:#181818;stroke-width:0.5;" width="15" x="460" y="111.9375"/><rect fill="#F16E06" height="2" style="stroke:#181818;stroke-width:0.5;" width="4" x="458" y="113.9375"/><rect fill="#F16E06" height="2" style="stroke:#181818;stroke-width:0.5;" width="4" x="458" y="117.9375"/><text fill="#000000" font-family="sans-serif" font-size="14" lengthAdjust="spacing" textLength="216" x="239" y="139.9326">Uitbreiden (doorontwikkeling)</text></g><!--entity Te ontwikkelen (nieuw)--><g id="elem_Te ontwikkelen (nieuw)"><rect fill="#E5352C" height="46.2969" rx="2.5" ry="2.5" style="stroke:#181818;stroke-width:0.5;" width="206" x="55" y="267.9375"/><rect fill="#E5352C" height="10" style="stroke:#181818;stroke-width:0.5;" width="15" x="241" y="272.9375"/><rect fill="#E5352C" height="2" style="stroke:#181818;stroke-width:0.5;" width="4" x="239" y="274.9375"/><rect fill="#E5352C" height="2" style="stroke:#181818;stroke-width:0.5;" width="4" x="239" y="278.9375"/><text fill="#000000" font-family="sans-serif" font-size="14" lengthAdjust="spacing" textLength="166" x="70" y="300.9326">Te ontwikkelen (nieuw)</text></g><!--link OiDashboard to OiBF--><g id="link_OiDashboard_OiBF"><path d="M1350.18,139.1795 C1346.62,154.7085 1338.11,189.2295 1327,216.9375 C1319.08,236.6965 1310.4764,252.9748 1302.1864,267.4848 " fill="none" id="OiDashboard-to-OiBF" style="stroke:#181818;stroke-width:1.0;"/><polygon fill="#181818" points="1299.21,272.6945,1307.1478,266.8643,1301.6904,268.3531,1300.2016,262.8957,1299.21,272.6945" style="stroke:#181818;stroke-width:1.0;"/></g><!--link OWS to IP--><g id="link_OWS_IP"><path d="M754.041,309.1805 C752.701,323.5755 751.427,344.6225 753,362.9375 C753.847,372.7965 754.4756,377.6942 756.1976,386.8812 " fill="none" id="OWS-to-IP" style="stroke:#181818;stroke-width:1.0;"/><polygon fill="#181818" points="757.303,392.7785,759.5765,383.1956,756.3818,387.8641,751.7134,384.6695,757.303,392.7785" style="stroke:#181818;stroke-width:1.0;"/><text fill="#000000" font-family="sans-serif" font-size="13" lengthAdjust="spacing" textLength="84" x="754" y="359.0044">Bevraagd via</text></g><!--link IP to ZRC--><g id="link_IP_ZRC"><path d="M672.412,419.1605 C562.577,424.3085 372.161,441.1595 219,495.9375 C190.611,506.0905 166.4224,520.7945 145.7474,535.2576 " fill="none" id="IP-to-ZRC" style="stroke:#181818;stroke-width:1.0;"/><polygon fill="#181818" points="140.831,538.6969,150.4985,536.8156,144.928,535.8308,145.9128,530.2604,140.831,538.6969" style="stroke:#181818;stroke-width:1.0;"/><text fill="#000000" font-family="sans-serif" font-size="13" lengthAdjust="spacing" textLength="100" x="292" y="484.0044">Woo verzoeken</text></g><!--link IP to SP--><g id="link_IP_SP"><path d="M828.278,439.0095 C856.823,447.7255 890.757,457.0465 922,462.9375 C959.723,470.0495 973.323,454.4725 1008,470.9375 C1039.69,485.9855 1062.8169,512.6415 1078.2169,533.9627 " fill="none" id="IP-to-SP" style="stroke:#181818;stroke-width:1.0;"/><polygon fill="#181818" points="1081.73,538.8266,1079.7029,529.1886,1078.8024,534.7733,1073.2177,533.8728,1081.73,538.8266" style="stroke:#181818;stroke-width:1.0;"/><text fill="#000000" font-family="sans-serif" font-size="13" lengthAdjust="spacing" textLength="86" x="1035" y="484.0044">Convenanten</text></g><!--link IP to RIS--><g id="link_IP_RIS"><path d="M690.087,439.0115 C642.359,454.0765 578.516,475.0235 523,495.9375 C487.858,509.1765 454.3728,523.3434 424.6868,536.3779 " fill="none" id="IP-to-RIS" style="stroke:#181818;stroke-width:1.0;"/><polygon fill="#181818" points="419.193,538.7901,429.0418,538.8343,423.7711,536.7799,425.8255,531.5093,419.193,538.7901" style="stroke:#181818;stroke-width:1.0;"/><text fill="#000000" font-family="sans-serif" font-size="13" lengthAdjust="spacing" textLength="90" x="590" y="484.0044">Raadsstukken</text></g><!--link IP to BIS--><g id="link_IP_BIS"><path d="M748.402,438.9395 C742.404,448.7095 735.3,460.3665 729,470.9375 C715.292,493.9385 702.9173,515.2828 692.4663,533.4549 " fill="none" id="IP-to-BIS" style="stroke:#181818;stroke-width:1.0;"/><polygon fill="#181818" points="689.475,538.6561,697.4294,532.8485,691.9677,534.3218,690.4944,528.8601,689.475,538.6561" style="stroke:#181818;stroke-width:1.0;"/><text fill="#000000" font-family="sans-serif" font-size="13" lengthAdjust="spacing" textLength="106" x="730" y="484.0044">Bestuursstukken</text></g><!--link IP to CMS--><g id="link_IP_CMS"><path d="M798.464,438.9955 C812.375,448.1305 828.001,459.3055 841,470.9375 C864.37,491.8505 883.6476,514.9812 898.3236,534.034 " fill="none" id="IP-to-CMS" style="stroke:#181818;stroke-width:1.0;"/><polygon fill="#181818" points="901.985,538.7873,899.6618,529.2164,898.9338,534.8262,893.324,534.0982,901.985,538.7873" style="stroke:#181818;stroke-width:1.0;"/><text fill="#000000" font-family="sans-serif" font-size="13" lengthAdjust="spacing" textLength="140" x="859" y="484.0044">Organisatie gegevens</text></g><!--link IP to DEPOT--><g id="link_IP_DEPOT"><path d="M825.428,438.9945 C854.49,448.1055 889.61,457.7375 922,462.9375 C967.671,470.2705 1084.95,460.4295 1130,470.9375 C1177.77,482.0815 1220.0122,512.1971 1247.2722,534.9317 " fill="none" id="IP-to-DEPOT" style="stroke:#181818;stroke-width:1.0;"/><polygon fill="#181818" points="1251.88,538.7746,1247.5302,529.9384,1248.0401,535.5722,1242.4063,536.0821,1251.88,538.7746" style="stroke:#181818;stroke-width:1.0;"/><text fill="#000000" font-family="sans-serif" font-size="13" lengthAdjust="spacing" textLength="161" x="1175" y="484.0044">Gearchiveerde gegevens</text></g><!--link OWS to OI--><g id="link_OWS_OI"><path d="M788.676,309.0405 C830.799,331.0875 898.7481,366.6521 944.5991,390.6511 " fill="none" id="OWS-to-OI" style="stroke:#181818;stroke-width:1.0;stroke-dasharray:7.0,7.0;"/><polygon fill="#181818" points="949.915,393.4335,943.7961,385.716,945.4851,391.1148,940.0863,392.8038,949.915,393.4335" style="stroke:#181818;stroke-width:1.0;"/><text fill="#000000" font-family="sans-serif" font-size="13" lengthAdjust="spacing" textLength="67" x="889" y="359.0044">Slaat op in</text></g><!--link OiBF to OI--><g id="link_OiBF_OI"><path d="M1247.56,309.0405 C1193.83,331.2195 1105.6762,367.6054 1047.6062,391.5734 " fill="none" id="OiBF-to-OI" style="stroke:#181818;stroke-width:1.0;"/><polygon fill="#181818" points="1042.06,393.8625,1051.9053,394.1262,1046.6818,391.9549,1048.8531,386.7314,1042.06,393.8625" style="stroke:#181818;stroke-width:1.0;"/><text fill="#000000" font-family="sans-serif" font-size="13" lengthAdjust="spacing" textLength="53" x="1159" y="359.0044">Beheerd</text></g><!--link FCS to OI--><g id="link_FCS_OI"><path d="M979.535,314.2115 C982.088,336.6425 985.3223,365.058 987.8523,387.28 " fill="none" id="FCS-to-OI" style="stroke:#181818;stroke-width:1.0;"/><polygon fill="#181818" points="988.531,393.2415,991.4872,383.8468,987.9654,388.2736,983.5386,384.7517,988.531,393.2415" style="stroke:#181818;stroke-width:1.0;"/><text fill="#000000" font-family="sans-serif" font-size="13" lengthAdjust="spacing" textLength="61" x="986" y="359.0044">Bevraagd</text></g><!--link KOOP to FCS--><g id="link_KOOP_FCS"><path d="M731.237,138.8625 C695.463,153.5935 628.733,186.4705 658,216.9375 C665.665,224.9165 846.331,222.0045 857,224.9375 C889.212,233.7935 917.3132,249.3429 940.5792,264.4639 " fill="none" id="KOOP-to-FCS" style="stroke:#181818;stroke-width:1.0;"/><polygon fill="#181818" points="945.61,267.7335,940.2435,259.4751,941.4176,265.0088,935.884,266.1829,945.61,267.7335" style="stroke:#181818;stroke-width:1.0;"/><text fill="#000000" font-family="sans-serif" font-size="13" lengthAdjust="spacing" textLength="161" x="659" y="213.0044">Indexeerd (XML Sitemap)</text></g><!--link WOOGLE to FCS--><g id="link_WOOGLE_FCS"><path d="M828.748,168.0135 C826.067,184.3185 826.331,202.9075 836,216.9375 C841.668,225.1615 847.922,220.7725 857,224.9375 C885.21,237.8825 910.7545,251.6367 934.0685,264.8757 " fill="none" id="WOOGLE-to-FCS" style="stroke:#181818;stroke-width:1.0;"/><polygon fill="#181818" points="939.286,267.8385,933.435,259.916,934.9381,265.3695,929.4846,266.8727,939.286,267.8385" style="stroke:#181818;stroke-width:1.0;"/><text fill="#000000" font-family="sans-serif" font-size="13" lengthAdjust="spacing" textLength="98" x="837" y="213.0044">Indexeerd (API)</text></g><!--link Website to FCS--><g id="link_Website_FCS"><path d="M944.054,139.1135 C942.497,154.5335 940.119,188.8785 946,216.9375 C949.728,234.7265 955.1854,248.2046 962.1824,262.2946 " fill="none" id="Website-to-FCS" style="stroke:#181818;stroke-width:1.0;"/><polygon fill="#181818" points="964.851,267.6685,964.4306,257.8286,962.6271,263.1903,957.2655,261.3868,964.851,267.6685" style="stroke:#181818;stroke-width:1.0;"/><text fill="#000000" font-family="sans-serif" font-size="13" lengthAdjust="spacing" textLength="95" x="947" y="213.0044">Bevraagd (API)</text></g><!--link Themasite to FCS--><g id="link_Themasite_FCS"><path d="M1065.66,139.0235 C1064.69,154.8785 1060.98,190.7775 1047,216.9375 C1036.57,236.4485 1023.9084,250.4222 1009.2084,263.6612 " fill="none" id="Themasite-to-FCS" style="stroke:#181818;stroke-width:1.0;"/><polygon fill="#181818" points="1004.75,267.6765,1014.1145,264.6258,1008.4653,264.3304,1008.7607,258.6813,1004.75,267.6765" style="stroke:#181818;stroke-width:1.0;"/><text fill="#000000" font-family="sans-serif" font-size="13" lengthAdjust="spacing" textLength="95" x="1055" y="213.0044">Bevraagd (API)</text></g><!--link Searchsite to FCS--><g id="link_Searchsite_FCS"><path d="M1199.16,138.9845 C1194.92,155.7365 1182.97,194.6495 1159,216.9375 C1133.82,240.3495 1105.8359,254.6479 1074.3259,265.8049 " fill="none" id="Searchsite-to-FCS" style="stroke:#181818;stroke-width:1.0;"/><polygon fill="#181818" points="1068.67,267.8075,1078.489,268.5742,1073.3833,266.1386,1075.8188,261.0329,1068.67,267.8075" style="stroke:#181818;stroke-width:1.0;"/><text fill="#000000" font-family="sans-serif" font-size="13" lengthAdjust="spacing" textLength="95" x="1174" y="213.0044">Bevraagd (API)</text></g><text fill="#888888" font-family="sans-serif" font-size="10" lengthAdjust="spacing" textLength="78" x="673" y="614.2197">OpenWoo.app</text><!--SRC=[VLLDKzim4BtxL-oOGyC1Xa9XEZbq1YU4PXfm1eV2S5lR6qUr8tbaEnGw_UzToHznAC4dIVlUhdRtQLsACYEup19Qa-I5ZbQYfAYiAWqa8QNgbM2j4fAP-9MkA2RfB9KgIG_1pqa-A7MCUUwi2EEtPuxp2UPLc8a8Iq6GPrWkbUOuC9WX9d0EzzD3PwbnJU2-3tJXZmFy2SaHbnWnaBt368jLg537Bbm6u8jk3mTqVdP-6baIHgNIuFxm_RdBkmBC2WvEJhw65wCU0jYfxr_Fhbm3gfSxi7vq2Wika8tRhE5WyldYwkJYBNIneZL2ZMQ_TliH_abH2ZacGg8b18JSZHt6NrFIWFH6H5JKHVpILR0zRskMQyMx0bmFevHa35nJM6h54MLS5yGNtgGhcNK-PMkYRHjg_sUT_wsfZH1ZYI4MR3DjPsvClnl7qvq2HcgTAqco17V24h9EDWGZ9ILhpJWqfCaes65r2JIYQZDlGZm4EvNinUWbCM-qL7Ecs_RRR3rjRj3gyRHBjJd_FyydnBHuAKgYDGmU7xFiTdHec_LqDzgv-vPoXnWNGffBc1jrx5jLLg5uhUbtqs0FtQF2FCRtF0WFmwBcUtlvhKW7YvTSdTNeqSq-z9WjWs25cdB5qgpXmNmFsauBMi9WJ3-noXhu-6hkB_frReew8vuYCRP5xVNhE-bGLo8D4RMxJpZteWmrYTYqArRAwFXPf2bbGYOSU8yK5WGTq32beEhPm1lHyyStx4-GerWzowDlzcquHcH7l9dEX-3HHhDCOjW8T5X9BP1RFmGZpmtfLtx3F25xre2PhFCDIJGFhs_YfW_1oeDRdBxXUSRODlyTE_UGfwrEK8h2AZtXydAKeW-ohHZ2jPqaOaEaunxG97Typ9bEXn1aY2Med0UIOwU2oTeOF5ePckEOrraVmhOMZcDdQXlFO8Rr730aVY8tCmXOVclC3vrciku5NyxvTz3gTHVLrRu6RMVfXx3U1Fq8zmy0]--></g></svg>