<?xml version="1.0" encoding="us-ascii" standalone="no"?><svg xmlns="http://www.w3.org/2000/svg" xmlns:xlink="http://www.w3.org/1999/xlink" contentStyleType="text/css" height="369px" preserveAspectRatio="none" style="width:2296px;height:369px;background:#FFFFFF;" version="1.1" viewBox="0 0 2296 369" width="2296px" zoomAndPan="magnify"><defs/><g><text fill="#888888" font-family="sans-serif" font-size="10" lengthAdjust="spacing" textLength="78" x="2204.655" y="9.2822">OpenWoo.app</text><text fill="#000000" font-family="sans-serif" font-size="14" font-weight="bold" lengthAdjust="spacing" textLength="177" x="1052.8275" y="35.6357">Publicatie platformen</text><!--cluster Publicatie platformen --><g id="cluster_Publicatie platformen "><rect fill="none" height="127" rx="2.5" ry="2.5" style="stroke:#181818;stroke-width:1.0;" width="554" x="1723.655" y="56.9375"/><path d="M1915.655,56.9375 L1915.655,66.2344 L1905.655,76.2344 L1723.655,76.2344 " fill="none" style="stroke:#181818;stroke-width:1.0;"/><text fill="#000000" font-family="sans-serif" font-size="14" font-weight="bold" lengthAdjust="spacing" textLength="177" x="1726.655" y="70.9326">Publicatie platformen</text></g><!--cluster Services--><g id="cluster_Services"><rect fill="none" height="87" rx="2.5" ry="2.5" style="stroke:#181818;stroke-width:1.0;" width="200" x="601.655" y="76.9375"/><path d="M678.655,76.9375 L678.655,86.2344 L668.655,96.2344 L601.655,96.2344 " fill="none" style="stroke:#181818;stroke-width:1.0;"/><text fill="#000000" font-family="sans-serif" font-size="14" font-weight="bold" lengthAdjust="spacing" textLength="67" x="604.655" y="90.9326">Services</text></g><!--cluster Integratie--><g id="cluster_Integratie"><rect fill="none" height="96" rx="2.5" ry="2.5" style="stroke:#181818;stroke-width:1.0;" width="134" x="1886.655" y="248.4375"/><path d="M1977.655,248.4375 L1977.655,257.7344 L1967.655,267.7344 L1886.655,267.7344 " fill="none" style="stroke:#181818;stroke-width:1.0;"/><text fill="#000000" font-family="sans-serif" font-size="14" font-weight="bold" lengthAdjust="spacing" textLength="81" x="1889.655" y="262.4326">Integratie</text></g><!--cluster Bronnen--><g id="cluster_Bronnen"><rect fill="none" height="97" rx="2.5" ry="2.5" style="stroke:#181818;stroke-width:1.0;" width="879" x="489.655" y="247.9375"/><path d="M566.655,247.9375 L566.655,257.2344 L556.655,267.2344 L489.655,267.2344 " fill="none" style="stroke:#181818;stroke-width:1.0;"/><text fill="#000000" font-family="sans-serif" font-size="14" font-weight="bold" lengthAdjust="spacing" textLength="67" x="492.655" y="261.9326">Bronnen</text></g><!--entity KOOP--><g id="elem_KOOP"><ellipse cx="1760.655" cy="100.4375" fill="#CCE5FF" rx="8" ry="8" style="stroke:#181818;stroke-width:0.5;"/><path d="M1760.655,108.4375 L1760.655,135.4375 M1747.655,116.4375 L1773.655,116.4375 M1760.655,135.4375 L1747.655,150.4375 M1760.655,135.4375 L1773.655,150.4375 " fill="none" style="stroke:#181818;stroke-width:0.5;"/><text fill="#000000" font-family="sans-serif" font-size="14" lengthAdjust="spacing" textLength="41" x="1740.155" y="164.9326">KOOP</text></g><!--entity WOOGLE--><g id="elem_WOOGLE"><ellipse cx="1848.655" cy="100.4375" fill="#CCE5FF" rx="8" ry="8" style="stroke:#181818;stroke-width:0.5;"/><path d="M1848.655,108.4375 L1848.655,135.4375 M1835.655,116.4375 L1861.655,116.4375 M1848.655,135.4375 L1835.655,150.4375 M1848.655,135.4375 L1861.655,150.4375 " fill="none" style="stroke:#181818;stroke-width:0.5;"/><text fill="#000000" font-family="sans-serif" font-size="14" lengthAdjust="spacing" textLength="64" x="1816.655" y="164.9326">WOOGLE</text></g><!--entity Website--><g id="elem_Website"><ellipse cx="1953.655" cy="129.9375" fill="#1ABC9C" rx="8" ry="8" style="stroke:#181818;stroke-width:0.5;"/><text fill="#000000" font-family="sans-serif" font-size="14" lengthAdjust="spacing" textLength="60" x="1923.655" y="159.9326">Website</text></g><!--entity Themasite--><g id="elem_Themasite"><ellipse cx="2074.655" cy="129.9375" fill="#1ABC9C" rx="8" ry="8" style="stroke:#181818;stroke-width:0.5;"/><text fill="#000000" font-family="sans-serif" font-size="14" lengthAdjust="spacing" textLength="80" x="2034.655" y="159.9326">Thema site</text></g><!--entity Searchsite--><g id="elem_Searchsite"><ellipse cx="2209.655" cy="129.9375" fill="#1ABC9C" rx="8" ry="8" style="stroke:#181818;stroke-width:0.5;"/><text fill="#000000" font-family="sans-serif" font-size="14" lengthAdjust="spacing" textLength="89" x="2165.155" y="159.9326">Zoek pagina</text></g><!--entity OWS--><g id="elem_OWS"><polygon fill="#1ABC9C" points="617.655,111.9375,775.655,111.9375,785.655,130.0859,775.655,148.2344,617.655,148.2344,627.655,130.0859" style="stroke:#181818;stroke-width:0.5;"/><text fill="#000000" font-family="sans-serif" font-size="14" lengthAdjust="spacing" textLength="128" x="637.655" y="134.9326">OpenWoo Service</text></g><!--entity IO--><g id="elem_IO"><path d="M1902.655,293.4375 C1902.655,283.4375 1953.655,283.4375 1953.655,283.4375 C1953.655,283.4375 2004.655,283.4375 2004.655,293.4375 L2004.655,318.7344 C2004.655,328.7344 1953.655,328.7344 1953.655,328.7344 C1953.655,328.7344 1902.655,328.7344 1902.655,318.7344 L1902.655,293.4375 " fill="#1ABC9C" style="stroke:#181818;stroke-width:0.5;"/><path d="M1902.655,293.4375 C1902.655,303.4375 1953.655,303.4375 1953.655,303.4375 C1953.655,303.4375 2004.655,303.4375 2004.655,293.4375 " fill="none" style="stroke:#181818;stroke-width:0.5;"/><text fill="#000000" font-family="sans-serif" font-size="14" lengthAdjust="spacing" textLength="82" x="1912.655" y="320.4326">Open Index</text></g><!--entity Zaaksysteem--><g id="elem_Zaaksysteem"><rect fill="#CCE5FF" height="46.2969" rx="2.5" ry="2.5" style="stroke:#181818;stroke-width:0.5;" width="136" x="505.655" y="282.9375"/><rect fill="#CCE5FF" height="10" style="stroke:#181818;stroke-width:0.5;" width="15" x="621.655" y="287.9375"/><rect fill="#CCE5FF" height="2" style="stroke:#181818;stroke-width:0.5;" width="4" x="619.655" y="289.9375"/><rect fill="#CCE5FF" height="2" style="stroke:#181818;stroke-width:0.5;" width="4" x="619.655" y="293.9375"/><text fill="#000000" font-family="sans-serif" font-size="14" lengthAdjust="spacing" textLength="96" x="520.655" y="315.9326">Zaaksysteem</text></g><!--entity CMS--><g id="elem_CMS"><rect fill="#CCE5FF" height="46.2969" rx="2.5" ry="2.5" style="stroke:#181818;stroke-width:0.5;" width="71" x="677.155" y="282.9375"/><rect fill="#CCE5FF" height="10" style="stroke:#181818;stroke-width:0.5;" width="15" x="728.155" y="287.9375"/><rect fill="#CCE5FF" height="2" style="stroke:#181818;stroke-width:0.5;" width="4" x="726.155" y="289.9375"/><rect fill="#CCE5FF" height="2" style="stroke:#181818;stroke-width:0.5;" width="4" x="726.155" y="293.9375"/><text fill="#000000" font-family="sans-serif" font-size="14" lengthAdjust="spacing" textLength="31" x="692.155" y="315.9326">CMS</text></g><!--entity Raadsinfo--><g id="elem_Raadsinfo"><rect fill="#CCE5FF" height="46.2969" rx="2.5" ry="2.5" style="stroke:#181818;stroke-width:0.5;" width="227" x="783.155" y="282.9375"/><rect fill="#CCE5FF" height="10" style="stroke:#181818;stroke-width:0.5;" width="15" x="990.155" y="287.9375"/><rect fill="#CCE5FF" height="2" style="stroke:#181818;stroke-width:0.5;" width="4" x="988.155" y="289.9375"/><rect fill="#CCE5FF" height="2" style="stroke:#181818;stroke-width:0.5;" width="4" x="988.155" y="293.9375"/><text fill="#000000" font-family="sans-serif" font-size="14" lengthAdjust="spacing" textLength="187" x="798.155" y="315.9326">Raads informatie systeem</text></g><!--entity eDepot--><g id="elem_eDepot"><rect fill="#CCE5FF" height="46.2969" rx="2.5" ry="2.5" style="stroke:#181818;stroke-width:0.5;" width="95" x="1045.155" y="282.9375"/><rect fill="#CCE5FF" height="10" style="stroke:#181818;stroke-width:0.5;" width="15" x="1120.155" y="287.9375"/><rect fill="#CCE5FF" height="2" style="stroke:#181818;stroke-width:0.5;" width="4" x="1118.155" y="289.9375"/><rect fill="#CCE5FF" height="2" style="stroke:#181818;stroke-width:0.5;" width="4" x="1118.155" y="293.9375"/><text fill="#000000" font-family="sans-serif" font-size="14" lengthAdjust="spacing" textLength="55" x="1060.155" y="315.9326">eDepot</text></g><!--entity DMS--><g id="elem_DMS"><rect fill="#CCE5FF" height="46.2969" rx="2.5" ry="2.5" style="stroke:#181818;stroke-width:0.5;" width="72" x="1175.655" y="282.9375"/><rect fill="#CCE5FF" height="10" style="stroke:#181818;stroke-width:0.5;" width="15" x="1227.655" y="287.9375"/><rect fill="#CCE5FF" height="2" style="stroke:#181818;stroke-width:0.5;" width="4" x="1225.655" y="289.9375"/><rect fill="#CCE5FF" height="2" style="stroke:#181818;stroke-width:0.5;" width="4" x="1225.655" y="293.9375"/><text fill="#000000" font-family="sans-serif" font-size="14" lengthAdjust="spacing" textLength="32" x="1190.655" y="315.9326">DMS</text></g><!--entity VTH--><g id="elem_VTH"><rect fill="#CCE5FF" height="46.2969" rx="2.5" ry="2.5" style="stroke:#181818;stroke-width:0.5;" width="69" x="1283.155" y="282.9375"/><rect fill="#CCE5FF" height="10" style="stroke:#181818;stroke-width:0.5;" width="15" x="1332.155" y="287.9375"/><rect fill="#CCE5FF" height="2" style="stroke:#181818;stroke-width:0.5;" width="4" x="1330.155" y="289.9375"/><rect fill="#CCE5FF" height="2" style="stroke:#181818;stroke-width:0.5;" width="4" x="1330.155" y="293.9375"/><text fill="#000000" font-family="sans-serif" font-size="14" lengthAdjust="spacing" textLength="29" x="1298.155" y="315.9326">VTH</text></g><!--entity OI--><g id="elem_OI"><ellipse cx="21.655" cy="276.4375" fill="#F1F1F1" rx="8" ry="8" style="stroke:#181818;stroke-width:0.5;"/><path d="M21.655,284.4375 L21.655,311.4375 M8.655,292.4375 L34.655,292.4375 M21.655,311.4375 L8.655,326.4375 M21.655,311.4375 L34.655,326.4375 " fill="none" style="stroke:#181818;stroke-width:0.5;"/><text fill="#000000" font-family="sans-serif" font-size="14" lengthAdjust="spacing" textLength="15" x="14.155" y="340.9326">OI</text></g><!--link KOOP to IO--><g id="link_KOOP_IO"><path d="M1740.115,139.8155 C1703.865,156.7175 1634.955,195.1215 1663.655,231.9375 C1692.735,269.2512 1821.4386,289.7128 1896.5986,298.8213 " fill="none" id="KOOP-to-IO" style="stroke:#181818;stroke-width:1.0;"/><polygon fill="#181818" points="1902.555,299.5431,1894.1016,294.4894,1897.5913,298.9416,1893.1392,302.4313,1902.555,299.5431" style="stroke:#181818;stroke-width:1.0;"/><text fill="#000000" font-family="sans-serif" font-size="13" lengthAdjust="spacing" textLength="161" x="1664.655" y="220.5044">Indexeerd (XML Sitemap)</text></g><!--link WOOGLE to IO--><g id="link_WOOGLE_IO"><path d="M1837.365,168.0305 C1833.425,188.0775 1832.235,212.6115 1842.655,231.9375 C1855.515,255.7915 1874.63,270.3624 1897.31,282.1378 " fill="none" id="WOOGLE-to-IO" style="stroke:#181818;stroke-width:1.0;"/><polygon fill="#181818" points="1902.635,284.9026,1896.4906,277.2054,1898.1975,282.5986,1892.8043,284.3055,1902.635,284.9026" style="stroke:#181818;stroke-width:1.0;"/><text fill="#000000" font-family="sans-serif" font-size="13" lengthAdjust="spacing" textLength="98" x="1843.655" y="220.5044">Indexeerd (API)</text></g><!--link Website to IO--><g id="link_Website_IO"><path d="M1953.195,139.0075 C1952.475,151.8845 1951.135,177.8805 1950.655,199.9375 C1950.025,228.7445 1951.0102,255.9972 1952.0902,277.2289 " fill="none" id="Website-to-IO" style="stroke:#181818;stroke-width:1.0;"/><polygon fill="#181818" points="1952.395,283.2212,1955.9326,274.0296,1952.141,278.2277,1947.943,274.436,1952.395,283.2212" style="stroke:#181818;stroke-width:1.0;"/><text fill="#000000" font-family="sans-serif" font-size="13" lengthAdjust="spacing" textLength="95" x="1951.655" y="220.5044">Bevraagd (API)</text></g><!--link Themasite to IO--><g id="link_Themasite_IO"><path d="M2074.655,138.9955 C2074.285,157.1055 2071.285,201.7975 2051.655,231.9375 C2037.645,253.4485 2020.0777,267.7612 2000.0777,280.2202 " fill="none" id="Themasite-to-IO" style="stroke:#181818;stroke-width:1.0;"/><polygon fill="#181818" points="1994.985,283.3927,2004.739,282.0291,1999.2289,280.749,2000.5091,275.2389,1994.985,283.3927" style="stroke:#181818;stroke-width:1.0;"/><text fill="#000000" font-family="sans-serif" font-size="13" lengthAdjust="spacing" textLength="95" x="2066.655" y="220.5044">Bevraagd (API)</text></g><!--link Searchsite to IO--><g id="link_Searchsite_IO"><path d="M2208.845,139.0195 C2206.515,157.9785 2198.085,205.6865 2170.655,231.9375 C2125.285,275.358 2059.1911,292.115 2010.7011,299.2503 " fill="none" id="Searchsite-to-IO" style="stroke:#181818;stroke-width:1.0;"/><polygon fill="#181818" points="2004.765,300.1238,2014.2515,302.7709,2009.7118,299.3959,2013.0868,294.8562,2004.765,300.1238" style="stroke:#181818;stroke-width:1.0;"/><text fill="#000000" font-family="sans-serif" font-size="13" lengthAdjust="spacing" textLength="95" x="2193.655" y="220.5044">Bevraagd (API)</text></g><!--link OWS to OI--><g id="link_OWS_OI"><path d="M617.525,134.3415 C449.871,141.8995 86.5629,162.4415 44.655,199.9375 C25.9497,216.6735 20.789,238.8122 19.8777,261.7475 " fill="none" id="OWS-to-OI" style="stroke:#181818;stroke-width:1.0;stroke-dasharray:7.0,7.0;"/><polygon fill="#181818" points="19.6395,267.7428,23.9937,258.9087,19.838,262.7467,16,258.5911,19.6395,267.7428" style="stroke:#181818;stroke-width:1.0;"/><text fill="#000000" font-family="sans-serif" font-size="13" lengthAdjust="spacing" textLength="67" x="45.655" y="220.5044">Slaat op in</text></g><!--link OWS to CMS--><g id="link_OWS_CMS"><path d="M623.207,148.0005 C562.118,164.7025 493.31,193.2685 529.655,231.9375 C539.49,242.4015 645.85,233.4365 658.655,239.9375 C676.969,249.2345 688.223,262.7144 697.543,277.6328 " fill="none" id="OWS-to-CMS" style="stroke:#181818;stroke-width:1.0;"/><polygon fill="#181818" points="700.722,282.7214,699.3459,272.9692,698.0728,278.4809,692.5611,277.2078,700.722,282.7214" style="stroke:#181818;stroke-width:1.0;"/><text fill="#000000" font-family="sans-serif" font-size="13" lengthAdjust="spacing" textLength="127" x="530.655" y="213.0044">Scrapes periodically</text><text fill="#000000" font-family="sans-serif" font-size="13" lengthAdjust="spacing" textLength="97" x="545.655" y="228.1372">Uses as source</text></g><!--reverse link OWS to CMS--><g id="link_OWS_CMS"><path d="M700.398,153.9364 C699.671,167.8984 699.041,182.1955 698.655,199.9375 C698.346,214.1565 697.31,217.7795 698.655,231.9375 C700.291,249.1525 704.05,268.3462 707.261,282.7309 " fill="none" id="OWS-backto-CMS" style="stroke:#181818;stroke-width:1.0;"/><polygon fill="#181818" points="700.71,147.9445,696.2474,156.7243,700.45,152.9377,704.2366,157.1403,700.71,147.9445" style="stroke:#181818;stroke-width:1.0;"/><text fill="#000000" font-family="sans-serif" font-size="13" lengthAdjust="spacing" textLength="191" x="699.655" y="220.5044">Notifies of changes or deletes</text></g><!--link OWS to Zaaksysteem--><g id="link_OWS_Zaaksysteem"><path d="M617.369,134.9925 C465.716,143.1575 159.583,163.9425 127.655,199.9375 C118.218,210.5775 118.446,221.0995 127.655,231.9375 C175.346,288.0685 386.9771,300.9731 499.6281,303.9487 " fill="none" id="OWS-to-Zaaksysteem" style="stroke:#181818;stroke-width:1.0;"/><polygon fill="#181818" points="505.626,304.1071,496.7348,299.8708,500.6278,303.9751,496.5235,307.8681,505.626,304.1071" style="stroke:#181818;stroke-width:1.0;"/><text fill="#000000" font-family="sans-serif" font-size="13" lengthAdjust="spacing" textLength="127" x="128.655" y="213.0044">Scrapes periodically</text><text fill="#000000" font-family="sans-serif" font-size="13" lengthAdjust="spacing" textLength="97" x="143.655" y="228.1372">Uses as source</text></g><!--reverse link OWS to Zaaksysteem--><g id="link_OWS_Zaaksysteem"><path d="M611.4941,134.2554 C510.4781,139.8184 355.975,155.2925 318.655,199.9375 C263.306,266.1487 412.318,291.1758 505.349,300.1895 " fill="none" id="OWS-backto-Zaaksysteem" style="stroke:#181818;stroke-width:1.0;"/><polygon fill="#181818" points="617.485,133.9255,608.2787,130.4264,612.4926,134.2004,608.7186,138.4143,617.485,133.9255" style="stroke:#181818;stroke-width:1.0;"/><text fill="#000000" font-family="sans-serif" font-size="13" lengthAdjust="spacing" textLength="191" x="319.655" y="220.5044">Notifies of changes or deletes</text></g><!--link OWS to Raadsinfo--><g id="link_OWS_Raadsinfo"><path d="M785.657,138.8805 C825.834,147.3755 870.547,164.7165 895.655,199.9375 C912.798,223.9855 910.0104,253.8029 904.6484,276.7478 " fill="none" id="OWS-to-Raadsinfo" style="stroke:#181818;stroke-width:1.0;"/><polygon fill="#181818" points="903.283,282.5904,909.2261,274.7368,904.4208,277.7216,901.436,272.9163,903.283,282.5904" style="stroke:#181818;stroke-width:1.0;"/><text fill="#000000" font-family="sans-serif" font-size="13" lengthAdjust="spacing" textLength="127" x="908.655" y="213.0044">Scrapes periodically</text><text fill="#000000" font-family="sans-serif" font-size="13" lengthAdjust="spacing" textLength="97" x="923.655" y="228.1372">Uses as source</text></g><!--link OWS to eDepot--><g id="link_OWS_eDepot"><path d="M785.978,139.0945 C874.247,149.1425 1005.385,168.8085 1044.655,199.9375 C1070.725,220.6065 1081.8393,252.7701 1087.3593,276.9439 " fill="none" id="OWS-to-eDepot" style="stroke:#181818;stroke-width:1.0;"/><polygon fill="#181818" points="1088.695,282.7933,1090.5911,273.1287,1087.5819,277.9188,1082.7919,274.9096,1088.695,282.7933" style="stroke:#181818;stroke-width:1.0;"/><text fill="#000000" font-family="sans-serif" font-size="13" lengthAdjust="spacing" textLength="127" x="1071.655" y="213.0044">Scrapes periodically</text><text fill="#000000" font-family="sans-serif" font-size="13" lengthAdjust="spacing" textLength="97" x="1086.655" y="228.1372">Uses as source</text></g><!--link OWS to DMS--><g id="link_OWS_DMS"><path d="M785.775,136.5625 C922.306,146.5395 1179.795,169.2155 1207.655,199.9375 C1227.755,222.0975 1225.1005,253.1126 1219.6205,276.743 " fill="none" id="OWS-to-DMS" style="stroke:#181818;stroke-width:1.0;"/><polygon fill="#181818" points="1218.265,282.5879,1224.1948,274.7242,1219.3946,277.7172,1216.4016,272.9169,1218.265,282.5879" style="stroke:#181818;stroke-width:1.0;"/><text fill="#000000" font-family="sans-serif" font-size="13" lengthAdjust="spacing" textLength="127" x="1222.655" y="213.0044">Scrapes periodically</text><text fill="#000000" font-family="sans-serif" font-size="13" lengthAdjust="spacing" textLength="97" x="1237.655" y="228.1372">Uses as source</text></g><!--link OWS to VTH--><g id="link_OWS_VTH"><path d="M785.842,133.6135 C954.508,139.8455 1320.975,158.0955 1358.655,199.9375 C1380.005,223.6415 1361.3741,255.1091 1342.2341,278.1996 " fill="none" id="OWS-to-VTH" style="stroke:#181818;stroke-width:1.0;"/><polygon fill="#181818" points="1338.405,282.819,1347.2282,278.4427,1341.5959,278.9695,1341.069,273.3373,1338.405,282.819" style="stroke:#181818;stroke-width:1.0;"/><text fill="#000000" font-family="sans-serif" font-size="13" lengthAdjust="spacing" textLength="127" x="1368.655" y="213.0044">Scrapes periodically</text><text fill="#000000" font-family="sans-serif" font-size="13" lengthAdjust="spacing" textLength="97" x="1383.655" y="228.1372">Uses as source</text></g><text fill="#888888" font-family="sans-serif" font-size="10" lengthAdjust="spacing" textLength="78" x="1102.3275" y="359.2197">OpenWoo.app</text><!--SRC=[dLJBRjim4BphAnRAeSd11lh8eJu4IEgYDUfKHfJKHT7BcbfPH2IH8EcqGT1_xvAIR2c8ZS2-YCkT6P6p8plfIeB5PbLAWKuIw19Than5TPGhvSXC8D5KBvKQezPHGPWztulUl2m0ftF4DPp3tUmioWrM1F7Bm1YU8k0V2gSCnD-IP15pPS6lu4G8Ei_p7W8WNYR9b_dds8EQvG0cQpvvZeBVkAILbOvYk4oXNSF9Mro9Z-8vzBQW2g51isue3-5_ARe7ZMjPOo2aX4OK0yO_xqvAva4AieqV7xPcTFlTzRLHN5c8MtSxOkD5iao7iZC-oTe4BnlbzrlbNQlJpj3X2YqruipDw6-ZEqk6ibT6rVLsUk-sckr-9oXKfHNNZdr0lBUFrX5LmOTU3OEnz3YVhjE0vUTUp0rYPjbmdv9mpVvBGjFtzj9fIbgv06wMUv7JzZ3J0uVvSVirOFYvmmJ3ReYJB5Lj2wbj528xojIVUdJXlPqqNXEP34v_NiyXvNnKgC-YDhVxi9SB_cown0v0L_HWU3OTPfVJGwXUE0_1VCh6umj8PXD8IqG7IlC8ej3eY7vet1O6DLdGPAJA-AikoyVVzPtbBVR9geqHDA3rSt44VJVn8yXj0evWJe-xhC_9AscSeU_AoJpyCNAE8k_lQADPnIjEsYvpL0wYm7hjbmOoAicHZVg-lfxs7m00]--></g></svg>