<?xml version="1.0" encoding="us-ascii" standalone="no"?><svg xmlns="http://www.w3.org/2000/svg" xmlns:xlink="http://www.w3.org/1999/xlink" contentStyleType="text/css" height="369px" preserveAspectRatio="none" style="width:2216px;height:369px;background:#FFFFFF;" version="1.1" viewBox="0 0 2216 369" width="2216px" zoomAndPan="magnify"><defs/><g><text fill="#888888" font-family="sans-serif" font-size="10" lengthAdjust="spacing" textLength="78" x="2124.6951" y="9.2822">OpenWoo.app</text><text fill="#000000" font-family="sans-serif" font-size="14" font-weight="bold" lengthAdjust="spacing" textLength="177" x="1012.8476" y="35.6357">Publicatie platformen</text><!--cluster Publicatie platformen --><g id="cluster_Publicatie platformen "><rect fill="none" height="127" rx="2.5" ry="2.5" style="stroke:#181818;stroke-width:1.0;" width="554.0004" x="94.6967" y="56.9375"/><path d="M286.6967,56.9375 L286.6967,66.2344 L276.6967,76.2344 L94.6967,76.2344 " fill="none" style="stroke:#181818;stroke-width:1.0;"/><text fill="#000000" font-family="sans-serif" font-size="14" font-weight="bold" lengthAdjust="spacing" textLength="177" x="97.6967" y="70.9326">Publicatie platformen</text></g><!--cluster Services--><g id="cluster_Services"><rect fill="none" height="87" rx="2.5" ry="2.5" style="stroke:#181818;stroke-width:1.0;" width="200" x="1315.6951" y="76.9375"/><path d="M1392.6951,76.9375 L1392.6951,86.2344 L1382.6951,96.2344 L1315.6951,96.2344 " fill="none" style="stroke:#181818;stroke-width:1.0;"/><text fill="#000000" font-family="sans-serif" font-size="14" font-weight="bold" lengthAdjust="spacing" textLength="67" x="1318.6951" y="90.9326">Services</text></g><!--cluster Integratie--><g id="cluster_Integratie"><rect fill="none" height="96" rx="2.5" ry="2.5" style="stroke:#181818;stroke-width:1.0;" width="134" x="668.6971" y="248.4375"/><path d="M759.6971,248.4375 L759.6971,257.7344 L749.6971,267.7344 L668.6971,267.7344 " fill="none" style="stroke:#181818;stroke-width:1.0;"/><text fill="#000000" font-family="sans-serif" font-size="14" font-weight="bold" lengthAdjust="spacing" textLength="81" x="671.6971" y="262.4326">Integratie</text></g><!--cluster Bronnen--><g id="cluster_Bronnen"><rect fill="none" height="97" rx="2.5" ry="2.5" style="stroke:#181818;stroke-width:1.0;" width="879" x="1203.6951" y="247.9375"/><path d="M1280.6951,247.9375 L1280.6951,257.2344 L1270.6951,267.2344 L1203.6951,267.2344 " fill="none" style="stroke:#181818;stroke-width:1.0;"/><text fill="#000000" font-family="sans-serif" font-size="14" font-weight="bold" lengthAdjust="spacing" textLength="67" x="1206.6951" y="261.9326">Bronnen</text></g><!--entity KOOP--><g id="elem_KOOP"><ellipse cx="131.6967" cy="100.4375" fill="#CCE5FF" rx="8" ry="8" style="stroke:#181818;stroke-width:0.5;"/><path d="M131.6967,108.4375 L131.6967,135.4375 M118.6967,116.4375 L144.6967,116.4375 M131.6967,135.4375 L118.6967,150.4375 M131.6967,135.4375 L144.6967,150.4375 " fill="none" style="stroke:#181818;stroke-width:0.5;"/><text fill="#000000" font-family="sans-serif" font-size="14" lengthAdjust="spacing" textLength="41" x="111.1967" y="164.9326">KOOP</text></g><!--entity WOOGLE--><g id="elem_WOOGLE"><ellipse cx="219.6971" cy="100.4375" fill="#CCE5FF" rx="8" ry="8" style="stroke:#181818;stroke-width:0.5;"/><path d="M219.6971,108.4375 L219.6971,135.4375 M206.6971,116.4375 L232.6971,116.4375 M219.6971,135.4375 L206.6971,150.4375 M219.6971,135.4375 L232.6971,150.4375 " fill="none" style="stroke:#181818;stroke-width:0.5;"/><text fill="#000000" font-family="sans-serif" font-size="14" lengthAdjust="spacing" textLength="64" x="187.6971" y="164.9326">WOOGLE</text></g><!--entity Website--><g id="elem_Website"><ellipse cx="324.6971" cy="129.9375" fill="#1ABC9C" rx="8" ry="8" style="stroke:#181818;stroke-width:0.5;"/><text fill="#000000" font-family="sans-serif" font-size="14" lengthAdjust="spacing" textLength="60" x="294.6971" y="159.9326">Website</text></g><!--entity Themasite--><g id="elem_Themasite"><ellipse cx="445.6971" cy="129.9375" fill="#1ABC9C" rx="8" ry="8" style="stroke:#181818;stroke-width:0.5;"/><text fill="#000000" font-family="sans-serif" font-size="14" lengthAdjust="spacing" textLength="80" x="405.6971" y="159.9326">Thema site</text></g><!--entity Searchsite--><g id="elem_Searchsite"><ellipse cx="580.6971" cy="129.9375" fill="#1ABC9C" rx="8" ry="8" style="stroke:#181818;stroke-width:0.5;"/><text fill="#000000" font-family="sans-serif" font-size="14" lengthAdjust="spacing" textLength="89" x="536.1971" y="159.9326">Zoek pagina</text></g><!--entity OWS--><g id="elem_OWS"><polygon fill="#1ABC9C" points="1331.6951,111.9375,1489.6951,111.9375,1499.6951,130.0859,1489.6951,148.2344,1331.6951,148.2344,1341.6951,130.0859" style="stroke:#181818;stroke-width:0.5;"/><text fill="#000000" font-family="sans-serif" font-size="14" lengthAdjust="spacing" textLength="128" x="1351.6951" y="134.9326">OpenWoo Service</text></g><!--entity OI--><g id="elem_OI"><path d="M684.6971,293.4375 C684.6971,283.4375 735.6971,283.4375 735.6971,283.4375 C735.6971,283.4375 786.6971,283.4375 786.6971,293.4375 L786.6971,318.7344 C786.6971,328.7344 735.6971,328.7344 735.6971,328.7344 C735.6971,328.7344 684.6971,328.7344 684.6971,318.7344 L684.6971,293.4375 " fill="#1ABC9C" style="stroke:#181818;stroke-width:0.5;"/><path d="M684.6971,293.4375 C684.6971,303.4375 735.6971,303.4375 735.6971,303.4375 C735.6971,303.4375 786.6971,303.4375 786.6971,293.4375 " fill="none" style="stroke:#181818;stroke-width:0.5;"/><text fill="#000000" font-family="sans-serif" font-size="14" lengthAdjust="spacing" textLength="82" x="694.6971" y="320.4326">Open Index</text></g><!--entity Zaaksysteem--><g id="elem_Zaaksysteem"><rect fill="#CCE5FF" height="46.2969" rx="2.5" ry="2.5" style="stroke:#181818;stroke-width:0.5;" width="136" x="1219.6951" y="282.9375"/><rect fill="#CCE5FF" height="10" style="stroke:#181818;stroke-width:0.5;" width="15" x="1335.6951" y="287.9375"/><rect fill="#CCE5FF" height="2" style="stroke:#181818;stroke-width:0.5;" width="4" x="1333.6951" y="289.9375"/><rect fill="#CCE5FF" height="2" style="stroke:#181818;stroke-width:0.5;" width="4" x="1333.6951" y="293.9375"/><text fill="#000000" font-family="sans-serif" font-size="14" lengthAdjust="spacing" textLength="96" x="1234.6951" y="315.9326">Zaaksysteem</text></g><!--entity CMS--><g id="elem_CMS"><rect fill="#CCE5FF" height="46.2969" rx="2.5" ry="2.5" style="stroke:#181818;stroke-width:0.5;" width="71" x="1391.1951" y="282.9375"/><rect fill="#CCE5FF" height="10" style="stroke:#181818;stroke-width:0.5;" width="15" x="1442.1951" y="287.9375"/><rect fill="#CCE5FF" height="2" style="stroke:#181818;stroke-width:0.5;" width="4" x="1440.1951" y="289.9375"/><rect fill="#CCE5FF" height="2" style="stroke:#181818;stroke-width:0.5;" width="4" x="1440.1951" y="293.9375"/><text fill="#000000" font-family="sans-serif" font-size="14" lengthAdjust="spacing" textLength="31" x="1406.1951" y="315.9326">CMS</text></g><!--entity Raadsinfo--><g id="elem_Raadsinfo"><rect fill="#CCE5FF" height="46.2969" rx="2.5" ry="2.5" style="stroke:#181818;stroke-width:0.5;" width="227" x="1497.1951" y="282.9375"/><rect fill="#CCE5FF" height="10" style="stroke:#181818;stroke-width:0.5;" width="15" x="1704.1951" y="287.9375"/><rect fill="#CCE5FF" height="2" style="stroke:#181818;stroke-width:0.5;" width="4" x="1702.1951" y="289.9375"/><rect fill="#CCE5FF" height="2" style="stroke:#181818;stroke-width:0.5;" width="4" x="1702.1951" y="293.9375"/><text fill="#000000" font-family="sans-serif" font-size="14" lengthAdjust="spacing" textLength="187" x="1512.1951" y="315.9326">Raads informatie systeem</text></g><!--entity eDepot--><g id="elem_eDepot"><rect fill="#CCE5FF" height="46.2969" rx="2.5" ry="2.5" style="stroke:#181818;stroke-width:0.5;" width="95" x="1759.1951" y="282.9375"/><rect fill="#CCE5FF" height="10" style="stroke:#181818;stroke-width:0.5;" width="15" x="1834.1951" y="287.9375"/><rect fill="#CCE5FF" height="2" style="stroke:#181818;stroke-width:0.5;" width="4" x="1832.1951" y="289.9375"/><rect fill="#CCE5FF" height="2" style="stroke:#181818;stroke-width:0.5;" width="4" x="1832.1951" y="293.9375"/><text fill="#000000" font-family="sans-serif" font-size="14" lengthAdjust="spacing" textLength="55" x="1774.1951" y="315.9326">eDepot</text></g><!--entity DMS--><g id="elem_DMS"><rect fill="#CCE5FF" height="46.2969" rx="2.5" ry="2.5" style="stroke:#181818;stroke-width:0.5;" width="72" x="1889.6951" y="282.9375"/><rect fill="#CCE5FF" height="10" style="stroke:#181818;stroke-width:0.5;" width="15" x="1941.6951" y="287.9375"/><rect fill="#CCE5FF" height="2" style="stroke:#181818;stroke-width:0.5;" width="4" x="1939.6951" y="289.9375"/><rect fill="#CCE5FF" height="2" style="stroke:#181818;stroke-width:0.5;" width="4" x="1939.6951" y="293.9375"/><text fill="#000000" font-family="sans-serif" font-size="14" lengthAdjust="spacing" textLength="32" x="1904.6951" y="315.9326">DMS</text></g><!--entity VTH--><g id="elem_VTH"><rect fill="#CCE5FF" height="46.2969" rx="2.5" ry="2.5" style="stroke:#181818;stroke-width:0.5;" width="69" x="1997.1951" y="282.9375"/><rect fill="#CCE5FF" height="10" style="stroke:#181818;stroke-width:0.5;" width="15" x="2046.1951" y="287.9375"/><rect fill="#CCE5FF" height="2" style="stroke:#181818;stroke-width:0.5;" width="4" x="2044.1951" y="289.9375"/><rect fill="#CCE5FF" height="2" style="stroke:#181818;stroke-width:0.5;" width="4" x="2044.1951" y="293.9375"/><text fill="#000000" font-family="sans-serif" font-size="14" lengthAdjust="spacing" textLength="29" x="2012.1951" y="315.9326">VTH</text></g><!--entity IO--><g id="elem_IO"><ellipse cx="324.6971" cy="276.4375" fill="#F1F1F1" rx="8" ry="8" style="stroke:#181818;stroke-width:0.5;"/><path d="M324.6971,284.4375 L324.6971,311.4375 M311.6971,292.4375 L337.6971,292.4375 M324.6971,311.4375 L311.6971,326.4375 M324.6971,311.4375 L337.6971,326.4375 " fill="none" style="stroke:#181818;stroke-width:0.5;"/><text fill="#000000" font-family="sans-serif" font-size="14" lengthAdjust="spacing" textLength="15" x="317.1971" y="340.9326">IO</text></g><!--link KOOP to IO--><g id="link_KOOP_IO"><path d="M111.1598,139.8155 C74.9109,156.7175 6,195.1215 34.6967,231.9375 C69.8062,276.9801 252.773,297.9298 305.217,303.0966 " fill="none" id="KOOP-to-IO" style="stroke:#181818;stroke-width:1.0;"/><polygon fill="#181818" points="311.1881,303.6849,302.6236,298.8218,306.2122,303.1947,301.8393,306.7832,311.1881,303.6849" style="stroke:#181818;stroke-width:1.0;"/><text fill="#000000" font-family="sans-serif" font-size="13" lengthAdjust="spacing" textLength="161" x="35.6967" y="220.5044">Indexeerd (XML Sitemap)</text></g><!--link WOOGLE to IO--><g id="link_WOOGLE_IO"><path d="M208.4051,168.0305 C204.4621,188.0775 203.2751,212.6115 213.6971,231.9375 C234.6051,270.7133 280.4232,290.3305 305.2262,298.7745 " fill="none" id="WOOGLE-to-IO" style="stroke:#181818;stroke-width:1.0;"/><polygon fill="#181818" points="310.9061,300.7082,303.6754,294.0211,306.1729,299.0968,301.0972,301.5943,310.9061,300.7082" style="stroke:#181818;stroke-width:1.0;"/><text fill="#000000" font-family="sans-serif" font-size="13" lengthAdjust="spacing" textLength="98" x="214.6971" y="220.5044">Indexeerd (API)</text></g><!--link Website to IO--><g id="link_Website_IO"><path d="M324.2321,139.0075 C323.5161,151.8845 322.1761,177.8805 321.6971,199.9375 C321.2091,222.3635 321.6346,241.4837 322.4656,261.5271 " fill="none" id="Website-to-IO" style="stroke:#181818;stroke-width:1.0;"/><polygon fill="#181818" points="322.7141,267.5219,326.3378,258.3639,322.507,262.5262,318.3447,258.6953,322.7141,267.5219" style="stroke:#181818;stroke-width:1.0;"/><text fill="#000000" font-family="sans-serif" font-size="13" lengthAdjust="spacing" textLength="95" x="322.6971" y="220.5044">Bevraagd (API)</text></g><!--link Themasite to IO--><g id="link_Themasite_IO"><path d="M445.6941,138.9955 C445.3221,157.1055 442.3241,201.7975 422.6971,231.9375 C401.3941,264.6489 365.4735,285.4063 343.9235,295.9816 " fill="none" id="Themasite-to-IO" style="stroke:#181818;stroke-width:1.0;"/><polygon fill="#181818" points="338.5371,298.6249,348.3789,298.2509,343.0258,296.4222,344.8545,291.0691,338.5371,298.6249" style="stroke:#181818;stroke-width:1.0;"/><text fill="#000000" font-family="sans-serif" font-size="13" lengthAdjust="spacing" textLength="95" x="437.6971" y="220.5044">Bevraagd (API)</text></g><!--link Searchsite to IO--><g id="link_Searchsite_IO"><path d="M579.8851,139.0195 C577.5521,157.9785 569.1291,205.6865 541.6971,231.9375 C481.9641,289.0987 382.0281,301.1403 344.4081,303.8054 " fill="none" id="Searchsite-to-IO" style="stroke:#181818;stroke-width:1.0;"/><polygon fill="#181818" points="338.4231,304.2294,347.6833,307.5834,343.4106,303.8761,347.1179,299.6034,338.4231,304.2294" style="stroke:#181818;stroke-width:1.0;"/><text fill="#000000" font-family="sans-serif" font-size="13" lengthAdjust="spacing" textLength="95" x="564.6971" y="220.5044">Bevraagd (API)</text></g><!--link OWS to OI--><g id="link_OWS_OI"><path d="M1331.5651,134.3415 C1163.9151,141.8995 800.6051,162.4415 758.6971,199.9375 C735.4721,220.7175 732.5312,253.0739 733.4532,277.2284 " fill="none" id="OWS-to-OI" style="stroke:#181818;stroke-width:1.0;stroke-dasharray:7.0,7.0;"/><polygon fill="#181818" points="733.6821,283.224,737.3359,274.078,733.4914,278.2276,729.3417,274.3831,733.6821,283.224" style="stroke:#181818;stroke-width:1.0;"/><text fill="#000000" font-family="sans-serif" font-size="13" lengthAdjust="spacing" textLength="67" x="759.6971" y="220.5044">Slaat op in</text></g><!--link OWS to CMS--><g id="link_OWS_CMS"><path d="M1337.2451,148.0005 C1276.1551,164.7025 1207.3551,193.2685 1243.6951,231.9375 C1253.5351,242.4015 1359.8951,233.4365 1372.6951,239.9375 C1391.0151,249.2345 1402.2661,262.7144 1411.5861,277.6328 " fill="none" id="OWS-to-CMS" style="stroke:#181818;stroke-width:1.0;"/><polygon fill="#181818" points="1414.7651,282.7214,1413.389,272.9692,1412.1159,278.4809,1406.6042,277.2078,1414.7651,282.7214" style="stroke:#181818;stroke-width:1.0;"/><text fill="#000000" font-family="sans-serif" font-size="13" lengthAdjust="spacing" textLength="127" x="1244.6951" y="213.0044">Scrapes periodically</text><text fill="#000000" font-family="sans-serif" font-size="13" lengthAdjust="spacing" textLength="97" x="1259.6951" y="228.1372">Uses as source</text></g><!--reverse link OWS to CMS--><g id="link_OWS_CMS"><path d="M1414.4418,153.9363 C1413.7118,167.8983 1413.0851,182.1955 1412.6951,199.9375 C1412.3851,214.1565 1411.3551,217.7795 1412.6951,231.9375 C1414.3351,249.1525 1418.0951,268.3462 1421.3051,282.7309 " fill="none" id="OWS-backto-CMS" style="stroke:#181818;stroke-width:1.0;"/><polygon fill="#181818" points="1414.7551,147.9445,1410.2906,156.7234,1414.494,152.9377,1418.2797,157.1411,1414.7551,147.9445" style="stroke:#181818;stroke-width:1.0;"/><text fill="#000000" font-family="sans-serif" font-size="13" lengthAdjust="spacing" textLength="191" x="1413.6951" y="220.5044">Notifies of changes or deletes</text></g><!--link OWS to Zaaksysteem--><g id="link_OWS_Zaaksysteem"><path d="M1331.4151,134.9925 C1179.7551,143.1575 873.6241,163.9425 841.6971,199.9375 C832.2591,210.5775 832.4881,221.0995 841.6971,231.9375 C889.3871,288.0685 1101.0172,300.9731 1213.6672,303.9487 " fill="none" id="OWS-to-Zaaksysteem" style="stroke:#181818;stroke-width:1.0;"/><polygon fill="#181818" points="1219.6651,304.1071,1210.7739,299.8708,1214.6668,303.9751,1210.5626,307.8681,1219.6651,304.1071" style="stroke:#181818;stroke-width:1.0;"/><text fill="#000000" font-family="sans-serif" font-size="13" lengthAdjust="spacing" textLength="127" x="842.6971" y="213.0044">Scrapes periodically</text><text fill="#000000" font-family="sans-serif" font-size="13" lengthAdjust="spacing" textLength="97" x="857.6971" y="228.1372">Uses as source</text></g><!--reverse link OWS to Zaaksysteem--><g id="link_OWS_Zaaksysteem"><path d="M1325.5342,134.2554 C1224.5242,139.8184 1070.0151,155.2925 1032.6951,199.9375 C977.3481,266.1487 1126.3551,291.1758 1219.3951,300.1895 " fill="none" id="OWS-backto-Zaaksysteem" style="stroke:#181818;stroke-width:1.0;"/><polygon fill="#181818" points="1331.5251,133.9255,1322.3188,130.4265,1326.5327,134.2005,1322.7587,138.4144,1331.5251,133.9255" style="stroke:#181818;stroke-width:1.0;"/><text fill="#000000" font-family="sans-serif" font-size="13" lengthAdjust="spacing" textLength="191" x="1033.6951" y="220.5044">Notifies of changes or deletes</text></g><!--link OWS to Raadsinfo--><g id="link_OWS_Raadsinfo"><path d="M1499.6951,138.8805 C1539.8751,147.3755 1584.5851,164.7165 1609.6951,199.9375 C1626.8351,223.9855 1624.05,253.8028 1618.69,276.7477 " fill="none" id="OWS-to-Raadsinfo" style="stroke:#181818;stroke-width:1.0;"/><polygon fill="#181818" points="1617.3251,282.5904,1623.2675,274.7363,1618.4625,277.7215,1615.4773,272.9164,1617.3251,282.5904" style="stroke:#181818;stroke-width:1.0;"/><text fill="#000000" font-family="sans-serif" font-size="13" lengthAdjust="spacing" textLength="127" x="1622.6951" y="213.0044">Scrapes periodically</text><text fill="#000000" font-family="sans-serif" font-size="13" lengthAdjust="spacing" textLength="97" x="1637.6951" y="228.1372">Uses as source</text></g><!--link OWS to eDepot--><g id="link_OWS_eDepot"><path d="M1500.0251,139.0945 C1588.2851,149.1425 1719.4251,168.8085 1758.6951,199.9375 C1784.7751,220.6065 1795.8794,252.7701 1801.3994,276.9439 " fill="none" id="OWS-to-eDepot" style="stroke:#181818;stroke-width:1.0;"/><polygon fill="#181818" points="1802.7351,282.7933,1804.6312,273.1287,1801.622,277.9188,1796.8319,274.9096,1802.7351,282.7933" style="stroke:#181818;stroke-width:1.0;"/><text fill="#000000" font-family="sans-serif" font-size="13" lengthAdjust="spacing" textLength="127" x="1785.6951" y="213.0044">Scrapes periodically</text><text fill="#000000" font-family="sans-serif" font-size="13" lengthAdjust="spacing" textLength="97" x="1800.6951" y="228.1372">Uses as source</text></g><!--link OWS to DMS--><g id="link_OWS_DMS"><path d="M1499.8151,136.5625 C1636.3451,146.5395 1893.8351,169.2155 1921.6951,199.9375 C1941.7951,222.0975 1939.1406,253.1126 1933.6606,276.743 " fill="none" id="OWS-to-DMS" style="stroke:#181818;stroke-width:1.0;"/><polygon fill="#181818" points="1932.3051,282.5879,1938.2349,274.7242,1933.4346,277.7172,1930.4417,272.9169,1932.3051,282.5879" style="stroke:#181818;stroke-width:1.0;"/><text fill="#000000" font-family="sans-serif" font-size="13" lengthAdjust="spacing" textLength="127" x="1936.6951" y="213.0044">Scrapes periodically</text><text fill="#000000" font-family="sans-serif" font-size="13" lengthAdjust="spacing" textLength="97" x="1951.6951" y="228.1372">Uses as source</text></g><!--link OWS to VTH--><g id="link_OWS_VTH"><path d="M1499.8851,133.6135 C1668.5451,139.8455 2035.0151,158.0955 2072.6951,199.9375 C2094.0451,223.6415 2075.4141,255.1091 2056.2741,278.1996 " fill="none" id="OWS-to-VTH" style="stroke:#181818;stroke-width:1.0;"/><polygon fill="#181818" points="2052.4451,282.819,2061.2682,278.4427,2055.636,278.9695,2055.1091,273.3373,2052.4451,282.819" style="stroke:#181818;stroke-width:1.0;"/><text fill="#000000" font-family="sans-serif" font-size="13" lengthAdjust="spacing" textLength="127" x="2081.6951" y="213.0044">Scrapes periodically</text><text fill="#000000" font-family="sans-serif" font-size="13" lengthAdjust="spacing" textLength="97" x="2096.6951" y="228.1372">Uses as source</text></g><text fill="#888888" font-family="sans-serif" font-size="10" lengthAdjust="spacing" textLength="78" x="1062.3476" y="359.2197">OpenWoo.app</text><!--SRC=[dLJBRjim4BphAnRAeSd11lh8eJu4IEgYDUfKHfJKHT7BcbfPH2IH8EcqGT1_xvAIR2c8ZS2-YCkT6P6p8plfIeB5PbLAWKuIw19Than5TPGhvSXC8D5KBvKQezPHGPWztulUl2m0ftF4DPp3tUmioWrM1F7Bm1YU8k0V2gSCnD-IP15pPS6lu4G8Ei_p7W8WNYR9b_dds8EQvG0cQpvvZeBVkAILbOvYk4oXNSF9Mro9Z-8vzBQW2g51isue3-5_ARe7ZMjPOo2aX4OK0yO_xqvAva4AieqV7xPcTFlTzRLHN5c8MtSxOkD5iao7iZC-oTe4BnlbzrlbNQlJpj3X2YqruipDw6-hEnlANXbLrzlflTjgjlkTe52LLbmxzW7ntZvQHrG57ter3CRIutowJWEMdtinDuYPPSDzIi8r-oy9JT_RIwSfQUK2k5dkHKxRmqmF7ER7xTU0uUSE4mox8KwoLBKjfBPHYEmeKt_gqGNC4fWqNXEP34v_NiyXvNnKgC-YDhVxi9SB_cown0v0L_HWU3OTPfVJGwXUE0_1VCh6umjEnGJI4j61qZo2A3GweXyQjuL1JHOq6Qao_ghByl5tVMTvYtsoQcC43MZzN1n1tqty27ARW2EOq-CkwtFoIXfdwBjoCWz_Z9oZoFixscXMyOgJjiiSbOCei5xxfO6CId9aexwlhwVz1m00]--></g></svg>