<?xml version="1.0" encoding="us-ascii" standalone="no"?><svg xmlns="http://www.w3.org/2000/svg" xmlns:xlink="http://www.w3.org/1999/xlink" contentStyleType="text/css" height="369px" preserveAspectRatio="none" style="width:2229px;height:369px;background:#FFFFFF;" version="1.1" viewBox="0 0 2229 369" width="2229px" zoomAndPan="magnify"><defs/><g><text fill="#888888" font-family="sans-serif" font-size="10" lengthAdjust="spacing" textLength="78" x="2137.6136" y="9.2822">OpenWoo.app</text><text fill="#000000" font-family="sans-serif" font-size="14" font-weight="bold" lengthAdjust="spacing" textLength="177" x="1019.3068" y="35.6357">Publicatie platformen</text><!--cluster Publicatie platformen --><g id="cluster_Publicatie platformen "><rect fill="none" height="127" rx="2.5" ry="2.5" style="stroke:#181818;stroke-width:1.0;" width="553.9997" x="107.6109" y="56.9375"/><path d="M299.6109,56.9375 L299.6109,66.2344 L289.6109,76.2344 L107.6109,76.2344 " fill="none" style="stroke:#181818;stroke-width:1.0;"/><text fill="#000000" font-family="sans-serif" font-size="14" font-weight="bold" lengthAdjust="spacing" textLength="177" x="110.6109" y="70.9326">Publicatie platformen</text></g><!--cluster Services--><g id="cluster_Services"><rect fill="none" height="87" rx="2.5" ry="2.5" style="stroke:#181818;stroke-width:1.0;" width="200" x="1328.6136" y="76.9375"/><path d="M1405.6136,76.9375 L1405.6136,86.2344 L1395.6136,96.2344 L1328.6136,96.2344 " fill="none" style="stroke:#181818;stroke-width:1.0;"/><text fill="#000000" font-family="sans-serif" font-size="14" font-weight="bold" lengthAdjust="spacing" textLength="67" x="1331.6136" y="90.9326">Services</text></g><!--cluster Integratie--><g id="cluster_Integratie"><rect fill="none" height="96" rx="2.5" ry="2.5" style="stroke:#181818;stroke-width:1.0;" width="134" x="338.6106" y="248.4375"/><path d="M429.6106,248.4375 L429.6106,257.7344 L419.6106,267.7344 L338.6106,267.7344 " fill="none" style="stroke:#181818;stroke-width:1.0;"/><text fill="#000000" font-family="sans-serif" font-size="14" font-weight="bold" lengthAdjust="spacing" textLength="81" x="341.6106" y="262.4326">Integratie</text></g><!--cluster Bronnen--><g id="cluster_Bronnen"><rect fill="none" height="97" rx="2.5" ry="2.5" style="stroke:#181818;stroke-width:1.0;" width="879" x="1216.6136" y="247.9375"/><path d="M1293.6136,247.9375 L1293.6136,257.2344 L1283.6136,267.2344 L1216.6136,267.2344 " fill="none" style="stroke:#181818;stroke-width:1.0;"/><text fill="#000000" font-family="sans-serif" font-size="14" font-weight="bold" lengthAdjust="spacing" textLength="67" x="1219.6136" y="261.9326">Bronnen</text></g><!--entity KOOP--><g id="elem_KOOP"><ellipse cx="144.6109" cy="100.4375" fill="#CCE5FF" rx="8" ry="8" style="stroke:#181818;stroke-width:0.5;"/><path d="M144.6109,108.4375 L144.6109,135.4375 M131.6109,116.4375 L157.6109,116.4375 M144.6109,135.4375 L131.6109,150.4375 M144.6109,135.4375 L157.6109,150.4375 " fill="none" style="stroke:#181818;stroke-width:0.5;"/><text fill="#000000" font-family="sans-serif" font-size="14" lengthAdjust="spacing" textLength="41" x="124.1109" y="164.9326">KOOP</text></g><!--entity WOOGLE--><g id="elem_WOOGLE"><ellipse cx="232.6106" cy="100.4375" fill="#CCE5FF" rx="8" ry="8" style="stroke:#181818;stroke-width:0.5;"/><path d="M232.6106,108.4375 L232.6106,135.4375 M219.6106,116.4375 L245.6106,116.4375 M232.6106,135.4375 L219.6106,150.4375 M232.6106,135.4375 L245.6106,150.4375 " fill="none" style="stroke:#181818;stroke-width:0.5;"/><text fill="#000000" font-family="sans-serif" font-size="14" lengthAdjust="spacing" textLength="64" x="200.6106" y="164.9326">WOOGLE</text></g><!--entity Website--><g id="elem_Website"><ellipse cx="337.6106" cy="129.9375" fill="#1ABC9C" rx="8" ry="8" style="stroke:#181818;stroke-width:0.5;"/><text fill="#000000" font-family="sans-serif" font-size="14" lengthAdjust="spacing" textLength="60" x="307.6106" y="159.9326">Website</text></g><!--entity Themasite--><g id="elem_Themasite"><ellipse cx="458.6106" cy="129.9375" fill="#1ABC9C" rx="8" ry="8" style="stroke:#181818;stroke-width:0.5;"/><text fill="#000000" font-family="sans-serif" font-size="14" lengthAdjust="spacing" textLength="80" x="418.6106" y="159.9326">Thema site</text></g><!--entity Searchsite--><g id="elem_Searchsite"><ellipse cx="593.6106" cy="129.9375" fill="#1ABC9C" rx="8" ry="8" style="stroke:#181818;stroke-width:0.5;"/><text fill="#000000" font-family="sans-serif" font-size="14" lengthAdjust="spacing" textLength="89" x="549.1106" y="159.9326">Zoek pagina</text></g><!--entity OWS--><g id="elem_OWS"><polygon fill="#1ABC9C" points="1344.6136,111.9375,1502.6136,111.9375,1512.6136,130.0859,1502.6136,148.2344,1344.6136,148.2344,1354.6136,130.0859" style="stroke:#181818;stroke-width:0.5;"/><text fill="#000000" font-family="sans-serif" font-size="14" lengthAdjust="spacing" textLength="128" x="1364.6136" y="134.9326">OpenWoo Service</text></g><!--entity OI--><g id="elem_OI"><path d="M354.6106,293.4375 C354.6106,283.4375 405.6106,283.4375 405.6106,283.4375 C405.6106,283.4375 456.6106,283.4375 456.6106,293.4375 L456.6106,318.7344 C456.6106,328.7344 405.6106,328.7344 405.6106,328.7344 C405.6106,328.7344 354.6106,328.7344 354.6106,318.7344 L354.6106,293.4375 " fill="#1ABC9C" style="stroke:#181818;stroke-width:0.5;"/><path d="M354.6106,293.4375 C354.6106,303.4375 405.6106,303.4375 405.6106,303.4375 C405.6106,303.4375 456.6106,303.4375 456.6106,293.4375 " fill="none" style="stroke:#181818;stroke-width:0.5;"/><text fill="#000000" font-family="sans-serif" font-size="14" lengthAdjust="spacing" textLength="82" x="364.6106" y="320.4326">Open Index</text></g><!--entity Zaaksysteem--><g id="elem_Zaaksysteem"><rect fill="#CCE5FF" height="46.2969" rx="2.5" ry="2.5" style="stroke:#181818;stroke-width:0.5;" width="136" x="1232.6136" y="282.9375"/><rect fill="#CCE5FF" height="10" style="stroke:#181818;stroke-width:0.5;" width="15" x="1348.6136" y="287.9375"/><rect fill="#CCE5FF" height="2" style="stroke:#181818;stroke-width:0.5;" width="4" x="1346.6136" y="289.9375"/><rect fill="#CCE5FF" height="2" style="stroke:#181818;stroke-width:0.5;" width="4" x="1346.6136" y="293.9375"/><text fill="#000000" font-family="sans-serif" font-size="14" lengthAdjust="spacing" textLength="96" x="1247.6136" y="315.9326">Zaaksysteem</text></g><!--entity CMS--><g id="elem_CMS"><rect fill="#CCE5FF" height="46.2969" rx="2.5" ry="2.5" style="stroke:#181818;stroke-width:0.5;" width="71" x="1404.1136" y="282.9375"/><rect fill="#CCE5FF" height="10" style="stroke:#181818;stroke-width:0.5;" width="15" x="1455.1136" y="287.9375"/><rect fill="#CCE5FF" height="2" style="stroke:#181818;stroke-width:0.5;" width="4" x="1453.1136" y="289.9375"/><rect fill="#CCE5FF" height="2" style="stroke:#181818;stroke-width:0.5;" width="4" x="1453.1136" y="293.9375"/><text fill="#000000" font-family="sans-serif" font-size="14" lengthAdjust="spacing" textLength="31" x="1419.1136" y="315.9326">CMS</text></g><!--entity Raadsinfo--><g id="elem_Raadsinfo"><rect fill="#CCE5FF" height="46.2969" rx="2.5" ry="2.5" style="stroke:#181818;stroke-width:0.5;" width="227" x="1510.1136" y="282.9375"/><rect fill="#CCE5FF" height="10" style="stroke:#181818;stroke-width:0.5;" width="15" x="1717.1136" y="287.9375"/><rect fill="#CCE5FF" height="2" style="stroke:#181818;stroke-width:0.5;" width="4" x="1715.1136" y="289.9375"/><rect fill="#CCE5FF" height="2" style="stroke:#181818;stroke-width:0.5;" width="4" x="1715.1136" y="293.9375"/><text fill="#000000" font-family="sans-serif" font-size="14" lengthAdjust="spacing" textLength="187" x="1525.1136" y="315.9326">Raads informatie systeem</text></g><!--entity eDepot--><g id="elem_eDepot"><rect fill="#CCE5FF" height="46.2969" rx="2.5" ry="2.5" style="stroke:#181818;stroke-width:0.5;" width="95" x="1772.1136" y="282.9375"/><rect fill="#CCE5FF" height="10" style="stroke:#181818;stroke-width:0.5;" width="15" x="1847.1136" y="287.9375"/><rect fill="#CCE5FF" height="2" style="stroke:#181818;stroke-width:0.5;" width="4" x="1845.1136" y="289.9375"/><rect fill="#CCE5FF" height="2" style="stroke:#181818;stroke-width:0.5;" width="4" x="1845.1136" y="293.9375"/><text fill="#000000" font-family="sans-serif" font-size="14" lengthAdjust="spacing" textLength="55" x="1787.1136" y="315.9326">eDepot</text></g><!--entity DMS--><g id="elem_DMS"><rect fill="#CCE5FF" height="46.2969" rx="2.5" ry="2.5" style="stroke:#181818;stroke-width:0.5;" width="72" x="1902.6136" y="282.9375"/><rect fill="#CCE5FF" height="10" style="stroke:#181818;stroke-width:0.5;" width="15" x="1954.6136" y="287.9375"/><rect fill="#CCE5FF" height="2" style="stroke:#181818;stroke-width:0.5;" width="4" x="1952.6136" y="289.9375"/><rect fill="#CCE5FF" height="2" style="stroke:#181818;stroke-width:0.5;" width="4" x="1952.6136" y="293.9375"/><text fill="#000000" font-family="sans-serif" font-size="14" lengthAdjust="spacing" textLength="32" x="1917.6136" y="315.9326">DMS</text></g><!--entity VTH--><g id="elem_VTH"><rect fill="#CCE5FF" height="46.2969" rx="2.5" ry="2.5" style="stroke:#181818;stroke-width:0.5;" width="69" x="2010.1136" y="282.9375"/><rect fill="#CCE5FF" height="10" style="stroke:#181818;stroke-width:0.5;" width="15" x="2059.1136" y="287.9375"/><rect fill="#CCE5FF" height="2" style="stroke:#181818;stroke-width:0.5;" width="4" x="2057.1136" y="289.9375"/><rect fill="#CCE5FF" height="2" style="stroke:#181818;stroke-width:0.5;" width="4" x="2057.1136" y="293.9375"/><text fill="#000000" font-family="sans-serif" font-size="14" lengthAdjust="spacing" textLength="29" x="2025.1136" y="315.9326">VTH</text></g><!--link KOOP to OI--><g id="link_KOOP_OI"><path d="M123.896,138.8505 C84.6294,154.9895 6,193.4395 37.6109,231.9375 C77.1362,280.0735 257.0024,296.67 348.4894,302.1681 " fill="none" id="KOOP-to-OI" style="stroke:#181818;stroke-width:1.0;"/><polygon fill="#181818" points="354.4786,302.528,345.7348,297.9953,349.4876,302.2281,345.2549,305.9809,354.4786,302.528" style="stroke:#181818;stroke-width:1.0;"/><text fill="#000000" font-family="sans-serif" font-size="13" lengthAdjust="spacing" textLength="161" x="38.6109" y="220.5044">Indexeerd (XML Sitemap)</text></g><!--link WOOGLE to OI--><g id="link_WOOGLE_OI"><path d="M214.6366,168.3495 C207.6386,188.7335 203.9596,213.4895 216.6106,231.9375 C247.3456,276.7568 303.8885,293.18 348.5985,299.8606 " fill="none" id="WOOGLE-to-OI" style="stroke:#181818;stroke-width:1.0;"/><polygon fill="#181818" points="354.5326,300.7473,346.2225,295.4612,349.5875,300.0084,345.0403,303.3734,354.5326,300.7473" style="stroke:#181818;stroke-width:1.0;"/><text fill="#000000" font-family="sans-serif" font-size="13" lengthAdjust="spacing" textLength="98" x="217.6106" y="220.5044">Indexeerd (API)</text></g><!--link Website to OI--><g id="link_Website_OI"><path d="M334.6116,139.2045 C328.6656,156.9905 317.0756,199.8755 330.6106,231.9375 C339.3736,252.6945 352.5489,266.7345 368.6479,279.5471 " fill="none" id="Website-to-OI" style="stroke:#181818;stroke-width:1.0;"/><polygon fill="#181818" points="373.3426,283.2834,368.7915,274.5491,369.4304,280.1698,363.8097,280.8087,373.3426,283.2834" style="stroke:#181818;stroke-width:1.0;"/><text fill="#000000" font-family="sans-serif" font-size="13" lengthAdjust="spacing" textLength="95" x="331.6106" y="220.5044">Bevraagd (API)</text></g><!--link Themasite to OI--><g id="link_Themasite_OI"><path d="M457.2146,139.1775 C454.1646,156.5605 446.3146,198.1655 435.6106,231.9375 C430.0226,249.5705 424.4147,263.421 418.0657,277.7605 " fill="none" id="Themasite-to-OI" style="stroke:#181818;stroke-width:1.0;"/><polygon fill="#181818" points="415.6366,283.2468,422.9378,276.6368,417.6609,278.6749,415.6228,273.398,415.6366,283.2468" style="stroke:#181818;stroke-width:1.0;"/><text fill="#000000" font-family="sans-serif" font-size="13" lengthAdjust="spacing" textLength="95" x="445.6106" y="220.5044">Bevraagd (API)</text></g><!--link Searchsite to OI--><g id="link_Searchsite_OI"><path d="M592.0436,139.0475 C588.0706,157.6575 575.9906,203.9725 549.6106,231.9375 C524.3196,258.7495 492.6141,275.1195 462.3121,286.8001 " fill="none" id="Searchsite-to-OI" style="stroke:#181818;stroke-width:1.0;"/><polygon fill="#181818" points="456.7136,288.9582,466.55,289.4534,461.379,287.1598,463.6726,281.9888,456.7136,288.9582" style="stroke:#181818;stroke-width:1.0;"/><text fill="#000000" font-family="sans-serif" font-size="13" lengthAdjust="spacing" textLength="95" x="571.6106" y="220.5044">Bevraagd (API)</text></g><!--link OWS to OI--><g id="link_OWS_OI"><path d="M1344.4636,133.9365 C1218.5836,139.7315 974.3596,156.0455 771.6106,199.9375 C727.6546,209.4535 718.6696,218.9515 675.6106,231.9375 C599.8326,254.7905 516.9051,276.6486 462.4301,290.595 " fill="none" id="OWS-to-OI" style="stroke:#181818;stroke-width:1.0;stroke-dasharray:7.0,7.0;"/><polygon fill="#181818" points="456.6176,292.0831,466.3285,293.726,461.4614,290.843,464.3443,285.9759,456.6176,292.0831" style="stroke:#181818;stroke-width:1.0;"/><text fill="#000000" font-family="sans-serif" font-size="13" lengthAdjust="spacing" textLength="67" x="772.6106" y="220.5044">Slaat op in</text></g><!--link OWS to CMS--><g id="link_OWS_CMS"><path d="M1350.1636,148.0005 C1289.0736,164.7025 1220.2636,193.2685 1256.6136,231.9375 C1266.4436,242.4015 1372.8036,233.4365 1385.6136,239.9375 C1403.9236,249.2345 1415.1746,262.7144 1424.4946,277.6328 " fill="none" id="OWS-to-CMS" style="stroke:#181818;stroke-width:1.0;"/><polygon fill="#181818" points="1427.6736,282.7214,1426.2975,272.9692,1425.0244,278.4809,1419.5127,277.2078,1427.6736,282.7214" style="stroke:#181818;stroke-width:1.0;"/><text fill="#000000" font-family="sans-serif" font-size="13" lengthAdjust="spacing" textLength="127" x="1257.6136" y="213.0044">Scrapes periodically</text><text fill="#000000" font-family="sans-serif" font-size="13" lengthAdjust="spacing" textLength="97" x="1272.6136" y="228.1372">Uses as source</text></g><!--reverse link OWS to CMS--><g id="link_OWS_CMS"><path d="M1427.3546,153.9365 C1426.6346,167.8985 1425.9936,182.1955 1425.6136,199.9375 C1425.3036,214.1565 1424.2636,217.7795 1425.6136,231.9375 C1427.2436,249.1525 1431.0036,268.3462 1434.2136,282.7309 " fill="none" id="OWS-backto-CMS" style="stroke:#181818;stroke-width:1.0;"/><polygon fill="#181818" points="1427.6636,147.9445,1423.2054,156.7266,1427.4061,152.9379,1431.1948,157.1386,1427.6636,147.9445" style="stroke:#181818;stroke-width:1.0;"/><text fill="#000000" font-family="sans-serif" font-size="13" lengthAdjust="spacing" textLength="191" x="1426.6136" y="220.5044">Notifies of changes or deletes</text></g><!--link OWS to Zaaksysteem--><g id="link_OWS_Zaaksysteem"><path d="M1344.3236,134.9925 C1192.6736,143.1575 886.5386,163.9425 854.6106,199.9375 C845.1736,210.5775 845.4026,221.0995 854.6106,231.9375 C902.3016,288.0685 1113.9357,300.9731 1226.5857,303.9487 " fill="none" id="OWS-to-Zaaksysteem" style="stroke:#181818;stroke-width:1.0;"/><polygon fill="#181818" points="1232.5836,304.1071,1223.6924,299.8708,1227.5853,303.9751,1223.4811,307.8681,1232.5836,304.1071" style="stroke:#181818;stroke-width:1.0;"/><text fill="#000000" font-family="sans-serif" font-size="13" lengthAdjust="spacing" textLength="127" x="855.6106" y="213.0044">Scrapes periodically</text><text fill="#000000" font-family="sans-serif" font-size="13" lengthAdjust="spacing" textLength="97" x="870.6106" y="228.1372">Uses as source</text></g><!--reverse link OWS to Zaaksysteem--><g id="link_OWS_Zaaksysteem"><path d="M1338.4527,134.2554 C1237.4327,139.8184 1082.9336,155.2925 1045.6136,199.9375 C990.2626,266.1487 1139.2736,291.1758 1232.3036,300.1895 " fill="none" id="OWS-backto-Zaaksysteem" style="stroke:#181818;stroke-width:1.0;"/><polygon fill="#181818" points="1344.4436,133.9255,1335.2373,130.4264,1339.4512,134.2004,1335.6772,138.4143,1344.4436,133.9255" style="stroke:#181818;stroke-width:1.0;"/><text fill="#000000" font-family="sans-serif" font-size="13" lengthAdjust="spacing" textLength="191" x="1046.6136" y="220.5044">Notifies of changes or deletes</text></g><!--link OWS to Raadsinfo--><g id="link_OWS_Raadsinfo"><path d="M1512.6136,138.8805 C1552.7936,147.3755 1597.5036,164.7165 1622.6136,199.9375 C1639.7536,223.9855 1636.9685,253.8028 1631.6085,276.7477 " fill="none" id="OWS-to-Raadsinfo" style="stroke:#181818;stroke-width:1.0;"/><polygon fill="#181818" points="1630.2436,282.5904,1636.186,274.7363,1631.381,277.7215,1628.3958,272.9164,1630.2436,282.5904" style="stroke:#181818;stroke-width:1.0;"/><text fill="#000000" font-family="sans-serif" font-size="13" lengthAdjust="spacing" textLength="127" x="1635.6136" y="213.0044">Scrapes periodically</text><text fill="#000000" font-family="sans-serif" font-size="13" lengthAdjust="spacing" textLength="97" x="1650.6136" y="228.1372">Uses as source</text></g><!--link OWS to eDepot--><g id="link_OWS_eDepot"><path d="M1512.9336,139.0945 C1601.2036,149.1425 1732.3436,168.8085 1771.6136,199.9375 C1797.6836,220.6065 1808.7856,252.7706 1814.3156,276.9444 " fill="none" id="OWS-to-eDepot" style="stroke:#181818;stroke-width:1.0;"/><polygon fill="#181818" points="1815.6536,282.7933,1817.5459,273.1279,1814.5386,277.9192,1809.7473,274.9119,1815.6536,282.7933" style="stroke:#181818;stroke-width:1.0;"/><text fill="#000000" font-family="sans-serif" font-size="13" lengthAdjust="spacing" textLength="127" x="1798.6136" y="213.0044">Scrapes periodically</text><text fill="#000000" font-family="sans-serif" font-size="13" lengthAdjust="spacing" textLength="97" x="1813.6136" y="228.1372">Uses as source</text></g><!--link OWS to DMS--><g id="link_OWS_DMS"><path d="M1512.7336,136.5625 C1649.2636,146.5395 1906.7436,169.2155 1934.6136,199.9375 C1954.7136,222.0975 1952.0591,253.1126 1946.5791,276.743 " fill="none" id="OWS-to-DMS" style="stroke:#181818;stroke-width:1.0;"/><polygon fill="#181818" points="1945.2236,282.5879,1951.1534,274.7242,1946.3531,277.7172,1943.3602,272.9169,1945.2236,282.5879" style="stroke:#181818;stroke-width:1.0;"/><text fill="#000000" font-family="sans-serif" font-size="13" lengthAdjust="spacing" textLength="127" x="1949.6136" y="213.0044">Scrapes periodically</text><text fill="#000000" font-family="sans-serif" font-size="13" lengthAdjust="spacing" textLength="97" x="1964.6136" y="228.1372">Uses as source</text></g><!--link OWS to VTH--><g id="link_OWS_VTH"><path d="M1512.7936,133.6135 C1681.4636,139.8455 2047.9336,158.0955 2085.6136,199.9375 C2106.9536,223.6415 2088.3215,255.1082 2069.1915,278.1987 " fill="none" id="OWS-to-VTH" style="stroke:#181818;stroke-width:1.0;"/><polygon fill="#181818" points="2065.3636,282.819,2074.1856,278.4404,2068.5535,278.9687,2068.0252,273.3366,2065.3636,282.819" style="stroke:#181818;stroke-width:1.0;"/><text fill="#000000" font-family="sans-serif" font-size="13" lengthAdjust="spacing" textLength="127" x="2094.6136" y="213.0044">Scrapes periodically</text><text fill="#000000" font-family="sans-serif" font-size="13" lengthAdjust="spacing" textLength="97" x="2109.6136" y="228.1372">Uses as source</text></g><text fill="#888888" font-family="sans-serif" font-size="10" lengthAdjust="spacing" textLength="78" x="1068.8068" y="359.2197">OpenWoo.app</text><!--SRC=[dLJBRjim4BphAnRAeSd11lh8eJuKIEgYDUfKHfHKHP3BcbhPH2IH8EcqGT5_xvAIR2c8ZS2wYEJE3CdPaPnq9S5YioobG2S9T8ckKAQYEYgKScGca6YgCwN6g7Mq9ioVhqLlNXQ0qpdY2ixXTdOM5GOhWlXbO0n_8-07XLC6ukz9ieXvPi6Fu4G8EY-A7W8WpfBaw_nBx47DS02JDP-yGC4xPhIqqb4C5ocqOpXvYqlnKJo7tgofGcZGh1kcX_1tYXv0uqhM60WfeH7h0UEVToSbyoW5sSQF3ripklNk-jeedbc8MtSxOkD5agL3sHcVP6M2buto-wtohjHfv-XmYPOQSURczAVLdGrbBusgwstttcqrs_LEKAXAAvuxzW7nmJvPHrG57tfp6BIbn_bybGOil_TYhX5pouRxb8HhzZS9HL_RIwSfQUK2k1dkHKxRmqmF7ERdpRU0uVSE4mox9awoLBLTIssZ4DbHhdxNeq_UsqdZDP79uVJNrHnIpaU5-YngSxiFUx7WpwPBx01qIO-6UzDXTZazXEg5yn3CfsmyzhK9f2MY0wMv1L4eT4JVD2uBWveiQ39IvVnLb-NJVNrhUObzicfZ10re_LmSGTzr_0Xocu0ZcDFZBkjpyaeQP-Y7Sh88FqREKUJz7MsqRr7cDs-gp545Y3NMApyqa5D9ZcpKz_NrjFy0]--></g></svg>