<?xml version="1.0" encoding="us-ascii" standalone="no"?><svg xmlns="http://www.w3.org/2000/svg" xmlns:xlink="http://www.w3.org/1999/xlink" contentStyleType="text/css" height="304px" preserveAspectRatio="none" style="width:530px;height:304px;background:#FFFFFF;" version="1.1" viewBox="0 0 530 304" width="530px" zoomAndPan="magnify"><defs/><g><text fill="#000000" font-family="sans-serif" font-size="14" font-weight="bold" lengthAdjust="spacing" textLength="254" x="131" y="22.9951">Publiceren vanuit Zaaksysteem</text><!--cluster Publicatie platformen --><g id="cluster_Publicatie platformen "><rect fill="none" height="109" rx="2.5" ry="2.5" style="stroke:#181818;stroke-width:1.0;" width="198" x="7" y="44.2969"/><path d="M199,44.2969 L199,53.5938 L189,63.5938 L7,63.5938 " fill="none" style="stroke:#181818;stroke-width:1.0;"/><text fill="#000000" font-family="sans-serif" font-size="14" font-weight="bold" lengthAdjust="spacing" textLength="177" x="10" y="58.292">Publicatie platformen</text></g><!--cluster Services--><g id="cluster_Services"><rect fill="none" height="87" rx="2.5" ry="2.5" style="stroke:#181818;stroke-width:1.0;" width="200" x="256" y="55.2969"/><path d="M333,55.2969 L333,64.5938 L323,74.5938 L256,74.5938 " fill="none" style="stroke:#181818;stroke-width:1.0;"/><text fill="#000000" font-family="sans-serif" font-size="14" font-weight="bold" lengthAdjust="spacing" textLength="67" x="259" y="69.292">Services</text></g><!--cluster Integratie--><g id="cluster_Integratie"><rect fill="none" height="96" rx="2.5" ry="2.5" style="stroke:#181818;stroke-width:1.0;" width="134" x="168" y="202.2969"/><path d="M259,202.2969 L259,211.5938 L249,221.5938 L168,221.5938 " fill="none" style="stroke:#181818;stroke-width:1.0;"/><text fill="#000000" font-family="sans-serif" font-size="14" font-weight="bold" lengthAdjust="spacing" textLength="81" x="171" y="216.292">Integratie</text></g><!--cluster Bronnen--><g id="cluster_Bronnen"><rect fill="none" height="96" rx="2.5" ry="2.5" style="stroke:#181818;stroke-width:1.0;" width="198" x="326" y="202.2969"/><path d="M403,202.2969 L403,211.5938 L393,221.5938 L326,221.5938 " fill="none" style="stroke:#181818;stroke-width:1.0;"/><text fill="#000000" font-family="sans-serif" font-size="14" font-weight="bold" lengthAdjust="spacing" textLength="67" x="329" y="216.292">Bronnen</text></g><!--entity Searchsite--><g id="elem_Searchsite"><ellipse cx="110" cy="108.2969" fill="#1ABC9C" rx="8" ry="8" style="stroke:#181818;stroke-width:0.5;"/><text fill="#000000" font-family="sans-serif" font-size="14" lengthAdjust="spacing" textLength="89" x="65.5" y="138.292">Zoek pagina</text></g><!--entity OWS--><g id="elem_OWS"><polygon fill="#1ABC9C" points="272,90.2969,430,90.2969,440,108.4453,430,126.5938,272,126.5938,282,108.4453" style="stroke:#181818;stroke-width:0.5;"/><text fill="#000000" font-family="sans-serif" font-size="14" lengthAdjust="spacing" textLength="128" x="292" y="113.292">OpenWoo Service</text></g><!--entity OI--><g id="elem_OI"><path d="M184,247.2969 C184,237.2969 235,237.2969 235,237.2969 C235,237.2969 286,237.2969 286,247.2969 L286,272.5938 C286,282.5938 235,282.5938 235,282.5938 C235,282.5938 184,282.5938 184,272.5938 L184,247.2969 " fill="#1ABC9C" style="stroke:#181818;stroke-width:0.5;"/><path d="M184,247.2969 C184,257.2969 235,257.2969 235,257.2969 C235,257.2969 286,257.2969 286,247.2969 " fill="none" style="stroke:#181818;stroke-width:0.5;"/><text fill="#000000" font-family="sans-serif" font-size="14" lengthAdjust="spacing" textLength="82" x="194" y="274.292">Open Index</text></g><!--entity ZRC--><g id="elem_ZRC"><path d="M342.5,247.2969 C342.5,237.2969 425,237.2969 425,237.2969 C425,237.2969 507.5,237.2969 507.5,247.2969 L507.5,272.5938 C507.5,282.5938 425,282.5938 425,282.5938 C425,282.5938 342.5,282.5938 342.5,272.5938 L342.5,247.2969 " fill="#CCE5FF" style="stroke:#181818;stroke-width:0.5;"/><path d="M342.5,247.2969 C342.5,257.2969 425,257.2969 425,257.2969 C425,257.2969 507.5,257.2969 507.5,247.2969 " fill="none" style="stroke:#181818;stroke-width:0.5;"/><text fill="#000000" font-family="sans-serif" font-size="14" lengthAdjust="spacing" textLength="145" x="352.5" y="274.292">Zaaksysteem (ZGW)</text></g><!--entity IO--><g id="elem_IO"><ellipse cx="110" cy="259.7969" fill="#F1F1F1" rx="8" ry="8" style="stroke:#181818;stroke-width:0.5;"/><text fill="#000000" font-family="sans-serif" font-size="14" lengthAdjust="spacing" textLength="15" x="102.5" y="289.792">IO</text></g><!--link OWS to ZRC--><g id="link_OWS_ZRC"><path d="M363.915,126.4469 C376.552,153.8269 398.7507,201.9231 412.5547,231.8324 " fill="none" id="OWS-to-ZRC" style="stroke:#181818;stroke-width:1.0;"/><polygon fill="#181818" points="415.069,237.2802,414.9294,227.4323,412.9737,232.7404,407.6657,230.7847,415.069,237.2802" style="stroke:#181818;stroke-width:1.0;"/><text fill="#000000" font-family="sans-serif" font-size="13" lengthAdjust="spacing" textLength="64" x="391" y="182.3638">Indexeerd</text></g><!--link OWS to OI--><g id="link_OWS_OI"><path d="M342.027,126.3389 C332.206,138.3339 318.771,154.7739 307,169.2969 C288.29,192.3799 270.7231,214.2316 256.1681,232.378 " fill="none" id="OWS-to-OI" style="stroke:#181818;stroke-width:1.0;stroke-dasharray:7.0,7.0;"/><polygon fill="#181818" points="252.414,237.0585,261.1655,232.5406,255.5424,233.1581,254.9249,227.5351,252.414,237.0585" style="stroke:#181818;stroke-width:1.0;"/><text fill="#000000" font-family="sans-serif" font-size="13" lengthAdjust="spacing" textLength="67" x="308" y="182.3638">Slaat op in</text></g><!--link Searchsite to IO--><g id="link_Searchsite_IO"><path d="M110,117.3349 C110,143.2929 110,218.7048 110,244.7194 " fill="none" id="Searchsite-to-IO" style="stroke:#181818;stroke-width:1.0;"/><polygon fill="#181818" points="110,250.7194,114,241.7194,110,245.7194,106,241.7194,110,250.7194" style="stroke:#181818;stroke-width:1.0;"/><text fill="#000000" font-family="sans-serif" font-size="13" lengthAdjust="spacing" textLength="95" x="111" y="182.3638">Bevraagd (API)</text></g><!--SRC=[RP1BQyCm48Jl-XMBSwXzIA2F7Ef3eEcX60eEDSNWsrfUkoAsP2J5RIdzxvMVJMXrq-xiDyDOOMk2mocl1ITD4ZgK9s4XGpoQJsE96iQk9W5QGT3MQ4kb6wVrdn4hsC9h5B1IOqFW_I_qu8k1Uq9QqYLo9ymK7Q75IaZq00qaX9g_6M49LjUOytlEldldX7JdefdHwsunckSpkjNA_GnuSKioLMe-zA2dnsboYOrSaaeFEKVoxKB-NSti0YtcQ6Y4kzk2FYPkT8dTQoNbqipDmfpcVu5dFOEVFQN1K4RsyWWhpcbRbZsNzV7NXNgNwrs_2yS8HBeOLflDpYK98QaHBQZMzSpOMQ7pQHH327lgj0jNWFzmY88V]--></g></svg>