<?xml version="1.0" encoding="us-ascii" standalone="no"?><svg xmlns="http://www.w3.org/2000/svg" xmlns:xlink="http://www.w3.org/1999/xlink" contentStyleType="text/css" height="542px" preserveAspectRatio="none" style="width:526px;height:542px;background:#FFFFFF;" version="1.1" viewBox="0 0 526 542" width="526px" zoomAndPan="magnify"><defs/><g><text fill="#888888" font-family="sans-serif" font-size="10" lengthAdjust="spacing" textLength="78" x="434" y="9.2822">OpenWoo.app</text><text fill="#000000" font-family="sans-serif" font-size="14" font-weight="bold" lengthAdjust="spacing" textLength="254" x="129" y="35.6357">Publiceren vanuit Zaaksysteem</text><!--cluster Publicatie platformen --><g id="cluster_Publicatie platformen "><rect fill="none" height="109" rx="2.5" ry="2.5" style="stroke:#181818;stroke-width:1.0;" width="198" x="7" y="263.9375"/><path d="M199,263.9375 L199,273.2344 L189,283.2344 L7,283.2344 " fill="none" style="stroke:#181818;stroke-width:1.0;"/><text fill="#000000" font-family="sans-serif" font-size="14" font-weight="bold" lengthAdjust="spacing" textLength="177" x="10" y="277.9326">Publicatie platformen</text></g><!--cluster Services--><g id="cluster_Services"><rect fill="none" height="87" rx="2.5" ry="2.5" style="stroke:#181818;stroke-width:1.0;" width="200" x="229" y="274.9375"/><path d="M306,274.9375 L306,284.2344 L296,294.2344 L229,294.2344 " fill="none" style="stroke:#181818;stroke-width:1.0;"/><text fill="#000000" font-family="sans-serif" font-size="14" font-weight="bold" lengthAdjust="spacing" textLength="67" x="232" y="288.9326">Services</text></g><!--cluster Integratie--><g id="cluster_Integratie"><rect fill="none" height="96" rx="2.5" ry="2.5" style="stroke:#181818;stroke-width:1.0;" width="134" x="152" y="421.9375"/><path d="M243,421.9375 L243,431.2344 L233,441.2344 L152,441.2344 " fill="none" style="stroke:#181818;stroke-width:1.0;"/><text fill="#000000" font-family="sans-serif" font-size="14" font-weight="bold" lengthAdjust="spacing" textLength="81" x="155" y="435.9326">Integratie</text></g><!--cluster Bronnen--><g id="cluster_Bronnen"><rect fill="none" height="96" rx="2.5" ry="2.5" style="stroke:#181818;stroke-width:1.0;" width="198" x="196" y="56.9375"/><path d="M273,56.9375 L273,66.2344 L263,76.2344 L196,76.2344 " fill="none" style="stroke:#181818;stroke-width:1.0;"/><text fill="#000000" font-family="sans-serif" font-size="14" font-weight="bold" lengthAdjust="spacing" textLength="67" x="199" y="70.9326">Bronnen</text></g><!--entity Searchsite--><g id="elem_Searchsite"><ellipse cx="137" cy="327.9375" fill="#1ABC9C" rx="8" ry="8" style="stroke:#181818;stroke-width:0.5;"/><text fill="#000000" font-family="sans-serif" font-size="14" lengthAdjust="spacing" textLength="89" x="92.5" y="357.9326">Zoek pagina</text></g><!--entity OWS--><g id="elem_OWS"><polygon fill="#1ABC9C" points="245,309.9375,403,309.9375,413,328.0859,403,346.2344,245,346.2344,255,328.0859" style="stroke:#181818;stroke-width:0.5;"/><text fill="#000000" font-family="sans-serif" font-size="14" lengthAdjust="spacing" textLength="128" x="265" y="332.9326">OpenWoo Service</text></g><!--entity OI--><g id="elem_OI"><path d="M168,466.9375 C168,456.9375 219,456.9375 219,456.9375 C219,456.9375 270,456.9375 270,466.9375 L270,492.2344 C270,502.2344 219,502.2344 219,502.2344 C219,502.2344 168,502.2344 168,492.2344 L168,466.9375 " fill="#1ABC9C" style="stroke:#181818;stroke-width:0.5;"/><path d="M168,466.9375 C168,476.9375 219,476.9375 219,476.9375 C219,476.9375 270,476.9375 270,466.9375 " fill="none" style="stroke:#181818;stroke-width:0.5;"/><text fill="#000000" font-family="sans-serif" font-size="14" lengthAdjust="spacing" textLength="82" x="178" y="493.9326">Open Index</text></g><!--entity ZRC--><g id="elem_ZRC"><path d="M212.5,101.9375 C212.5,91.9375 295,91.9375 295,91.9375 C295,91.9375 377.5,91.9375 377.5,101.9375 L377.5,127.2344 C377.5,137.2344 295,137.2344 295,137.2344 C295,137.2344 212.5,137.2344 212.5,127.2344 L212.5,101.9375 " fill="#CCE5FF" style="stroke:#181818;stroke-width:0.5;"/><path d="M212.5,101.9375 C212.5,111.9375 295,111.9375 295,111.9375 C295,111.9375 377.5,111.9375 377.5,101.9375 " fill="none" style="stroke:#181818;stroke-width:0.5;"/><text fill="#000000" font-family="sans-serif" font-size="14" lengthAdjust="spacing" textLength="145" x="222.5" y="128.9326">Zaaksysteem (ZGW)</text></g><!--link Searchsite to OI--><g id="link_Searchsite_OI"><path d="M140.765,337.1495 C147.343,351.3585 161.516,381.3685 175,405.9375 C184.564,423.3625 193.0921,437.486 202.0271,451.7515 " fill="none" id="Searchsite-to-OI" style="stroke:#181818;stroke-width:1.0;"/><polygon fill="#181818" points="205.212,456.8364,203.8246,447.0857,202.5579,452.599,197.0447,451.3323,205.212,456.8364" style="stroke:#181818;stroke-width:1.0;"/><text fill="#000000" font-family="sans-serif" font-size="13" lengthAdjust="spacing" textLength="95" x="176" y="402.0044">Bevraagd (API)</text></g><!--link OWS to ZRC--><g id="link_OWS_ZRC"><path d="M312.234,309.6705 C293.828,289.3945 265.378,253.8225 254,216.9375 C245.317,188.7885 258.6662,162.3817 273.3222,142.0877 " fill="none" id="OWS-to-ZRC" style="stroke:#181818;stroke-width:1.0;"/><polygon fill="#181818" points="276.835,137.2235,268.323,142.1779,273.9076,141.277,274.8085,146.8616,276.835,137.2235" style="stroke:#181818;stroke-width:1.0;"/><text fill="#000000" font-family="sans-serif" font-size="13" lengthAdjust="spacing" textLength="64" x="255" y="213.0044">Indexeerd</text></g><!--link ZRC to OWS--><g id="link_ZRC_OWS"><path d="M304.437,137.2005 C311.23,153.9915 319.892,177.9845 324,199.9375 C331.264,238.7615 331.0418,279.3878 330.1138,303.9218 " fill="none" id="ZRC-to-OWS" style="stroke:#181818;stroke-width:1.0;stroke-dasharray:7.0,7.0;"/><polygon fill="#181818" points="329.887,309.9175,334.2243,301.0751,330.076,304.9211,326.23,300.7727,329.887,309.9175" style="stroke:#181818;stroke-width:1.0;"/><text fill="#000000" font-family="sans-serif" font-size="13" lengthAdjust="spacing" textLength="191" x="327" y="213.0044">Notifies of changes or deletes</text></g><!--link OWS to OI--><g id="link_OWS_OI"><path d="M317.724,345.9765 C307.196,361.7255 290.912,385.6795 276,405.9375 C263.186,423.3445 251.7929,437.8763 240.3329,452.1465 " fill="none" id="OWS-to-OI" style="stroke:#181818;stroke-width:1.0;stroke-dasharray:7.0,7.0;"/><polygon fill="#181818" points="236.576,456.8247,245.3302,452.312,239.7068,452.9262,239.0926,447.3028,236.576,456.8247" style="stroke:#181818;stroke-width:1.0;"/><text fill="#000000" font-family="sans-serif" font-size="13" lengthAdjust="spacing" textLength="67" x="288" y="402.0044">Slaat op in</text></g><text fill="#888888" font-family="sans-serif" font-size="10" lengthAdjust="spacing" textLength="78" x="217" y="532.2197">OpenWoo.app</text><!--SRC=[RP5DImCn48Rl-HN3zc1xw88VFRW7mNgGWjZY8eMzJREJRUWs2KbQ5V6_c-oNhPfJCX_F-sR6IryJh0wRMdAofE28wY0z58Wxz-4yqPu9hJtP39Q6r5hh58rXMyBoTunTT23qai3Kw8Ms-y0SFo5MC8FNnOG9Ytk2vF_213uPX2DL41J8Gs6XQGS6Awam0NIG4rg-TT8JZ2vnmsyv-uhAETbZ-89hjMu6eJxUeutLuUKWwPptZGb4-dATdsCNmKbb6vyj-NeW_wHwTeaUD-YeXOVUajuxxk8SExTQgM4oLmEpY_y5dkm3niNZUj8CetXvW17dD1CYSjd9SAQbVbFJkwYSmPoEDWYLCBvVXHt4N_RvWCXQfqIsR59f6jioo6j43zg4TR2ebAQH5meoUDPU2aaEj02-HLN5guMIQlBalW40]--></g></svg>