<?xml version="1.0" encoding="us-ascii" standalone="no"?><svg xmlns="http://www.w3.org/2000/svg" xmlns:xlink="http://www.w3.org/1999/xlink" contentStyleType="text/css" height="580px" preserveAspectRatio="none" style="width:592px;height:580px;background:#FFFFFF;" version="1.1" viewBox="0 0 592 580" width="592px" zoomAndPan="magnify"><defs/><g><text fill="#888888" font-family="sans-serif" font-size="10" lengthAdjust="spacing" textLength="78" x="500" y="9.2822">OpenWoo.app</text><text fill="#000000" font-family="sans-serif" font-size="14" font-weight="bold" lengthAdjust="spacing" textLength="254" x="162" y="35.6357">Publiceren vanuit Zaaksysteem</text><!--cluster Publicatie platformen --><g id="cluster_Publicatie platformen "><rect fill="none" height="109" rx="2.5" ry="2.5" style="stroke:#181818;stroke-width:1.0;" width="198" x="388" y="56.9375"/><path d="M580,56.9375 L580,66.2344 L570,76.2344 L388,76.2344 " fill="none" style="stroke:#181818;stroke-width:1.0;"/><text fill="#000000" font-family="sans-serif" font-size="14" font-weight="bold" lengthAdjust="spacing" textLength="177" x="391" y="70.9326">Publicatie platformen</text></g><!--cluster Services--><g id="cluster_Services"><rect fill="none" height="87" rx="2.5" ry="2.5" style="stroke:#181818;stroke-width:1.0;" width="200" x="74" y="343.9375"/><path d="M151,343.9375 L151,353.2344 L141,363.2344 L74,363.2344 " fill="none" style="stroke:#181818;stroke-width:1.0;"/><text fill="#000000" font-family="sans-serif" font-size="14" font-weight="bold" lengthAdjust="spacing" textLength="67" x="77" y="357.9326">Services</text></g><!--cluster Integratie--><g id="cluster_Integratie"><rect fill="none" height="96" rx="2.5" ry="2.5" style="stroke:#181818;stroke-width:1.0;" width="134" x="420" y="214.9375"/><path d="M511,214.9375 L511,224.2344 L501,234.2344 L420,234.2344 " fill="none" style="stroke:#181818;stroke-width:1.0;"/><text fill="#000000" font-family="sans-serif" font-size="14" font-weight="bold" lengthAdjust="spacing" textLength="81" x="423" y="228.9326">Integratie</text></g><!--cluster Bronnen--><g id="cluster_Bronnen"><rect fill="none" height="96" rx="2.5" ry="2.5" style="stroke:#181818;stroke-width:1.0;" width="198" x="7" y="63.4375"/><path d="M84,63.4375 L84,72.7344 L74,82.7344 L7,82.7344 " fill="none" style="stroke:#181818;stroke-width:1.0;"/><text fill="#000000" font-family="sans-serif" font-size="14" font-weight="bold" lengthAdjust="spacing" textLength="67" x="10" y="77.4326">Bronnen</text></g><!--entity Searchsite--><g id="elem_Searchsite"><ellipse cx="487" cy="120.9375" fill="#1ABC9C" rx="8" ry="8" style="stroke:#181818;stroke-width:0.5;"/><text fill="#000000" font-family="sans-serif" font-size="14" lengthAdjust="spacing" textLength="89" x="442.5" y="150.9326">Zoek pagina</text></g><!--entity OWS--><g id="elem_OWS"><polygon fill="#1ABC9C" points="90,378.9375,248,378.9375,258,397.0859,248,415.2344,90,415.2344,100,397.0859" style="stroke:#181818;stroke-width:0.5;"/><text fill="#000000" font-family="sans-serif" font-size="14" lengthAdjust="spacing" textLength="128" x="110" y="401.9326">OpenWoo Service</text></g><!--entity IO--><g id="elem_IO"><path d="M436,259.9375 C436,249.9375 487,249.9375 487,249.9375 C487,249.9375 538,249.9375 538,259.9375 L538,285.2344 C538,295.2344 487,295.2344 487,295.2344 C487,295.2344 436,295.2344 436,285.2344 L436,259.9375 " fill="#1ABC9C" style="stroke:#181818;stroke-width:0.5;"/><path d="M436,259.9375 C436,269.9375 487,269.9375 487,269.9375 C487,269.9375 538,269.9375 538,259.9375 " fill="none" style="stroke:#181818;stroke-width:0.5;"/><text fill="#000000" font-family="sans-serif" font-size="14" lengthAdjust="spacing" textLength="82" x="446" y="286.9326">Open Index</text></g><!--entity ZRC--><g id="elem_ZRC"><path d="M23.5,108.4375 C23.5,98.4375 106,98.4375 106,98.4375 C106,98.4375 188.5,98.4375 188.5,108.4375 L188.5,133.7344 C188.5,143.7344 106,143.7344 106,143.7344 C106,143.7344 23.5,143.7344 23.5,133.7344 L23.5,108.4375 " fill="#CCE5FF" style="stroke:#181818;stroke-width:0.5;"/><path d="M23.5,108.4375 C23.5,118.4375 106,118.4375 106,118.4375 C106,118.4375 188.5,118.4375 188.5,108.4375 " fill="none" style="stroke:#181818;stroke-width:0.5;"/><text fill="#000000" font-family="sans-serif" font-size="14" lengthAdjust="spacing" textLength="145" x="33.5" y="135.4326">Zaaksysteem (ZGW)</text></g><!--entity OI--><g id="elem_OI"><ellipse cx="174" cy="522.9375" fill="#F1F1F1" rx="8" ry="8" style="stroke:#181818;stroke-width:0.5;"/><text fill="#000000" font-family="sans-serif" font-size="14" lengthAdjust="spacing" textLength="15" x="166.5" y="552.9326">OI</text></g><!--link Searchsite to IO--><g id="link_Searchsite_IO"><path d="M487,129.9755 C487,152.3555 487,209.9535 487,243.7335 " fill="none" id="Searchsite-to-IO" style="stroke:#181818;stroke-width:1.0;"/><polygon fill="#181818" points="487,249.7335,491,240.7335,487,244.7335,483,240.7335,487,249.7335" style="stroke:#181818;stroke-width:1.0;"/><text fill="#000000" font-family="sans-serif" font-size="13" lengthAdjust="spacing" textLength="95" x="488" y="195.0044">Bevraagd (API)</text></g><!--link OWS to ZRC--><g id="link_OWS_ZRC"><path d="M149.306,378.9135 C131.586,365.0825 109.12,343.8315 99,318.9375 C74.77,259.3355 88.3893,186.8364 98.1383,149.4424 " fill="none" id="OWS-to-ZRC" style="stroke:#181818;stroke-width:1.0;"/><polygon fill="#181818" points="99.652,143.6365,93.5109,151.3363,98.3906,148.4748,101.2521,153.3545,99.652,143.6365" style="stroke:#181818;stroke-width:1.0;"/><text fill="#000000" font-family="sans-serif" font-size="13" lengthAdjust="spacing" textLength="64" x="100" y="277.0044">Indexeerd</text></g><!--link ZRC to OWS--><g id="link_ZRC_OWS"><path d="M127.918,143.5045 C142.56,159.4855 160.615,182.6275 169,206.9375 C189.817,267.2905 182.7661,339.0991 177.7551,372.9691 " fill="none" id="ZRC-to-OWS" style="stroke:#181818;stroke-width:1.0;stroke-dasharray:7.0,7.0;"/><polygon fill="#181818" points="176.877,378.9045,182.1511,370.5868,177.6088,373.9583,174.2373,369.416,176.877,378.9045" style="stroke:#181818;stroke-width:1.0;"/><text fill="#000000" font-family="sans-serif" font-size="13" lengthAdjust="spacing" textLength="191" x="184" y="277.0044">Notifies of changes or deletes</text></g><!--link OWS to OI--><g id="link_OWS_OI"><path d="M174,415.1795 C174,442.3305 174,488.0018 174,507.8732 " fill="none" id="OWS-to-OI" style="stroke:#181818;stroke-width:1.0;stroke-dasharray:7.0,7.0;"/><polygon fill="#181818" points="174,513.8732,178,504.8732,174,508.8732,170,504.8732,174,513.8732" style="stroke:#181818;stroke-width:1.0;"/><text fill="#000000" font-family="sans-serif" font-size="13" lengthAdjust="spacing" textLength="67" x="175" y="460.0044">Slaat op in</text></g><text fill="#888888" font-family="sans-serif" font-size="10" lengthAdjust="spacing" textLength="78" x="250" y="569.7148">OpenWoo.app</text><!--SRC=[RP4zJyCm48Pt_ufJEb26HkAZ0nagKGOK2P6A25NATdNEgTNKjcotW13_7RjfGWjuikzUF-zzUEbRWiLkrKfEbXJiKUsaXmfnupwS9zeoeRKdcq5XI2srJj4OjYQiVyVOnH64NXAO5htGTXkOuoV41gRmcbyoON5BaFmlJE2JGJXI1KE1F0WhJHims4Y52Q23aj3ojPEUO7I5Atx7sLTqBidkGmkkyxeTZFfuZpPMXvU3v5Xv_p61I2-MvJas3vKqzb1dHxuPo3-fdbsZnnKwwk3XRqtl7JSlph5pgvKQ9dCzC8_nly2JVS2uUbnU7ePHlJp0Y7EQ2X6vx6Guarg_gSaiEcSmfxqDHZMCxnTX1x7BFXyGMLSfaQqFgJITGP5dKBQ87hG9ws3HAKs3FWeoUDPU2aaEj02-HjN4guMQMlBalW40]--></g></svg>