<?xml version="1.0" encoding="us-ascii" standalone="no"?><svg xmlns="http://www.w3.org/2000/svg" xmlns:xlink="http://www.w3.org/1999/xlink" contentStyleType="text/css" height="335px" preserveAspectRatio="none" style="width:530px;height:335px;background:#FFFFFF;" version="1.1" viewBox="0 0 530 335" width="530px" zoomAndPan="magnify"><defs/><g><text fill="#888888" font-family="sans-serif" font-size="10" lengthAdjust="spacing" textLength="78" x="438" y="9.2822">OpenWoo.app</text><text fill="#000000" font-family="sans-serif" font-size="14" font-weight="bold" lengthAdjust="spacing" textLength="254" x="131" y="35.6357">Publiceren vanuit Zaaksysteem</text><!--cluster Publicatie platformen --><g id="cluster_Publicatie platformen "><rect fill="none" height="109" rx="2.5" ry="2.5" style="stroke:#181818;stroke-width:1.0;" width="198" x="7" y="56.9375"/><path d="M199,56.9375 L199,66.2344 L189,76.2344 L7,76.2344 " fill="none" style="stroke:#181818;stroke-width:1.0;"/><text fill="#000000" font-family="sans-serif" font-size="14" font-weight="bold" lengthAdjust="spacing" textLength="177" x="10" y="70.9326">Publicatie platformen</text></g><!--cluster Services--><g id="cluster_Services"><rect fill="none" height="87" rx="2.5" ry="2.5" style="stroke:#181818;stroke-width:1.0;" width="200" x="256" y="67.9375"/><path d="M333,67.9375 L333,77.2344 L323,87.2344 L256,87.2344 " fill="none" style="stroke:#181818;stroke-width:1.0;"/><text fill="#000000" font-family="sans-serif" font-size="14" font-weight="bold" lengthAdjust="spacing" textLength="67" x="259" y="81.9326">Services</text></g><!--cluster Integratie--><g id="cluster_Integratie"><rect fill="none" height="96" rx="2.5" ry="2.5" style="stroke:#181818;stroke-width:1.0;" width="134" x="168" y="214.9375"/><path d="M259,214.9375 L259,224.2344 L249,234.2344 L168,234.2344 " fill="none" style="stroke:#181818;stroke-width:1.0;"/><text fill="#000000" font-family="sans-serif" font-size="14" font-weight="bold" lengthAdjust="spacing" textLength="81" x="171" y="228.9326">Integratie</text></g><!--cluster Bronnen--><g id="cluster_Bronnen"><rect fill="none" height="96" rx="2.5" ry="2.5" style="stroke:#181818;stroke-width:1.0;" width="198" x="326" y="214.9375"/><path d="M403,214.9375 L403,224.2344 L393,234.2344 L326,234.2344 " fill="none" style="stroke:#181818;stroke-width:1.0;"/><text fill="#000000" font-family="sans-serif" font-size="14" font-weight="bold" lengthAdjust="spacing" textLength="67" x="329" y="228.9326">Bronnen</text></g><!--entity Searchsite--><g id="elem_Searchsite"><ellipse cx="110" cy="120.9375" fill="#1ABC9C" rx="8" ry="8" style="stroke:#181818;stroke-width:0.5;"/><text fill="#000000" font-family="sans-serif" font-size="14" lengthAdjust="spacing" textLength="89" x="65.5" y="150.9326">Zoek pagina</text></g><!--entity OWS--><g id="elem_OWS"><polygon fill="#1ABC9C" points="272,102.9375,430,102.9375,440,121.0859,430,139.2344,272,139.2344,282,121.0859" style="stroke:#181818;stroke-width:0.5;"/><text fill="#000000" font-family="sans-serif" font-size="14" lengthAdjust="spacing" textLength="128" x="292" y="125.9326">OpenWoo Service</text></g><!--entity OI--><g id="elem_OI"><path d="M184,259.9375 C184,249.9375 235,249.9375 235,249.9375 C235,249.9375 286,249.9375 286,259.9375 L286,285.2344 C286,295.2344 235,295.2344 235,295.2344 C235,295.2344 184,295.2344 184,285.2344 L184,259.9375 " fill="#1ABC9C" style="stroke:#181818;stroke-width:0.5;"/><path d="M184,259.9375 C184,269.9375 235,269.9375 235,269.9375 C235,269.9375 286,269.9375 286,259.9375 " fill="none" style="stroke:#181818;stroke-width:0.5;"/><text fill="#000000" font-family="sans-serif" font-size="14" lengthAdjust="spacing" textLength="82" x="194" y="286.9326">Open Index</text></g><!--entity ZRC--><g id="elem_ZRC"><path d="M342.5,259.9375 C342.5,249.9375 425,249.9375 425,249.9375 C425,249.9375 507.5,249.9375 507.5,259.9375 L507.5,285.2344 C507.5,295.2344 425,295.2344 425,295.2344 C425,295.2344 342.5,295.2344 342.5,285.2344 L342.5,259.9375 " fill="#CCE5FF" style="stroke:#181818;stroke-width:0.5;"/><path d="M342.5,259.9375 C342.5,269.9375 425,269.9375 425,269.9375 C425,269.9375 507.5,269.9375 507.5,259.9375 " fill="none" style="stroke:#181818;stroke-width:0.5;"/><text fill="#000000" font-family="sans-serif" font-size="14" lengthAdjust="spacing" textLength="145" x="352.5" y="286.9326">Zaaksysteem (ZGW)</text></g><!--entity IO--><g id="elem_IO"><ellipse cx="110" cy="272.4375" fill="#F1F1F1" rx="8" ry="8" style="stroke:#181818;stroke-width:0.5;"/><text fill="#000000" font-family="sans-serif" font-size="14" lengthAdjust="spacing" textLength="15" x="102.5" y="302.4326">IO</text></g><!--link OWS to ZRC--><g id="link_OWS_ZRC"><path d="M363.915,139.0875 C376.552,166.4675 398.7507,214.5637 412.5547,244.473 " fill="none" id="OWS-to-ZRC" style="stroke:#181818;stroke-width:1.0;"/><polygon fill="#181818" points="415.069,249.9208,414.9294,240.0729,412.9737,245.381,407.6657,243.4253,415.069,249.9208" style="stroke:#181818;stroke-width:1.0;"/><text fill="#000000" font-family="sans-serif" font-size="13" lengthAdjust="spacing" textLength="64" x="391" y="195.0044">Indexeerd</text></g><!--link OWS to OI--><g id="link_OWS_OI"><path d="M342.027,138.9795 C332.206,150.9745 318.771,167.4145 307,181.9375 C288.29,205.0205 270.7231,226.8723 256.1681,245.0187 " fill="none" id="OWS-to-OI" style="stroke:#181818;stroke-width:1.0;stroke-dasharray:7.0,7.0;"/><polygon fill="#181818" points="252.414,249.6991,261.1655,245.1812,255.5424,245.7987,254.9249,240.1757,252.414,249.6991" style="stroke:#181818;stroke-width:1.0;"/><text fill="#000000" font-family="sans-serif" font-size="13" lengthAdjust="spacing" textLength="67" x="308" y="195.0044">Slaat op in</text></g><!--link Searchsite to IO--><g id="link_Searchsite_IO"><path d="M110,129.9755 C110,155.9335 110,231.3454 110,257.36 " fill="none" id="Searchsite-to-IO" style="stroke:#181818;stroke-width:1.0;"/><polygon fill="#181818" points="110,263.36,114,254.36,110,258.36,106,254.36,110,263.36" style="stroke:#181818;stroke-width:1.0;"/><text fill="#000000" font-family="sans-serif" font-size="13" lengthAdjust="spacing" textLength="95" x="111" y="195.0044">Bevraagd (API)</text></g><text fill="#888888" font-family="sans-serif" font-size="10" lengthAdjust="spacing" textLength="78" x="219" y="325.2197">OpenWoo.app</text><!--SRC=[RP4xJyCm58Lt_ughTA0T6eb71p9KeWme4b8g8bGfsurparfDRCjs0mZntt6Q1otWpVVndUDZ9rnDi3tcjU1aI4AByYWSP8W7-s4TKSDAfHoP219DSgTKY5gpFM7nkyQk1X0wGQ1hTAKoZMVEdn4hMC5hl62bmOOW-7ymW4y6_WZf1KlaVZ1JT02DbP0O05f82GtVM-48PjUOytlElZhbb4phds1xhRj9QAoFQ6sKlra81kVZOW0TFTcbbzZOEwdCoMTFlft8FwsHNQ3372trSBzRqFl0ZI-n6wEad9AvcPX3_I_mx3zWdZtj5gSmifT7c75EgxBikAoplopKcrokkrxKMo0onQaLXcll98AqHdIWjC-PiRD0nzKuWGWsr1flhe3vmpPUV0C0]--></g></svg>