<?xml version="1.0" encoding="us-ascii" standalone="no"?><svg xmlns="http://www.w3.org/2000/svg" xmlns:xlink="http://www.w3.org/1999/xlink" contentStyleType="text/css" height="590px" preserveAspectRatio="none" style="width:534px;height:590px;background:#FFFFFF;" version="1.1" viewBox="0 0 534 590" width="534px" zoomAndPan="magnify"><defs/><g><text fill="#888888" font-family="sans-serif" font-size="10" lengthAdjust="spacing" textLength="78" x="442" y="9.2822">OpenWoo.app</text><text fill="#000000" font-family="sans-serif" font-size="14" font-weight="bold" lengthAdjust="spacing" textLength="254" x="133" y="35.6357">Publiceren vanuit Zaaksysteem</text><!--cluster Publicatie platformen --><g id="cluster_Publicatie platformen "><rect fill="none" height="109" rx="2.5" ry="2.5" style="stroke:#181818;stroke-width:1.0;" width="198" x="7" y="56.9375"/><path d="M199,56.9375 L199,66.2344 L189,76.2344 L7,76.2344 " fill="none" style="stroke:#181818;stroke-width:1.0;"/><text fill="#000000" font-family="sans-serif" font-size="14" font-weight="bold" lengthAdjust="spacing" textLength="177" x="10" y="70.9326">Publicatie platformen</text></g><!--cluster Services--><g id="cluster_Services"><rect fill="none" height="87" rx="2.5" ry="2.5" style="stroke:#181818;stroke-width:1.0;" width="200" x="185" y="333.9375"/><path d="M262,333.9375 L262,343.2344 L252,353.2344 L185,353.2344 " fill="none" style="stroke:#181818;stroke-width:1.0;"/><text fill="#000000" font-family="sans-serif" font-size="14" font-weight="bold" lengthAdjust="spacing" textLength="67" x="188" y="347.9326">Services</text></g><!--cluster Integratie--><g id="cluster_Integratie"><rect fill="none" height="96" rx="2.5" ry="2.5" style="stroke:#181818;stroke-width:1.0;" width="134" x="218" y="469.9375"/><path d="M309,469.9375 L309,479.2344 L299,489.2344 L218,489.2344 " fill="none" style="stroke:#181818;stroke-width:1.0;"/><text fill="#000000" font-family="sans-serif" font-size="14" font-weight="bold" lengthAdjust="spacing" textLength="81" x="221" y="483.9326">Integratie</text></g><!--cluster Bronnen--><g id="cluster_Bronnen"><rect fill="none" height="96" rx="2.5" ry="2.5" style="stroke:#181818;stroke-width:1.0;" width="198" x="246" y="63.4375"/><path d="M323,63.4375 L323,72.7344 L313,82.7344 L246,82.7344 " fill="none" style="stroke:#181818;stroke-width:1.0;"/><text fill="#000000" font-family="sans-serif" font-size="14" font-weight="bold" lengthAdjust="spacing" textLength="67" x="249" y="77.4326">Bronnen</text></g><!--entity Searchsite--><g id="elem_Searchsite"><ellipse cx="106" cy="120.9375" fill="#1ABC9C" rx="8" ry="8" style="stroke:#181818;stroke-width:0.5;"/><text fill="#000000" font-family="sans-serif" font-size="14" lengthAdjust="spacing" textLength="89" x="61.5" y="150.9326">Zoek pagina</text></g><!--entity OWS--><g id="elem_OWS"><polygon fill="#1ABC9C" points="201,368.9375,359,368.9375,369,387.0859,359,405.2344,201,405.2344,211,387.0859" style="stroke:#181818;stroke-width:0.5;"/><text fill="#000000" font-family="sans-serif" font-size="14" lengthAdjust="spacing" textLength="128" x="221" y="391.9326">OpenWoo Service</text></g><!--entity OI--><g id="elem_OI"><path d="M234,514.9375 C234,504.9375 285,504.9375 285,504.9375 C285,504.9375 336,504.9375 336,514.9375 L336,540.2344 C336,550.2344 285,550.2344 285,550.2344 C285,550.2344 234,550.2344 234,540.2344 L234,514.9375 " fill="#1ABC9C" style="stroke:#181818;stroke-width:0.5;"/><path d="M234,514.9375 C234,524.9375 285,524.9375 285,524.9375 C285,524.9375 336,524.9375 336,514.9375 " fill="none" style="stroke:#181818;stroke-width:0.5;"/><text fill="#000000" font-family="sans-serif" font-size="14" lengthAdjust="spacing" textLength="82" x="244" y="541.9326">Open Index</text></g><!--entity ZRC--><g id="elem_ZRC"><path d="M262.5,108.4375 C262.5,98.4375 345,98.4375 345,98.4375 C345,98.4375 427.5,98.4375 427.5,108.4375 L427.5,133.7344 C427.5,143.7344 345,143.7344 345,143.7344 C345,143.7344 262.5,143.7344 262.5,133.7344 L262.5,108.4375 " fill="#CCE5FF" style="stroke:#181818;stroke-width:0.5;"/><path d="M262.5,108.4375 C262.5,118.4375 345,118.4375 345,118.4375 C345,118.4375 427.5,118.4375 427.5,108.4375 " fill="none" style="stroke:#181818;stroke-width:0.5;"/><text fill="#000000" font-family="sans-serif" font-size="14" lengthAdjust="spacing" textLength="145" x="272.5" y="135.4326">Zaaksysteem (ZGW)</text></g><!--entity IO--><g id="elem_IO"><ellipse cx="106" cy="257.9375" fill="#F1F1F1" rx="8" ry="8" style="stroke:#181818;stroke-width:0.5;"/><text fill="#000000" font-family="sans-serif" font-size="14" lengthAdjust="spacing" textLength="15" x="98.5" y="287.9326">IO</text></g><!--link Searchsite to IO--><g id="link_Searchsite_IO"><path d="M105.34,130.0275 C104.273,144.0535 102.35,173.7945 103,198.9375 C103.458,216.6775 104.3141,231.4522 105.0481,242.6952 " fill="none" id="Searchsite-to-IO" style="stroke:#181818;stroke-width:1.0;"/><polygon fill="#181818" points="105.439,248.6825,108.8442,239.441,105.1133,243.6931,100.8612,239.9622,105.439,248.6825" style="stroke:#181818;stroke-width:1.0;"/><text fill="#000000" font-family="sans-serif" font-size="13" lengthAdjust="spacing" textLength="95" x="104" y="195.0044">Bevraagd (API)</text></g><!--link OWS to ZRC--><g id="link_OWS_ZRC"><path d="M275.338,368.4985 C260.326,339.0025 234.915,277.7105 253,228.9375 C265.861,194.2515 291.0604,167.2277 313.2574,147.6377 " fill="none" id="OWS-to-ZRC" style="stroke:#181818;stroke-width:1.0;"/><polygon fill="#181818" points="317.756,143.6675,308.3613,146.6238,314.0072,146.976,313.6549,152.6219,317.756,143.6675" style="stroke:#181818;stroke-width:1.0;"/><text fill="#000000" font-family="sans-serif" font-size="13" lengthAdjust="spacing" textLength="64" x="254" y="262.5044">Indexeerd</text></g><!--link ZRC to OWS--><g id="link_ZRC_OWS"><path d="M343.731,143.6015 C341.504,175.4345 335.846,236.5295 323,286.9375 C315.453,316.5515 304.1746,343.9134 295.4476,363.3404 " fill="none" id="ZRC-to-OWS" style="stroke:#181818;stroke-width:1.0;stroke-dasharray:7.0,7.0;"/><polygon fill="#181818" points="292.989,368.8135,300.3257,362.2429,295.0379,364.2526,293.0282,358.9647,292.989,368.8135" style="stroke:#181818;stroke-width:1.0;"/><text fill="#000000" font-family="sans-serif" font-size="13" lengthAdjust="spacing" textLength="191" x="335" y="262.5044">Notifies of changes or deletes</text></g><!--link OWS to OI--><g id="link_OWS_OI"><path d="M285,405.1985 C285,430.4335 285,471.3745 285,498.8563 " fill="none" id="OWS-to-OI" style="stroke:#181818;stroke-width:1.0;stroke-dasharray:7.0,7.0;"/><polygon fill="#181818" points="285,504.8563,289,495.8563,285,499.8563,281,495.8563,285,504.8563" style="stroke:#181818;stroke-width:1.0;"/><text fill="#000000" font-family="sans-serif" font-size="13" lengthAdjust="spacing" textLength="67" x="286" y="450.0044">Slaat op in</text></g><text fill="#888888" font-family="sans-serif" font-size="10" lengthAdjust="spacing" textLength="78" x="221" y="580.2197">OpenWoo.app</text><!--SRC=[RP5DJyCm38Rl-HLMTs0SLecF7UXX4kE0AY4sKQ59lNc9qqNhaYZ91WZntqdN3pOWfyHsdlUr7LIe2PRxTQquET9mGBrN0Kh4hV_mWMZ7f361N0OBItfbJ8hMiWsX-1rZ5nq8WoAmDGPft2uonq-85KpXDRzaqk6E8Fc_C85F1l4e7GKbybXO6jg2nKffJ00z58IERxmA1AChNFCxphuQvOBS8RRWMwtRGQYFzsZhJ7nvI3hd_SS46lfYLPnZy-YaSaUVBVbc8F-aUhR0W6lqrCBZNq7l7JS_nywTqNgOpFN0xE9_WIVxW77vkBey3gDyUO0HvpILik6oa-5CX7dJanda2yXWJWSNXGICxvTn1qsNVJuYijOfaHF7L9hEek4CYXenWB5n7QnHIjDOtnHay6o2aeey60byWxfghWu4rHJ8VmC0]--></g></svg>